<?xml version="1.0" encoding="utf-8"?>
<!-- Generator: Adobe Illustrator 16.0.0, SVG Export Plug-In . SVG Version: 6.00 Build 0)  -->
<!DOCTYPE svg PUBLIC "-//W3C//DTD SVG 1.1//EN" "http://www.w3.org/Graphics/SVG/1.1/DTD/svg11.dtd">
<svg version="1.1" id="vivala-icon-meus-pontos" xmlns="http://www.w3.org/2000/svg" xmlns:xlink="http://www.w3.org/1999/xlink"
	 x="0px" y="0px" width="14.722px" height="19.083px" viewBox="0 0 14.722 19.083" enable-background="new 0 0 14.722 19.083"
	 xml:space="preserve">
<g id="icon-meus-pontos">
	<path fill="none" d="M7.331,1.656c-3.13,0-5.679,2.549-5.679,5.677c0,3.13,2.549,5.679,5.679,5.679
		c3.147,0,5.698-2.549,5.698-5.679C13.029,4.205,10.458,1.656,7.331,1.656z M7.331,12.369c-2.765,0-5.035-2.271-5.035-5.036
		c0-2.763,2.25-5.034,5.035-5.034c2.784,0,5.034,2.271,5.034,5.034C12.365,10.098,10.093,12.369,7.331,12.369z"/>
	<path fill="#F3712C" d="M10.979,14.342v3.556c0,0.083-0.082,0.11-0.108,0.11c-0.029,0-0.056,0-0.082-0.027L8.03,15.5
		c-0.221-0.193-0.497-0.304-0.8-0.304c-0.274,0-0.578,0.11-0.799,0.304l-2.759,2.453c-0.053,0.055-0.108,0.027-0.164,0
		c-0.027-0.028-0.027-0.056-0.027-0.083v-3.556c-0.275-0.11-0.523-0.249-0.743-0.441L2.38,13.598v4.272
		c0,0.331,0.138,0.661,0.386,0.882c0.247,0.221,0.551,0.331,0.854,0.331c0.274,0,0.579-0.11,0.801-0.304l2.754-2.452
		c0.056-0.056,0.111-0.056,0.166,0l2.756,2.452c0.222,0.193,0.496,0.304,0.8,0.304c0.662,0,1.213-0.552,1.213-1.213v-4.272
		L11.725,13.9C11.503,14.094,11.255,14.231,10.979,14.342z"/>
	<path fill="#F3712C" d="M7.331,2.299c-2.785,0-5.035,2.271-5.035,5.034c0,2.765,2.271,5.036,5.035,5.036
		c2.762,0,5.034-2.271,5.034-5.036C12.365,4.57,10.115,2.299,7.331,2.299z"/>
	<path fill="#F3712C" d="M14.55,5.984L14.314,5.49c-0.021-0.063-0.043-0.105-0.043-0.17l-0.063-0.536
		c-0.043-0.406-0.216-0.795-0.494-1.071L13.35,3.327c-0.041-0.043-0.063-0.084-0.106-0.149l-0.214-0.472
		c-0.173-0.364-0.471-0.664-0.815-0.857l-0.469-0.235c-0.044-0.021-0.109-0.064-0.152-0.107l-0.363-0.385
		c-0.278-0.302-0.643-0.494-1.051-0.536L9.645,0.5c-0.063,0-0.106-0.021-0.173-0.064L9.001,0.2C8.636,0.006,8.23-0.036,7.822,0.028
		L7.288,0.135c-0.066,0.021-0.109,0.021-0.173,0L6.581,0.049C6.173-0.016,5.766,0.07,5.423,0.264L4.951,0.521
		C4.908,0.541,4.845,0.564,4.779,0.585L4.268,0.691C3.859,0.777,3.495,0.971,3.238,1.271L2.895,1.678
		C2.852,1.721,2.809,1.763,2.766,1.785l-0.47,0.257C1.951,2.235,1.673,2.557,1.522,2.92L1.31,3.413
		C1.288,3.478,1.245,3.52,1.225,3.563L0.88,3.97c-0.256,0.3-0.426,0.686-0.448,1.093L0.388,5.598c0,0.064-0.021,0.107-0.043,0.172
		L0.13,6.306C-0.02,6.67-0.04,7.098,0.066,7.483l0.149,0.515c0.022,0.064,0.022,0.106,0.022,0.171L0.195,8.705
		C0.173,9.112,0.281,9.52,0.518,9.84l0.299,0.45c0.043,0.044,0.063,0.106,0.063,0.15l0.151,0.513
		c0.104,0.387,0.343,0.729,0.664,0.987l0.429,0.321c0.043,0.043,0.086,0.085,0.129,0.129l0.299,0.45
		c0.236,0.342,0.558,0.577,0.943,0.706l0.514,0.172c0.063,0.021,0.106,0.043,0.15,0.086l0.43,0.32
		c0.319,0.235,0.707,0.364,1.09,0.364l0.578-0.021c0.066,0,0.109,0,0.172,0.021l0.515,0.173c0.172,0.063,0.365,0.085,0.56,0.085
		c0.211,0,0.426-0.043,0.619-0.106l0.493-0.193c0.063-0.022,0.106-0.022,0.173-0.043l0.534-0.021c0.407,0,0.793-0.15,1.115-0.406
		l0.405-0.344c0.043-0.043,0.108-0.064,0.152-0.086l0.491-0.193c0.386-0.148,0.707-0.406,0.921-0.748l0.278-0.451
		c0.022-0.043,0.065-0.085,0.108-0.129l0.405-0.343c0.322-0.257,0.537-0.621,0.622-1.007l0.13-0.514
		c0.021-0.064,0.041-0.106,0.064-0.173l0.278-0.449c0.211-0.342,0.299-0.75,0.256-1.155V7.848V7.676l0.127-0.514
		C14.766,6.776,14.722,6.349,14.55,5.984z M7.331,13.012c-3.13,0-5.679-2.549-5.679-5.679c0-3.128,2.549-5.677,5.679-5.677
		c3.127,0,5.698,2.549,5.698,5.677C13.029,10.463,10.479,13.012,7.331,13.012z"/>
</g>
</svg>
