<?xml version="1.0" encoding="utf-8"?>
<!-- Generator: Adobe Illustrator 16.0.0, SVG Export Plug-In . SVG Version: 6.00 Build 0)  -->
<!DOCTYPE svg PUBLIC "-//W3C//DTD SVG 1.1//EN" "http://www.w3.org/Graphics/SVG/1.1/DTD/svg11.dtd">
<svg version="1.1" id="vivala-icon-perfil-voluntario"
	 xmlns="http://www.w3.org/2000/svg" xmlns:xlink="http://www.w3.org/1999/xlink" x="0px" y="0px" width="18.272px"
	 height="20.153px" viewBox="0 0 18.272 20.153" enable-background="new 0 0 18.272 20.153" xml:space="preserve">
<path id="icon-perfil-voluntario" fill="#F3712C" d="M11.027,14.568c-1.123,0.804-0.942,1.545-1.002,2.488
	c-0.06,0.944-0.463,2.467-1.586,2.909c-1.142,0.421-3.892,0.22-4.854-1.485s1.404-2.606-0.039-5.517
	C2.964,11.8,2.441,10.437,1.197,8.852c-1.985-2.509-1.022-2.628-0.481-2.468C1.257,6.546,4.79,9.232,4.79,9.232
	s5.135-8.566,6.438-9.207c0.261-0.141,0.723,0.32,0.622,0.982c-0.1,0.663-0.862,2.188-1.426,3.09
	C9.884,5.001,8.781,7.466,8.861,7.669c0.08,0.2,0.481,0.121,0.923-0.522c0.441-0.642,3.512-4.795,3.811-5.096
	c0.322-0.3,0.924-0.461,1.304-0.179c0.401,0.28,0.563,0.621-0.24,1.764c-0.821,1.163-2.729,3.892-3.069,4.374
	c-0.32,0.462-0.742,1.324-0.461,1.184s1.846-1.464,2.447-1.966s3.189-2.447,3.713-2.668c0.521-0.22,0.922,0.061,0.981,0.481
	c0.08,0.422-1.425,1.946-2.808,2.969c-1.385,1.023-2.547,1.966-2.709,2.187c-0.162,0.222,0.082,0.321,0.562,0.142
	c0.483-0.181,3.491-1.246,3.872-1.325c0.402-0.099,1.003-0.039,0.843,0.502s-1.926,1.284-2.851,1.886
	C14.257,11.962,12.173,13.747,11.027,14.568"/>
</svg>
