<?xml version="1.0" encoding="utf-8"?>
<!-- Generator: Adobe Illustrator 16.0.0, SVG Export Plug-In . SVG Version: 6.00 Build 0)  -->
<!DOCTYPE svg PUBLIC "-//W3C//DTD SVG 1.1//EN" "http://www.w3.org/Graphics/SVG/1.1/DTD/svg11.dtd">
<svg version="1.1" id="vivala-icon-notificacao-ajuda"
	 xmlns="http://www.w3.org/2000/svg" xmlns:xlink="http://www.w3.org/1999/xlink" x="0px" y="0px" width="15.248px"
	 height="24.432px" viewBox="0 0 15.248 24.432" enable-background="new 0 0 15.248 24.432" xml:space="preserve">
<g id="icon-notificacao-ajuda">
	<path fill="#8DA6AD" d="M10.224,16.132H4.887V9.726h1.659c1.169,0,2.057-0.236,2.669-0.713c0.609-0.477,0.914-1.158,0.914-2.048
		c0-0.714-0.233-1.315-0.705-1.808c-0.471-0.49-1.047-0.736-1.729-0.736c-0.725,0-1.291,0.194-1.698,0.582
		c-0.409,0.389-0.64,0.954-0.691,1.699H0V6.639c0-2.018,0.719-3.627,2.156-4.832C3.593,0.602,5.522,0,7.941,0
		c2.192,0,3.958,0.636,5.298,1.908c1.338,1.271,2.009,2.942,2.009,5.011c0,1.728-0.463,3.133-1.388,4.22
		c-0.928,1.086-2.133,1.648-3.623,1.69L10.224,16.132z M4.22,21.282c0-0.88,0.305-1.624,0.915-2.233
		c0.609-0.61,1.354-0.916,2.233-0.916c0.89,0,1.631,0.304,2.226,0.907c0.595,0.604,0.894,1.354,0.894,2.242
		c0,0.888-0.301,1.637-0.898,2.241c-0.602,0.604-1.341,0.907-2.219,0.907c-0.869,0-1.61-0.306-2.226-0.915
		C4.527,22.906,4.22,22.161,4.22,21.282z"/>
</g>
</svg>
