<?xml version="1.0" encoding="utf-8"?>
<!-- Generator: Adobe Illustrator 16.0.0, SVG Export Plug-In . SVG Version: 6.00 Build 0)  -->
<!DOCTYPE svg PUBLIC "-//W3C//DTD SVG 1.1//EN" "http://www.w3.org/Graphics/SVG/1.1/DTD/svg11.dtd">
<svg version="1.1" id="vivala-icon-notificacao-usuario"
	 xmlns="http://www.w3.org/2000/svg" xmlns:xlink="http://www.w3.org/1999/xlink" x="0px" y="0px" width="16.162px"
	 height="20.742px" viewBox="0 0 16.162 20.742" enable-background="new 0 0 16.162 20.742" xml:space="preserve">
<g id="notificacao-usuario">
	<circle fill="#8DA6AD" cx="8.081" cy="4.92" r="4.92"/>
	<path fill="#8DA6AD" d="M14.086,11.816c-0.235-0.381-0.634-0.633-1.079-0.685c-1.646-0.187-3.305-0.283-4.926-0.283
		c-1.622,0-3.279,0.096-4.926,0.283c-0.445,0.052-0.844,0.304-1.078,0.685c-1.529,2.479-2.129,4.526-2.073,7.065
		c0.017,0.722,0.556,1.324,1.273,1.416c2.268,0.295,4.557,0.444,6.802,0.444c2.247,0,4.535-0.15,6.807-0.444
		c0.715-0.092,1.258-0.694,1.272-1.416C16.214,16.343,15.612,14.296,14.086,11.816z"/>
</g>
</svg>
