<?xml version="1.0" encoding="utf-8"?>
<!-- Generator: Adobe Illustrator 16.0.0, SVG Export Plug-In . SVG Version: 6.00 Build 0)  -->
<!DOCTYPE svg PUBLIC "-//W3C//DTD SVG 1.1//EN" "http://www.w3.org/Graphics/SVG/1.1/DTD/svg11.dtd">
<svg version="1.1" id="vivala-icon-porque-transformar"
	 xmlns="http://www.w3.org/2000/svg" xmlns:xlink="http://www.w3.org/1999/xlink" x="0px" y="0px" width="20.058px"
	 height="31.727px" viewBox="0 0 20.058 31.727" enable-background="new 0 0 20.058 31.727" xml:space="preserve">
<g id="porque-transformar">
	<circle fill="#F3712C" cx="10.235" cy="9.438" r="2.585"/>
	<path fill="#F3712C" d="M19.698,13.889c-0.469-0.455-1.217-0.445-1.674,0.023l-1.73,1.785l-3.098-2.188
		c-0.2-0.142-0.438-0.217-0.684-0.217H7.938c-0.199,0-0.395,0.051-0.568,0.146l-3.543,1.941l-1.791-1.867
		c-0.453-0.469-1.201-0.484-1.672-0.033c-0.473,0.453-0.486,1.201-0.033,1.673l2.418,2.519c0.371,0.385,0.951,0.475,1.42,0.217
		l3.047-1.672v14.328c0,0.652,0.401,1.182,1.055,1.182c0.652,0,1.055-0.529,1.055-1.182v-8.816h1.406v8.816
		c0,0.652,0.4,1.182,1.054,1.182s1.054-0.529,1.054-1.182V16.139l2.928,2.074c0.207,0.145,0.441,0.215,0.678,0.215
		c0.311,0,0.615-0.121,0.846-0.357l2.434-2.51C20.179,15.092,20.167,14.344,19.698,13.889z"/>
	<path fill="#F3712C" d="M16.472,1.879c0.818,0,1.178,0.39,1.178,0.853c0,1.031-2.196,1.24-2.196,3.002
		c0,0.524,0.179,0.987,0.495,1.329l1.643-0.478c-0.164-0.134-0.285-0.388-0.285-0.626c0-1.256,2.494-1.419,2.494-3.601
		C19.8,0.969,18.622,0,16.692,0c-1.283,0-2.479,0.506-3.271,1.448l1.21,1.36C15.095,2.238,15.724,1.879,16.472,1.879z"/>
	<path fill="#F3712C" d="M16.663,7.856c-0.658,0-1.21,0.552-1.21,1.21c0,0.656,0.552,1.209,1.21,1.209s1.21-0.554,1.21-1.209
		C17.873,8.408,17.321,7.856,16.663,7.856z"/>
</g>
</svg>
