<?xml version="1.0" encoding="utf-8"?>
<!-- Generator: Adobe Illustrator 16.0.0, SVG Export Plug-In . SVG Version: 6.00 Build 0)  -->
<!DOCTYPE svg PUBLIC "-//W3C//DTD SVG 1.1//EN" "http://www.w3.org/Graphics/SVG/1.1/DTD/svg11.dtd">
<svg version="1.1" id="vivala-icon-linha-do-tempo" xmlns="http://www.w3.org/2000/svg" xmlns:xlink="http://www.w3.org/1999/xlink"
	 x="0px" y="0px" width="18.22px" height="18.223px" viewBox="0 0 18.22 18.223" enable-background="new 0 0 18.22 18.223"
	 xml:space="preserve">
<g id="icon-linha-do-tempo">
	<path fill="none" d="M9.111,0.959c-4.508,0-8.152,3.645-8.152,8.152s3.644,8.153,8.152,8.153c4.506,0,8.152-3.646,8.152-8.153
		S13.617,0.959,9.111,0.959z M16.558,8.088C16.591,8.344,16.4,8.6,16.144,8.632H16.08c-0.256,0-0.447-0.192-0.48-0.415
		c-0.031-0.256,0.16-0.512,0.416-0.545C16.271,7.641,16.527,7.832,16.558,8.088z M15.376,5.851c0.256-0.097,0.543,0,0.639,0.255
		c0.096,0.256,0,0.512-0.256,0.639c-0.064,0.033-0.127,0.033-0.191,0.033c-0.191,0-0.383-0.096-0.447-0.287
		C15.025,6.234,15.121,5.979,15.376,5.851z M10.996,2.333c0.096-0.255,0.352-0.383,0.607-0.288c0.256,0.097,0.385,0.353,0.287,0.608
		c-0.063,0.192-0.254,0.319-0.447,0.319c-0.031,0-0.096-0.031-0.158-0.031C11.029,2.846,10.9,2.59,10.996,2.333z M9.62,1.598
		c0.256,0,0.481,0.257,0.45,0.512c-0.033,0.256-0.225,0.448-0.512,0.448c-0.256-0.032-0.48-0.256-0.447-0.512
		C9.111,1.791,9.365,1.598,9.62,1.598z M7.576,1.758c0.255-0.063,0.511,0.129,0.576,0.385c0.062,0.256-0.129,0.511-0.385,0.575
		H7.671c-0.224,0-0.416-0.16-0.48-0.384C7.128,2.079,7.288,1.823,7.576,1.758z M2.683,5.18c0.129-0.225,0.449-0.289,0.672-0.16
		c0.224,0.127,0.287,0.447,0.16,0.67C3.419,5.851,3.259,5.914,3.099,5.914c-0.096,0.033-0.16,0-0.256-0.063
		C2.621,5.723,2.556,5.436,2.683,5.18z M1.884,7.064c0.065-0.255,0.32-0.415,0.576-0.32C2.716,6.81,2.876,7.098,2.779,7.354
		C2.716,7.577,2.525,7.705,2.333,7.705c-0.033,0-0.095-0.033-0.129-0.033C1.949,7.609,1.788,7.354,1.884,7.064z M1.597,9.144
		c0-0.288,0.225-0.512,0.481-0.512c0.255,0,0.478,0.224,0.478,0.48c0,0.256-0.223,0.479-0.478,0.479
		C1.822,9.623,1.597,9.398,1.597,9.144z M2.365,11.541c-0.225-0.031-0.416-0.16-0.481-0.382c-0.062-0.256,0.065-0.513,0.32-0.577
		c0.256-0.064,0.512,0.064,0.608,0.321c0.064,0.256-0.065,0.51-0.32,0.606C2.46,11.509,2.396,11.541,2.365,11.541z M3.388,13.204
		c-0.064,0.03-0.16,0.063-0.256,0.063c-0.193,0-0.353-0.063-0.416-0.223c-0.127-0.225-0.064-0.512,0.16-0.672
		c0.223-0.128,0.512-0.064,0.67,0.16C3.675,12.755,3.611,13.044,3.388,13.204z M4.665,14.579c-0.095,0.095-0.222,0.16-0.351,0.16
		c-0.096,0-0.223-0.032-0.318-0.13c-0.194-0.191-0.194-0.479-0.034-0.67c0.192-0.193,0.481-0.193,0.672-0.032
		C4.826,14.097,4.826,14.386,4.665,14.579z M4.634,4.316C4.538,4.412,4.41,4.444,4.314,4.444c-0.127,0-0.256-0.032-0.352-0.16
		c-0.191-0.192-0.16-0.479,0.034-0.671c0.191-0.192,0.509-0.159,0.669,0.032C4.859,3.836,4.826,4.157,4.634,4.316z M5.626,2.461
		c0.223-0.127,0.51-0.031,0.639,0.193c0.127,0.223,0.031,0.511-0.191,0.639C6.009,3.325,5.913,3.355,5.849,3.355
		c-0.16,0-0.32-0.095-0.416-0.254C5.306,2.877,5.402,2.59,5.626,2.461z M6.328,15.601c-0.094,0.16-0.254,0.254-0.415,0.254
		c-0.097,0-0.16-0.03-0.224-0.063c-0.223-0.128-0.32-0.416-0.192-0.639c0.129-0.225,0.416-0.32,0.639-0.193
		C6.361,15.089,6.456,15.376,6.328,15.601z M7.703,16.464c-0.032,0.031-0.063,0-0.096,0c-0.256-0.064-0.416-0.32-0.383-0.576
		c0.064-0.256,0.318-0.416,0.576-0.383c0.254,0.064,0.414,0.319,0.383,0.575C8.152,16.304,7.927,16.464,7.703,16.464z M9.654,16.591
		H9.62c-0.255,0-0.478-0.191-0.478-0.447s0.191-0.479,0.447-0.512c0.256-0.031,0.481,0.192,0.512,0.448
		C10.132,16.335,9.91,16.56,9.654,16.591z M11.636,16.175c-0.064,0.033-0.096,0.033-0.16,0.033c-0.191,0-0.385-0.128-0.447-0.32
		c-0.096-0.256,0.031-0.512,0.287-0.606c0.256-0.097,0.512,0.032,0.607,0.288C12.019,15.825,11.89,16.081,11.636,16.175z
		 M11.923,5.467l-3.166,7.671c-0.063,0.16-0.192,0.256-0.352,0.289H8.279c-0.127,0-0.256-0.063-0.352-0.129l-2.173-2.174
		c-0.192-0.191-0.192-0.479,0-0.671c0.191-0.192,0.48-0.192,0.671,0l1.663,1.662l2.941-7.033c0.096-0.255,0.383-0.351,0.639-0.255
		C11.923,4.924,12.019,5.211,11.923,5.467z M12.753,3.07c0.16-0.224,0.449-0.256,0.672-0.128c0.225,0.16,0.256,0.447,0.129,0.671
		c-0.096,0.128-0.256,0.192-0.385,0.192c-0.096,0.031-0.191,0-0.287-0.064C12.658,3.581,12.626,3.293,12.753,3.07z M13.425,15.218
		c-0.096,0.063-0.191,0.096-0.287,0.096s-0.256-0.065-0.352-0.193c-0.16-0.223-0.096-0.512,0.096-0.67
		c0.225-0.16,0.512-0.096,0.672,0.096C13.714,14.769,13.65,15.058,13.425,15.218z M14.257,4.284c0.191-0.16,0.512-0.127,0.67,0.064
		c0.16,0.191,0.129,0.512-0.063,0.672c-0.096,0.063-0.191,0.096-0.32,0.096c-0.127,0.031-0.256-0.033-0.352-0.161
		C14.033,4.764,14.066,4.444,14.257,4.284z M14.96,13.843c-0.096,0.127-0.223,0.158-0.383,0.158c-0.098,0-0.225-0.031-0.289-0.095
		c-0.223-0.161-0.256-0.479-0.063-0.673c0.158-0.189,0.479-0.254,0.67-0.063C15.087,13.331,15.121,13.65,14.96,13.843z
		 M16.015,12.083c-0.064,0.194-0.256,0.289-0.447,0.289c-0.064,0-0.129,0-0.191-0.033c-0.256-0.095-0.352-0.384-0.256-0.638
		c0.096-0.256,0.383-0.353,0.639-0.256C16.015,11.541,16.111,11.829,16.015,12.083z M16.08,10.517c-0.031,0.033-0.031,0-0.064,0
		c-0.256-0.03-0.447-0.287-0.416-0.543c0.033-0.256,0.289-0.446,0.545-0.416c0.256,0.033,0.447,0.289,0.414,0.543
		C16.527,10.357,16.302,10.517,16.08,10.517z"/>
	<path fill="#F3712C" d="M11.667,4.828c-0.256-0.096-0.543,0-0.639,0.255l-2.941,7.033l-1.663-1.662
		c-0.191-0.192-0.48-0.192-0.671,0c-0.192,0.192-0.192,0.479,0,0.671l2.173,2.174c0.096,0.065,0.225,0.129,0.352,0.129h0.127
		c0.16-0.033,0.289-0.129,0.352-0.289l3.166-7.671C12.019,5.211,11.923,4.924,11.667,4.828z"/>
	<path fill="#F3712C" d="M2.204,7.672c0.034,0,0.096,0.033,0.129,0.033c0.192,0,0.383-0.128,0.446-0.351
		C2.876,7.098,2.716,6.81,2.46,6.745C2.204,6.649,1.949,6.81,1.884,7.064C1.788,7.354,1.949,7.609,2.204,7.672z"/>
	<path fill="#F3712C" d="M2.556,9.112c0-0.256-0.223-0.48-0.478-0.48c-0.256,0-0.481,0.224-0.481,0.512
		c0,0.255,0.225,0.479,0.481,0.448C2.333,9.591,2.556,9.368,2.556,9.112z"/>
	<path fill="#F3712C" d="M2.876,12.373c-0.224,0.16-0.287,0.447-0.16,0.672c0.063,0.159,0.223,0.223,0.416,0.223
		c0.096,0,0.192-0.033,0.256-0.063c0.223-0.159,0.287-0.448,0.158-0.671C3.388,12.308,3.099,12.245,2.876,12.373z"/>
	<path fill="#F3712C" d="M2.812,10.903c-0.096-0.257-0.352-0.386-0.608-0.321c-0.255,0.064-0.382,0.321-0.32,0.577
		c0.065,0.222,0.256,0.351,0.481,0.382c0.031,0,0.095-0.031,0.127-0.031C2.747,11.413,2.876,11.159,2.812,10.903z"/>
	<path fill="#F3712C" d="M3.962,13.939c-0.16,0.191-0.16,0.479,0.034,0.67c0.095,0.098,0.222,0.13,0.318,0.13
		c0.129,0,0.256-0.065,0.351-0.16c0.161-0.192,0.161-0.481-0.031-0.672C4.443,13.746,4.154,13.746,3.962,13.939z"/>
	<path fill="#F3712C" d="M7.671,2.718h0.096c0.256-0.064,0.447-0.319,0.385-0.575C8.087,1.887,7.831,1.695,7.576,1.758
		C7.288,1.823,7.128,2.079,7.191,2.333C7.255,2.558,7.447,2.718,7.671,2.718z"/>
	<path fill="#F3712C" d="M3.996,3.613C3.802,3.805,3.771,4.092,3.962,4.284c0.096,0.128,0.225,0.16,0.352,0.16
		c0.096,0,0.224-0.032,0.32-0.127c0.192-0.16,0.225-0.48,0.031-0.672C4.505,3.454,4.187,3.421,3.996,3.613z"/>
	<path fill="#F3712C" d="M15.568,6.778c0.064,0,0.127,0,0.191-0.033c0.256-0.127,0.352-0.383,0.256-0.639
		c-0.096-0.255-0.383-0.352-0.639-0.255c-0.256,0.128-0.352,0.384-0.256,0.64C15.185,6.682,15.376,6.778,15.568,6.778z"/>
	<path fill="#F3712C" d="M15.599,8.217c0.033,0.223,0.225,0.415,0.48,0.415h0.064C16.4,8.6,16.591,8.344,16.558,8.088
		c-0.031-0.256-0.287-0.447-0.543-0.416C15.759,7.705,15.568,7.961,15.599,8.217z"/>
	<path fill="#F3712C" d="M11.285,2.941c0.063,0,0.127,0.031,0.158,0.031c0.193,0,0.385-0.127,0.447-0.319
		c0.098-0.255-0.031-0.511-0.287-0.608c-0.256-0.095-0.512,0.033-0.607,0.288C10.9,2.59,11.029,2.846,11.285,2.941z"/>
	<path fill="#F3712C" d="M9.558,2.558c0.287,0,0.479-0.192,0.512-0.448c0.031-0.255-0.194-0.512-0.45-0.512
		c-0.255,0-0.509,0.193-0.509,0.448C9.078,2.302,9.302,2.525,9.558,2.558z"/>
	<path fill="#F3712C" d="M2.843,5.851c0.096,0.063,0.16,0.096,0.256,0.063c0.16,0,0.32-0.063,0.416-0.224
		c0.127-0.223,0.064-0.543-0.16-0.67C3.132,4.891,2.812,4.955,2.683,5.18C2.556,5.436,2.621,5.723,2.843,5.851z"/>
	<path fill="#F3712C" d="M16.144,9.558c-0.256-0.03-0.512,0.16-0.545,0.416c-0.031,0.256,0.16,0.513,0.416,0.543
		c0.033,0,0.033,0.033,0.064,0c0.223,0,0.447-0.16,0.479-0.416C16.591,9.847,16.4,9.591,16.144,9.558z"/>
	<path fill="#F3712C" d="M5.849,3.355c0.064,0,0.16-0.031,0.225-0.063c0.222-0.128,0.318-0.416,0.191-0.639
		C6.136,2.43,5.849,2.333,5.626,2.461C5.402,2.59,5.306,2.877,5.433,3.102C5.529,3.261,5.689,3.355,5.849,3.355z"/>
	<path fill="#F3712C" d="M12.882,14.451c-0.191,0.158-0.256,0.447-0.096,0.67c0.096,0.128,0.256,0.193,0.352,0.193
		s0.191-0.032,0.287-0.096c0.225-0.16,0.289-0.449,0.129-0.672C13.394,14.355,13.107,14.291,12.882,14.451z"/>
	<path fill="#F3712C" d="M13.169,3.805c0.129,0,0.289-0.064,0.385-0.192c0.127-0.224,0.096-0.511-0.129-0.671
		c-0.223-0.128-0.512-0.096-0.672,0.128c-0.127,0.223-0.096,0.511,0.129,0.671C12.978,3.805,13.074,3.836,13.169,3.805z"/>
	<path fill="#F3712C" d="M15.759,11.446c-0.256-0.097-0.543,0-0.639,0.256c-0.096,0.254,0,0.543,0.256,0.638
		c0.063,0.033,0.127,0.033,0.191,0.033c0.191,0,0.383-0.095,0.447-0.289C16.111,11.829,16.015,11.541,15.759,11.446z"/>
	<path fill="#F3712C" d="M14.226,13.234c-0.193,0.193-0.16,0.512,0.063,0.673c0.064,0.063,0.191,0.095,0.289,0.095
		c0.16,0,0.287-0.031,0.383-0.158c0.16-0.193,0.127-0.513-0.064-0.672C14.705,12.98,14.384,13.044,14.226,13.234z"/>
	<path fill="#F3712C" d="M14.544,5.116c0.129,0,0.225-0.033,0.32-0.096c0.191-0.16,0.223-0.481,0.063-0.672
		c-0.158-0.191-0.479-0.224-0.67-0.064s-0.225,0.48-0.064,0.671C14.289,5.083,14.417,5.146,14.544,5.116z"/>
	<path fill="#F3712C" d="M7.8,15.505c-0.258-0.033-0.512,0.127-0.576,0.383c-0.033,0.256,0.127,0.512,0.383,0.576
		c0.033,0,0.064,0.031,0.096,0c0.224,0,0.449-0.16,0.48-0.384C8.214,15.825,8.054,15.57,7.8,15.505z"/>
	<path fill="#F3712C" d="M6.136,14.96c-0.223-0.127-0.51-0.031-0.639,0.193c-0.128,0.223-0.031,0.511,0.192,0.639
		c0.064,0.032,0.127,0.063,0.224,0.063c0.161,0,0.321-0.094,0.415-0.254C6.456,15.376,6.361,15.089,6.136,14.96z"/>
	<path fill="#F3712C" d="M9.589,15.632c-0.256,0.032-0.447,0.256-0.447,0.512s0.223,0.447,0.478,0.447h0.034
		c0.256-0.031,0.478-0.256,0.447-0.511C10.07,15.825,9.845,15.601,9.589,15.632z"/>
	<path fill="#F3712C" d="M11.316,15.282c-0.256,0.095-0.383,0.351-0.287,0.606c0.063,0.192,0.256,0.32,0.447,0.32
		c0.064,0,0.096,0,0.16-0.033c0.254-0.095,0.383-0.351,0.287-0.605C11.828,15.314,11.572,15.185,11.316,15.282z"/>
	<path fill="#F3712C" d="M9.111,0C4.091,0,0,4.092,0,9.111c0,5.019,4.091,9.112,9.111,9.112c5.018,0,9.109-4.093,9.109-9.112
		C18.22,4.092,14.128,0,9.111,0z M9.111,17.264c-4.508,0-8.152-3.646-8.152-8.153s3.644-8.152,8.152-8.152
		c4.506,0,8.152,3.645,8.152,8.152S13.617,17.264,9.111,17.264z"/>
</g>
</svg>
