<?xml version="1.0" encoding="utf-8"?>
<!-- Generator: Adobe Illustrator 16.0.0, SVG Export Plug-In . SVG Version: 6.00 Build 0)  -->
<!DOCTYPE svg PUBLIC "-//W3C//DTD SVG 1.1//EN" "http://www.w3.org/Graphics/SVG/1.1/DTD/svg11.dtd">
<svg version="1.1" id="vivala-icon-cultura-brasileira"
	 xmlns="http://www.w3.org/2000/svg" xmlns:xlink="http://www.w3.org/1999/xlink" x="0px" y="0px" width="22.167px"
	 height="13.998px" viewBox="0 0 22.167 13.998" enable-background="new 0 0 22.167 13.998" xml:space="preserve">
<g id="icon-cultura-brasileira">
	<path fill="none" d="M6.286,5.706C5.311,5.468,4.16,5.754,3.858,6.83c-0.115,0.403,0.509,0.571,0.62,0.174
		c0.186-0.663,0.966-0.84,1.638-0.676C6.52,6.426,6.691,5.804,6.286,5.706z"/>
	<path fill="none" d="M5.909,4.889c0.403,0.091,0.575-0.528,0.169-0.62C4.783,3.981,3.352,4.278,2.396,5.247
		C2.104,5.542,2.56,6,2.853,5.703C3.644,4.901,4.837,4.65,5.909,4.889z"/>
	<path fill="none" d="M11.781,9.547c-1.277,0.854-3.887,1.501-5.427,1.728c-0.013,0.003-0.102,0.169-0.087,0.188
		c0.873,1.079,2.941,1.401,4.369,0.494c0.839-0.532,1.292-1.334,1.309-2.319C11.945,9.562,11.851,9.504,11.781,9.547z"/>
	<path fill="none" d="M10.986,4.425C10.398,4.207,9.757,4.165,9.257,4.6C9.038,4.793,8.873,5.113,8.83,5.4
		C8.768,5.805,9.387,5.98,9.451,5.573c0.026-0.179,0.083-0.294,0.185-0.438c0.269-0.378,0.831-0.215,1.18-0.086
		C11.206,5.193,11.372,4.569,10.986,4.425z"/>
	<path fill="none" d="M19.887,5.436c-1.003-0.194-2.056-0.288-2.894-0.937c-0.326-0.253-0.786,0.2-0.456,0.455
		c0.948,0.733,2.032,0.882,3.181,1.105C20.122,6.137,20.297,5.517,19.887,5.436z"/>
	<path fill="none" d="M18.837,6.583c-0.313,0.102-0.647-0.008-0.946-0.106c-0.088-0.03-0.169-0.072-0.249-0.112
		c-0.052-0.028-0.102-0.059-0.149-0.091c-0.096-0.057-0.089-0.143-0.107-0.013c0.057-0.407-0.563-0.582-0.623-0.172
		c-0.135,0.938,1.594,1.324,2.244,1.115C19.401,7.08,19.233,6.457,18.837,6.583z"/>
	<path fill="#F3712C" d="M11.321,2.232c0.012,0.139-0.055,0.279-0.229,0.326C10.354,2.75,9.534,2.997,8.908,3.444
		C7.149,4.696,9.341,7.667,10.393,8.63c0.126,0.116,0.126,0.338,0,0.454c-0.277,0.263-0.564,0.494-0.863,0.728
		c-0.326,0.253-0.785-0.198-0.458-0.454c0.214-0.166,0.419-0.337,0.62-0.51C8.504,7.652,6.969,5.331,7.808,3.7
		c0.544-1.053,2.051-1.485,3.115-1.763c0.146-0.04,0.259,0.019,0.33,0.112C10.984,1.356,10.677,0.676,10.305,0
		C9.39,1.582,6.554,2.199,5.021,2.429C3.357,2.679,1.672,2.569,0,2.476C0.775,8.027,4.112,14.63,10.583,13.949
		c3.197-0.705,2.205-5.739,1.759-7.997C12.083,4.641,11.763,3.414,11.321,2.232z M9.636,5.134c-0.102,0.145-0.158,0.26-0.185,0.438
		C9.387,5.98,8.768,5.805,8.83,5.4c0.043-0.287,0.208-0.606,0.427-0.8c0.5-0.436,1.142-0.394,1.729-0.175
		c0.386,0.144,0.22,0.768-0.171,0.623C10.467,4.919,9.904,4.756,9.636,5.134z M2.853,5.703C2.56,6,2.104,5.542,2.396,5.247
		c0.955-0.969,2.387-1.266,3.682-0.978c0.406,0.092,0.234,0.711-0.169,0.62C4.837,4.65,3.644,4.901,2.853,5.703z M6.116,6.328
		C5.444,6.164,4.664,6.34,4.479,7.003C4.367,7.401,3.743,7.233,3.858,6.83C4.16,5.754,5.311,5.468,6.286,5.706
		C6.691,5.804,6.52,6.426,6.116,6.328z M10.637,11.958c-1.428,0.907-3.496,0.585-4.369-0.494c-0.015-0.02,0.074-0.186,0.087-0.188
		c1.54-0.227,4.149-0.873,5.427-1.728c0.069-0.043,0.164,0.015,0.164,0.091C11.929,10.624,11.476,11.425,10.637,11.958z"/>
	<path fill="#F3712C" d="M22.103,1.5l-1.421,0.399c-6.466,1.822-8.114-0.804-8.502-0.587c-0.056,0.031-0.132,0.319-0.205,0.785
		C12.292,2.935,12.55,3.8,12.76,4.678c1.038-0.231,2.573-1.201,2.815,0.466c0.116,0.808,0.099,1.655-0.13,2.449
		c-0.133,0.453-0.285,0.926-0.539,1.332c-0.092,0.145,0.31,0.334,0.404,0.432c0.293,0.297-0.166,0.755-0.457,0.455
		c-0.217-0.221-0.807-0.34-0.704-0.78c0.209-0.857,0.76-1.545,0.828-2.484c0.043-0.558,0.065-2.323-0.983-1.645
		c-0.363,0.234-0.705,0.364-1.092,0.425c0.03,0.136,0.059,0.27,0.084,0.41c0.043,0.008,0.085,0.027,0.124,0.059
		c0.382,0.293,0.712,0.352,1.088,0.016c0.308-0.275,0.765,0.178,0.455,0.455c-0.272,0.243-0.635,0.487-1.021,0.438
		c-0.187-0.024-0.346-0.077-0.499-0.149c0.085,0.519,0.153,1.046,0.208,1.572c0.058,0.531,0.099,1.128,0.098,1.74
		c0.601-0.032,1.229,0.189,1.807,0.349c0.375,0.099,0.844,0.213,1.12,0.508c0.28,0.299,0.985,1.026,0.409,1.378
		c-0.073,0.045-0.147,0.054-0.211,0.042c-0.61,0.016-1.029-0.279-1.533-0.599c-0.398-0.251-0.837-0.445-1.316-0.472
		c-0.097-0.007-0.229,0.013-0.353,0.019c-0.075,0.594-0.214,1.171-0.444,1.68c0.504,0.811,1.196,1.287,2.14,1.196
		C23.331,13.184,22.103,1.5,22.103,1.5z M19.006,7.205c-0.65,0.209-2.379-0.177-2.244-1.115c0.06-0.41,0.68-0.235,0.623,0.172
		c0.019-0.13,0.012-0.044,0.107,0.013c0.048,0.032,0.098,0.063,0.149,0.091c0.08,0.04,0.161,0.082,0.249,0.112
		c0.299,0.099,0.633,0.208,0.946,0.106C19.233,6.457,19.401,7.08,19.006,7.205z M19.718,6.06c-1.148-0.224-2.232-0.372-3.181-1.105
		c-0.33-0.255,0.13-0.708,0.456-0.455c0.838,0.648,1.891,0.742,2.894,0.937C20.297,5.517,20.122,6.137,19.718,6.06z"/>
</g>
</svg>
