<?xml version="1.0" encoding="utf-8"?>
<!-- Generator: Adobe Illustrator 16.0.0, SVG Export Plug-In . SVG Version: 6.00 Build 0)  -->
<!DOCTYPE svg PUBLIC "-//W3C//DTD SVG 1.1//EN" "http://www.w3.org/Graphics/SVG/1.1/DTD/svg11.dtd">
<svg version="1.1" id="vivala-icon-ultimas-noticias"
	 xmlns="http://www.w3.org/2000/svg" xmlns:xlink="http://www.w3.org/1999/xlink" x="0px" y="0px" width="24.709px"
	 height="17.732px" viewBox="0 0 24.709 17.732" enable-background="new 0 0 24.709 17.732" xml:space="preserve">
<g id="icon-ultimas-noticias">
	<path fill="none" d="M15.147,1.714c-0.107-0.281-0.422-0.422-0.682-0.293L12.417,2.41l2.852-0.48L15.147,1.714z"/>
	<path fill="none" d="M21.388,2.283c-0.043,0-0.074,0.006-0.115,0.014l-3.955,0.669l-0.67,0.113l-0.664,0.114L7.958,4.546
		L5.556,4.953L5.067,5.041c-0.182,0.027-0.35,0.133-0.455,0.309c-0.02,0.025-0.041,0.053-0.055,0.087
		c-0.072,0.146-0.1,0.313-0.072,0.479l0.039,0.283l1.34,9.504c0.033,0.248,0.18,0.455,0.375,0.57c0.127,0.072,0.273,0.1,0.422,0.072
		l1.512-0.254l2.404-0.407l12.289-2.075c0.381-0.068,0.648-0.462,0.588-0.884L22.075,2.94C22.022,2.564,21.728,2.283,21.388,2.283z
		 M5.897,7.779L5.71,6.418l11.092-1.78l0.668-0.107l0.67-0.105l3.086-0.502l0.188,1.359l-2.557,0.406l-0.67,0.113l-0.67,0.102
		L5.897,7.779z M6.942,13.916L6.325,8.783l4.66-0.668l0.615,5.133L6.942,13.916z M11.755,7.886l4.363-0.696l0.086,0.676
		l-4.355,0.696L11.755,7.886z M11.956,9.371l4.357-0.701l0.086,0.683l-4.357,0.696L11.956,9.371z M12.155,10.851l4.357-0.697
		l0.088,0.676l-4.357,0.703L12.155,10.851z M15.655,12.496l-2.336,0.377l-0.883,0.141l-0.086-0.676l3.131-0.502l1.225-0.194
		l0.049,0.328l0.047,0.347L15.655,12.496z M16.835,7.062l1.225-0.193l0.67-0.106l0.668-0.108l1.801-0.287l0.088,0.676l-1.527,0.248
		l-0.67,0.106l-0.668,0.106l-1.494,0.24L16.835,7.062z M17.036,8.548l1.807-0.289l0.676-0.104l0.67-0.108l1.205-0.195l0.092,0.677
		l-0.943,0.155l-0.67,0.105l-0.668,0.109l-2.082,0.336L17.036,8.548z M17.237,10.033l2.234-0.359l0.643-0.102l0.623-0.1l0.855-0.141
		l0.088,0.684l-1.045,0.168L19.872,10.3l-1.799,0.289l-0.75,0.121L17.237,10.033z M18.013,12.117l-0.496,0.078l-0.072-0.555
		l-0.014-0.126l0.4-0.062l2.182-0.354l1.775-0.282l0.094,0.678L18.013,12.117z"/>
	<path fill="none" d="M1.56,7.625C1.312,7.744,1.192,8.052,1.286,8.333l3.031,5.383L3.341,6.768L1.56,7.625z"/>
	<path fill="#F3712C" d="M24.685,12.518l-1.377-9.787c-0.154-1.143-1.152-1.974-2.223-1.794l-4.479,0.764l-0.328-0.589
		C15.983,0.436,15.362,0,14.679,0c-0.248,0-0.488,0.06-0.709,0.167L7.61,3.22L4.88,3.683C4.364,3.77,3.909,4.07,3.601,4.539
		C3.446,4.767,3.333,5.033,3.272,5.3L1.058,6.367C0.167,6.794-0.241,7.94,0.147,8.916l4.316,7.651
		c0.295,0.677,0.918,1.11,1.602,1.11h0.059c0.135,0.033,0.281,0.055,0.428,0.055c0.102,0,0.201-0.007,0.303-0.027L23.06,14.96
		C24.124,14.779,24.854,13.683,24.685,12.518z M1.286,8.333C1.192,8.052,1.312,7.744,1.56,7.625l1.781-0.856l0.977,6.948
		L1.286,8.333z M14.466,1.421c0.26-0.129,0.574,0.012,0.682,0.293l0.121,0.216l-2.852,0.48L14.466,1.421z M22.866,13.609
		l-12.289,2.075l-2.404,0.407l-1.512,0.254c-0.148,0.027-0.295,0-0.422-0.072c-0.195-0.115-0.342-0.322-0.375-0.57l-1.34-9.504
		L4.485,5.916c-0.027-0.166,0-0.334,0.072-0.479c0.014-0.034,0.035-0.062,0.055-0.087c0.105-0.176,0.273-0.281,0.455-0.309
		l0.488-0.088l2.402-0.406l8.025-1.354l0.664-0.114l0.67-0.113l3.955-0.669c0.041-0.008,0.072-0.014,0.115-0.014
		c0.34,0,0.635,0.281,0.688,0.657l1.379,9.785C23.515,13.147,23.247,13.541,22.866,13.609z"/>
	<polygon fill="#F3712C" points="19.872,8.789 20.542,8.683 21.485,8.528 21.394,7.851 20.188,8.046 19.519,8.155 18.843,8.259 
		17.036,8.548 17.122,9.234 19.204,8.898 	"/>
	<polygon fill="#F3712C" points="19.089,7.397 19.759,7.291 21.286,7.042 21.198,6.367 19.397,6.654 18.729,6.762 18.06,6.869 
		16.835,7.062 16.927,7.744 18.421,7.503 	"/>
	<polygon fill="#F3712C" points="18.187,5.802 18.856,5.689 21.413,5.283 21.226,3.923 18.14,4.425 17.47,4.531 16.802,4.638 
		5.71,6.418 5.897,7.779 17.517,5.904 	"/>
	<polygon fill="#F3712C" points="19.872,10.3 20.636,10.183 21.681,10.015 21.593,9.332 20.737,9.472 20.114,9.572 19.472,9.673 
		17.237,10.033 17.323,10.71 18.073,10.589 	"/>
	<polygon fill="#F3712C" points="20.013,11.098 17.831,11.453 17.444,11.64 17.517,12.195 18.013,12.117 21.882,11.494 
		21.788,10.816 	"/>
	<polygon fill="#F3712C" points="17.431,11.514 17.444,11.64 17.831,11.453 	"/>
	<polygon fill="#F3712C" points="16.513,10.154 12.155,10.851 12.243,11.533 16.601,10.83 	"/>
	<polygon fill="#F3712C" points="16.313,8.669 11.956,9.371 12.042,10.048 16.399,9.352 	"/>
	<polygon fill="#F3712C" points="16.118,7.19 11.755,7.886 11.849,8.562 16.204,7.866 	"/>
	<polygon fill="#F3712C" points="16.706,11.641 15.481,11.835 12.351,12.337 12.437,13.013 13.319,12.873 15.655,12.496 
		16.802,12.316 16.755,11.969 	"/>
	<polygon fill="#F3712C" points="6.325,8.783 6.942,13.916 11.601,13.248 10.985,8.115 	"/>
</g>
</svg>
