<?xml version="1.0" encoding="utf-8"?>
<!-- Generator: Adobe Illustrator 16.0.0, SVG Export Plug-In . SVG Version: 6.00 Build 0)  -->
<!DOCTYPE svg PUBLIC "-//W3C//DTD SVG 1.1//EN" "http://www.w3.org/Graphics/SVG/1.1/DTD/svg11.dtd">
<svg version="1.1" id="vivala-icon-buscas-recentes"
	 xmlns="http://www.w3.org/2000/svg" xmlns:xlink="http://www.w3.org/1999/xlink" x="0px" y="0px" width="14.075px"
	 height="14.074px" viewBox="0 0 14.075 14.074" enable-background="new 0 0 14.075 14.074" xml:space="preserve">
<path id="icon-buscas-recentes" fill="#F3712C" d="M12.604,1.47C11.657,0.522,10.396,0,9.056,0s-2.6,0.521-3.549,1.47
	C4.561,2.417,4.036,3.678,4.038,5.019c0,0.792,0.188,1.556,0.533,2.244l-4.108,4.106c-0.617,0.62-0.617,1.622,0,2.242
	c0.31,0.309,0.716,0.463,1.122,0.463s0.812-0.154,1.121-0.463l4.105-4.107c0.689,0.346,1.452,0.532,2.244,0.533
	c1.341,0,2.602-0.522,3.548-1.471c0.95-0.947,1.472-2.209,1.472-3.548C14.075,3.678,13.553,2.418,12.604,1.47 M9.056,7.924
	c-0.773,0-1.505-0.303-2.055-0.852c-0.549-0.549-0.85-1.278-0.85-2.054c0-0.776,0.301-1.506,0.85-2.055
	c0.55-0.549,1.279-0.851,2.055-0.851c0.777,0,1.507,0.302,2.057,0.851c0.549,0.549,0.85,1.278,0.85,2.055s-0.301,1.506-0.85,2.054
	C10.563,7.622,9.833,7.924,9.056,7.924"/>
</svg>
