<?xml version="1.0" encoding="utf-8"?>
<!-- Generator: Adobe Illustrator 16.0.0, SVG Export Plug-In . SVG Version: 6.00 Build 0)  -->
<!DOCTYPE svg PUBLIC "-//W3C//DTD SVG 1.1//EN" "http://www.w3.org/Graphics/SVG/1.1/DTD/svg11.dtd">
<svg version="1.1" id="vivala-icon-mapa-do-bem" xmlns="http://www.w3.org/2000/svg" xmlns:xlink="http://www.w3.org/1999/xlink"
	 x="0px" y="0px" width="31.815px" height="15.01px" viewBox="0 0 31.815 15.01" enable-background="new 0 0 31.815 15.01"
	 xml:space="preserve">
<g id="icon-mapa-do-bem">
	<path fill="none" d="M18.032,5.397l-2.124-0.61L0.664,9.169l15.244,5.624l15.246-5.624l-9.213-2.648
		c-0.387,0.306-0.811,0.634-1.286,1.002C19.542,6.661,18.691,6.004,18.032,5.397z M7.014,11.404C6.981,11.39,6.76,11.31,6.76,11.31
		l1.367-0.672l0.243,0.105C8.37,10.744,7.049,11.414,7.014,11.404z M9.193,10.457c-0.03-0.021-0.218-0.161-0.218-0.161l1.501-0.258
		l0.204,0.169C10.681,10.207,9.224,10.478,9.193,10.457z M11.657,10.07c-0.026-0.025-0.189-0.18-0.189-0.18l1.455-0.076l0.175,0.182
		C13.098,9.996,11.684,10.091,11.657,10.07z M14.1,9.81l-0.224-0.139c0,0,1.379-0.461,1.412-0.446
		c0.03,0.017,0.233,0.128,0.233,0.128L14.1,9.81z M16.209,9.113l-0.224-0.139c0,0,1.379-0.463,1.412-0.447
		c0.031,0.018,0.233,0.127,0.233,0.127L16.209,9.113z M18.336,8.408l-0.194-0.121c0,0,1.211-0.408,1.237-0.393
		c0.026,0.014,0.207,0.111,0.207,0.111L18.336,8.408z"/>
	<path fill="#F3712C" d="M22.142,6.361c-0.065,0.053-0.132,0.106-0.2,0.16l9.213,2.648l-15.246,5.624L0.664,9.169l15.244-4.383
		l2.124,0.61c-0.113-0.104-0.227-0.21-0.329-0.313l-1.795-0.517L0,9.144l15.908,5.866l15.907-5.866L22.142,6.361z"/>
	<path fill="#F3712C" d="M6.76,11.31c0,0,0.222,0.08,0.254,0.094c0.035,0.01,1.356-0.66,1.356-0.66l-0.243-0.105L6.76,11.31z"/>
	<path fill="#F3712C" d="M8.976,10.295c0,0,0.188,0.14,0.218,0.161s1.487-0.25,1.487-0.25l-0.204-0.169L8.976,10.295z"/>
	<path fill="#F3712C" d="M11.468,9.89c0,0,0.163,0.154,0.189,0.18c0.026,0.021,1.44-0.074,1.44-0.074l-0.175-0.182L11.468,9.89z"/>
	<path fill="#F3712C" d="M13.876,9.671L14.1,9.81l1.422-0.457c0,0-0.203-0.111-0.233-0.128C15.255,9.21,13.876,9.671,13.876,9.671z"
		/>
	<path fill="#F3712C" d="M15.985,8.974l0.224,0.139l1.422-0.459c0,0-0.202-0.109-0.233-0.127
		C17.364,8.511,15.985,8.974,15.985,8.974z"/>
	<path fill="#F3712C" d="M18.142,8.287l0.194,0.121l1.25-0.402c0,0-0.181-0.098-0.207-0.111C19.353,7.878,18.142,8.287,18.142,8.287
		z"/>
	<path fill="#F3712C" d="M24.579,3.841c0.943-1.668,0.371-3.081-0.821-3.634c-1.119-0.519-2.584-0.03-3.103,1.086
		c-0.519-1.116-1.983-1.605-3.104-1.086c-1.191,0.553-1.764,1.966-0.82,3.634c0.247,0.438,0.565,0.835,0.972,1.243l4.438,1.276
		C23.323,5.418,24.092,4.707,24.579,3.841z"/>
	<path fill="#F3712C" d="M20.655,7.523c0.476-0.368,0.899-0.696,1.286-1.002l-3.909-1.124C18.691,6.004,19.542,6.661,20.655,7.523z"
		/>
	<path fill="#F3712C" d="M18.032,5.397l3.909,1.124c0.068-0.054,0.135-0.107,0.2-0.16l-4.438-1.276
		C17.806,5.187,17.919,5.292,18.032,5.397z"/>
</g>
</svg>
