<?xml version="1.0" encoding="utf-8"?>
<!-- Generator: Adobe Illustrator 16.0.0, SVG Export Plug-In . SVG Version: 6.00 Build 0)  -->
<!DOCTYPE svg PUBLIC "-//W3C//DTD SVG 1.1//EN" "http://www.w3.org/Graphics/SVG/1.1/DTD/svg11.dtd">
<svg version="1.1" id="vivala-icon-notificacao-brasil"
	 xmlns="http://www.w3.org/2000/svg" xmlns:xlink="http://www.w3.org/1999/xlink" x="0px" y="0px" width="24.34px"
	 height="25.551px" viewBox="0 0 24.34 25.551" enable-background="new 0 0 24.34 25.551" xml:space="preserve">
<path id="icon-notificacao-brasil" fill="#8DA6AD" d="M23.436,6.424c-0.598-0.055-0.996-0.455-1.266-0.711
	c-0.268-0.255-1.021-0.705-1.195-0.711c-0.178-0.006-0.68,0.311-1.281-0.029c-0.602-0.341-0.971-0.237-1.116-0.134
	s-0.347,0.364-0.334,0.163c0.012-0.199,0.151-0.272,0.151-0.328c0-0.054-0.27-0.49-0.396-0.497
	c-0.127-0.007-0.193,0.078-0.311-0.042c-0.113-0.122-0.941-0.457-1.313-0.449c-0.367,0.006-0.688,0.491-0.793,0.533
	c-0.104,0.043-0.277,0.049-0.184,0.024c0.098-0.024,0.33-0.37,0.408-0.565c0.077-0.193-0.101-0.271-0.23-0.279
	c-0.135-0.005-0.498-0.297-0.605-0.339c-0.111-0.042-0.272,0.115-0.396,0.157c-0.121,0.043-0.365,0.152-0.346,0.055
	c0.018-0.097,0.332-0.364,0.467-0.425c0.135-0.06,0.193-0.177,0.229-0.273c0.037-0.097,0.021-0.359-0.047-0.377
	c-0.067-0.017-0.33-0.181-0.383-0.248c-0.056-0.068-0.315-0.735-0.315-0.9c0-0.163-0.087-0.521-0.222-0.521
	c-0.131,0-0.301,0.388-0.394,0.552c-0.092,0.164-0.194,0.504-0.334,0.705c-0.141,0.2-0.492,0.03-0.59,0.03
	c-0.096,0-0.314,0.121-0.447,0.121c-0.134,0-0.274-0.188-0.383-0.248c-0.109-0.061-0.413,0.085-0.56,0.085
	c-0.146,0-0.097,0.139-0.061,0.28c0.037,0.139-0.443,0.107-0.691,0.012c-0.25-0.098-0.323,0.132-0.59,0.205
	c-0.267,0.074-0.4,0.256-0.497,0.25c-0.097-0.006-0.51-0.147-0.522-0.304c-0.01-0.157-0.235-0.419-0.235-0.687
	c0-0.266,0.126-0.478,0.218-0.631C8.964,0.746,8.753,0.546,8.727,0.51C8.703,0.474,8.648,0.163,8.629,0.072
	C8.611-0.018,8.333,0.006,8.241,0C8.149-0.006,8.272,0.205,8.253,0.231C8.235,0.254,8.09,0.443,7.943,0.437
	C7.798,0.43,7.579,0.655,7.421,0.668C7.264,0.68,6.979,0.697,6.96,0.783c-0.018,0.084-0.079,0.334-0.2,0.164
	C6.638,0.778,6.432,0.82,6.316,0.82c-0.116,0-0.528-0.158-0.594-0.158s0.042,0.127,0.176,0.224c0.134,0.098,0.141,0.261,0.141,0.396
	c0,0.133,0.104,0.218,0.104,0.358c0,0.17,0.405,0.03,0.405,0.152c0,0.121-0.188,0.262-0.339,0.262c-0.152,0-0.062,0.32-0.287,0.32
	c-0.224,0-0.467,0.274-0.594,0.395C5.199,2.89,5.284,2.635,5.103,2.647C4.921,2.658,4.866,2.945,4.671,2.719
	C4.478,2.496,4.337,2.543,4.265,2.543c-0.073,0,0.006-0.187-0.057-0.369C4.149,1.991,4.101,1.937,4.016,1.93
	C3.93,1.924,3.857,2.082,3.766,2.082c-0.09,0-0.072-0.043-0.176-0.043c-0.103,0-0.285,0.164-0.474,0.164H2.527v0.268
	c-0.006,0.103,0.018,0.121,0.17,0.121c0.311,0,0.261,0.207,0.261,0.207c0,0.11-0.153,0.045-0.296,0.048
	C2.536,2.852,2.419,2.926,2.419,2.969c0,0.092-0.013,0.303-0.013,0.382s0.279,0.268,0.279,0.371C2.685,3.824,2.8,3.91,2.8,4.026
	c0,0.114-0.139,0.8-0.225,1.275c-0.085,0.473-0.073,0.68-0.2,0.68S2.242,5.86,2.054,5.853s-0.17,0.152-0.455,0.17
	C1.314,6.041,0.863,6.278,0.712,6.394c-0.151,0.115-0.109,0.43-0.2,0.497C0.421,6.958,0.433,7.188,0.463,7.225
	c0.031,0.037-0.023,0.17-0.206,0.213c-0.183,0.043-0.03,0.218-0.163,0.406c-0.134,0.189-0.109,0.17-0.02,0.293
	C0.165,8.258,0.19,8.476,0.426,8.688c0.237,0.214,0.056,0.401,0.056,0.401S0.238,9.126,0.676,9.156
	c0.438,0.031,0.42,0.387,0.42,0.387l0.59-0.037l0.388-0.295c0.043,0.002-0.033,0.813-0.038,0.861
	c-0.006,0.049,0.061,0.104,0.146,0.098s0.146-0.048,0.212-0.054c0.066-0.006,0.371,0.006,0.564,0.006
	c0.195,0,0.237,0.085,0.353,0.085c0.116,0,0.207-0.103,0.304-0.201c0.098-0.098,0.17-0.072,0.243-0.103
	C3.93,9.873,4.003,9.758,4.16,9.728c0.158-0.031,0.164-0.104,0.274-0.164C4.544,9.502,4.846,9.4,4.98,9.4s0.226-0.043,0.298-0.062
	C5.351,9.32,5.351,9.551,5.345,9.642C5.339,9.733,5.278,9.758,5.278,9.885c0,0.127,0.072,0.231,0.066,0.334
	c-0.006,0.104,0.019,0.225,0.085,0.389c0.066,0.164,0.278,0.273,0.383,0.4c0.103,0.128,0.467,0.08,0.559,0.08
	c0.089,0,0.328,0.139,0.468,0.272c0.14,0.134,0.193,0.109,0.388,0.207c0.194,0.097,0.407,0.2,0.649,0.2
	c0.244,0,0.322,0.139,0.412,0.169c0.093,0.031,0.074,0.201,0.068,0.316c-0.006,0.116,0.078,0.219,0.091,0.346
	c0.013,0.128,0.013,0.17-0.066,0.164c-0.079-0.006-0.024,0.135,0.024,0.165c0.049,0.03,0.109,0.237,0.103,0.431
	c-0.007,0.195,0.044,0.213,0.044,0.213s1.11-0.006,1.152,0c0.042,0.007-0.103,0.195-0.108,0.419
	c-0.007,0.225,0.188,0.327,0.352,0.321c0.164-0.006,0.177,0.354,0.218,0.476c0.043,0.121-0.084,0.235-0.096,0.375
	c-0.012,0.141-0.158,0.491-0.195,0.562c-0.035,0.065-0.035,0.108-0.018,0.108s0.055,0.146,0.018,0.211
	C9.84,16.109,9.869,16.217,9.9,16.327c0.029,0.11,0.073,0.151,0.085,0.315c0.012,0.164-0.079,0.433-0.085,0.504
	c-0.007,0.074-0.014,0.23,0.152,0.23c0.162,0,0.29,0.129,0.467,0.123c0.176-0.006,0.236-0.152,0.31-0.152
	c0.074,0,0.243,0.176,0.376,0.168c0.133-0.006,0.213,0.537,0.207,0.754c-0.006,0.22,0.097,0.383,0.2,0.377
	c0.104-0.006,0.22-0.092,0.376-0.108c0.158-0.019,0.219,0.219,0.219,0.377s-0.158,0.637-0.188,0.776
	c-0.031,0.14,0.188,0.023,0.268,0.019c0.078-0.006,0.157,0.14,0.21,0.328c0.057,0.188,0.068,0.231,0.075,0.485
	c0.005,0.254-0.274,0.449-0.462,0.484c-0.188,0.037-0.796,0.535-0.947,0.725c-0.152,0.188-1.075,1.256-1.075,1.256
	s0.157,0.056,0.25,0.056c0.089,0,0.158-0.09,0.297-0.099c0.14-0.004,0.285,0.23,0.431,0.47c0.144,0.235,0.128,0.183,0.188,0.164
	c0.061-0.019,0.128-0.024,0.248,0.071c0.121,0.099,0.226,0.23,0.486,0.279c0.26,0.049,0.092,0.201,0.353,0.316
	c0.261,0.113,0.273,0.43,0.388,0.486c0.117,0.053,0.312,0.022,0.349-0.063c0.036-0.084,0.151-0.31,0.146-0.188
	c-0.007,0.123-0.007,0.316-0.037,0.4c-0.029,0.086-0.107,0.072-0.211,0.066c-0.104-0.006-0.228,0.201-0.228,0.305
	s-0.006,0.297,0.073,0.297c0.078,0,0.183-0.072,0.279-0.182c0.096-0.11,0.303-0.553,0.326-0.668
	c0.025-0.115,0.193-0.225,0.236-0.272c0.125-0.144,0.25-0.31,0.209-0.286c-0.043,0.025-0.377,0.334-0.385,0.226
	c-0.006-0.109,0.061-0.199,0.146-0.363c0.084-0.166,0.188-0.305,0.304-0.479c0.116-0.178,0.235-0.433,0.34-0.443
	c0.104-0.012,0.08,0.273,0.024,0.406c-0.057,0.135-0.315,0.4-0.248,0.408c0.066,0.004,0.171-0.117,0.326-0.336
	c0.158-0.22,0.238-0.242,0.371-0.49c0.135-0.25,0.705-1.076,0.795-1.148c0.093-0.072,0.177-0.377,0.22-0.486
	c0.043-0.108,0-0.479,0-0.479s-0.048-0.256-0.048-0.391c0-0.133,0.021-0.066,0.021-0.334c0-0.267,0.025-0.304,0.019-0.437
	c-0.004-0.135,0.144-0.213,0.295-0.377c0.15-0.164,0.632-0.498,0.873-0.597c0.244-0.096,0.438-0.313,0.619-0.319
	c0.183-0.008,0.256,0.108,0.256,0.013c0-0.098,0.14-0.158,0.214-0.22c0.071-0.062,0.182-0.151,0.176-0.25
	c-0.006-0.096,0.242-0.071,0.338-0.086c0.098-0.01,0.203,0.024,0.387,0.024c0.18,0,0.611-0.018,0.75-0.024
	c0.143-0.004,0.178,0.021,0.195-0.09c0.017-0.11,0.065-0.158,0.205-0.304c0.141-0.146,0.092-0.055,0.299-0.188
	c0.205-0.133,0.078-0.285,0.072-0.405c-0.007-0.121,0.227-0.39,0.377-0.539c0.151-0.154,0.014-0.13,0.241-0.476
	c0.232-0.347,0.189-0.603,0.189-0.729s0.114-0.401,0.225-0.547c0.109-0.146,0.107-0.352,0.104-0.582
	c-0.008-0.229,0.084-0.529,0.17-0.645c0.084-0.115,0-0.267-0.02-0.545c-0.019-0.281,0.014-0.997,0.02-1.228
	c0.004-0.128,0.156-0.22,0.152-0.238c-0.009-0.017-0.123-0.175-0.074-0.212c0.049-0.036,0.168,0.043,0.188,0.117
	c0.019,0.072,0.134-0.008,0.267-0.128c0.135-0.122,0.492-0.778,0.619-0.972c0.127-0.193,0.399-0.437,0.692-0.754
	c0.289-0.314,0.638-0.746,0.733-1.256c0.097-0.51-0.194-1.184-0.207-1.318C24.104,6.789,24.027,6.479,23.436,6.424"/>
</svg>
