<?xml version="1.0" encoding="utf-8"?>
<!-- Generator: Adobe Illustrator 16.0.0, SVG Export Plug-In . SVG Version: 6.00 Build 0)  -->
<!DOCTYPE svg PUBLIC "-//W3C//DTD SVG 1.1//EN" "http://www.w3.org/Graphics/SVG/1.1/DTD/svg11.dtd">
<svg version="1.1" id="vivala-icon-montar-viagem" xmlns="http://www.w3.org/2000/svg" xmlns:xlink="http://www.w3.org/1999/xlink"
	 x="0px" y="0px" width="19.915px" height="10.889px" viewBox="0 0 19.915 10.889" enable-background="new 0 0 19.915 10.889"
	 xml:space="preserve">
<g id="icon-montar-viagem">
	<circle fill="none" cx="16.464" cy="7.437" r="2.415"/>
	<circle fill="none" cx="3.452" cy="7.437" r="2.415"/>
	<path fill="#F3712C" d="M19.259,5.414l0.002-0.001l-0.023-0.028c-0.08-0.109-0.168-0.213-0.26-0.311l-3.63-4.331l-0.003,0.001
		C14.974,0.29,14.409,0,13.776,0c-1.119,0-2.027,0.908-2.027,2.027c0,0.078,0.008,0.156,0.018,0.232
		c-0.559-0.229-1.169-0.355-1.809-0.355c-0.641,0-1.251,0.127-1.809,0.355c0.01-0.076,0.015-0.154,0.015-0.232
		C8.164,0.908,7.257,0,6.138,0C5.507,0,4.942,0.29,4.571,0.743L0.964,5.045C0.854,5.16,0.753,5.281,0.659,5.409L0.657,5.413
		C0.243,5.98,0,6.68,0,7.438c0,1.906,1.546,3.451,3.452,3.451c1.711,0,3.131-1.246,3.402-2.881l0.644-2.861
		c0.663-0.564,1.522-0.905,2.46-0.905c0.939,0,1.799,0.344,2.463,0.911l0.629,2.8c0.248,1.662,1.682,2.937,3.414,2.937
		c1.906,0,3.451-1.545,3.451-3.451C19.915,6.682,19.671,5.982,19.259,5.414z M3.452,9.852c-1.336,0-2.416-1.08-2.416-2.414
		c0-1.336,1.08-2.416,2.416-2.416c1.334,0,2.416,1.08,2.416,2.416C5.866,8.771,4.786,9.852,3.452,9.852z M16.464,9.852
		c-1.336,0-2.417-1.08-2.417-2.414c0-1.336,1.081-2.416,2.417-2.416c1.334,0,2.415,1.08,2.415,2.416
		C18.879,8.771,17.798,9.852,16.464,9.852z"/>
</g>
</svg>
