<?xml version="1.0" encoding="utf-8"?>
<!-- Generator: Adobe Illustrator 16.0.0, SVG Export Plug-In . SVG Version: 6.00 Build 0)  -->
<!DOCTYPE svg PUBLIC "-//W3C//DTD SVG 1.1//EN" "http://www.w3.org/Graphics/SVG/1.1/DTD/svg11.dtd">
<svg version="1.1" id="vivala-icon-diario-de-viagem"
	 xmlns="http://www.w3.org/2000/svg" xmlns:xlink="http://www.w3.org/1999/xlink" x="0px" y="0px" width="16.915px"
	 height="19.108px" viewBox="0 0 16.915 19.108" enable-background="new 0 0 16.915 19.108" xml:space="preserve">
<g id="icon-diario-de-viagem">
	<path fill="#F3712C" d="M14.23,9.871C12.947,8.292,7.547,1.555,6.3,0C6.173,1.477,4.876,4.584,2.625,5.622
		c-1.033,0.505-2.065,0.82-2.456,0.93l7.7,9.327c0.869-0.281,2.589-1.209,3.388-1.834C12.046,13.423,13.667,11.76,14.23,9.871z"/>
	<path fill="#F3712C" d="M7.974,18.097v1.011l8.482-3.051l0.003-1.428c-1.282,0.746-2.638,1.435-4.076,1.958
		C10.684,17.205,8.629,17.902,7.974,18.097z"/>
	<polygon fill="#F3712C" points="0,9.651 7.649,19.083 7.656,16.118 0,6.848 	"/>
	<path fill="#F3712C" d="M12.523,15.897c-1.284,0.645-4.114,1.512-4.55,1.644v0.226c0.727-0.216,2.568-0.769,4.184-1.383
		c1.794-0.681,4.361-2.292,4.361-2.292l-0.393-0.435C15.137,14.433,13.882,15.218,12.523,15.897z"/>
	<path fill="#F3712C" d="M14.581,9.798l-0.021,0.08c-0.563,1.998-2.218,3.715-3.108,4.415c-0.832,0.653-2.563,1.588-3.478,1.885
		v0.427c1.286-0.401,3.085-1.254,4.084-1.955c1.713-1.209,3.387-2.884,4.417-4.416l0.011,0.008c-1.161-1.309-7.607-8.688-8.025-9.22
		C8.318,1.29,8.19,1.47,7.982,1.591c2.136,2.663,5.636,7.025,6.547,8.143L14.581,9.798z"/>
	<path fill="#F3712C" d="M15.852,11.59c0,0-2.284,2.384-3.611,3.318c-1.124,0.79-2.859,1.565-4.267,2.005v0.295
		c0.137-0.042,0.361-0.112,0.645-0.201c1.037-0.33,2.839-0.932,3.765-1.395c1.832-0.915,3.473-2.024,4.5-3.031
		c0.01-0.012,0.021-0.021,0.032-0.032L15.852,11.59z"/>
</g>
</svg>
