<?xml version="1.0" encoding="utf-8"?>
<!-- Generator: Adobe Illustrator 16.0.0, SVG Export Plug-In . SVG Version: 6.00 Build 0)  -->
<!DOCTYPE svg PUBLIC "-//W3C//DTD SVG 1.1//EN" "http://www.w3.org/Graphics/SVG/1.1/DTD/svg11.dtd">
<svg version="1.1" id="vivala-icon-projetos" xmlns="http://www.w3.org/2000/svg" xmlns:xlink="http://www.w3.org/1999/xlink"
	 x="0px" y="0px" width="18.374px" height="16.133px" viewBox="0 0 18.374 16.133" enable-background="new 0 0 18.374 16.133"
	 xml:space="preserve">
<g id="icon-projetos">
	<path fill="#F3712C" d="M4.995,2.551l0.336-0.335l3.703,3.707c0.246,0.242,0.58,0.377,0.94,0.377c0.408,0,0.815-0.174,1.117-0.475
		c0.594-0.594,0.637-1.518,0.101-2.059l-2.574-2.57L8.489,1.094c-0.272-0.213-0.563-0.395-0.86-0.541C6.897,0.188,6.106,0,5.274,0
		C3.868,0,2.545,0.547,1.549,1.538C0.552,2.529,0,3.838,0,5.219c-0.003,1.445,0.598,2.85,1.694,3.957
		c-0.023-0.268,0.024-0.535,0.14-0.777c0.071-0.156,0.17-0.299,0.293-0.42L6.276,3.83L4.995,2.551z"/>
	<path fill="#F3712C" d="M6.608,4.164L2.461,8.313C2.269,8.506,2.162,8.766,2.162,9.045c0,0.298,0.116,0.578,0.333,0.793
		c0.215,0.215,0.497,0.334,0.794,0.334c0.274,0,0.538-0.107,0.733-0.301l4.146-4.147L6.608,4.164z"/>
	<path fill="#F3712C" d="M16.824,1.539c-0.998-0.992-2.322-1.538-3.724-1.538c-1.346,0-2.615,0.499-3.595,1.411l2.019,2.022
		c0.724,0.723,0.679,1.945-0.096,2.727c-0.396,0.39-0.925,0.613-1.453,0.613c-0.485,0-0.938-0.182-1.273-0.516L8.576,6.131
		l-4.147,4.148c-0.199,0.199-0.306,0.467-0.298,0.752c0.005,0.291,0.121,0.565,0.331,0.775c0.213,0.214,0.496,0.332,0.794,0.332
		c0.278,0,0.539-0.105,0.732-0.299l4.36-4.357l0.463,0.463l-4.357,4.359c-0.193,0.194-0.3,0.455-0.3,0.732
		c0,0.299,0.118,0.58,0.334,0.795c0.215,0.215,0.497,0.332,0.793,0.332c0.278,0,0.538-0.106,0.733-0.299l4.356-4.359l0.407,0.408
		l-4.356,4.357c-0.198,0.2-0.304,0.469-0.299,0.752c0.006,0.291,0.123,0.566,0.332,0.775c0.213,0.215,0.496,0.334,0.793,0.334
		c0.278,0,0.539-0.105,0.733-0.301l4.481-4.443c0.777-0.775,1.536-1.535,2.195-2.193c1.108-1.109,1.717-2.521,1.716-3.977
		C18.373,3.838,17.822,2.529,16.824,1.539z"/>
</g>
</svg>
