<?xml version="1.0" encoding="utf-8"?>
<!-- Generator: Adobe Illustrator 16.0.0, SVG Export Plug-In . SVG Version: 6.00 Build 0)  -->
<!DOCTYPE svg PUBLIC "-//W3C//DTD SVG 1.1//EN" "http://www.w3.org/Graphics/SVG/1.1/DTD/svg11.dtd">
<svg version="1.1" id="vivala-icon-minhas-compras" xmlns="http://www.w3.org/2000/svg" xmlns:xlink="http://www.w3.org/1999/xlink"
	 x="0px" y="0px" width="15.86px" height="18.589px" viewBox="0 0 15.86 18.589" enable-background="new 0 0 15.86 18.589"
	 xml:space="preserve">
<g id="icon-minhas-compras">
	<path fill="#F3712C" d="M12.609,11.921c0.005-0.545,0.002-1.738-0.093-2.92c0.01,0.497,0.023,0.953,0.039,1.191
		C12.565,10.329,12.587,11.045,12.609,11.921z"/>
	<path fill="#F3712C" d="M8.055,1.68C8.073,1.297,8.05,0.888,8.374,0.911c0.158,0.011,0.423,0.05,0.757,0.118
		c0.366,0.073,0.315,2.066,0.315,2.066l1.334,0.52c0.043-1.443-0.317-3.119-0.677-3.221C9.499,0.222,8.616-0.137,7.735,0.055
		C7.147,0.183,6.991,2.341,6.991,2.341L8.02,2.61C8.02,2.61,8.03,2.292,8.055,1.68z"/>
	<path fill="#F3712C" d="M9.903,5.614c0.346-0.344,0.833-0.677,1.376-0.675c0.027,0,0.062,0.005,0.101,0.009
		c-0.318-0.355-0.682-0.658-1.07-0.807c-0.089-0.035-3.296-1.301-4.252-1.166C6.03,2.979,6.003,2.984,5.979,2.987
		C6.003,2.984,6.03,2.979,6.058,2.976c0,0-2.195,0.055-3.646,1.505c-0.76,0.759-1.426,2.117-1.844,3.423
		C0.563,8.235,0.985,8.651,1.854,8.972C2.068,9.053,2.425,9.17,2.85,9.304C3.165,8.429,3.7,7.761,3.7,7.761s0.125-0.324,0.745-0.193
		c0.621,0.131,0.65,0.414,0.65,0.414S4.693,8.634,4.302,9.513c-0.024,0.054-0.055,0.121-0.08,0.205
		c0.986,0.286,1.938,0.541,2.208,0.566c0.541,0.049,1.894,0.107,2.151-1.194c0.252-1.285,0.502-2.069,0.715-2.558
		c0.045-0.107,0.084-0.195,0.113-0.26c0.055-0.132,0.233-0.396,0.49-0.654C9.9,5.616,9.903,5.614,9.903,5.614z"/>
	<path fill="#F3712C" d="M6.139,11.257c-0.435-0.079-1.233-0.3-2.089-0.552c-0.131,0.515-0.02,1.399-0.02,1.399
		s-0.168,0.4-0.83,0.254c-0.565-0.125-0.551-0.533-0.551-0.533s-0.144-0.826-0.017-1.553c-0.813-0.257-1.505-0.488-1.761-0.584
		C0.567,9.571,0.346,9.407,0.188,9.226C0.177,9.298,0.165,9.59,0.157,9.659c-0.578,4.106,0.618,5.875,0.705,6.248
		c0.112,0.502,2.301,1.555,4.413,2.326c1.224,0.448,2.593,0.361,3.136,0.322l0.039-0.002c0.086-1.588,0.321-5.722,0.437-8.251
		C8.704,11.231,7.172,11.446,6.139,11.257z"/>
	<path fill="#F3712C" d="M12.604,12.226c0,0,0.004-0.111,0.006-0.305c-0.022-0.876-0.044-1.592-0.054-1.729
		c-0.016-0.238-0.029-0.694-0.039-1.191c-0.086-1.052-0.354-2.18-0.588-2.768c-0.387-0.986-1.521,0.25-1.838,1.031
		C9.759,8.071,9.445,17.381,9.415,18.304c0.789-0.205,1.922-0.501,2.059-0.719c0.293-0.46,0.455-0.906,0.529-1.285
		c0.047-0.252,0.701-0.488,0.701-0.488s-0.046-2.009-0.088-3.629L12.604,12.226z"/>
	<path fill="#F3712C" d="M15.506,7.874c0,0-0.168-1.996-0.205-2.384c-0.092-0.937-0.938-3.948-3.815-1.64l0.763,0.832
		c0,0,1.95-1.753,2.026,2.424c0.006,0.354,0.027,0.848,0.239,3.82c0.238,3.286-1.049,3.305-1.049,3.305l0.06,1.397
		c0,0,0.476-0.126,0.969-0.333c0.699-0.293,1.367-1.525,1.367-3.326C15.86,11.256,15.506,7.874,15.506,7.874z"/>
	<path fill="#F3712C" d="M5.424,2.295l0.638-0.097v-0.54l0.121-0.44c0,0-0.59,0.269-0.759,0.539
		C5.252,2.026,5.178,2.173,5.178,2.295C5.178,2.418,5.424,2.295,5.424,2.295z"/>
</g>
</svg>
