<?xml version="1.0" encoding="utf-8"?>
<!-- Generator: Adobe Illustrator 16.0.0, SVG Export Plug-In . SVG Version: 6.00 Build 0)  -->
<!DOCTYPE svg PUBLIC "-//W3C//DTD SVG 1.1//EN" "http://www.w3.org/Graphics/SVG/1.1/DTD/svg11.dtd">
<svg version="1.1" id="mapa-vivala-home" xmlns="http://www.w3.org/2000/svg" xmlns:xlink="http://www.w3.org/1999/xlink" x="0px"
	 y="0px" width="502.289px" height="527.293px" viewBox="0 0 502.289 527.293" enable-background="new 0 0 502.289 527.293"
	 xml:space="preserve">
<g id="mapa-background" opacity="0.8">
	<g>
		<g>
			<defs>
				<rect id="SVGID_1_" width="502.289" height="527.293"/>
			</defs>
			<clipPath id="SVGID_2_">
				<use xlink:href="#SVGID_1_"  overflow="visible"/>
			</clipPath>
			<path clip-path="url(#SVGID_2_)" fill="#FFFFFF" d="M483.59,132.564c-12.298-1.122-20.557-9.393-26.08-14.65
				c-5.511-5.27-21.053-14.554-24.694-14.674c-3.63-0.122-14.022,6.39-26.431-0.627c-12.406-7.017-20.051-4.883-23.054-2.749
				c-3.002,2.122-7.138,7.524-6.896,3.376c0.253-4.124,3.135-5.631,3.135-6.763c0-1.122-5.51-10.142-8.141-10.274
				c-2.627-0.133-4.015,1.616-6.39-0.881c-2.388-2.508-19.425-9.406-27.069-9.26c-7.644,0.12-14.274,10.141-16.41,11.007
				c-2.135,0.882-5.752,1.015-3.762,0.508c2.002-0.508,6.776-7.633,8.404-11.661c1.627-4.001-2.015-5.63-4.765-5.762
				c-2.748-0.109-10.271-6.138-12.526-7.006c-2.255-0.88-5.63,2.376-8.14,3.255c-2.508,0.881-7.523,3.124-7.139,1.135
				c0.362-2.014,6.873-7.524,9.647-8.78c2.748-1.24,4.002-3.64,4.75-5.629c0.747-2.002,0.386-7.404-1.001-7.778
				c-1.375-0.373-6.765-3.749-7.896-5.124c-1.135-1.387-6.513-15.168-6.513-18.558c0-3.375-1.761-10.777-4.521-10.777
				c-2.75,0-6.271,8.03-8.141,11.416c-1.88,3.377-4.002,10.384-6.896,14.531c-2.871,4.135-10.153,0.627-12.153,0.627
				c-2.003,0-6.513,2.496-9.263,2.496c-2.761,0-5.642-3.883-7.896-5.125c-2.255-1.254-8.525,1.749-11.539,1.749
				c-3.003,0-2.002,2.894-1.255,5.775c0.76,2.87-9.139,2.243-14.275,0.254c-5.137-2.015-6.633,2.749-12.166,4.244
				c-5.51,1.507-8.26,5.269-10.262,5.137c-2.013-0.121-10.525-3.003-10.778-6.259c-0.266-3.255-4.896-8.644-4.896-14.155
				c0-5.511,2.617-9.9,4.521-13.046c1.869-3.123-2.496-7.258-3.014-8.007c-0.506-0.747-1.627-7.15-2.002-9.031
				c-0.386-1.869-6.137-1.376-8.03-1.496c-1.881-0.119,0.639,4.257,0.253,4.763c-0.373,0.496-3.376,4.378-6.39,4.258
				c-3.003-0.134-7.524,4.508-10.78,4.762c-3.256,0.254-9.14,0.627-9.514,2.386c-0.373,1.75-1.627,6.886-4.134,3.389
				c-2.508-3.521-6.778-2.64-9.153-2.64c-2.376,0-10.911-3.256-12.262-3.256c-1.375,0,0.868,2.617,3.617,4.63
				c2.773,2.014,2.893,5.377,2.893,8.151c0,2.749,2.135,4.498,2.135,7.379c0,3.521,8.38,0.627,8.38,3.148
				c0,2.508-3.87,5.389-7.006,5.389c-3.133,0-1.253,6.632-5.896,6.632c-4.63,0-9.646,5.642-12.274,8.139
				c-2.629,2.509-0.881-2.75-4.63-2.497c-3.763,0.242-4.883,6.138-8.911,1.497c-4.003-4.619-6.885-3.629-8.38-3.629
				c-1.519,0,0.121-3.896-1.146-7.634c-1.242-3.762-2.242-4.896-3.989-5.028c-1.774-0.121-3.269,3.136-5.162,3.136
				c-1.857,0-1.494-0.882-3.617-0.882c-2.135,0-5.896,3.389-9.767,3.389H52.17v5.509c-0.144,2.136,0.362,2.509,3.497,2.509
				c6.378,0,5.39,4.256,5.39,4.256c0,2.292-3.184,0.941-6.137,1c-2.593,0.086-5.016,1.642-5.016,2.521
				c0,1.881-0.254,6.259-0.254,7.875c0,1.639,5.764,5.521,5.764,7.656c0,2.122,2.375,3.893,2.375,6.258
				c0,2.374-2.869,16.541-4.629,26.321c-1.749,9.767-1.509,14.034-4.137,14.034c-2.616,0-2.761-2.507-6.632-2.639
				c-3.894-0.134-3.52,3.147-9.405,3.508c-5.883,0.373-15.167,5.282-18.291,7.657c-3.135,2.375-2.254,8.886-4.136,10.261
				c-1.868,1.386-1.627,6.137-1,6.896c0.627,0.76-0.494,3.51-4.256,4.377c-3.775,0.892-0.616,4.522-3.377,8.405
				c-2.749,3.895-2.255,3.497-0.398,6.029c1.893,2.496,2.388,6.994,7.284,11.383c4.882,4.399,1.12,8.271,1.12,8.271
				s-5.016,0.759,4.015,1.387c9.02,0.626,8.67,7.981,8.67,7.981l12.166-0.76l7.994-6.076c0.904,0.024-0.639,16.76-0.783,17.772
				c-0.12,1.001,1.254,2.134,3.014,2.015c1.76-0.121,3.014-1.002,4.389-1.122c1.375-0.145,7.645,0.12,11.66,0.12
				c4.002,0,4.883,1.749,7.27,1.749c2.388,0,4.256-2.122,6.258-4.136c2.015-2.014,3.509-1.495,5.016-2.123
				c1.495-0.625,3.003-3.013,6.259-3.628c3.254-0.639,3.376-2.136,5.642-3.389c2.255-1.265,8.512-3.387,11.273-3.387
				c2.75,0,4.643-0.882,6.138-1.255c1.495-0.385,1.495,4.378,1.375,6.258c-0.121,1.881-1.375,2.388-1.375,5.016
				s1.495,4.775,1.375,6.885c-0.121,2.146,0.385,4.642,1.747,8.029c1.387,3.39,5.776,5.632,7.91,8.271
				c2.123,2.629,9.647,1.629,11.528,1.629c1.869,0,6.764,2.868,9.646,5.631c2.881,2.761,4.003,2.254,8.018,4.268
				c4.003,1.991,8.392,4.123,13.409,4.123c5.003,0,6.63,2.882,8.512,3.497c1.893,0.639,1.507,4.148,1.387,6.523
				c-0.133,2.387,1.615,4.509,1.869,7.138c0.253,2.629,0.253,3.51-1.363,3.388c-1.64-0.12-0.506,2.761,0.495,3.388
				c1.001,0.641,2.267,4.896,2.122,8.899c-0.121,4.016,0.892,4.388,0.892,4.388s22.934-0.132,23.801,0
				c0.88,0.135-2.134,4.018-2.255,8.646c-0.144,4.631,3.883,6.753,7.258,6.632c3.39-0.121,3.643,7.282,4.522,9.778
				c0.881,2.496-1.76,4.871-2.001,7.765c-0.253,2.882-3.267,10.166-4.014,11.54c-0.748,1.374-0.748,2.254-0.375,2.254
				c0.375,0,1.122,2.991,0.375,4.377c-0.748,1.389-0.122,3.643,0.505,5.896c0.615,2.254,1.508,3.123,1.749,6.511
				c0.241,3.388-1.616,8.897-1.749,10.394c-0.132,1.521-0.252,4.775,3.135,4.775c3.389,0,6.017,2.629,9.646,2.508
				c3.629-0.12,4.884-3.136,6.38-3.136c1.519,0,5.015,3.643,7.776,3.483c2.75-0.119,4.389,11.061,4.269,15.557
				c-0.134,4.521,1.988,7.885,4.136,7.764c2.122-0.12,4.497-1.88,7.764-2.254c3.256-0.374,4.511,4.521,4.511,7.766
				c0,3.269-3.269,13.166-3.883,16.049c-0.628,2.895,3.883,0.507,5.51,0.375c1.629-0.109,3.268,2.881,4.377,6.764
				c1.133,3.883,1.387,4.773,1.506,10.032c0.134,5.269-5.644,9.26-9.524,10.019c-3.87,0.76-16.41,11.033-19.546,14.916
				c-3.134,3.896-22.173,25.947-22.173,25.947s3.243,1.135,5.136,1.135c1.869,0,3.269-1.881,6.137-2.013
				c2.883-0.121,5.896,4.748,8.899,9.645c3.002,4.896,2.628,3.773,3.883,3.388c1.254-0.372,2.628-0.507,5.137,1.508
				c2.496,2.014,4.642,4.763,10.02,5.765c5.376,1.001,1.893,4.136,7.27,6.511c5.391,2.389,5.645,8.898,8.006,10.031
				c2.389,1.11,6.416,0.507,7.149-1.253c0.761-1.761,3.138-6.391,3.015-3.883c-0.131,2.507-0.131,6.511-0.758,8.271
				c-0.615,1.763-2.244,1.496-4.379,1.374c-2.133-0.119-4.64,4.149-4.64,6.26c0,2.135-0.134,6.149,1.493,6.149
				c1.641,0,3.763-1.507,5.774-3.763c2.017-2.242,6.261-11.396,6.765-13.781c0.508-2.388,4.004-4.631,4.896-5.632
				c2.581-2.953,5.125-6.391,4.268-5.908c-0.879,0.519-7.774,6.909-7.908,4.655c-0.12-2.268,1.255-4.138,3.025-7.525
				c1.75-3.387,3.871-6.257,6.26-9.897c2.387-3.653,4.896-8.898,7.018-9.163c2.122-0.229,1.627,5.643,0.506,8.416
				c-1.133,2.75-6.521,8.261-5.137,8.391c1.375,0.11,3.509-2.387,6.767-6.908c3.254-4.509,4.881-5.004,7.645-10.14
				c2.761-5.137,14.541-22.174,16.421-23.692c1.87-1.509,3.629-7.778,4.498-10.021c0.893-2.255,0-9.888,0-9.888
				s-0.988-5.28-0.988-8.043c0-2.749,0.494-1.374,0.494-6.886c0-5.498,0.506-6.257,0.373-9.019c-0.12-2.761,2.895-4.39,6.018-7.767
				c3.147-3.388,13.045-10.283,18.051-12.273c5.018-2.016,9.02-6.523,12.781-6.645c3.762-0.145,5.256,2.254,5.256,0.254
				c0-2.025,2.883-3.279,4.39-4.521c1.508-1.241,3.763-3.135,3.642-5.135c-0.133-2.003,5.005-1.508,7.02-1.774
				c2-0.229,4.135,0.521,7.896,0.521c3.749,0,12.648-0.374,15.529-0.521c2.882-0.108,3.619,0.397,4.004-1.868
				c0.386-2.254,1.375-3.256,4.256-6.258c2.895-3.015,1.882-1.133,6.15-3.883c4.256-2.761,1.627-5.884,1.492-8.379
				c-0.118-2.521,4.644-8.043,7.789-11.154c3.125-3.146,0.242-2.64,5.007-9.766c4.761-7.151,3.882-12.42,3.882-15.063
				c0-2.617,2.375-8.271,4.642-11.271c2.269-3.002,2.256-7.262,2.122-12.021c-0.12-4.752,1.749-10.899,3.497-13.287
				c1.76-2.387,0-5.511-0.361-11.263c-0.386-5.787,0.254-20.57,0.361-25.321c0.085-2.628,3.268-4.522,3.159-4.895
				c-0.132-0.375-2.509-3.63-1.52-4.389c1.002-0.735,3.496,0.892,3.896,2.399c0.373,1.496,2.748-0.145,5.51-2.629
				c2.749-2.507,10.141-16.06,12.771-20.052c2.627-4.003,8.271-9.03,14.286-15.541c6.019-6.511,13.154-15.422,15.156-25.936
				c2.002-10.539-4.002-24.439-4.256-27.191C497.372,140.1,495.852,133.698,483.59,132.564"/>
		</g>
	</g>
</g>
<g id="texto_1_">
	<path fill="none" d="M200.333,173.078c0.652-0.677,0.979-1.618,0.979-2.821c0-1.216-0.342-2.157-1.026-2.822
		c-0.684-0.664-1.646-0.997-2.886-0.997h-1.863v7.655h2.013C198.728,174.093,199.656,173.754,200.333,173.078z"/>
	<path fill="none" d="M198.133,177.143h-2.598v8.69h2.748c3.286,0,4.927-1.442,4.927-4.327
		C203.209,178.596,201.517,177.143,198.133,177.143z"/>
	<path fill="none" d="M267.574,146.273c0.708,0.521,1.553,0.781,2.53,0.781c0.964,0,1.791-0.26,2.483-0.781
		c0.689-0.522,1.213-1.207,1.57-2.061c0.357-0.853,0.537-1.756,0.537-2.708c0-0.927-0.171-1.812-0.51-2.653
		c-0.364-0.828-0.892-1.499-1.58-2.013c-0.689-0.515-1.522-0.772-2.501-0.772c-0.978,0.002-1.822,0.259-2.53,0.774
		c-0.711,0.514-1.243,1.199-1.598,2.049c-0.358,0.853-0.538,1.751-0.538,2.69c0,0.93,0.18,1.813,0.538,2.653
		C266.331,145.073,266.866,145.753,267.574,146.273z"/>
	<path fill="none" d="M275.05,176.15c-0.692-0.519-1.521-0.777-2.485-0.777c-0.979,0-1.822,0.253-2.53,0.762
		c-0.71,0.506-1.241,1.178-1.6,2.011c-0.356,0.835-0.536,1.723-0.536,2.663c0,1.479,0.426,2.775,1.271,3.885
		c0.847,1.11,2.003,1.665,3.471,1.665c1.429,0,2.539-0.544,3.332-1.627c0.789-1.086,1.184-2.367,1.184-3.847
		c0-0.942-0.178-1.836-0.537-2.682C276.264,177.354,275.738,176.672,275.05,176.15z"/>
	<path fill="none" d="M330.551,176.199c-0.676-0.602-1.541-0.904-2.597-0.904c-2.295,0-3.694,1.174-4.197,3.519h8.108
		C331.665,177.673,331.228,176.802,330.551,176.199z"/>
	<path fill="none" d="M301.988,139.511c-0.204-1.141-0.641-2.015-1.317-2.615c-0.677-0.602-1.541-0.902-2.595-0.902
		c-2.295,0-3.697,1.172-4.198,3.519h8.11V139.511z"/>
	<path fill="none" d="M291.851,176.199c-0.677-0.603-1.544-0.904-2.598-0.904c-2.295,0-3.693,1.174-4.194,3.519h8.106
		C292.965,177.673,292.527,176.802,291.851,176.199z"/>
	<path fill="none" d="M146.52,139.511c-0.2-1.141-0.638-2.015-1.316-2.615c-0.676-0.602-1.543-0.902-2.596-0.902
		c-2.293,0-3.694,1.172-4.195,3.519h8.107V139.511z"/>
	<path fill="none" d="M177.249,176.143c-0.741-0.513-1.624-0.77-2.651-0.77c-1.055,0-1.958,0.259-2.708,0.779
		c-0.752,0.522-1.316,1.195-1.694,2.023c-0.376,0.827-0.563,1.718-0.563,2.67c0,0.94,0.187,1.822,0.563,2.644
		c0.376,0.823,0.942,1.492,1.694,2.012c0.752,0.522,1.655,0.781,2.708,0.781c1.04,0,1.93-0.258,2.661-0.773
		c0.734-0.515,1.284-1.191,1.655-2.031c0.371-0.841,0.557-1.719,0.557-2.633c0-0.941-0.186-1.832-0.557-2.67
		C178.542,177.335,177.989,176.658,177.249,176.143z"/>
	<path fill="none" d="M242.444,146.273c0.708,0.521,1.552,0.781,2.528,0.781c0.967,0,1.795-0.26,2.486-0.781
		c0.689-0.522,1.213-1.207,1.572-2.061c0.355-0.853,0.533-1.756,0.533-2.708c0-0.927-0.168-1.812-0.507-2.653
		c-0.364-0.828-0.892-1.499-1.58-2.013c-0.69-0.515-1.526-0.772-2.505-0.772c-0.979,0.002-1.82,0.259-2.528,0.774
		c-0.71,0.514-1.243,1.199-1.6,2.049c-0.356,0.853-0.536,1.751-0.536,2.69c0,0.93,0.181,1.813,0.536,2.653
		C241.202,145.073,241.736,145.753,242.444,146.273z"/>
	<path fill="none" d="M338.253,146.199c0.753,0.522,1.656,0.781,2.71,0.781c1.038,0,1.926-0.258,2.661-0.77
		c0.731-0.515,1.284-1.192,1.655-2.033c0.368-0.84,0.556-1.718,0.556-2.633c0-0.938-0.188-1.829-0.556-2.67
		c-0.371-0.84-0.926-1.518-1.667-2.032c-0.739-0.515-1.624-0.772-2.652-0.772c-1.051-0.003-1.954,0.257-2.707,0.777
		c-0.752,0.521-1.317,1.195-1.693,2.023c-0.376,0.828-0.563,1.719-0.563,2.67c0,0.94,0.188,1.822,0.563,2.645
		C336.936,145.008,337.501,145.679,338.253,146.199z"/>
	<path fill="none" d="M105.72,139.511c-0.201-1.141-0.638-2.015-1.316-2.615c-0.677-0.602-1.543-0.902-2.596-0.902
		c-2.293,0-3.694,1.172-4.195,3.519h8.107V139.511z"/>
	<path fill="none" d="M356.977,176.15c-0.691-0.519-1.519-0.777-2.485-0.777c-0.977,0-1.82,0.253-2.531,0.762
		c-0.707,0.506-1.24,1.178-1.599,2.011c-0.355,0.835-0.535,1.723-0.535,2.663c0,1.479,0.423,2.775,1.271,3.885
		c0.845,1.11,2.001,1.665,3.471,1.665c1.43,0,2.54-0.544,3.329-1.627c0.79-1.086,1.186-2.367,1.186-3.847
		c0-0.942-0.18-1.836-0.535-2.682C358.188,177.354,357.666,176.672,356.977,176.15z"/>
	<path fill="none" d="M172.458,146.273c0.69-0.522,1.215-1.207,1.572-2.061c0.358-0.853,0.536-1.756,0.536-2.708
		c0-0.927-0.169-1.812-0.506-2.653c-0.363-0.828-0.891-1.499-1.58-2.013c-0.69-0.515-1.526-0.772-2.502-0.772
		c-0.979,0.002-1.823,0.259-2.53,0.774c-0.71,0.514-1.242,1.199-1.601,2.049c-0.358,0.853-0.536,1.751-0.536,2.69
		c0,0.93,0.178,1.813,0.536,2.653c0.359,0.84,0.891,1.521,1.601,2.041c0.708,0.521,1.551,0.781,2.53,0.781
		C170.941,147.054,171.769,146.793,172.458,146.273z"/>
	<path fill="none" d="M159.812,176.143c-0.692-0.513-1.525-0.77-2.504-0.77c-0.979,0-1.821,0.257-2.529,0.77
		c-0.71,0.515-1.243,1.199-1.601,2.051c-0.358,0.853-0.536,1.749-0.536,2.691c0,0.927,0.178,1.812,0.536,2.652
		c0.358,0.841,0.891,1.521,1.601,2.041c0.708,0.522,1.551,0.782,2.529,0.782c0.966,0,1.794-0.262,2.482-0.782
		c0.691-0.521,1.215-1.208,1.572-2.061c0.358-0.853,0.538-1.757,0.538-2.708c0-0.93-0.171-1.813-0.509-2.654
		C161.028,177.329,160.5,176.658,159.812,176.143z"/>
	<path fill="none" d="M228.433,176.143c-0.689-0.513-1.524-0.77-2.503-0.77c-0.977,0-1.822,0.257-2.529,0.77
		c-0.71,0.515-1.243,1.199-1.599,2.051c-0.357,0.853-0.538,1.749-0.538,2.691c0,0.927,0.181,1.812,0.536,2.652
		c0.357,0.841,0.891,1.521,1.6,2.041c0.708,0.522,1.552,0.782,2.528,0.782c0.965,0,1.793-0.262,2.485-0.782
		c0.689-0.521,1.212-1.208,1.571-2.061c0.355-0.853,0.536-1.757,0.536-2.708c0-0.93-0.17-1.813-0.507-2.654
		C229.648,177.329,229.122,176.658,228.433,176.143z"/>
	<path fill="none" d="M379.395,139.511c-0.204-1.141-0.639-2.015-1.317-2.615c-0.679-0.602-1.543-0.902-2.595-0.902
		c-2.295,0-3.695,1.172-4.196,3.519h8.108V139.511z"/>
	<path fill="none" d="M391.366,176.15c-0.691-0.519-1.521-0.777-2.484-0.777c-0.979,0-1.823,0.253-2.53,0.762
		c-0.711,0.506-1.242,1.178-1.601,2.011c-0.356,0.835-0.537,1.723-0.537,2.663c0,1.479,0.425,2.775,1.271,3.885
		s2.003,1.665,3.472,1.665c1.43,0,2.538-0.544,3.329-1.627c0.791-1.086,1.188-2.367,1.188-3.847c0-0.942-0.183-1.836-0.536-2.682
		C392.578,177.354,392.055,176.672,391.366,176.15z"/>
	<path fill="none" d="M463.344,139.511c-0.199-1.141-0.639-2.015-1.316-2.615c-0.676-0.602-1.54-0.902-2.594-0.902
		c-2.295,0-3.695,1.172-4.194,3.519h8.104V139.511z"/>
	<path fill="none" d="M408.163,176.199c-0.679-0.603-1.544-0.904-2.597-0.904c-2.293,0-3.692,1.174-4.197,3.519h8.109
		C409.278,177.673,408.841,176.802,408.163,176.199z"/>
	<path fill="none" d="M374.189,176.143c-0.689-0.513-1.525-0.77-2.503-0.77c-0.976,0-1.821,0.257-2.529,0.77
		c-0.71,0.515-1.243,1.199-1.603,2.051c-0.355,0.853-0.533,1.749-0.533,2.691c0,0.927,0.18,1.812,0.533,2.652
		c0.359,0.841,0.893,1.521,1.603,2.041c0.708,0.522,1.549,0.782,2.528,0.782c0.967,0,1.794-0.262,2.483-0.782
		c0.691-0.521,1.215-1.208,1.572-2.061c0.356-0.853,0.537-1.757,0.537-2.708c0-0.93-0.171-1.813-0.507-2.654
		C375.405,177.329,374.879,176.658,374.189,176.143z"/>
	<path fill="none" d="M422.545,139.511c-0.201-1.141-0.641-2.015-1.317-2.615c-0.677-0.602-1.542-0.902-2.598-0.902
		c-2.293,0-3.692,1.172-4.194,3.519h8.109V139.511z"/>
	<path fill="#D87129" d="M43.514,142.77c0,1.427-0.188,2.446-0.564,3.054c-0.375,0.607-1.021,0.911-1.938,0.911
		c-0.477,0-0.904-0.101-1.28-0.301c-0.364-0.202-0.771-0.545-1.221-1.035l-2.109,2.653c1.255,1.367,2.866,2.049,4.834,2.049
		c1.03,0,1.926-0.2,2.69-0.601c0.765-0.414,1.387-0.979,1.863-1.691c0.475-0.714,0.828-1.517,1.053-2.406
		c0.212-0.903,0.32-1.853,0.32-2.857v-18.44h-3.649V142.77z"/>
	<path fill="#D87129" d="M60.933,141.432c0,1.868-0.283,3.232-0.845,4.09c-0.564,0.858-1.462,1.289-2.69,1.289
		c-1.367,0-2.29-0.509-2.766-1.524c-0.477-1.016-0.716-2.301-0.716-3.856v-7.902H50.53v9.237c0,1.53,0.267,2.831,0.799,3.903
		c0.532,1.073,1.318,1.888,2.351,2.445c1.036,0.559,2.274,0.837,3.715,0.837c1.456,0,2.703-0.282,3.746-0.845
		c1.04-0.565,1.836-1.379,2.39-2.445c0.538-1.081,0.807-2.378,0.807-3.895v-9.237h-3.405V141.432z"/>
	<path fill="#D87129" d="M75.323,133.132c-0.967,0-1.784,0.186-2.455,0.556c-0.671,0.37-1.358,0.993-2.06,1.873v-2.033H67.46h-0.001
		v15.954h3.348v-8.127c0-1.517,0.324-2.722,0.97-3.612c0.646-0.891,1.508-1.336,2.587-1.336c1.003,0,1.768,0.339,2.295,1.016
		c0.527,0.677,0.789,1.637,0.789,2.878v9.182h3.424v-10.14c0-1.931-0.493-3.449-1.476-4.554
		C78.411,133.685,77.053,133.132,75.323,133.132z"/>
	<polygon fill="#D87129" points="89.054,127.357 85.65,127.357 85.65,133.528 83.279,133.528 83.279,136.332 85.65,136.332 
		85.65,149.482 89.054,149.482 89.054,136.332 92.121,136.332 92.121,133.528 89.054,133.528 	"/>
	<path fill="#D87129" d="M101.882,147.051c-0.879,0-1.652-0.2-2.324-0.601c-0.671-0.402-1.206-0.979-1.6-1.731
		c-0.395-0.752-0.611-1.618-0.65-2.594h12.021c-0.075-1.593-0.227-2.835-0.451-3.727c-0.226-0.891-0.613-1.693-1.166-2.408
		c-0.689-0.966-1.563-1.709-2.615-2.229c-1.053-0.52-2.227-0.781-3.519-0.781c-1.153,0-2.206,0.205-3.16,0.612
		c-0.955,0.406-1.771,0.991-2.455,1.749c-0.684,0.759-1.209,1.681-1.58,2.765c-0.371,1.086-0.555,2.268-0.555,3.547
		c0,1.242,0.185,2.387,0.555,3.434c0.371,1.047,0.903,1.948,1.6,2.699c0.698,0.752,1.536,1.33,2.512,1.731
		c0.967,0.388,2.044,0.583,3.236,0.583c3.247,0,5.808-1.567,7.672-4.706l-2.745-1.788
		C105.417,145.902,103.825,147.051,101.882,147.051z M101.808,135.993c1.053,0,1.919,0.301,2.596,0.902
		c0.678,0.601,1.115,1.474,1.316,2.615v0.001h-8.107C98.114,137.165,99.514,135.993,101.808,135.993z"/>
	<rect x="111.099" y="139.002" fill="#D87129" width="8.673" height="3.124"/>
	<path fill="#D87129" d="M127.766,139.568c-0.725-0.29-1.243-0.587-1.549-0.895c-0.308-0.306-0.462-0.686-0.462-1.138
		c0-0.977,0.427-1.466,1.281-1.466c0.475,0,0.99,0.123,1.542,0.367c0.549,0.244,1.001,0.524,1.353,0.836l2.239-1.862
		c-0.777-0.917-1.504-1.563-2.183-1.938c-0.678-0.376-1.494-0.565-2.446-0.565c-1.519,0-2.775,0.463-3.771,1.393
		c-0.997,0.927-1.496,2.08-1.496,3.46c0,1.18,0.307,2.12,0.921,2.821c0.629,0.718,1.726,1.418,3.293,2.108
		c1.065,0.465,1.788,0.873,2.164,1.223c0.375,0.352,0.564,0.79,0.564,1.316c0,0.566-0.185,1.009-0.555,1.335
		c-0.371,0.328-0.875,0.489-1.515,0.489c-1.065,0-2.12-0.633-3.16-1.9l-2.522,1.827c1.379,2.083,3.274,3.122,5.682,3.122
		c1.103,0,2.082-0.215,2.935-0.647c0.854-0.433,1.515-1.052,1.986-1.862c0.469-0.811,0.705-1.748,0.705-2.813
		c0-1.229-0.352-2.209-1.053-2.944C131.016,141.101,129.698,140.345,127.766,139.568z"/>
	<path fill="#D87129" d="M147.455,143.607c-1.243,2.295-2.835,3.443-4.778,3.443c-0.878,0-1.652-0.2-2.323-0.601
		c-0.671-0.402-1.204-0.979-1.598-1.731c-0.396-0.752-0.612-1.618-0.65-2.594h12.022c-0.074-1.593-0.225-2.835-0.45-3.727
		c-0.225-0.891-0.615-1.693-1.167-2.408c-0.689-0.966-1.563-1.709-2.615-2.229c-1.055-0.52-2.227-0.781-3.519-0.781
		c-1.152,0-2.206,0.205-3.16,0.612c-0.954,0.406-1.771,0.991-2.455,1.749c-0.683,0.759-1.209,1.681-1.58,2.765
		c-0.371,1.086-0.555,2.268-0.555,3.547c0,1.242,0.184,2.387,0.555,3.434c0.371,1.047,0.903,1.948,1.602,2.699
		c0.696,0.752,1.534,1.33,2.512,1.731c0.966,0.388,2.043,0.583,3.235,0.583c3.251,0,5.808-1.567,7.671-4.706L147.455,143.607z
		 M142.608,135.993c1.053,0,1.919,0.301,2.596,0.902c0.678,0.601,1.116,1.474,1.316,2.615v0.001h-8.107
		C138.914,137.165,140.314,135.993,142.608,135.993z"/>
	<path fill="#D87129" d="M172.196,149.322c0.891-0.422,1.6-1.013,2.126-1.779v1.938h3.406v-15.954h-3.406v1.96
		c-1.053-1.62-2.67-2.428-4.854-2.428c-1.417,0-2.705,0.364-3.865,1.091c-1.161,0.726-2.07,1.729-2.728,3.008
		c-0.659,1.28-0.989,2.703-0.989,4.271c0,1.605,0.322,3.06,0.959,4.364c0.64,1.29,1.519,2.307,2.642,3.046
		c1.123,0.739,2.373,1.11,3.752,1.11C170.321,149.951,171.305,149.742,172.196,149.322z M165.846,144.232
		c-0.358-0.84-0.536-1.724-0.536-2.653c0-0.938,0.178-1.837,0.536-2.69c0.359-0.851,0.891-1.536,1.601-2.049
		c0.707-0.515,1.551-0.772,2.53-0.774c0.977,0,1.812,0.257,2.502,0.772c0.689,0.514,1.216,1.185,1.58,2.013
		c0.337,0.841,0.506,1.726,0.506,2.653c0,0.952-0.178,1.856-0.536,2.708c-0.357,0.854-0.881,1.539-1.572,2.061
		c-0.689,0.521-1.517,0.781-2.481,0.781c-0.979,0-1.821-0.26-2.53-0.781C166.737,145.753,166.206,145.073,165.846,144.232z"/>
	<polygon fill="#D87129" points="172.177,130.48 169.619,125.703 165.27,125.703 169.787,130.48 	"/>
	<polygon fill="#D87129" points="211.587,124.104 207.786,124.104 200.731,142.39 193.753,124.104 189.653,124.104 200.488,150.835 
			"/>
	<path fill="#D87129" d="M215.331,130.329c0.652,0,1.16-0.22,1.524-0.659c0.376-0.427,0.564-0.942,0.564-1.542
		c0-0.588-0.187-1.104-0.555-1.542c-0.371-0.437-0.882-0.657-1.533-0.657c-0.676,0-1.208,0.22-1.588,0.658
		c-0.383,0.439-0.575,0.953-0.575,1.542c0,0.601,0.194,1.117,0.575,1.552C214.123,130.113,214.654,130.329,215.331,130.329z"/>
	<polygon fill="#D87129" points="213.598,149.482 216.965,149.482 216.946,133.528 213.598,133.528 	"/>
	<polygon fill="#D87129" points="235.327,133.528 231.318,133.528 227.272,143.462 222.927,133.528 218.903,133.528 
		227.048,150.686 	"/>
	<path fill="#D87129" d="M240.486,148.841c1.123,0.739,2.373,1.11,3.754,1.11c1.078,0,2.062-0.209,2.953-0.629
		c0.891-0.422,1.598-1.013,2.125-1.779v1.938h3.405v-15.954h-3.405v1.96c-1.054-1.62-2.67-2.428-4.853-2.428
		c-1.417,0-2.705,0.364-3.866,1.091c-1.16,0.726-2.07,1.729-2.728,3.008c-0.659,1.28-0.988,2.703-0.988,4.271
		c0,1.605,0.32,3.06,0.958,4.364C238.483,147.085,239.363,148.102,240.486,148.841z M240.845,138.889
		c0.357-0.851,0.89-1.536,1.6-2.049c0.708-0.515,1.55-0.772,2.528-0.774c0.979,0,1.814,0.257,2.505,0.772
		c0.688,0.514,1.216,1.185,1.58,2.013c0.339,0.841,0.507,1.726,0.507,2.653c0,0.952-0.178,1.856-0.533,2.708
		c-0.359,0.854-0.883,1.539-1.572,2.061c-0.691,0.521-1.52,0.781-2.486,0.781c-0.977,0-1.82-0.26-2.528-0.781
		c-0.708-0.52-1.243-1.2-1.6-2.041c-0.354-0.84-0.536-1.724-0.536-2.653C240.309,140.641,240.488,139.742,240.845,138.889z"/>
	<rect x="255.92" y="122.579" fill="#D87129" width="3.35" height="26.903"/>
	<path fill="#D87129" d="M265.618,148.841c1.122,0.739,2.372,1.11,3.752,1.11c1.079,0,2.063-0.209,2.954-0.629
		c0.889-0.422,1.598-1.013,2.126-1.779v1.938h3.406v-15.954h-3.406v1.96c-1.054-1.62-2.671-2.428-4.854-2.428
		c-1.417,0-2.705,0.364-3.867,1.091c-1.159,0.726-2.069,1.729-2.727,3.008c-0.657,1.28-0.985,2.703-0.985,4.271
		c0,1.605,0.317,3.06,0.955,4.364C263.612,147.085,264.495,148.102,265.618,148.841z M265.977,138.889
		c0.354-0.851,0.887-1.536,1.598-2.049c0.708-0.515,1.553-0.772,2.53-0.774c0.979,0,1.812,0.257,2.501,0.772
		c0.688,0.514,1.216,1.185,1.58,2.013c0.339,0.841,0.51,1.726,0.51,2.653c0,0.952-0.18,1.856-0.537,2.708
		c-0.357,0.854-0.881,1.539-1.57,2.061c-0.692,0.521-1.52,0.781-2.483,0.781c-0.978,0-1.822-0.26-2.53-0.781
		c-0.708-0.52-1.243-1.2-1.598-2.041c-0.358-0.84-0.538-1.724-0.538-2.653C265.438,140.641,265.618,139.742,265.977,138.889z"/>
	<polygon fill="#D87129" points="275.107,125.703 270.836,125.703 268.186,130.48 270.687,130.48 	"/>
	<path fill="#D87129" d="M302.931,143.607c-1.239,2.295-2.832,3.443-4.777,3.443c-0.88,0-1.652-0.2-2.323-0.601
		c-0.672-0.402-1.203-0.979-1.602-1.731c-0.394-0.752-0.61-1.618-0.648-2.594h12.023c-0.075-1.593-0.226-2.835-0.453-3.727
		c-0.226-0.891-0.615-1.693-1.166-2.408c-0.69-0.966-1.561-1.709-2.615-2.229c-1.054-0.52-2.225-0.781-3.518-0.781
		c-1.156,0-2.208,0.203-3.162,0.612c-0.953,0.406-1.77,0.991-2.454,1.749c-0.683,0.759-1.208,1.681-1.58,2.765
		c-0.371,1.086-0.554,2.268-0.554,3.547c0,1.242,0.183,2.387,0.554,3.434c0.369,1.047,0.902,1.948,1.598,2.699
		c0.696,0.752,1.534,1.33,2.513,1.731c0.963,0.388,2.042,0.583,3.236,0.583c3.245,0,5.804-1.567,7.677-4.706L302.931,143.607z
		 M298.076,135.993c1.054,0,1.918,0.301,2.595,0.902c0.677,0.601,1.113,1.474,1.317,2.615v0.001h-8.11
		C294.379,137.165,295.781,135.993,298.076,135.993z"/>
	<path fill="#D87129" d="M321.117,148.946c1.204,0.72,2.559,1.081,4.063,1.081c1.717,0,3.499-0.452,5.345-1.353v-4.046
		c-1.531,1.406-3.136,2.108-4.816,2.108c-0.991,0-1.851-0.209-2.578-0.621c-0.738-0.426-1.306-1.041-1.695-1.843
		c-0.386-0.803-0.58-1.75-0.58-2.841c0-1.618,0.492-2.88,1.477-3.781c0.981-0.904,2.173-1.355,3.565-1.355
		c1.791,0,3.333,0.672,4.625,2.015V134.3c-1.368-0.853-2.878-1.279-4.533-1.279c-1.116,0-2.2,0.206-3.254,0.621
		c-1.042,0.401-1.976,0.991-2.803,1.769c-0.817,0.765-1.468,1.681-1.957,2.746c-0.477,1.065-0.717,2.231-0.717,3.499
		c0,1.595,0.347,3.029,1.036,4.309C318.972,147.23,319.913,148.223,321.117,148.946z"/>
	<path fill="#D87129" d="M336.484,148.917c1.279,0.738,2.733,1.109,4.363,1.109c1.668,0,3.16-0.354,4.479-1.063
		c1.316-0.708,2.34-1.709,3.067-3c0.724-1.292,1.089-2.754,1.089-4.385c0-1.655-0.365-3.136-1.089-4.448
		c-0.728-1.31-1.745-2.33-3.048-3.057c-1.304-0.727-2.781-1.088-4.422-1.088c-1.642,0-3.11,0.361-4.401,1.081
		c-1.29,0.722-2.294,1.724-3.01,3.009c-0.715,1.284-1.071,2.737-1.071,4.355c0,1.655,0.354,3.138,1.063,4.448
		C334.213,147.189,335.208,148.203,336.484,148.917z M336.56,138.872c0.376-0.828,0.941-1.503,1.693-2.023
		c0.753-0.52,1.656-0.78,2.707-0.777c1.028,0,1.913,0.257,2.652,0.772c0.741,0.514,1.296,1.192,1.667,2.032
		c0.368,0.841,0.556,1.731,0.556,2.67c0,0.916-0.188,1.793-0.556,2.633c-0.371,0.841-0.924,1.518-1.655,2.033
		c-0.735,0.512-1.623,0.77-2.661,0.77c-1.054,0-1.957-0.259-2.71-0.781c-0.752-0.521-1.317-1.191-1.693-2.013
		c-0.376-0.823-0.563-1.704-0.563-2.645C335.996,140.59,336.184,139.699,336.56,138.872z"/>
	<path fill="#D87129" d="M355.089,141.355c0-1.517,0.323-2.721,0.971-3.612c0.645-0.891,1.506-1.336,2.585-1.336
		c1.004,0,1.771,0.339,2.297,1.016c0.526,0.677,0.79,1.637,0.79,2.878v9.182h3.423v-10.14c0-1.931-0.491-3.449-1.477-4.554
		c-0.985-1.103-2.344-1.656-4.074-1.656c-0.968,0-1.786,0.186-2.456,0.556c-0.671,0.37-1.355,0.993-2.059,1.873v-2.033h-3.351
		v15.954h3.351V141.355z"/>
	<path fill="#D87129" d="M369.657,147.786c0.694,0.752,1.534,1.33,2.512,1.731c0.965,0.388,2.044,0.583,3.236,0.583
		c3.248,0,5.806-1.567,7.674-4.706l-2.745-1.788c-1.243,2.295-2.835,3.443-4.778,3.443c-0.88,0-1.653-0.2-2.325-0.601
		c-0.671-0.402-1.204-0.979-1.597-1.731c-0.397-0.752-0.614-1.618-0.651-2.594h12.021c-0.075-1.593-0.226-2.835-0.451-3.727
		c-0.225-0.891-0.612-1.693-1.165-2.408c-0.691-0.966-1.563-1.709-2.614-2.229c-1.055-0.52-2.228-0.781-3.519-0.781
		c-1.154,0-2.207,0.205-3.16,0.612c-0.954,0.406-1.774,0.991-2.456,1.749c-0.683,0.759-1.21,1.681-1.579,2.765
		c-0.371,1.086-0.558,2.268-0.558,3.547c0,1.242,0.187,2.387,0.558,3.434C368.428,146.135,368.961,147.035,369.657,147.786z
		 M375.482,135.993c1.052,0,1.916,0.301,2.595,0.902c0.679,0.601,1.113,1.474,1.317,2.615v0.001h-8.108
		C371.787,137.165,373.188,135.993,375.482,135.993z"/>
	<path fill="#D87129" d="M388.778,148.946c1.204,0.72,2.559,1.081,4.063,1.081c1.719,0,3.499-0.452,5.346-1.353v-4.046
		c-1.531,1.406-3.135,2.108-4.814,2.108c-0.993,0-1.852-0.209-2.579-0.621c-0.741-0.426-1.306-1.041-1.691-1.843
		c-0.393-0.803-0.586-1.75-0.586-2.841c0-1.618,0.492-2.88,1.477-3.781c0.984-0.904,2.172-1.355,3.565-1.355
		c1.793,0,3.337,0.672,4.628,2.015V134.3c-1.37-0.853-2.879-1.279-4.534-1.279c-1.118,0-2.203,0.206-3.256,0.621
		c-1.041,0.401-1.973,0.991-2.802,1.769c-0.813,0.765-1.469,1.681-1.956,2.746c-0.477,1.065-0.713,2.231-0.713,3.499
		c0,1.595,0.342,3.029,1.031,4.309C386.634,147.23,387.574,148.223,388.778,148.946z"/>
	<polygon fill="#D87129" points="402.472,149.482 405.876,149.482 405.876,136.332 408.944,136.332 408.944,133.528 
		405.876,133.528 405.876,127.357 402.472,127.357 402.472,133.528 400.102,133.528 400.102,136.332 402.472,136.332 	"/>
	<path fill="#D87129" d="M418.705,147.051c-0.876,0-1.652-0.2-2.324-0.601c-0.669-0.402-1.204-0.979-1.598-1.731
		s-0.61-1.618-0.648-2.594h12.021c-0.075-1.593-0.226-2.835-0.45-3.727c-0.229-0.891-0.616-1.693-1.168-2.408
		c-0.691-0.966-1.563-1.709-2.616-2.229c-1.052-0.52-2.225-0.781-3.517-0.781c-1.154,0-2.206,0.203-3.16,0.612
		c-0.955,0.406-1.772,0.991-2.455,1.749c-0.685,0.759-1.211,1.681-1.58,2.765c-0.371,1.086-0.557,2.268-0.557,3.547
		c0,1.242,0.186,2.387,0.557,3.434c0.369,1.047,0.903,1.948,1.601,2.699c0.695,0.752,1.532,1.33,2.51,1.731
		c0.967,0.388,2.044,0.583,3.235,0.583c3.251,0,5.809-1.567,7.674-4.706l-2.745-1.788
		C422.24,145.902,420.648,147.051,418.705,147.051z M418.63,135.993c1.056,0,1.921,0.301,2.598,0.902
		c0.677,0.601,1.116,1.474,1.317,2.615v0.001h-8.109C414.938,137.165,416.337,135.993,418.63,135.993z"/>
	<rect x="427.923" y="139.002" fill="#D87129" width="8.671" height="3.124"/>
	<path fill="#D87129" d="M444.593,139.568c-0.728-0.29-1.246-0.587-1.552-0.895c-0.308-0.306-0.462-0.686-0.462-1.138
		c0-0.977,0.425-1.466,1.278-1.466c0.479,0,0.99,0.123,1.542,0.367c0.554,0.244,1.005,0.524,1.354,0.836l2.239-1.862
		c-0.778-0.917-1.505-1.563-2.183-1.938c-0.676-0.376-1.492-0.565-2.441-0.565c-1.524,0-2.777,0.463-3.776,1.393
		c-0.996,0.927-1.496,2.08-1.496,3.46c0,1.18,0.308,2.12,0.924,2.821c0.627,0.718,1.726,1.418,3.292,2.108
		c1.068,0.465,1.786,0.873,2.162,1.223c0.377,0.352,0.564,0.79,0.564,1.316c0,0.566-0.186,1.009-0.557,1.335
		c-0.367,0.328-0.875,0.489-1.515,0.489c-1.065,0-2.118-0.633-3.16-1.9l-2.522,1.827c1.381,2.083,3.274,3.122,5.683,3.122
		c1.104,0,2.081-0.215,2.935-0.647c0.855-0.433,1.517-1.052,1.987-1.862c0.47-0.811,0.706-1.748,0.706-2.813
		c0-1.229-0.352-2.209-1.054-2.944C447.841,141.101,446.522,140.345,444.593,139.568z"/>
	<path fill="#D87129" d="M464.281,143.607c-1.24,2.295-2.835,3.443-4.778,3.443c-0.877,0-1.654-0.2-2.325-0.601
		c-0.67-0.402-1.204-0.979-1.597-1.731c-0.395-0.752-0.61-1.618-0.647-2.594h12.021c-0.075-1.593-0.227-2.835-0.452-3.727
		c-0.226-0.891-0.613-1.693-1.166-2.408c-0.691-0.966-1.562-1.709-2.615-2.229c-1.053-0.52-2.223-0.781-3.519-0.781
		c-1.153,0-2.205,0.203-3.16,0.612c-0.951,0.406-1.769,0.991-2.452,1.749c-0.687,0.759-1.214,1.681-1.582,2.765
		c-0.367,1.086-0.556,2.268-0.556,3.547c0,1.242,0.188,2.387,0.556,3.434c0.368,1.047,0.904,1.948,1.601,2.699
		c0.695,0.752,1.532,1.33,2.512,1.731c0.963,0.388,2.046,0.583,3.235,0.583c3.249,0,5.807-1.567,7.671-4.706L464.281,143.607z
		 M459.434,135.993c1.054,0,1.918,0.301,2.594,0.902c0.678,0.601,1.117,1.474,1.316,2.615v0.001h-8.104
		C455.738,137.165,457.139,135.993,459.434,135.993z"/>
	<path fill="#D87129" d="M161.654,174.792c-1.053-1.618-2.67-2.428-4.852-2.428c-1.419,0-2.707,0.364-3.867,1.09
		c-1.16,0.728-2.07,1.732-2.727,3.01c-0.659,1.279-0.989,2.703-0.989,4.271c0,1.604,0.321,3.059,0.959,4.364
		c0.642,1.292,1.52,2.307,2.644,3.046c1.121,0.74,2.372,1.111,3.753,1.111c1.078,0,2.062-0.211,2.953-0.63s1.6-1.011,2.127-1.778
		v1.938h3.405v-15.954h-3.405V174.792z M161.362,183.518c-0.357,0.852-0.881,1.54-1.572,2.061c-0.688,0.52-1.516,0.782-2.482,0.782
		c-0.979,0-1.821-0.26-2.529-0.782c-0.71-0.521-1.243-1.2-1.601-2.041c-0.358-0.84-0.536-1.725-0.536-2.652
		c0-0.942,0.178-1.838,0.536-2.691c0.358-0.853,0.891-1.536,1.601-2.051c0.708-0.513,1.551-0.77,2.529-0.77
		c0.979,0,1.812,0.257,2.504,0.77c0.689,0.515,1.216,1.186,1.58,2.014c0.338,0.84,0.509,1.724,0.509,2.654
		C161.9,181.761,161.72,182.665,161.362,183.518z"/>
	<path fill="#D87129" d="M178.979,173.377c-1.303-0.726-2.777-1.087-4.42-1.087s-3.109,0.36-4.4,1.082
		c-1.292,0.719-2.295,1.724-3.008,3.008c-0.716,1.286-1.074,2.738-1.074,4.356c0,1.656,0.353,3.138,1.062,4.448
		c0.709,1.311,1.703,2.324,2.982,3.038c1.279,0.74,2.734,1.111,4.364,1.111c1.669,0,3.16-0.355,4.478-1.064
		c1.316-0.708,2.337-1.707,3.067-3c0.728-1.292,1.091-2.754,1.091-4.383c0-1.656-0.363-3.139-1.091-4.451
		C181.298,175.125,180.284,174.106,178.979,173.377z M178.913,183.479c-0.371,0.84-0.921,1.517-1.655,2.031
		c-0.731,0.515-1.621,0.773-2.661,0.773c-1.053,0-1.956-0.259-2.708-0.781c-0.752-0.52-1.318-1.189-1.694-2.012
		c-0.376-0.822-0.563-1.704-0.563-2.644c0-0.952,0.187-1.843,0.563-2.67c0.377-0.828,0.942-1.501,1.694-2.023
		c0.75-0.52,1.654-0.779,2.708-0.779c1.028,0,1.91,0.257,2.651,0.77c0.74,0.515,1.293,1.192,1.665,2.032
		c0.371,0.839,0.557,1.729,0.557,2.67C179.47,181.76,179.284,182.638,178.913,183.479z"/>
	<path fill="#D87129" d="M201.085,175.106c1.179-0.238,2.108-0.839,2.792-1.806c0.684-0.965,1.027-2.138,1.027-3.518
		c0-1.966-0.594-3.523-1.778-4.664c-1.186-1.142-2.824-1.712-4.919-1.712h-6.246v25.377h6.659c2.22,0,3.921-0.376,5.099-1.128
		c0.664-0.414,1.242-0.947,1.731-1.6c0.489-0.652,0.85-1.344,1.083-2.079c0.23-0.735,0.346-1.483,0.346-2.248
		c0-1.707-0.513-3.201-1.542-4.486C204.309,175.956,202.891,175.245,201.085,175.106z M195.536,174.093v-7.655h1.863
		c1.241,0,2.202,0.333,2.886,0.997c0.685,0.666,1.026,1.606,1.026,2.822c0,1.204-0.327,2.145-0.979,2.821
		c-0.677,0.676-1.604,1.015-2.784,1.015H195.536h-0.001H195.536z M198.282,185.833h-2.748v-8.69h2.598
		c3.384,0,5.077,1.453,5.077,4.363C203.209,184.391,201.568,185.833,198.282,185.833z"/>
	<path fill="#D87129" d="M215.212,172.474c-1.845,0-3.261,0.772-4.252,2.314v-1.957h-3.367v15.952h3.349l0.018-8.052
		c0-1.555,0.295-2.778,0.886-3.669c0.588-0.902,1.374-1.353,2.351-1.353c0.588,0,1.285,0.181,2.088,0.545l1.768-3.047
		C217.113,172.719,216.166,172.474,215.212,172.474z"/>
	<path fill="#D87129" d="M230.276,174.792c-1.054-1.618-2.671-2.428-4.852-2.428c-1.417,0-2.705,0.364-3.867,1.09
		c-1.16,0.728-2.068,1.732-2.728,3.01c-0.659,1.279-0.988,2.703-0.988,4.271c0,1.604,0.32,3.059,0.958,4.364
		c0.641,1.292,1.522,2.307,2.645,3.046c1.122,0.74,2.371,1.111,3.752,1.111c1.078,0,2.062-0.211,2.952-0.63
		c0.891-0.419,1.599-1.011,2.127-1.778v1.938h3.406v-15.954h-3.406V174.792z M229.984,183.518c-0.358,0.852-0.882,1.54-1.571,2.061
		c-0.692,0.52-1.521,0.782-2.485,0.782c-0.977,0-1.82-0.26-2.528-0.782c-0.708-0.521-1.243-1.2-1.6-2.041
		c-0.355-0.84-0.536-1.725-0.536-2.652c0-0.942,0.181-1.838,0.538-2.691c0.356-0.853,0.889-1.536,1.599-2.051
		c0.707-0.513,1.552-0.77,2.529-0.77c0.979,0,1.813,0.257,2.503,0.77c0.689,0.515,1.216,1.186,1.58,2.014
		c0.337,0.84,0.507,1.724,0.507,2.654C230.52,181.761,230.339,182.665,229.984,183.518z"/>
	<path fill="#D87129" d="M240.848,178.875c-0.725-0.29-1.244-0.587-1.549-0.895c-0.308-0.307-0.461-0.687-0.461-1.138
		c0-0.979,0.425-1.468,1.28-1.468c0.474,0,0.989,0.123,1.541,0.367c0.552,0.244,1.003,0.524,1.354,0.837l2.239-1.863
		c-0.779-0.916-1.506-1.562-2.183-1.938c-0.677-0.376-1.493-0.563-2.446-0.563c-1.519,0-2.775,0.462-3.771,1.39
		c-0.997,0.929-1.496,2.083-1.496,3.462c0,1.178,0.306,2.119,0.921,2.821c0.627,0.714,1.725,1.418,3.292,2.107
		c1.066,0.465,1.787,0.871,2.164,1.223c0.378,0.351,0.566,0.79,0.566,1.317c0,0.563-0.188,1.009-0.558,1.335
		c-0.369,0.326-0.873,0.491-1.513,0.491c-1.065,0-2.12-0.634-3.16-1.901l-2.522,1.828c1.379,2.082,3.274,3.123,5.682,3.123
		c1.102,0,2.081-0.216,2.933-0.65c0.856-0.434,1.515-1.054,1.988-1.862c0.469-0.811,0.704-1.748,0.704-2.813
		c0-1.228-0.351-2.21-1.052-2.944C244.098,180.409,242.78,179.653,240.848,178.875z"/>
	<polygon fill="#D87129" points="246.794,172.832 246.794,188.785 250.162,188.785 250.142,172.832 	"/>
	<path fill="#D87129" d="M248.524,165.232c-0.679,0-1.209,0.22-1.59,0.659c-0.384,0.438-0.573,0.953-0.573,1.542
		c0,0.601,0.189,1.119,0.573,1.551c0.384,0.434,0.914,0.649,1.59,0.649c0.651,0,1.16-0.219,1.524-0.659
		c0.376-0.427,0.564-0.941,0.564-1.542c0-0.589-0.188-1.104-0.558-1.542C249.685,165.452,249.174,165.232,248.524,165.232z"/>
	<rect x="251.722" y="161.883" fill="#D87129" width="3.348" height="26.902"/>
	<polygon fill="#D87129" points="276.984,186.847 276.984,186.849 276.986,186.847 	"/>
	<path fill="#D87129" d="M276.984,174.793c-1.128-1.618-2.745-2.428-4.852-2.428c-1.457,0-2.767,0.363-3.934,1.09
		c-1.165,0.728-2.082,1.733-2.744,3.01c-0.665,1.279-0.999,2.703-0.999,4.271c0,1.605,0.325,3.059,0.97,4.364
		c0.647,1.305,1.545,2.32,2.7,3.047c1.154,0.728,2.439,1.09,3.857,1.09c2.143,0,3.81-0.796,5.001-2.388v-0.001h0.002
		c0,0-0.002,0-0.002,0.001v1.922h3.406v-26.958h-3.406V174.793z M275.973,184.731c-0.793,1.083-1.903,1.627-3.332,1.627
		c-1.468,0-2.624-0.555-3.471-1.665c-0.846-1.11-1.271-2.406-1.271-3.885c0-0.94,0.18-1.827,0.536-2.663
		c0.358-0.833,0.89-1.504,1.6-2.011c0.708-0.509,1.552-0.762,2.53-0.762c0.965,0,1.793,0.259,2.485,0.777
		c0.688,0.521,1.214,1.203,1.569,2.052c0.359,0.845,0.537,1.74,0.537,2.682C277.156,182.364,276.762,183.645,275.973,184.731z"/>
	<path fill="#D87129" d="M289.328,186.362c-0.88,0-1.652-0.203-2.325-0.603c-0.67-0.4-1.202-0.978-1.598-1.731
		s-0.613-1.618-0.649-2.596h12.022c-0.076-1.592-0.228-2.835-0.453-3.725c-0.227-0.891-0.615-1.693-1.166-2.408
		c-0.689-0.966-1.562-1.707-2.613-2.229c-1.054-0.521-2.227-0.782-3.52-0.782c-1.151,0-2.205,0.204-3.159,0.61
		c-0.955,0.409-1.772,0.992-2.456,1.749c-0.684,0.76-1.211,1.681-1.579,2.767c-0.371,1.083-0.556,2.265-0.556,3.545
		c0,1.241,0.185,2.385,0.556,3.433c0.368,1.048,0.902,1.947,1.597,2.699c0.701,0.754,1.537,1.33,2.515,1.731
		c0.964,0.389,2.043,0.584,3.234,0.584c3.248,0,5.805-1.568,7.676-4.702l-2.746-1.786
		C292.865,185.213,291.272,186.362,289.328,186.362z M289.253,175.295c1.054,0,1.921,0.301,2.598,0.904s1.114,1.474,1.314,2.615
		h-8.106C285.56,176.469,286.958,175.295,289.253,175.295z"/>
	<polygon fill="#D87129" points="317,172.832 312.956,182.766 308.609,172.832 304.584,172.832 312.73,189.989 321.007,172.832 	"/>
	<path fill="#D87129" d="M328.029,186.362c-0.881,0-1.654-0.203-2.324-0.603c-0.673-0.4-1.204-0.978-1.6-1.731
		c-0.396-0.753-0.611-1.618-0.65-2.596h12.022c-0.075-1.592-0.227-2.835-0.452-3.725c-0.225-0.891-0.615-1.693-1.164-2.408
		c-0.691-0.966-1.564-1.707-2.617-2.229c-1.053-0.521-2.226-0.782-3.519-0.782c-1.151,0-2.205,0.204-3.158,0.61
		c-0.954,0.409-1.772,0.992-2.455,1.749c-0.683,0.76-1.208,1.681-1.58,2.767c-0.372,1.083-0.554,2.265-0.554,3.545
		c0,1.241,0.182,2.385,0.554,3.433c0.37,1.048,0.901,1.947,1.597,2.699c0.698,0.754,1.537,1.33,2.515,1.731
		c0.963,0.389,2.042,0.584,3.235,0.584c3.244,0,5.803-1.568,7.674-4.702l-2.745-1.786
		C331.565,185.213,329.972,186.362,328.029,186.362z M327.954,175.295c1.056,0,1.921,0.302,2.597,0.904
		c0.677,0.603,1.114,1.474,1.314,2.615h-8.108C324.26,176.469,325.659,175.295,327.954,175.295z"/>
	<path fill="#D87129" d="M343.774,172.474c-1.845,0-3.26,0.772-4.253,2.314v-1.957h-3.367v15.952h3.349l0.019-8.052
		c0-1.555,0.296-2.778,0.885-3.669c0.59-0.902,1.373-1.353,2.351-1.353c0.591,0,1.286,0.181,2.09,0.545l1.771-3.047
		C345.675,172.719,344.729,172.474,343.774,172.474z"/>
	<path fill="#D87129" d="M358.915,174.793c-1.129-1.618-2.748-2.428-4.854-2.428c-1.456,0-2.766,0.363-3.933,1.09
		c-1.165,0.728-2.082,1.733-2.745,3.01c-0.666,1.279-0.997,2.703-0.997,4.271c0,1.605,0.322,3.059,0.969,4.364
		c0.644,1.305,1.544,2.32,2.698,3.047c1.153,0.728,2.438,1.09,3.857,1.09c2.143,0,3.812-0.797,5.002-2.39h0.003v1.924h3.403v-26.958
		h-3.403V174.793z M357.897,184.731c-0.789,1.083-1.899,1.627-3.329,1.627c-1.47,0-2.626-0.555-3.471-1.665
		c-0.849-1.11-1.271-2.406-1.271-3.885c0-0.94,0.18-1.827,0.535-2.663c0.358-0.833,0.892-1.504,1.599-2.011
		c0.711-0.509,1.555-0.762,2.531-0.762c0.967,0,1.794,0.259,2.485,0.777c0.689,0.521,1.212,1.203,1.571,2.052
		c0.355,0.845,0.535,1.74,0.535,2.682C359.083,182.364,358.688,183.645,357.897,184.731z"/>
	<path fill="#D87129" d="M376.031,174.792c-1.052-1.618-2.668-2.428-4.852-2.428c-1.418,0-2.707,0.364-3.867,1.09
		c-1.16,0.728-2.068,1.732-2.728,3.01c-0.658,1.279-0.988,2.703-0.988,4.271c0,1.604,0.321,3.059,0.959,4.364
		c0.64,1.292,1.521,2.307,2.644,3.046c1.121,0.74,2.373,1.111,3.751,1.111c1.079,0,2.064-0.211,2.954-0.63
		c0.892-0.419,1.602-1.011,2.127-1.778v1.938h3.406v-15.954h-3.406V174.792z M375.741,183.518c-0.357,0.852-0.881,1.54-1.572,2.061
		c-0.689,0.52-1.517,0.782-2.483,0.782c-0.979,0-1.82-0.26-2.528-0.782c-0.71-0.521-1.243-1.2-1.603-2.041
		c-0.354-0.84-0.533-1.725-0.533-2.652c0-0.942,0.178-1.838,0.533-2.691c0.359-0.853,0.893-1.536,1.603-2.051
		c0.708-0.513,1.554-0.77,2.529-0.77c0.978,0,1.813,0.257,2.503,0.77c0.689,0.515,1.216,1.186,1.582,2.014
		c0.336,0.84,0.507,1.724,0.507,2.654C376.278,181.761,376.098,182.665,375.741,183.518z"/>
	<path fill="#D87129" d="M393.303,174.793c-1.129-1.618-2.747-2.428-4.854-2.428c-1.457,0-2.767,0.363-3.934,1.09
		c-1.165,0.728-2.08,1.733-2.744,3.01c-0.665,1.279-0.999,2.703-0.999,4.271c0,1.605,0.325,3.059,0.969,4.364
		c0.645,1.305,1.546,2.32,2.699,3.047c1.154,0.728,2.439,1.09,3.857,1.09c2.145,0,3.813-0.797,5.006-2.39v1.924h3.403v-26.958
		h-3.403V174.793z M392.286,184.731c-0.791,1.083-1.899,1.627-3.329,1.627c-1.469,0-2.625-0.555-3.472-1.665
		s-1.271-2.406-1.271-3.885c0-0.94,0.181-1.827,0.537-2.663c0.358-0.833,0.89-1.504,1.601-2.011c0.707-0.509,1.552-0.762,2.53-0.762
		c0.964,0,1.793,0.259,2.484,0.777c0.688,0.521,1.212,1.203,1.571,2.052c0.354,0.845,0.536,1.74,0.536,2.682
		C393.474,182.364,393.077,183.645,392.286,184.731z"/>
	<path fill="#D87129" d="M405.639,186.362c-0.878,0-1.652-0.203-2.323-0.603c-0.671-0.4-1.204-0.978-1.599-1.731
		c-0.394-0.753-0.609-1.618-0.649-2.596h12.022c-0.077-1.592-0.228-2.835-0.453-3.725c-0.226-0.891-0.613-1.693-1.164-2.408
		c-0.689-0.966-1.563-1.707-2.615-2.229c-1.054-0.521-2.229-0.782-3.52-0.782c-1.152,0-2.206,0.204-3.16,0.61
		c-0.953,0.409-1.772,0.992-2.454,1.749c-0.683,0.76-1.21,1.681-1.579,2.767c-0.369,1.083-0.554,2.265-0.554,3.545
		c0,1.241,0.183,2.385,0.554,3.433c0.369,1.048,0.902,1.947,1.599,2.699c0.698,0.754,1.535,1.33,2.513,1.731
		c0.965,0.389,2.041,0.584,3.235,0.584c3.247,0,5.808-1.568,7.672-4.702l-2.746-1.786
		C409.174,185.213,407.583,186.362,405.639,186.362z M405.566,175.295c1.053,0,1.918,0.301,2.597,0.904
		c0.678,0.603,1.115,1.474,1.315,2.615h-8.109C401.874,176.469,403.273,175.295,405.566,175.295z"/>
	<path fill="#D87129" d="M415.48,184.891c-0.664,0-1.198,0.222-1.6,0.668c-0.4,0.446-0.601,0.958-0.601,1.533
		c0,0.591,0.2,1.112,0.601,1.563c0.401,0.452,0.936,0.677,1.6,0.677c0.665,0,1.187-0.222,1.563-0.659
		c0.376-0.437,0.564-0.951,0.564-1.542c0-0.604-0.194-1.125-0.574-1.571C416.651,185.113,416.134,184.891,415.48,184.891z"/>
</g>
<g id="pontos">
	<g id="ponto-inferior">
		<path id="borda-ponto-inferior" fill="none" stroke="#D87129" stroke-width="1.656" stroke-miterlimit="10" d="M303.919,420.488
			c-7.137,0-12.922,5.785-12.922,12.922s5.785,12.922,12.922,12.922s12.922-5.785,12.922-12.922S311.056,420.488,303.919,420.488z
			 M303.832,442.016c-4.801,0-8.693-3.893-8.693-8.693c0-4.804,3.894-8.695,8.693-8.695c4.802-0.001,8.695,3.892,8.695,8.695
			C312.527,438.124,308.633,442.016,303.832,442.016z"/>
		<circle id="centro-ponto-inferior" fill="#F3712C" cx="303.832" cy="433.321" r="8.694"/>
	</g>
	<g id="ponto-dir">
		<path fill="none" stroke="#D87129" stroke-width="1.656" stroke-miterlimit="10" d="M425.645,249.907
			c-7.136,0-12.922,5.785-12.922,12.922s5.786,12.922,12.922,12.922c7.137,0,12.923-5.785,12.923-12.922
			S432.781,249.907,425.645,249.907z M425.557,271.436c-4.801,0-8.692-3.894-8.692-8.694c0-4.802,3.893-8.695,8.692-8.695
			c4.803-0.001,8.695,3.892,8.695,8.695C434.252,267.543,430.359,271.436,425.557,271.436z"/>
		<circle id="centro-ponto-dir" fill="#F3712C" cx="425.557" cy="262.741" r="8.695"/>
	</g>
	<g id="ponto-esq">
		<path id="borda-ponto-esq" fill="none" stroke="#D87129" stroke-width="1.656" stroke-miterlimit="10" d="M154.04,207.674
			c-7.137,0-12.923,5.786-12.923,12.923s5.786,12.923,12.923,12.923s12.923-5.786,12.923-12.923S161.177,207.674,154.04,207.674z
			 M153.952,229.204c-4.802,0-8.694-3.893-8.694-8.695c0-4.802,3.892-8.695,8.694-8.695c4.802,0,8.695,3.893,8.695,8.695
			C162.647,225.311,158.754,229.204,153.952,229.204z"/>
		<circle id="centro-ponto-esq" fill="#F3712C" cx="153.952" cy="220.509" r="8.695"/>
	</g>
</g>
<g id="caminhos">
	
		<line id="caminho-dir" fill="none" stroke="#D97029" stroke-width="1.656" stroke-miterlimit="10" stroke-dasharray="2.484,2.484,2.484,2.484,2.484,2.484" x1="406.926" y1="274.748" x2="310.871" y2="413.861"/>
	
		<line id="caminho-esq" fill="none" stroke="#D97029" stroke-width="1.656" stroke-miterlimit="10" stroke-dasharray="2.484,2.484,2.484,2.484,2.484,2.484" x1="293.48" y1="414.689" x2="178.38" y2="229.204"/>
	<g id="caminho-superior">
		
			<polygon fill="none" stroke="#D97029" stroke-width="1.656" stroke-miterlimit="10" stroke-dasharray="2.547,2.547,2.547,2.547,2.547,2.547" points="
			336.123,238.643 401.123,247.895 403.613,248.249 		"/>
		
			<polygon fill="none" stroke="#D97029" stroke-width="1.656" stroke-miterlimit="10" stroke-dasharray="2.547,2.547,2.547,2.547,2.547,2.547" points="
			176.724,215.955 336.123,238.643 190.563,217.924 		"/>
	</g>
</g>
</svg>
