<?xml version="1.0" encoding="utf-8"?>
<!-- Generator: Adobe Illustrator 16.0.0, SVG Export Plug-In . SVG Version: 6.00 Build 0)  -->
<!DOCTYPE svg PUBLIC "-//W3C//DTD SVG 1.1//EN" "http://www.w3.org/Graphics/SVG/1.1/DTD/svg11.dtd">
<svg version="1.1" id="vivala-icon-alimentacao" xmlns="http://www.w3.org/2000/svg" xmlns:xlink="http://www.w3.org/1999/xlink"
	 x="0px" y="0px" width="88.09px" height="77.497px" viewBox="0 0 88.09 77.497" enable-background="new 0 0 88.09 77.497"
	 xml:space="preserve">
<path id="garfo" fill="#F3712C" d="M19.838,0c-1.317,0-2.202,1.073-2.202,2.392v19.625h-1.76V2.392C15.876,1.073,14.991,0,13.674,0
	c-1.319,0-2.201,1.073-2.201,2.392v19.625h-0.88V2.392C10.593,1.073,9.709,0,8.391,0c-1.32,0-2.203,1.073-2.203,2.392v19.625H4.427
	V2.392C4.427,1.073,3.545,0,2.228,0c-1.32,0-2.203,1.073-2.203,2.392v20.093c0,0.212-0.055,0.657,0,0.854
	c0.481,4.656,3.524,8.307,7.045,10.078v39.776c0,2.378,1.584,4.306,3.963,4.306c2.377,0,3.961-1.928,3.961-4.306V33.416
	c3.525-1.771,6.566-4.981,7.048-9.639c0.052-0.197,0-1.082,0-1.293V2.392C22.041,1.073,21.157,0,19.838,0"/>
<path id="faca" fill="#F3712C" d="M83.761,0c-2.378,0-6.239,2.869-6.239,12.439v27.745l1.762,0.693v32.313
	c0,2.378,2.023,4.306,4.402,4.306s4.404-1.928,4.404-4.306V44.01V33.486V4.306C88.09,1.929,86.139,0,83.761,0"/>
<g id="prato">
	<path id="borda-prato" fill="#F3712C" d="M46.904,19.135c-15.322,0-27.746,12.424-27.746,27.747
		c0,15.324,12.424,27.744,27.746,27.744c15.324,0,27.746-12.42,27.746-27.744S62.229,19.135,46.904,19.135z M46.904,69.76
		c-12.615,0-22.877-10.264-22.877-22.879s10.264-22.879,22.877-22.879s22.879,10.266,22.879,22.879
		C69.783,59.497,59.52,69.76,46.904,69.76z"/>
	<path id="centro-prato" fill="#F3712C" d="M46.904,27.663c-10.597,0-19.217,8.622-19.217,19.218c0,10.598,8.62,19.22,19.217,19.22
		c10.599,0,19.219-8.623,19.219-19.22C66.123,36.285,57.503,27.663,46.904,27.663z"/>
</g>
</svg>
