<?xml version="1.0" encoding="utf-8"?>
<!-- Generator: Adobe Illustrator 16.0.0, SVG Export Plug-In . SVG Version: 6.00 Build 0)  -->
<!DOCTYPE svg PUBLIC "-//W3C//DTD SVG 1.1//EN" "http://www.w3.org/Graphics/SVG/1.1/DTD/svg11.dtd">
<svg version="1.1" id="vivala-logo" xmlns="http://www.w3.org/2000/svg" xmlns:xlink="http://www.w3.org/1999/xlink" x="0px"
	 y="0px" width="150.006px" height="82.316px" viewBox="0 0 150.006 82.316" enable-background="new 0 0 150.006 82.316"
	 xml:space="preserve">
<g id="logotipo">
	<path fill="#F16F2B" d="M71.815,68.355c0.584-0.039,0.989-0.084,1.395-0.09c0.831-0.014,1.664,0.018,2.495-0.016
		c0.971-0.035,1.065-0.142,1.121-1.086c0.257-4.521,0.509-9.045,0.766-13.568c0.332-5.85,0.659-11.701,1.005-17.551
		c0.211-3.567,0.445-7.133,0.676-10.699c0.021-0.33,0.063-0.656,0.094-0.96c0.852-0.44,15.255-2.844,17.432-2.903
		c0.09,0.399,0.236,0.823,0.273,1.259c0.199,2.358,0.361,4.722,0.554,7.082c0.216,2.649,0.452,5.299,0.673,7.948
		c0.191,2.277,0.375,4.555,0.563,6.832c0.313,3.81,0.63,7.619,0.941,11.43c0.189,2.316,0.371,4.636,0.561,6.956
		c0.223,2.733,0.457,5.466,0.675,8.196c0.087,1.074,0.146,2.151,0.228,3.373c-2.441,0.479-4.887,0.711-7.478,0.92
		c-0.743-7.7-1.476-15.289-2.213-22.95h-5.845c-0.037,0.549-0.096,1.03-0.096,1.511c-0.009,5.406-0.006,10.813-0.006,16.22
		c0,0.291-0.02,0.584,0.002,0.873c0.047,0.622-0.25,0.924-0.85,0.987c-2.354,0.254-4.705,0.511-7.059,0.767
		c-1.24,0.137-2.477,0.286-3.716,0.41c-0.654,0.064-1.312,0.086-2.144,0.139C71.71,71.722,71.781,70.126,71.815,68.355
		 M84.683,44.095c1.358,0.344,6.198,0.313,7.221-0.021c0.015-0.221,0.072-0.465,0.041-0.697c-0.547-4.032-1.103-8.062-1.664-12.091
		c-0.127-0.9-0.26-1.018-1.225-1.037c-1.123-0.024-2.248-0.018-3.369,0.002c-0.317,0.006-0.634,0.104-1.004,0.168V44.095z"/>
	<path id="acento-a" fill="#F16F2B" d="M136.281,0c0.553,2.914,1.065,5.621,1.606,8.469c-0.635,0.106-1.104,0.235-1.58,0.257
		c-3.646,0.174-7.295,0.313-10.94,0.5c-0.692,0.036-1.078-0.149-1.287-0.834c-0.406-1.339-0.871-2.662-1.354-4.12
		C127.246,2.847,131.658,1.457,136.281,0"/>
	<path id="letra-l" fill="#F16F2B" d="M131.017,71.987c-0.401,0.057-0.716,0.131-1.029,0.141c-6.729,0.18-13.457,0.353-20.188,0.525
		c-0.165,0.005-0.331,0.012-0.497,0.01c-1.15-0.01-1.199-0.07-1.279-1.166c-0.315-4.432-0.651-8.861-0.965-13.295
		c-0.279-4.019-0.522-8.039-0.81-12.058c-0.293-4.102-0.627-8.199-0.923-12.3c-0.203-2.775-0.362-5.552-0.561-8.328
		c-0.216-3.024-0.459-6.047-0.676-9.071c-0.176-2.479-0.324-4.962-0.497-7.586c3.138-0.902,6.323-1.554,9.677-2.397
		c0.023,0.725,0.057,1.285,0.062,1.847c0.041,4.364,0.067,8.729,0.12,13.093c0.072,5.942,0.165,11.885,0.248,17.826
		c0.084,5.86,0.162,11.718,0.252,17.577c0.035,2.451,0.088,4.902,0.143,7.354c0.006,0.322,0.068,0.644,0.109,1.015
		c0.857,0.287,1.684,0.123,2.494,0.063c2.897-0.214,5.796-0.453,8.693-0.682c1.24-0.099,2.483-0.176,3.727-0.286
		c0.648-0.058,1.053,0.175,1.13,0.843C130.503,67.367,130.752,69.626,131.017,71.987"/>
	<path id="letra-a-1" fill="#F16F2B" d="M128.508,43.819c0.336,4.369,0.662,8.621,0.986,12.856c-0.81,0.426-7.054,0.983-8.722,0.763
		c-0.086-14.253-0.381-28.521-0.345-42.899c0.94,0.052,1.72,0.063,2.493,0.142c3.717,0.379,7.432,0.78,11.15,1.161
		c1.238,0.128,2.48,0.217,3.723,0.33c0.963,0.087,1.109,0.21,1.283,1.171c1.078,6.006,2.148,12.013,3.221,18.02
		c1.202,6.744,2.4,13.487,3.6,20.229c1.215,6.826,2.429,13.651,3.642,20.476c0.149,0.854,0.296,1.709,0.467,2.694
		c-2.448,1.179-4.866,2.342-7.389,3.556c-0.146-0.458-0.295-0.79-0.351-1.138c-0.776-4.92-1.537-9.842-2.31-14.764
		c-0.71-4.512-1.429-9.021-2.147-13.529c-0.43-2.705-0.854-5.412-1.306-8.114c-0.179-1.062-0.209-1.071-1.267-1.08
		c-1.871-0.015-3.744-0.009-5.613,0.001C129.34,43.695,129.058,43.755,128.508,43.819 M127.901,22.968v12.747
		c1.104,0.428,6.013,0.459,7.24,0.056c0-0.343,0.043-0.712-0.007-1.068c-0.308-2.175-0.629-4.349-0.956-6.52
		c-0.225-1.475-0.469-2.948-0.693-4.423c-0.059-0.394-0.147-0.779-0.625-0.785C131.256,22.956,129.647,22.968,127.901,22.968"/>
	<path id="letra-v-2" fill="#F16F2B" d="M56.62,25.003c0.191,1.605,0.385,3.163,0.561,4.723c0.4,3.548,0.797,7.098,1.186,10.646
		c0.365,3.342,0.715,6.688,1.074,10.033c0.084,0.784,0.151,1.571,0.278,2.351c0.115,0.705,0.338,0.787,1.697,0.779
		c1.261-0.004,1.42-0.078,1.564-0.783c0.041-0.203,0.045-0.414,0.054-0.621c0.193-4.234,0.368-8.471,0.575-12.705
		c0.194-3.942,0.428-7.883,0.627-11.824c0.137-2.7,0.237-5.397,0.366-8.097c0.056-1.204,0.159-2.405,0.21-3.609
		c0.023-0.533,0.217-0.869,0.764-0.962c4.25-0.734,8.499-1.471,12.75-2.204c0.028-0.003,0.067,0.038,0.233,0.13
		c-0.166,1.244-0.311,2.55-0.521,3.847c-0.343,2.106-0.358,2.086-2.536,2.112c-0.898,0.014-1.826-0.188-2.831,0.319
		c-0.833,14.158-1.667,28.372-2.499,42.532c-1.007,0.349-15.807,0.438-17.504,0.127c-0.088-0.381-0.24-0.808-0.28-1.246
		c-0.533-5.832-1.035-11.668-1.574-17.498c-0.532-5.748-1.097-11.492-1.642-17.239c-0.024-0.239,0.019-0.484,0.031-0.709
		C50.125,24.839,54.708,24.771,56.62,25.003"/>
	<path id="letra-i" fill="#F16F2B" d="M45.397,70.677c-3.351-0.123-6.545-0.518-9.851-0.838c-0.045-0.418-0.117-0.774-0.117-1.134
		c-0.006-13.963-0.007-27.925-0.002-41.888c0-1.194,0.08-1.271,1.277-1.282c1.62-0.015,3.241-0.019,4.861,0.004
		c1.055,0.013,1.108,0.075,1.176,1.141c0.256,4.021,0.495,8.041,0.756,12.061c0.3,4.642,0.629,9.28,0.922,13.921
		c0.203,3.231,0.359,6.469,0.554,9.7c0.125,2.072,0.291,4.144,0.419,6.214C45.431,69.194,45.397,69.812,45.397,70.677"/>
	<path id="acento-i" fill="#F16F2B" d="M38.191,19.646v-5.69c4.896-0.61,9.732-1.212,14.657-1.825
		c0.071,0.463,0.161,0.779,0.164,1.095c0.014,1.788,0.02,3.575,0.002,5.363c-0.011,1.079-0.099,1.186-1.112,1.188
		c-4.282,0.016-8.564,0.007-12.846-0.001C38.815,19.775,38.573,19.706,38.191,19.646"/>
	<path id="letra-v-1" fill="#F16F2B" d="M20.099,62.886c0.078-1.273,0.172-2.381,0.208-3.494c0.054-1.702,0.068-3.407,0.096-5.111
		c0.099-5.858,0.193-11.723,0.297-17.581c0.075-4.199,0.159-8.396,0.253-12.594c0.051-2.325,0.129-4.651,0.201-6.979
		c0.035-1.089,0.042-1.087,1.098-1.238c2.753-0.395,5.504-0.802,8.26-1.178c0.481-0.066,0.979-0.01,1.621-0.01
		c0.121,1.643,0.066,3.235,0.035,4.972c-0.77,0.033-1.417,0.056-2.064,0.087c-0.969,0.05-1.08,0.147-1.119,1.081
		c-0.074,1.827-0.149,3.655-0.198,5.482c-0.116,4.446-0.207,8.893-0.327,13.339c-0.157,5.858-0.331,11.717-0.503,17.574
		c-0.155,5.276-0.317,10.554-0.481,15.828c-0.009,0.317-0.066,0.637-0.108,1.013c-0.323-0.016-0.569,0.011-0.798-0.042
		c-4.904-1.088-9.802-2.203-14.712-3.258c-0.816-0.177-1.175-0.511-1.303-1.347c-0.588-3.813-1.241-7.619-1.866-11.426
		c-0.874-5.326-1.742-10.652-2.615-15.978c-0.793-4.833-1.588-9.666-2.381-14.499c-0.875-5.323-1.745-10.65-2.621-15.975
		C0.722,9.426,0.358,7.298,0.01,5.167C-0.017,5.013,0.02,4.85,0.033,4.592c0.345-0.05,0.657-0.128,0.972-0.129
		C3.083,4.451,5.163,4.448,7.241,4.46c1.101,0.007,1.125,0.053,1.3,1.197c1.225,8.042,2.466,16.084,3.68,24.128
		c1.207,8.005,2.385,16.012,3.583,24.016c0.355,2.381,0.761,4.754,1.087,7.143c0.106,0.771,0.458,1.189,1.19,1.371
		C18.711,62.472,19.332,62.666,20.099,62.886"/>
</g>
</svg>
