<?xml version="1.0" encoding="utf-8"?>
<!-- Generator: Adobe Illustrator 19.0.0, SVG Export Plug-In . SVG Version: 6.00 Build 0)  -->
<svg version="1.1" id="Camada_1" xmlns="http://www.w3.org/2000/svg" xmlns:xlink="http://www.w3.org/1999/xlink" x="0px" y="0px"
	 viewBox="0 0 325.7 221" style="enable-background:new 0 0 325.7 221;" xml:space="preserve">
<style type="text/css">
	.st0{fill:#484741;}
	.st1{font-family:'Capriola-Regular';}
	.st2{font-size:34.3241px;}
	.st3{letter-spacing:12;}
	.st4{fill-rule:evenodd;clip-rule:evenodd;fill:#F16F2B;}
</style>
<g id="XMLID_28_">
	<text id="XMLID_25_" transform="matrix(1 0 0 1 18.2994 38.1895)" class="st0 st1 st2 st3">INSTITUTO</text>
	<g id="XMLID_29_">
		<path id="XMLID_24_" class="st4" d="M53.2,174.1c0.2-2.5,0.3-4.7,0.4-7c0.1-3.4,0.1-6.8,0.2-10.2c0.2-11.7,0.4-23.4,0.6-35.1
			c0.2-8.4,0.3-16.8,0.5-25.1c0.1-4.6,0.3-9.3,0.4-13.9c0.1-2.2,0.1-2.2,2.2-2.5c5.5-0.8,11-1.6,16.5-2.4c1-0.1,2,0,3.2,0
			c0.2,3.3,0.1,6.5,0.1,9.9c-1.5,0.1-2.8,0.1-4.1,0.2c-1.9,0.1-2.2,0.3-2.2,2.2c-0.1,3.6-0.3,7.3-0.4,10.9
			c-0.2,8.9-0.4,17.8-0.7,26.6c-0.3,11.7-0.7,23.4-1,35.1c-0.3,10.5-0.6,21.1-1,31.6c0,0.6-0.1,1.3-0.2,2c-0.6,0-1.1,0-1.6-0.1
			c-9.8-2.2-19.6-4.4-29.4-6.5c-1.6-0.4-2.3-1-2.6-2.7c-1.2-7.6-2.5-15.2-3.7-22.8c-1.7-10.6-3.5-21.3-5.2-31.9
			c-1.6-9.6-3.2-19.3-4.8-28.9c-1.7-10.6-3.5-21.3-5.2-31.9c-0.7-4.3-1.4-8.5-2.1-12.8c-0.1-0.3,0-0.6,0-1.1
			c0.7-0.1,1.3-0.3,1.9-0.3c4.1,0,8.3,0,12.4,0c2.2,0,2.2,0.1,2.6,2.4c2.4,16.1,4.9,32.1,7.3,48.2c2.4,16,4.8,32,7.2,47.9
			c0.7,4.7,1.5,9.5,2.2,14.3c0.2,1.5,0.9,2.4,2.4,2.7C50.5,173.2,51.7,173.6,53.2,174.1"/>
		<path id="XMLID_38_" class="st4" d="M269.7,136c0.7,8.7,1.3,17.2,2,25.7c-1.6,0.8-14.1,2-17.4,1.5c-0.2-28.4-0.8-56.9-0.7-85.6
			c1.9,0.1,3.4,0.1,5,0.3c7.4,0.8,14.8,1.6,22.3,2.3c2.5,0.3,5,0.4,7.4,0.7c1.9,0.2,2.2,0.4,2.6,2.3c2.2,12,4.3,24,6.4,36
			c2.4,13.5,4.8,26.9,7.2,40.4c2.4,13.6,4.8,27.2,7.3,40.9c0.3,1.7,0.6,3.4,0.9,5.4c-4.9,2.3-9.7,4.7-14.8,7.1
			c-0.3-0.9-0.6-1.6-0.7-2.3c-1.6-9.8-3.1-19.6-4.6-29.5c-1.4-9-2.9-18-4.3-27c-0.9-5.4-1.7-10.8-2.6-16.2c-0.4-2.1-0.4-2.1-2.5-2.2
			c-3.7,0-7.5,0-11.2,0C271.3,135.7,270.8,135.9,269.7,136 M268.5,94.4v25.4c2.2,0.9,12,0.9,14.5,0.1c0-0.7,0.1-1.4,0-2.1
			c-0.6-4.3-1.3-8.7-1.9-13c-0.4-2.9-0.9-5.9-1.4-8.8c-0.1-0.8-0.3-1.6-1.2-1.6C275.1,94.3,271.9,94.4,268.5,94.4"/>
		<path id="XMLID_35_" class="st4" d="M156.5,185c1.2-0.1,2-0.2,2.8-0.2c1.7,0,3.3,0,5,0c1.9-0.1,2.1-0.3,2.2-2.2
			c0.5-9,1-18.1,1.5-27.1c0.7-11.7,1.3-23.4,2-35c0.4-7.1,0.9-14.2,1.3-21.4c0-0.7,0.1-1.3,0.2-1.9c1.7-0.9,30.5-5.7,34.8-5.8
			c0.2,0.8,0.5,1.6,0.5,2.5c0.4,4.7,0.7,9.4,1.1,14.1c0.4,5.3,0.9,10.6,1.3,15.9c0.4,4.5,0.7,9.1,1.1,13.6
			c0.6,7.6,1.3,15.2,1.9,22.8c0.4,4.6,0.7,9.2,1.1,13.9c0.4,5.5,0.9,10.9,1.3,16.4c0.2,2.1,0.3,4.3,0.4,6.7c-4.9,1-9.7,1.4-14.9,1.8
			c-1.5-15.4-2.9-30.5-4.4-45.8h-11.7c-0.1,1.1-0.2,2.1-0.2,3c0,10.8,0,21.6,0,32.4c0,0.6,0,1.2,0,1.7c0.1,1.2-0.5,1.8-1.7,2
			c-4.7,0.5-9.4,1-14.1,1.5c-2.5,0.3-4.9,0.6-7.4,0.8c-1.3,0.1-2.6,0.2-4.3,0.3C156.3,191.7,156.4,188.5,156.5,185 M182.2,136.5
			c2.7,0.7,12.4,0.6,14.4,0c0-0.4,0.1-0.9,0.1-1.4c-1.1-8-2.2-16.1-3.3-24.1c-0.3-1.8-0.5-2-2.4-2.1c-2.2,0-4.5,0-6.7,0
			c-0.6,0-1.3,0.2-2,0.3V136.5z"/>
		<path id="XMLID_19_" class="st4" d="M126.1,98.4c0.4,3.2,0.8,6.3,1.1,9.4c0.8,7.1,1.6,14.2,2.4,21.3c0.7,6.7,1.4,13.4,2.1,20
			c0.2,1.6,0.3,3.1,0.6,4.7c0.2,1.4,0.7,1.6,3.4,1.6c2.5,0,2.8-0.2,3.1-1.6c0.1-0.4,0.1-0.8,0.1-1.2c0.4-8.5,0.7-16.9,1.2-25.4
			c0.4-7.9,0.9-15.7,1.2-23.6c0.3-5.4,0.5-10.8,0.7-16.2c0.1-2.4,0.3-4.8,0.4-7.2c0-1.1,0.4-1.7,1.5-1.9c8.5-1.5,17-2.9,25.5-4.4
			c0.1,0,0.1,0.1,0.5,0.3c-0.3,2.5-0.6,5.1-1,7.7c-0.7,4.2-0.7,4.2-5.1,4.2c-1.8,0-3.6-0.4-5.6,0.6c-1.7,28.3-3.3,56.6-5,84.9
			c-2,0.7-31.6,0.9-34.9,0.3c-0.2-0.8-0.5-1.6-0.6-2.5c-1.1-11.6-2.1-23.3-3.1-34.9c-1.1-11.5-2.2-22.9-3.3-34.4c0-0.5,0-1,0.1-1.4
			C113.2,98.1,122.3,98,126.1,98.4"/>
		<path id="XMLID_18_" class="st4" d="M274.7,192.2c-0.8,0.1-1.4,0.3-2.1,0.3c-13.4,0.4-26.9,0.7-40.3,1.1c-0.3,0-0.7,0-1,0
			c-2.3,0-2.4-0.1-2.6-2.3c-0.6-8.9-1.3-17.7-1.9-26.5c-0.6-8-1-16-1.6-24.1c-0.6-8.2-1.2-16.4-1.8-24.6c-0.4-5.5-0.7-11.1-1.1-16.6
			c-0.4-6-0.9-12.1-1.3-18.1c-0.4-5-0.7-9.9-1-15.1c6.3-1.8,12.6-3.1,19.3-4.8c0,1.4,0.1,2.6,0.1,3.7c0.1,8.7,0.1,17.4,0.2,26.1
			c0.1,11.9,0.3,23.7,0.5,35.6c0.2,11.7,0.3,23.4,0.5,35.1c0.1,4.9,0.2,9.8,0.3,14.7c0,0.6,0.1,1.3,0.2,2c1.7,0.6,3.4,0.2,5,0.1
			c5.8-0.4,11.6-0.9,17.4-1.4c2.5-0.2,5-0.4,7.4-0.6c1.3-0.1,2.1,0.3,2.3,1.7C273.6,183,274.1,187.5,274.7,192.2"/>
		<path id="XMLID_17_" class="st4" d="M103.7,189.6c-6.7-0.2-13.1-1-19.7-1.7c-0.1-0.8-0.2-1.5-0.2-2.3c0-27.9,0-55.7,0-83.6
			c0-2.4,0.2-2.5,2.5-2.6c3.2,0,6.5,0,9.7,0c2.1,0,2.2,0.2,2.3,2.3c0.5,8,1,16.1,1.5,24.1c0.6,9.3,1.3,18.5,1.8,27.8
			c0.4,6.5,0.7,12.9,1.1,19.4c0.2,4.1,0.6,8.3,0.8,12.4C103.8,186.6,103.7,187.9,103.7,189.6"/>
		<path id="XMLID_16_" class="st4" d="M89.4,87.7V76.4c9.8-1.2,19.4-2.4,29.3-3.6c0.1,0.9,0.3,1.6,0.3,2.2c0,3.6,0,7.1,0,10.7
			c0,2.2-0.2,2.4-2.2,2.4c-8.5,0-17.1,0-25.6,0C90.6,88,90.1,87.9,89.4,87.7"/>
		<path id="XMLID_15_" class="st4" d="M285.2,48.5c1.1,5.8,2.1,11.2,3.2,16.9c-1.3,0.2-2.2,0.5-3.2,0.5c-7.3,0.3-14.6,0.6-21.8,1
			c-1.4,0.1-2.2-0.3-2.6-1.7c-0.8-2.7-1.7-5.3-2.7-8.2C267.1,54.2,275.9,51.4,285.2,48.5"/>
	</g>
</g>
</svg>
