<?xml version="1.0" standalone="no"?>
<!DOCTYPE svg PUBLIC "-//W3C//DTD SVG 1.1//EN" "http://www.w3.org/Graphics/SVG/1.1/DTD/svg11.dtd" >
<svg>
<metadata>
Created by FontForge 20090914 at Fri Dec  4 17:06:44 2015
 By www-data
Copyright 1990-2001 Bitstream Inc. All rights reserved.
</metadata>
<defs>
<font id="FuturaBT-Medium" horiz-adv-x="1024" >
  <font-face 
    font-family="Futura Md BT"
    font-weight="400"
    font-stretch="normal"
    units-per-em="2048"
    panose-1="2 11 6 2 2 2 4 2 3 3"
    ascent="1556"
    descent="-492"
    x-height="948"
    cap-height="1464"
    bbox="-342 -483 2337 1972"
    underline-thickness="145"
    underline-position="-151"
    unicode-range="U+0020-U+F002"
  />
<missing-glyph horiz-adv-x="1229" 
d="M102 -362v1806h1024v-1806h-1024zM217 -248h795v1577h-795v-1577z" />
    <glyph glyph-name=".notdef" horiz-adv-x="1229" 
d="M102 -362v1806h1024v-1806h-1024zM217 -248h795v1577h-795v-1577z" />
    <glyph glyph-name="space" unicode=" " horiz-adv-x="618" 
 />
    <glyph glyph-name="exclam" unicode="!" horiz-adv-x="674" 
d="M223 1497h228v-1161h-228v1161zM205 92c0 36 12.833 66.833 38.5 92.5s56.5 38.5 92.5 38.5c36.667 0 67.667 -12.667 93 -38s38 -56.333 38 -93c0 -36 -12.667 -66.833 -38 -92.5s-56.333 -38.5 -93 -38.5s-67.667 12.833 -93 38.5s-38 56.5 -38 92.5z" />
    <glyph glyph-name="quotedbl" unicode="&#x22;" horiz-adv-x="643" 
d="M395 1436h164v-557h-164v557zM86 1436h164v-557h-164v557z" />
    <glyph glyph-name="numbersign" unicode="#" horiz-adv-x="1575" 
d="M709 852l-91 -254h256l91 254h-256zM735 1460h191l-154 -436h250l156 436h190l-154 -436h291l-59 -172h-293l-90 -252h309l-61 -172h-307l-156 -434h-191l156 434h-252l-158 -434h-190l156 434h-299l61 172h297l90 252h-315l61 172h316z" />
    <glyph glyph-name="dollar" unicode="$" horiz-adv-x="1237" 
d="M137 317l189.001 84.0059c16 -57.333 44 -101.833 84 -133.5s92.333 -51.167 157 -58.5v457c-136.667 56 -236 117.5 -298 184.5s-93 145.833 -93 236.5c0 106 34.667 193.333 104 262s165 110.667 287 126v112h105v-114
c95.333 -8.66699 173.666 -32.334 234.999 -71.001s105 -92.334 131 -161.001l-184 -92c-22.667 35.333 -48.667 63.166 -78 83.499s-64 34.166 -104 41.499v-402c163.333 -76.667 273 -146.334 329 -209.001s84 -140.334 84 -233.001
c0 -120.667 -35.833 -218.167 -107.5 -292.5s-173.5 -119.5 -305.5 -135.5v-170h-105v166c-118.667 8 -214 38.667 -286 92s-120 129 -144 227zM567.001 1268.01c-48.667 -14.667 -84 -35.168 -106 -61.501s-33 -61.166 -33 -104.499c0 -41.333 11 -77.333 33 -108
s57.333 -59 106 -85v359zM672.001 215.005c54.667 14 96.334 38.167 125.001 72.5s43 77.166 43 128.499c0 44 -13.333 82.333 -40 115s-69.334 63.334 -128.001 92.001v-408z" />
    <glyph glyph-name="percent" unicode="%" horiz-adv-x="1622" 
d="M1237 80c50 0 87.333 22.333 112 67s37 111.667 37 201c0 86 -12.5 151.833 -37.5 197.5s-60.833 68.5 -107.5 68.5c-49.333 0 -86.5 -22.5 -111.5 -67.5s-37.5 -111.833 -37.5 -200.5c0 -85.333 12.5 -151 37.5 -197s60.833 -69 107.5 -69zM913 348
c0 121.333 29 215.832 87 283.499s138.333 101.5 241 101.5c103.333 0 183.5 -33.5 240.5 -100.5s85.5 -161.833 85.5 -284.5c0 -121.333 -29 -216.166 -87 -284.499s-138.333 -102.5 -241 -102.5s-182.667 34 -240 102s-86 163 -86 285zM57 1094c0 120.667 29 215 87 283
s138.333 102 241 102c103.333 0 183.5 -33.5 240.5 -100.5s85.5 -161.833 85.5 -284.5c0 -122 -28.667 -216.667 -86 -284s-137.333 -101 -240 -101c-103.333 0 -183.833 33.667 -241.5 101s-86.5 162 -86.5 284zM383 824.999c49.333 0 86.167 22.334 110.5 67.001
s36.5 112 36.5 202c0 86.667 -12.333 153 -37 199s-60 69 -106 69c-49.333 0 -86.5 -22.833 -111.5 -68.5s-37.5 -112.834 -37.5 -201.501c0 -86 12.5 -152 37.5 -198s60.833 -69 107.5 -69zM455.001 -39h-138l854 1518h138z" />
    <glyph glyph-name="ampersand" unicode="&#x26;" horiz-adv-x="1374" 
d="M571 934l54 31c37.333 22 65.333 47.5 84 76.5s28 61.5 28 97.5c0 41.333 -12.667 75.166 -38 101.499s-58.333 39.5 -99 39.5c-44.667 0 -80.667 -13.333 -108 -40s-41 -61 -41 -103c0 -20.667 3.83301 -40.667 11.5 -60s19.5 -37.666 35.5 -54.999zM834 295
l-319.999 369.001l-37 -25c-70 -45.333 -118.833 -86.833 -146.5 -124.5s-41.5 -79.5 -41.5 -125.5c0 -64.667 22.667 -119.334 68 -164.001s101.666 -67 168.999 -67c50 0 100.5 11.333 151.5 34s103.167 57 156.5 103zM1087 0.000976562l-118.001 139.001
c-69.333 -59.333 -140.5 -103.166 -213.5 -131.499s-152.833 -42.5 -239.5 -42.5c-134.667 0 -244.167 39 -328.5 117s-126.5 178.333 -126.5 301c0 83.333 26 160.166 78 230.499s134.667 140.833 248 211.5l-59 64c-32.667 35.333 -57.667 74 -75 116s-26 84.667 -26 128
c0 96 35.167 174.833 105.5 236.5s160.833 92.5 271.5 92.5c110 0 197.333 -27.833 262 -83.5s97 -130.834 97 -225.501c0 -71.333 -22.667 -136.5 -68 -195.5s-117.666 -117.5 -216.999 -175.5l305 -354c29.333 29.333 59.333 62.666 90 99.999s63.334 80.333 98.001 129
l140 -149c-26.667 -42.667 -56.334 -83.167 -89.001 -121.5s-68 -74.166 -106 -107.499l246 -279h-275z" />
    <glyph glyph-name="quotesingle" unicode="'" horiz-adv-x="334" 
d="M86 1436h164v-557h-164v557z" />
    <glyph glyph-name="parenleft" unicode="(" horiz-adv-x="621" 
d="M406 -446c-79.333 146.667 -138.833 302 -178.5 466s-59.5 337 -59.5 519c0 191.333 19.667 369 59 533s99 317.333 179 460l163 -49c-71.333 -141.333 -124.333 -288.833 -159 -442.5s-52 -320.167 -52 -499.5c0 -188 17.167 -358 51.5 -510s87.5 -293.333 159.5 -424z
" />
    <glyph glyph-name="parenright" unicode=")" horiz-adv-x="621" 
d="M207 -446l-162.001 53c72 130.667 125.167 272 159.5 424s51.5 322 51.5 510c0 179.333 -17.167 345.833 -51.5 499.5s-87.5 301.167 -159.5 442.5l162 49c80 -142.667 139.5 -296 178.5 -460s58.5 -341.667 58.5 -533c0 -182 -19.667 -355 -59 -519
s-98.666 -319.333 -177.999 -466z" />
    <glyph glyph-name="asterisk" unicode="*" horiz-adv-x="901" 
d="M178 868l-72 121l226 115l-226 133l72 123l211 -135l-12 239h145l-14 -241l215 137l72 -123l-232 -127l232 -121l-76 -121l-211 140l14 -246h-145l10 244z" />
    <glyph glyph-name="plus" unicode="+" horiz-adv-x="1706" 
d="M768 1221h170v-527h514v-166h-514v-528h-170v528h-514v166h514v527z" />
    <glyph glyph-name="comma" unicode="," horiz-adv-x="618" 
d="M309 248l195 -72l-260 -536l-129 51z" />
    <glyph glyph-name="hyphen" unicode="-" horiz-adv-x="829" 
d="M147 571h535v-200h-535v200z" />
    <glyph glyph-name="period" unicode="." horiz-adv-x="618" 
d="M178 111c0 36.667 12.667 68 38 94s56.333 39 93 39s67.667 -13 93 -39s38 -57.333 38 -94c0 -36 -12.667 -66.5 -38 -91.5s-56.333 -37.5 -93 -37.5s-67.667 12.5 -93 37.5s-38 55.5 -38 91.5z" />
    <glyph glyph-name="slash" unicode="/" horiz-adv-x="887" 
d="M717 1497h170l-717 -1687h-170z" />
    <glyph glyph-name="zero" unicode="0" horiz-adv-x="1237" 
d="M1145 705c0 -232.667 -46.833 -414.832 -140.5 -546.499s-222.5 -197.5 -386.5 -197.5c-166 0 -295.167 66.5 -387.5 199.5s-138.5 319.833 -138.5 560.5c0 238.667 46.667 424.667 140 558s223 200 389 200c168 0 297.333 -66.833 388 -200.5s136 -324.834 136 -573.501
zM614 166.002c97.333 0 170.5 46.5 219.5 139.5s73.5 232.167 73.5 417.5c0 180 -24.167 317.167 -72.5 411.5s-118.833 141.5 -211.5 141.5c-96.667 0 -169.667 -47 -219 -141s-74 -232.667 -74 -416c0 -178 24.5 -314.667 73.5 -410s119.167 -143 210.5 -143z" />
    <glyph glyph-name="one" unicode="1" horiz-adv-x="1237" 
d="M541 0v1262h-303l92 188h428v-1450h-217z" />
    <glyph glyph-name="two" unicode="2" horiz-adv-x="1237" 
d="M1024 190l-0.000976562 -190h-981l547 655c68 82 117.667 154 149 216s47 118.333 47 169c0 72.667 -21.5 129.834 -64.5 171.501s-101.833 62.5 -176.5 62.5c-66.667 0 -121.667 -20.833 -165 -62.5s-67.666 -96.5 -72.999 -164.5h-229
c0 131.333 44 236.166 132 314.499s206.333 117.5 355 117.5c141.333 0 252.833 -36.333 334.5 -109s122.5 -171.667 122.5 -297c0 -89.333 -23.5 -179.5 -70.5 -270.5s-146.5 -223.167 -298.5 -396.5l-186 -216h557z" />
    <glyph glyph-name="three" unicode="3" horiz-adv-x="1237" 
d="M94 391l227.999 0.00292969v-12c0 -67.333 23 -121 69 -161s108.333 -60 187 -60c88.667 0 157.167 22.167 205.5 66.5s72.5 108.166 72.5 191.499c0 87.333 -24.833 153.166 -74.5 197.499s-123.834 66.5 -222.501 66.5c-4.66699 0 -12 -0.333008 -22 -1
s-17.667 -1 -23 -1v192c4.66699 0 11.834 -0.333008 21.501 -1s16.834 -1 21.501 -1c86.667 0 152 18.167 196 54.5s66 89.833 66 160.5c0 62.667 -19.833 112.5 -59.5 149.5s-92.834 55.5 -159.501 55.5c-71.333 0 -127.166 -17.167 -167.499 -51.5
s-61.5 -82.5 -63.5 -144.5h-215c6.66699 124.667 49 220.334 127 287.001s186.333 100 325 100c134 0 240.167 -35 318.5 -105s117.5 -164.667 117.5 -284c0 -90 -22.167 -163.833 -66.5 -221.5s-105.833 -92.5 -184.5 -104.5
c92.667 -16.667 163.167 -57.334 211.5 -122.001s72.5 -150.334 72.5 -257.001c0 -130 -45.5 -233.167 -136.5 -309.5s-214.167 -114.5 -369.5 -114.5c-140.667 0 -254 38.833 -340 116.5s-131 182.167 -135 313.5z" />
    <glyph glyph-name="four" unicode="4" horiz-adv-x="1237" 
d="M735 989l-373 -526h367v381c0 20 0.5 42.333 1.5 67s2.5 50.667 4.5 78zM729 0v297h-702l852 1182h67v-1016h178v-166h-178v-297h-217z" />
    <glyph glyph-name="five" unicode="5" horiz-adv-x="1237" 
d="M236 350c34 -62.667 77.6689 -110.67 131.002 -144.003s112.666 -50 177.999 -50c96.667 0 175 30.833 235 92.5s90 142.834 90 243.501c0 96.667 -31.5 175.334 -94.5 236.001s-145.5 91 -247.5 91c-61.333 0 -118.166 -10.5 -170.499 -31.5s-98.5 -52.167 -138.5 -93.5
l-59 13l182 743h692v-193h-549l-86 -323c40 16.667 78.667 29 116 37s74.666 12 111.999 12c139.333 0 252.666 -44.667 339.999 -134s131 -205.666 131 -348.999c0 -164 -51 -294.833 -153 -392.5s-238.667 -146.5 -410 -146.5c-101.333 0 -189.333 17.5 -264 52.5
s-139 89.167 -193 162.5z" />
    <glyph glyph-name="six" unicode="6" horiz-adv-x="1237" 
d="M340 449c0 -87.333 24.332 -157.667 72.999 -211s111.667 -80 189 -80c87.333 0 156 26 206 78s75 123 75 213c0 91.333 -24.667 162.833 -74 214.5s-117.666 77.5 -204.999 77.5c-78 0 -141.5 -27 -190.5 -81s-73.5 -124.333 -73.5 -211zM472.999 888.999
c32.667 15.333 64.8311 27 96.498 35s63.167 12 94.5 12c130.667 0 238.334 -44.333 323.001 -133s127 -202 127 -340c0 -150.667 -47.5 -272 -142.5 -364s-220.167 -138 -375.5 -138c-145.333 0 -262.166 45 -350.499 135s-132.5 208.333 -132.5 355
c0 156.667 106.667 385 320 685l26 35l256 363l182 -92z" />
    <glyph glyph-name="seven" unicode="7" horiz-adv-x="1237" 
d="M229 31l598 1231h-677v188h1009l-737 -1505z" />
    <glyph glyph-name="eight" unicode="8" horiz-adv-x="1237" 
d="M375 774c-72.667 31.333 -126.001 72.3359 -160.001 123.003s-51 114 -51 190c0 117.333 41.333 212 124 284s192 108 328 108c139.333 0 250 -36.5 332 -109.5s123 -170.5 123 -292.5c0 -72 -17.833 -133.833 -53.5 -185.5s-88.167 -90.834 -157.5 -117.501
c81.333 -26.667 145 -73.834 191 -141.501s69 -147.5 69 -239.5c0 -134.667 -44.5 -240.334 -133.5 -317.001s-212.5 -115 -370.5 -115c-155.333 0 -277.666 38.333 -366.999 115s-134 181 -134 313c0 96 22.667 177.5 68 244.5s109.333 113.833 192 140.5zM620.999 1286
c-69.333 0 -124 -18.167 -164 -54.5s-60 -85.833 -60 -148.5c0 -61.333 19.5 -109.333 58.5 -144s92.5 -52 160.5 -52c70 0 124.5 17.167 163.5 51.5s58.5 82.5 58.5 144.5c0 63.333 -19.333 113 -58 149s-91.667 54 -159 54zM615.999 156.003c86 0 153.333 22.5 202 67.5
s73 107.167 73 186.5c0 80 -24.333 142.667 -73 188s-116 68 -202 68c-84 0 -150.333 -23 -199 -69s-73 -108.333 -73 -187c0 -79.333 24 -141.5 72 -186.5s114.667 -67.5 200 -67.5z" />
    <glyph glyph-name="nine" unicode="9" horiz-adv-x="1237" 
d="M879 993c0 87.333 -24.001 157.667 -72.001 211s-111 80 -189 80c-87.333 0 -156.166 -26 -206.499 -78s-75.5 -123 -75.5 -213c0 -92 24.667 -164.167 74 -216.5s117.333 -78.5 204 -78.5c78 0 141.667 27.5 191 82.5s74 125.833 74 212.5zM744.999 551.001
c-30.667 -15.333 -61.832 -26.667 -93.499 -34s-63.834 -11 -96.501 -11c-131.333 0 -239.333 44 -324 132s-127 201 -127 339c0 150.667 47.5 272 142.5 364s220.5 138 376.5 138c145.333 0 262.5 -44.833 351.5 -134.5s133.5 -207.5 133.5 -353.5
c0 -156.667 -107 -385 -321 -685l-25 -36l-258 -362l-180 92z" />
    <glyph glyph-name="colon" unicode=":" horiz-adv-x="674" 
d="M205 795c0 35.333 12.833 65.668 38.5 91.001s56.5 38 92.5 38c36.667 0 67.667 -12.333 93 -37s38 -55.334 38 -92.001s-12.667 -67.667 -38 -93s-56.333 -38 -93 -38s-67.667 12.667 -93 38s-38 56.333 -38 93zM205 111.002c0 35.333 12.833 66 38.5 92
s56.5 39 92.5 39c36.667 0 67.667 -12.667 93 -38s38 -56.333 38 -93c0 -36 -12.667 -66.5 -38 -91.5s-56.333 -37.5 -93 -37.5s-67.667 12.5 -93 37.5s-38 55.5 -38 91.5z" />
    <glyph glyph-name="semicolon" unicode=";" horiz-adv-x="674" 
d="M293 795c0 35.333 12.5 65.668 37.5 91.001s55.5 38 91.5 38c37.333 0 68.5 -12.333 93.5 -37s37.5 -55.334 37.5 -92.001s-12.667 -67.667 -38 -93s-56.333 -38 -93 -38c-36 0 -66.5 12.667 -91.5 38s-37.5 56.333 -37.5 93zM315 248.002l195 -72l-260 -536l-131 51z
" />
    <glyph glyph-name="less" unicode="&#x3c;" horiz-adv-x="1706" 
d="M1442 1176v-185l-934 -381l934 -381v-182l-1178 483v160z" />
    <glyph glyph-name="equal" unicode="=" horiz-adv-x="1706" 
d="M254 487h1198v-165h-1198v165zM254 901h1198v-168h-1198v168z" />
    <glyph glyph-name="greater" unicode="&#x3e;" horiz-adv-x="1706" 
d="M264 1176l1178 -486v-160l-1178 -483v182l934 381l-934 381v185z" />
    <glyph glyph-name="question" unicode="?" horiz-adv-x="1114" 
d="M381 1116h-171.998c0 4 -0.333008 10.167 -1 18.5s-1 14.5 -1 18.5c0 104.667 31.833 188.5 95.5 251.5s148.5 94.5 254.5 94.5c108.667 0 195.167 -31.167 259.5 -93.5s96.5 -145.833 96.5 -250.5c0 -76.667 -18.833 -139.5 -56.5 -188.5
s-112.167 -100.833 -223.5 -155.5l-24 -12c-131.333 -65.333 -197 -127 -197 -185c0 -33.333 13 -62.5 39 -87.5s57.333 -37.5 94 -37.5c44.667 0 79 13.333 103 40s36.667 65.334 38 116.001h178v-20c0 -98.667 -27.667 -175 -83 -229s-134 -81 -236 -81
c-94.667 0 -172.667 27.833 -234 83.5s-92 126.167 -92 211.5c0 78.667 21.167 144 63.5 196s124.833 107.667 247.5 167c83.333 39.333 136.666 71.833 159.999 97.5s35 56.5 35 92.5c0 44.667 -15.833 81.5 -47.5 110.5s-71.834 43.5 -120.501 43.5
c-54.667 0 -97.667 -17.833 -129 -53.5s-47 -84.834 -47 -147.501zM397.002 92c0 36 13 66.833 39 92.5s56.667 38.5 92 38.5c37.333 0 68.5 -12.667 93.5 -38s37.5 -56.333 37.5 -93c0 -36 -12.667 -66.833 -38 -92.5s-56.333 -38.5 -93 -38.5
c-36 0 -66.833 12.833 -92.5 38.5s-38.5 56.5 -38.5 92.5z" />
    <glyph glyph-name="at" unicode="@" horiz-adv-x="2048" 
d="M1174 283c-36.667 -58 -79.334 -100.502 -128.001 -127.502s-107.334 -40.5 -176.001 -40.5c-101.333 0 -178.833 28.833 -232.5 86.5s-80.5 140.834 -80.5 249.501c0 155.333 46 287 138 395s203 162 333 162c59.333 0 109 -11.5 149 -34.5s73 -58.833 99 -107.5l55 107
h154l-148 -586c-0.666992 -3.33301 -1.33398 -7.33301 -2.00098 -12c-4 -18.667 -6 -31 -6 -37c0 -25.333 8.83301 -45.666 26.5 -60.999s40.834 -23 69.501 -23c34 0 69.833 10.167 107.5 30.5s72.834 48.5 105.501 84.5c48 50.667 84.667 109.834 110 177.501
s38 139.5 38 215.5c0 168.667 -62.333 305.667 -187 411s-287.667 158 -489 158c-92 0 -177.333 -10.333 -256 -31s-150.334 -52 -215.001 -94c-120.667 -75.333 -213.667 -172.333 -279 -291s-98 -250.334 -98 -395.001c0 -208 69.833 -374.333 209.5 -499
s325.834 -187 558.501 -187c110.667 0 218.5 16.333 323.5 49s202.167 80 291.5 142l67 -99c-99.333 -75.333 -205.5 -132 -318.5 -170s-231.5 -57 -355.5 -57c-128 0 -245 16 -351 48s-199.667 79.333 -281 142c-103.333 78.667 -180.5 170.5 -231.5 275.5
s-76.5 224.167 -76.5 357.5c0 110 17.333 214.5 52 313.5s85.667 189.833 153 272.5c98 119.333 215.833 210 353.5 272s290.834 93 459.501 93c110.667 0 215.667 -15.167 315 -45.5s184.333 -72.833 255 -127.5c88 -68 154 -146.5 198 -235.5s66 -189.167 66 -300.5
c0 -108 -21.667 -208.667 -65 -302s-105 -172.333 -185 -237c-46 -36.667 -96 -64.5 -150 -83.5s-110 -28.5 -168 -28.5c-70.667 0 -123 13.5 -157 40.5s-51 68.833 -51 125.5v4zM1233 706.998c-9.33301 56 -29.832 99.332 -61.499 129.999s-72.5 46 -122.5 46
c-84.667 0 -157.167 -42.833 -217.5 -128.5s-90.5 -189.167 -90.5 -310.5c0 -65.333 15.167 -115.666 45.5 -150.999s73.166 -53 128.499 -53c60 0 114.5 22.167 163.5 66.5s82.167 101.833 99.5 172.5z" />
    <glyph glyph-name="A" unicode="A" horiz-adv-x="1356" 
d="M477 575h407.999l-150 334c-8.66699 21.333 -17.667 45.833 -27 73.5s-18.666 58.5 -27.999 92.5c-8 -32 -16.5 -61.833 -25.5 -89.5s-18.167 -53.167 -27.5 -76.5zM1135 0l-166 377h-580l-170 -377h-250l709 1522l708 -1522h-251z" />
    <glyph glyph-name="B" unicode="B" horiz-adv-x="1180" 
d="M401 846h91c113.333 0 193.5 15.5 240.5 46.5s70.5 83.167 70.5 156.5c0 80 -21.667 136.167 -65 168.5s-125.333 48.5 -246 48.5h-91v-420zM401 199l82.001 -0.000976562c83.333 0 145.666 3.33301 186.999 10s74 18.334 98 35.001c29.333 19.333 52 45.333 68 78
s24 68.667 24 108c0 46.667 -9.66699 87.334 -29 122.001s-47 61.667 -83 81c-22.667 11.333 -48.5 19.666 -77.5 24.999s-67.5 8 -115.5 8h-72h-82v-467zM168.001 -0.000976562l0.00195312 1464h369c105.333 0 183.166 -5.66699 233.499 -17s93.166 -30 128.499 -56
c45.333 -33.333 80.5 -77 105.5 -131s37.5 -113.667 37.5 -179c0 -78 -18 -143.167 -54 -195.5s-88.333 -88.833 -157 -109.5c85.333 -13.333 152.5 -52.166 201.5 -116.499s73.5 -145.5 73.5 -243.5c0 -59.333 -10.333 -115.666 -31 -168.999s-50 -98.666 -88 -135.999
c-40 -40.667 -89.667 -69.334 -149 -86.001s-159 -25 -299 -25h-371z" />
    <glyph glyph-name="C" unicode="C" horiz-adv-x="1470" 
d="M1343 1108c-67.333 57.333 -138.502 100.335 -213.502 129.002s-153.833 43 -236.5 43c-160 0 -290.167 -51.333 -390.5 -154s-150.5 -235.667 -150.5 -399c0 -158 48.833 -288.333 146.5 -391s220.834 -154 369.501 -154c86.667 0 169.167 15.333 247.5 46
s153.5 77 225.5 139v-269c-64 -46 -133.667 -80.333 -209 -103s-157 -34 -245 -34c-112 0 -215.5 18.333 -310.5 55s-178.5 90.667 -250.5 162c-71.333 70 -126.166 152.5 -164.499 247.5s-57.5 196.167 -57.5 303.5s19.167 208.166 57.5 302.499
s93.833 177.166 166.5 248.499c72.667 72 156 126.5 250 163.5s195.667 55.5 305 55.5c86 0 168 -12.5 246 -37.5s153.667 -62.833 227 -113.5z" />
    <glyph glyph-name="D" unicode="D" horiz-adv-x="1516" 
d="M406 215l200.001 0.00195312c110 0 192.5 7.33301 247.5 22s102.833 39.334 143.5 74.001c55.333 47.333 96.833 106.166 124.5 176.499s41.5 152.166 41.5 245.499s-13.833 175.166 -41.5 245.499s-69.167 129.166 -124.5 176.499
c-41.333 34.667 -90.833 59.334 -148.5 74.001s-147.834 22 -270.501 22h-86h-86v-1036zM168.001 0.00195312l0.000976562 1464h321c208.667 0 355.5 -10.5 440.5 -31.5s159.5 -56.167 223.5 -105.5c84.667 -64.667 148.834 -147.667 192.501 -249s65.5 -217 65.5 -347
s-21.833 -245.167 -65.5 -345.5s-107.834 -183.166 -192.501 -248.499c-64 -49.333 -136.833 -84.5 -218.5 -105.5s-208.834 -31.5 -381.501 -31.5h-64h-321z" />
    <glyph glyph-name="E" unicode="E" horiz-adv-x="1090" 
d="M168 0v1464h817v-202h-579v-367h579v-209h-579v-473h579v-213h-817z" />
    <glyph glyph-name="F" unicode="F" horiz-adv-x="1075" 
d="M168 0v1464h817v-202h-579v-365h579v-209h-579v-688h-238z" />
    <glyph glyph-name="G" unicode="G" horiz-adv-x="1645" 
d="M979 750l580 0.00390625c0 -10 0.333008 -24 1 -42c2 -47.333 3 -79.333 3 -96c0 -206 -59 -366 -177 -480s-284.333 -171 -499 -171c-120 0 -227 17.667 -321 53s-176.333 88.666 -247 159.999c-69.333 70.667 -122.5 153.667 -159.5 249s-55.5 197.333 -55.5 306
c0 110.667 18.833 212.667 56.5 306s93.5 175.666 167.5 246.999c71.333 70 155 123.333 251 160s198.667 55 308 55c115.333 0 218.5 -21 309.5 -63s172.167 -106.333 243.5 -193l-174 -131c-49.333 57.333 -105 100 -167 128s-131.333 42 -208 42
c-158.667 0 -288.167 -50.833 -388.5 -152.5s-150.5 -233.834 -150.5 -396.501c0 -165.333 50.167 -299.5 150.5 -402.5s230.5 -154.5 390.5 -154.5c136 0 243 31.667 321 95s117 149.666 117 258.999v21h-352v201z" />
    <glyph glyph-name="H" unicode="H" horiz-adv-x="1532" 
d="M168 0v1464h238v-540h720v540h238v-1464h-238v711h-720v-711h-238z" />
    <glyph glyph-name="I" unicode="I" horiz-adv-x="584" 
d="M172 0v1464h238v-1464h-238z" />
    <glyph glyph-name="J" unicode="J" horiz-adv-x="807" 
d="M156 266c24.667 -29.333 48.333 -50.667 71 -64s46.667 -20 72 -20c46.667 0 79.5 15.333 98.5 46s28.5 87.667 28.5 171v1065h236v-1142c0 -124 -27.333 -215.167 -82 -273.5s-140 -87.5 -256 -87.5c-64 0 -121.833 12.333 -173.5 37s-100.5 63 -146.5 115z" />
    <glyph glyph-name="K" unicode="K" horiz-adv-x="1270" 
d="M168 0v1464h238v-606l526 606h291l-580 -651l649 -813h-307l-579 748v-748h-238z" />
    <glyph glyph-name="L" unicode="L" horiz-adv-x="963" 
d="M168 0v1464h238v-1251h532v-213h-770z" />
    <glyph glyph-name="M" unicode="M" horiz-adv-x="1767" 
d="M1362 723c-2.66699 11.333 -7 42.667 -13 94c-5.33301 42.667 -10 78 -14 106c-6 -33.333 -14.5 -66.666 -25.5 -99.999s-24.833 -67.333 -41.5 -102l-383 -780l-383 796c-16 32.667 -29.833 64.334 -41.5 95.001s-21.834 61 -30.501 91
c-0.666992 -30.667 -3.16699 -62.834 -7.5 -96.501s-10.833 -68.834 -19.5 -105.501l-157 -721h-219l346 1526l432 -924c6.66699 -14.667 16.834 -39 30.501 -73l49.5 -126c14 42 36 95.333 66 160l18 40l422 923l354 -1526h-221z" />
    <glyph glyph-name="N" unicode="N" horiz-adv-x="1645" 
d="M168 0v1522l930 -895l77 -81c26 -28.667 53.333 -61 82 -97v1015h220v-1521l-949 911c-25.333 24.667 -49.833 50.667 -73.5 78s-46.167 56 -67.5 86v-1018h-219z" />
    <glyph glyph-name="O" unicode="O" horiz-adv-x="1774" 
d="M1421 729c0 74 -13.5 144.335 -40.5 211.002s-65.833 126 -116.5 178c-49.333 51.333 -106.5 90.833 -171.5 118.5s-133.5 41.5 -205.5 41.5s-140.5 -13.667 -205.5 -41s-122.833 -67 -173.5 -119c-50.667 -51.333 -89.334 -110.333 -116.001 -177
s-40 -137.334 -40 -212.001c0 -74 13.333 -144 40 -210s65.334 -125 116.001 -177s108.334 -91.667 173.001 -119s133.334 -41 206.001 -41c71.333 0 139.166 13.667 203.499 41s122.166 67 173.499 119c50.667 52 89.5 111.167 116.5 177.5s40.5 136.166 40.5 209.499z
M1669 729.002c0 -104 -19.5 -202.332 -58.5 -294.999s-95.833 -175.334 -170.5 -248.001c-75.333 -72.667 -160.333 -128.334 -255 -167.001s-194 -58 -298 -58c-105.333 0 -205.833 19.5 -301.5 58.5s-180.167 94.5 -253.5 166.5c-74.667 72.667 -131.334 155 -170.001 247
s-58 190.667 -58 296c0 104.667 19.333 203.334 58 296.001s95.334 175.667 170.001 249c74.667 72.667 159.334 128 254.001 166s195 57 301 57c105.333 0 205.166 -19 299.499 -57s178.833 -93.333 253.5 -166c74.667 -74 131.5 -157.5 170.5 -250.5
s58.5 -191.167 58.5 -294.5z" />
    <glyph glyph-name="P" unicode="P" horiz-adv-x="1090" 
d="M406 852l61 -0.000976562c132 0 220 14.333 264 43s66 79.334 66 152.001c0 78 -23.5 133 -70.5 165s-133.5 48 -259.5 48h-61v-408zM391 656.999v-656.999h-223v1464h360c106.667 0 185.167 -5.83301 235.5 -17.5s94.166 -30.834 131.499 -57.501
c46 -34 82 -79.833 108 -137.5s39 -121.167 39 -190.5s-13 -133.333 -39 -192s-62 -104.667 -108 -138c-37.333 -26.667 -81.166 -45.667 -131.499 -57s-128.833 -17 -235.5 -17h-47h-90z" />
    <glyph glyph-name="Q" unicode="Q" horiz-adv-x="1774" 
d="M1151 524l140.998 -151c44.667 54 77.334 110.167 98.001 168.5s31 121.5 31 189.5c0 74.667 -13.167 145 -39.5 211s-64.833 124.667 -115.5 176c-51.333 52 -109.666 92 -174.999 120s-133.333 42 -204 42c-71.333 0 -139.666 -14 -204.999 -42s-123.333 -68 -174 -120
c-50.667 -51.333 -89.334 -110 -116.001 -176s-40 -136.333 -40 -211c0 -153.333 51.833 -282.5 155.5 -387.5s232.167 -157.5 385.5 -157.5c41.333 0 80.833 4.5 118.5 13.5s75.167 23.167 112.5 42.5l-262 282h289zM1448 199l310.996 -336.002h-284l-191 207
c-65.333 -35.333 -131.666 -61.666 -198.999 -78.999s-137.666 -26 -210.999 -26c-99.333 0 -196.666 19.667 -291.999 59s-178.666 94 -249.999 164c-74 72 -130.5 154.333 -169.5 247s-58.5 191.334 -58.5 296.001s19.5 203.334 58.5 296.001s95.5 175 169.5 247
c73.333 72 157.5 127.167 252.5 165.5s195.833 57.5 302.5 57.5c106 0 206.333 -19.167 301 -57.5s178.667 -93.5 252 -165.5c74 -72.667 130.667 -155.334 170 -248.001s59 -191 59 -295c0 -101.333 -18.833 -197.5 -56.5 -288.5s-92.5 -172.167 -164.5 -243.5z" />
    <glyph glyph-name="R" unicode="R" horiz-adv-x="1147" 
d="M406 840h43c126 0 209.667 14.667 251 44s62 81.333 62 156c0 80.667 -22.167 137.5 -66.5 170.5s-126.5 49.5 -246.5 49.5h-43v-420zM391 655l0.000976562 -655.002h-223v1464h332c97.333 0 172.833 -6.33301 226.5 -19s99.5 -33.667 137.5 -63
c45.333 -35.333 80.333 -81 105 -137s37 -117.333 37 -184c0 -117.333 -28.333 -209.166 -85 -275.499s-140.334 -106.166 -251.001 -119.499l504 -666h-269l-487 655h-27z" />
    <glyph glyph-name="S" unicode="S" horiz-adv-x="1124" 
d="M84 293l190.001 88c18 -65.333 51 -115.166 99 -149.499s109.333 -51.5 184 -51.5c70.667 0 126.834 19.667 168.501 59s62.5 92 62.5 158c0 86 -71.333 162.667 -214 230c-20 10 -35.333 17.333 -46 22c-161.333 78.667 -268.833 149.834 -322.5 213.501
s-80.5 141.5 -80.5 233.5c0 119.333 40.5 216 121.5 290s187.167 111 318.5 111c108 0 198.333 -20.833 271 -62.5s123 -101.5 151 -179.5l-186 -96c-29.333 46 -61.5 79.667 -96.5 101s-75.167 32 -120.5 32c-64 0 -114.833 -16.667 -152.5 -50s-56.5 -78 -56.5 -134
c0 -88 82.667 -170 248 -246l30 -14c144.667 -66.667 244 -131.834 298 -195.501s81 -143.167 81 -238.5c0 -138.667 -43.667 -248.834 -131 -330.501s-205.333 -122.5 -354 -122.5c-124.667 0 -226.834 28.667 -306.501 86s-131.834 139.333 -156.501 246z" />
    <glyph glyph-name="T" unicode="T" horiz-adv-x="1042" 
d="M641 1262v-1262h-238v1262h-389v202h1014v-202h-387z" />
    <glyph glyph-name="U" unicode="U" horiz-adv-x="1524" 
d="M162 1464h234.999v-889c0 -132 30.5 -231.167 91.5 -297.5s152.167 -99.5 273.5 -99.5c120.667 0 211.5 33.167 272.5 99.5s91.5 165.5 91.5 297.5v889h238v-911c0 -198 -50 -346.167 -150 -444.5s-250.667 -147.5 -452 -147.5s-351.666 49 -450.999 147
s-149 246.333 -149 445v911z" />
    <glyph glyph-name="V" unicode="V" horiz-adv-x="1266" 
d="M633 -57l-653 1521h247l328 -780c19.333 -45.333 35.333 -87.166 48 -125.499s22.667 -74.833 30 -109.5c8.66699 36.667 19.667 74.667 33 114s29 79.666 47 120.999l327 780h246z" />
    <glyph glyph-name="W" unicode="W" horiz-adv-x="1923" 
d="M-6 1464l235.002 0.00195312l277 -739c18 -48.667 33.167 -91.334 45.5 -128.001s23.166 -71 32.499 -103c23.333 77.333 47.666 153 72.999 227c3.33301 9.33301 5.66602 15.666 6.99902 18.999l294 782l310 -797c14.667 -38.667 28.5 -77.334 41.5 -116.001
s25.167 -77.667 36.5 -117c6.66699 30 15.667 63 27 99s26 78.667 44 128l275 745h237l-567 -1521l-334 835c-14.667 37.333 -28 73.166 -40 107.499s-22.667 66.833 -32 97.5c-11.333 -39.333 -22.666 -76.166 -33.999 -110.499s-23 -67.166 -35 -98.499l-328 -831z" />
    <glyph glyph-name="X" unicode="X" horiz-adv-x="1171" 
d="M0 0l474.999 766l-420 698h250l211 -358c11.333 -18.667 32.333 -57.334 63 -116.001l15 -29l35.5 66l44.5 77l223 360h244l-428 -694l461 -770h-263l-245 415l-4 7l-74 141l-37 -70.5c-13.333 -24.333 -27.666 -49.166 -42.999 -74.499l-256 -418h-252z" />
    <glyph glyph-name="Y" unicode="Y" horiz-adv-x="1214" 
d="M483 0l0.00195312 670l-493 794h250l307 -497l27.5 -50c11 -20.667 22.167 -43 33.5 -67c9.33301 23.333 19.166 45.333 29.499 66s21.166 39.667 32.499 57l315 491h238l-504 -794v-670h-236z" />
    <glyph glyph-name="Z" unicode="Z" horiz-adv-x="1180" 
d="M18 0l746 1262h-621v202h987l-739 -1251h748v-213h-1121z" />
    <glyph glyph-name="bracketleft" unicode="[" horiz-adv-x="621" 
d="M389 -256h191v-158h-381v1911h381v-156h-191v-1597z" />
    <glyph glyph-name="backslash" unicode="\" horiz-adv-x="887" 
d="M717 -190l-717 1687h170l717 -1687h-170z" />
    <glyph glyph-name="bracketright" unicode="]" horiz-adv-x="621" 
d="M231 -256v1597h-188v156h379v-1911h-379v158h188z" />
    <glyph glyph-name="asciicircum" unicode="^" horiz-adv-x="2048" 
d="M915 1460h218l495 -561h-207l-397 397l-399 -397h-207z" />
    <glyph glyph-name="underscore" unicode="_" 
d="M0 -311h1024v-172h-1024v172z" />
    <glyph glyph-name="grave" unicode="`" 
d="M653 1092h-123l-292 272h225z" />
    <glyph glyph-name="a" unicode="a" horiz-adv-x="1192" 
d="M1042 0l-216.999 0.000976562v123c-38.667 -54.667 -83.834 -95.334 -135.501 -122.001s-110.834 -40 -177.501 -40c-134 0 -239.5 45.833 -316.5 137.5s-115.5 217.167 -115.5 376.5c0 151.333 39.333 273.5 118 366.5s181.334 139.5 308.001 139.5
c77.333 0 143.5 -16.167 198.5 -48.5s95.167 -78.833 120.5 -139.5v155h217v-948zM831.001 477.001c0 98 -22.833 174.334 -68.5 229.001s-109.5 82 -191.5 82s-146.5 -28.167 -193.5 -84.5s-70.5 -134.5 -70.5 -234.5c0 -100.667 22.667 -178.334 68 -233.001
s109.333 -82 192 -82c78 0 141.5 29.667 190.5 89s73.5 137.333 73.5 234z" />
    <glyph glyph-name="b" unicode="b" horiz-adv-x="1192" 
d="M360 477c0 -96.667 24.832 -174.668 74.499 -234.001s113.834 -89 192.501 -89c82 0 145.5 27.333 190.5 82s67.5 132.334 67.5 233.001c0 100 -23.5 178.167 -70.5 234.5s-111.5 84.5 -193.5 84.5s-146 -27.333 -192 -82s-69 -131 -69 -229zM366.999 1550
l0.00195312 -757.001c25.333 60 65.833 106.333 121.5 139s122.167 49 199.5 49c126 0 228.167 -46.5 306.5 -139.5s117.5 -215.167 117.5 -366.5c0 -159.333 -38.5 -284.833 -115.5 -376.5s-182.5 -137.5 -316.5 -137.5c-66.667 0 -125.834 13.333 -177.501 40
s-96.834 67.334 -135.501 122.001v-123h-217v1550h217z" />
    <glyph glyph-name="c" unicode="c" horiz-adv-x="930" 
d="M858 678c-33.333 36.667 -72.166 64.665 -116.499 83.998s-92.166 29 -143.499 29c-88.667 0 -159.667 -28.667 -213 -86s-80 -133.333 -80 -228c0 -98.667 26.833 -176.167 80.5 -232.5s127.834 -84.5 222.501 -84.5c52.667 0 99.667 9.83301 141 29.5
s77.666 49.5 108.999 89.5v-250c-40 -22.667 -82.833 -39.667 -128.5 -51s-94.167 -17 -145.5 -17c-148.667 0 -269.834 47.333 -363.501 142s-140.5 217.334 -140.5 368.001c0 152.667 48.5 275.834 145.5 369.501s223.833 140.5 380.5 140.5
c49.333 0 94.666 -4.83301 135.999 -14.5s80 -24.5 116 -44.5v-244z" />
    <glyph glyph-name="d" unicode="d" horiz-adv-x="1192" 
d="M831 477c0 98 -22.834 174.334 -68.501 229.001s-109.5 82 -191.5 82s-146.5 -28.167 -193.5 -84.5s-70.5 -134.5 -70.5 -234.5c0 -100.667 22.667 -178.334 68 -233.001s109.333 -82 192 -82c78.667 0 142.334 29.5 191.001 88.5s73 137.167 73 234.5zM824.999 1550
l217.001 0.000976562v-1550h-217v123c-38.667 -54.667 -83.834 -95.334 -135.501 -122.001s-110.834 -40 -177.501 -40c-134 0 -239.5 45.833 -316.5 137.5s-115.5 217.167 -115.5 376.5c0 151.333 39.333 273.5 118 366.5s181.334 139.5 308.001 139.5
c77.333 0 143.5 -16.167 198.5 -48.5s95.167 -78.833 120.5 -139.5v757z" />
    <glyph glyph-name="e" unicode="e" horiz-adv-x="1139" 
d="M1063 442l-758 -0.000976562c5.33301 -88.667 31.666 -157.834 78.999 -207.501s110.333 -74.5 189 -74.5c70 0 128.333 14.667 175 44s87.334 76.666 122.001 141.999l183 -102c-53.333 -95.333 -119.333 -166.333 -198 -213s-171 -70 -277 -70
c-152 0 -273 46.333 -363 139s-135 216.334 -135 371.001c0 148.667 46.5 270.834 139.5 366.501s212.5 143.5 358.5 143.5c152.667 0 271.667 -43.667 357 -131s128 -209.666 128 -366.999v-41zM838 587.999c-8.66699 68 -34.6699 119.833 -78.0029 155.5
s-102.666 53.5 -177.999 53.5c-71.333 0 -128.666 -17.333 -171.999 -52s-73.666 -87 -90.999 -157h519z" />
    <glyph glyph-name="f" unicode="f" horiz-adv-x="627" 
d="M180 0v757.999h-166v190h166v254c0 126 26.167 219 78.5 279s133.5 90 243.5 90c23.333 0 47.333 -1.66699 72 -5s49.667 -8.66602 75 -15.999v-196c-17.333 10 -34.833 17.5 -52.5 22.5s-35.5 7.5 -53.5 7.5c-52 0 -89.333 -16 -112 -48s-34 -86 -34 -162v-226h228v-190
h-228v-758h-217z" />
    <glyph glyph-name="g" unicode="g" horiz-adv-x="1192" 
d="M831 477c0 98 -22.833 174.334 -68.5 229.001s-109.5 82 -191.5 82s-146.5 -28.167 -193.5 -84.5s-70.5 -134.5 -70.5 -234.5c0 -100.667 22.667 -178.334 68 -233.001s109.333 -82 192 -82c78 0 141.5 29.667 190.5 89s73.5 137.333 73.5 234zM1042 59.001
c0 -185.333 -37.002 -315.832 -111.002 -391.499s-198.667 -113.5 -374 -113.5c-130.667 0 -235 27.5 -313 82.5s-117.667 128.167 -119 219.5l233 1c3.33301 -40.667 22.333 -71.667 57 -93s83.334 -32 146.001 -32c92.667 0 159.334 20.333 200.001 61
s61.334 108.667 62.001 204l2 126c-38.667 -54.667 -83.834 -95.334 -135.501 -122.001s-110.834 -40 -177.501 -40c-134 0 -239.5 45.833 -316.5 137.5s-115.5 217.167 -115.5 376.5c0 151.333 39.333 273.5 118 366.5s181.334 139.5 308.001 139.5
c77.333 0 143.5 -16.167 198.5 -48.5s95.167 -78.833 120.5 -139.5v155h217v-889z" />
    <glyph glyph-name="h" unicode="h" horiz-adv-x="1204" 
d="M150 0v1550h204v-757c43.333 65.333 94.333 113 153 143s130 45 214 45c70.667 0 130.834 -11.167 180.501 -33.5s88.5 -55.5 116.5 -99.5c16.667 -26 28.667 -56.333 36 -91s11 -95.334 11 -182.001v-575h-219v487c0 124.667 -15.167 207.5 -45.5 248.5
s-84.166 61.5 -161.499 61.5c-50.667 0 -95.834 -9.33301 -135.501 -28s-70.834 -45 -93.501 -79c-16 -22.667 -27.167 -51.834 -33.5 -87.501s-9.5 -92.5 -9.5 -170.5v-432h-217z" />
    <glyph glyph-name="i" unicode="i" horiz-adv-x="537" 
d="M131 1358c0 36.667 13.499 68.334 40.499 95.001s59.167 40 96.5 40c38.667 0 70.834 -12.833 96.501 -38.5s38.5 -57.834 38.5 -96.501s-13 -71.167 -39 -97.5s-58 -39.5 -96 -39.5c-37.333 0 -69.5 13.5 -96.5 40.5s-40.5 59.167 -40.5 96.5zM159.999 0v948h217v-948
h-217z" />
    <glyph glyph-name="j" unicode="j" horiz-adv-x="537" 
d="M131 1358c0 36.667 13.499 68.334 40.499 95.001s59.167 40 96.5 40c38.667 0 70.834 -12.833 96.501 -38.5s38.5 -57.834 38.5 -96.501s-13 -71.167 -39 -97.5s-58 -39.5 -96 -39.5c-37.333 0 -69.5 13.5 -96.5 40.5s-40.5 59.167 -40.5 96.5zM159.999 -446v1394h217
v-1394h-217z" />
    <glyph glyph-name="k" unicode="k" horiz-adv-x="1057" 
d="M150 0v1550h217v-995l397 393h268l-430 -418l471 -530h-280l-426 489v-489h-217z" />
    <glyph glyph-name="l" unicode="l" horiz-adv-x="537" 
d="M160 0v1550h217v-1550h-217z" />
    <glyph glyph-name="m" unicode="m" horiz-adv-x="1792" 
d="M367 0l-217.004 0.00292969v948h204v-155c43.333 66 92.5 114.167 147.5 144.5s119.833 45.5 194.5 45.5c74 0 135.333 -15.5 184 -46.5s85.667 -78.167 111 -141.5c50 65.333 103.167 113 159.5 143s120.5 45 192.5 45c62.667 0 117.334 -11.5 164.001 -34.5
s83 -56.5 109 -100.5c12 -20.667 20.833 -45.334 26.5 -74.001s8.5 -69.667 8.5 -123v-76v-575h-217v487c0 127.333 -13.5 211.166 -40.5 251.499s-75.167 60.5 -144.5 60.5c-85.333 0 -146.166 -27.167 -182.499 -81.5s-54.5 -149.5 -54.5 -285.5v-432h-219v487
c0 117.333 -14.167 198.666 -42.5 243.999s-77.166 68 -146.499 68c-42.667 0 -81.667 -9.66699 -117 -29s-63.333 -46 -84 -80c-13.333 -22 -22.666 -49 -27.999 -81s-8 -91 -8 -177v-432z" />
    <glyph glyph-name="n" unicode="n" horiz-adv-x="1204" 
d="M150 0v948.002h204v-155c43.333 65.333 94.333 113 153 143s130 45 214 45c70.667 0 130.834 -11.167 180.501 -33.5s88.5 -55.5 116.5 -99.5c16.667 -26 28.667 -56.333 36 -91s11 -95.334 11 -182.001v-575h-219v487c0 124.667 -15.167 207.5 -45.5 248.5
s-84.166 61.5 -161.499 61.5c-50.667 0 -95.834 -9.33301 -135.501 -28s-70.834 -45 -93.501 -79c-16 -22.667 -27.167 -51.834 -33.5 -87.501s-9.5 -92.5 -9.5 -170.5v-432h-217z" />
    <glyph glyph-name="o" unicode="o" horiz-adv-x="1204" 
d="M895 471c0 88 -28.333 162.5 -85 223.5s-126 91.5 -208 91.5c-81.333 0 -150.5 -30.5 -207.5 -91.5s-85.5 -135.5 -85.5 -223.5s28.5 -162.5 85.5 -223.5s126.167 -91.5 207.5 -91.5s150.5 30.5 207.5 91.5s85.5 135.5 85.5 223.5zM80 473
c0 69.333 13.168 134.832 39.501 196.499s64.166 116.5 113.499 164.5c48.667 47.333 104.667 83.666 168 108.999s129.666 38 198.999 38c71.333 0 138.5 -12.667 201.5 -38s119.5 -62.666 169.5 -111.999c50 -48.667 88 -103.667 114 -165s39 -125.666 39 -192.999
c0 -70 -12.833 -135.667 -38.5 -197s-63.167 -115.666 -112.5 -162.999c-52 -50 -109.667 -87.833 -173 -113.5s-130 -38.5 -200 -38.5c-68.667 0 -134.667 12.833 -198 38.5s-119.666 62.834 -168.999 111.501c-50 49.333 -88 104.666 -114 165.999
s-39 126.666 -39 195.999z" />
    <glyph glyph-name="p" unicode="p" horiz-adv-x="1192" 
d="M360 477c0 -98 24.5 -176.334 73.5 -235.001s113.5 -88 193.5 -88c82 0 145.5 27.333 190.5 82s67.5 132.334 67.5 233.001c0 100 -23.5 178.167 -70.5 234.5s-111.5 84.5 -193.5 84.5s-146 -27.333 -192 -82s-69 -131 -69 -229zM150 -446.001l0.00195312 1394h217v-155
c25.333 60 65.833 106.333 121.5 139s122.167 49 199.5 49c126 0 228.167 -46.5 306.5 -139.5s117.5 -215.167 117.5 -366.5c0 -159.333 -38.5 -284.833 -115.5 -376.5s-182.5 -137.5 -316.5 -137.5c-66.667 0 -125.834 13.333 -177.501 40s-96.834 67.334 -135.501 122.001
v-569h-217z" />
    <glyph glyph-name="q" unicode="q" horiz-adv-x="1192" 
d="M831 477c0 98 -22.832 174.334 -68.499 229.001s-109.5 82 -191.5 82s-146.5 -28.167 -193.5 -84.5s-70.5 -134.5 -70.5 -234.5c0 -100.667 22.667 -178.334 68 -233.001s109.333 -82 192 -82c79.333 0 143.166 29.333 191.499 88s72.5 137 72.5 235zM1042 -445.999
l-216.999 0.000976562v569c-38.667 -54.667 -83.834 -95.334 -135.501 -122.001s-110.834 -40 -177.501 -40c-134 0 -239.5 45.833 -316.5 137.5s-115.5 217.167 -115.5 376.5c0 151.333 39.333 273.5 118 366.5s181.334 139.5 308.001 139.5
c77.333 0 143.5 -16.167 198.5 -48.5s95.167 -78.833 120.5 -139.5v155h217v-1394z" />
    <glyph glyph-name="r" unicode="r" horiz-adv-x="754" 
d="M367 797c23.333 62.667 54.167 109.001 92.5 139.001s85.833 45 142.5 45c30.667 0 60.834 -3.66699 90.501 -11s58.834 -18 87.501 -32l-78 -184c-18.667 13.333 -38.834 23.166 -60.501 29.499s-45.834 9.5 -72.501 9.5c-72 0 -123.667 -28.833 -155 -86.5
s-47 -154.5 -47 -290.5v-416h-217v950h217v-153z" />
    <glyph glyph-name="s" unicode="s" horiz-adv-x="872" 
d="M41 172l180 98.002c13.333 -47.333 38 -83.333 74 -108s82.333 -37 139 -37c48.667 0 86.834 11.167 114.501 33.5s41.5 52.833 41.5 91.5c0 51.333 -49.333 95.333 -148 132c-33.333 12 -59 22 -77 30c-101.333 42 -172.166 84.667 -212.499 128s-60.5 96 -60.5 158
c0 84.667 33.167 153.334 99.5 206.001s154.166 79 263.499 79c73.333 0 136.166 -13.5 188.499 -40.5s90.5 -65.5 114.5 -115.5l-154 -106c-11.333 30 -31.166 53.833 -59.499 71.5s-61.166 26.5 -98.499 26.5c-41.333 0 -74.5 -9.83301 -99.5 -29.5
s-37.5 -45.834 -37.5 -78.501c0 -49.333 56 -94.333 168 -135c35.333 -12.667 62.666 -23 81.999 -31c87.333 -34.667 149.833 -73.834 187.5 -117.501s56.5 -98.167 56.5 -163.5c0 -94.667 -34.333 -168.834 -103 -222.501s-163.334 -80.5 -284.001 -80.5
c-92.667 0 -169.667 17.333 -231 52s-109.333 87.667 -144 159z" />
    <glyph glyph-name="t" unicode="t" horiz-adv-x="621" 
d="M201 0v758h-166v190h166v359h217v-359h166v-190h-166v-758h-217z" />
    <glyph glyph-name="u" unicode="u" horiz-adv-x="1204" 
d="M360 948v-534c0 -92 19 -158 57 -198s99.667 -60 185 -60s147 20 185 60s57 106 57 198v534h217v-469c0 -181.333 -36.333 -313 -109 -395s-188.667 -123 -348 -123c-162 0 -279.333 40.667 -352 122s-109 213.333 -109 396v469h217z" />
    <glyph glyph-name="v" unicode="v" horiz-adv-x="967" 
d="M483 -57l-497 1005h237l207 -477c6.66699 -14.667 14.667 -36.667 24 -66s19 -64.333 29 -105c6.66699 28.667 14.5 57.167 23.5 85.5s19.833 56.833 32.5 85.5l206 477h236z" />
    <glyph glyph-name="w" unicode="w" horiz-adv-x="1536" 
d="M1057 -57l-218.997 492.999c-16.667 38 -30.334 71.833 -41.001 101.5s-20.334 58.834 -29.001 87.501l-39 -111.5c-11.333 -31 -20.333 -54.167 -27 -69.5l-225 -501l-491 1005h231l213 -457c8.66699 -19.333 17.167 -45.833 25.5 -79.5s15.5 -70.834 21.5 -111.501
c0.666992 24 4.66699 49 12 75s19.666 58 36.999 96l232 512h18l236 -512c14.667 -32 25.5 -61.667 32.5 -89s11.167 -54.666 12.5 -81.999c6 36 13.667 70 23 102s20 61 32 87l209 459h229z" />
    <glyph glyph-name="x" unicode="x" horiz-adv-x="928" 
d="M215 0l-240.001 0.00195312l359 510l-307 438h239l133 -196c14 -20 26.333 -39.333 37 -58s20.334 -37.667 29.001 -57c8 16 17.167 32.833 27.5 50.5l39.5 66.5l132 194h237l-307 -440l356 -508h-237l-176 249l-8 12c-34 51.333 -56 90.666 -66 117.999l-38.5 -70.5
c-12.333 -21.667 -24.833 -41.834 -37.5 -60.501z" />
    <glyph glyph-name="y" unicode="y" horiz-adv-x="965" 
d="M313 -446h-223.002l260 528l-348 866h240l174 -491c10 -30 18.833 -60.5 26.5 -91.5s13.834 -62.5 18.501 -94.5c8.66699 33.333 29.334 86.333 62.001 159l5 12l234 506h235z" />
    <glyph glyph-name="z" unicode="z" horiz-adv-x="920" 
d="M879 0h-881l528 758h-475v190h828l-517 -758h517v-190z" />
    <glyph glyph-name="braceleft" unicode="{" 
d="M874 1477l0.00390625 -178.998c-5.33301 0 -13.333 0.333008 -24 1s-18.334 1 -23.001 1c-72.667 0 -121.834 -13.833 -147.501 -41.5s-38.5 -85.5 -38.5 -173.5v-241c0 -103.333 -14.667 -176.833 -44 -220.5s-82.333 -74.834 -159 -93.501
c76 -18 128.833 -48.833 158.5 -92.5s44.5 -117.167 44.5 -220.5v-240c0 -88 13.167 -146.167 39.5 -174.5s75.833 -42.5 148.5 -42.5c4.66699 0 12 0.333008 22 1s17.667 1 23 1v-176h-63c-68 0 -123.167 4 -165.5 12s-77.833 20.333 -106.5 37
c-38 22.667 -64.667 54.667 -80 96s-23 109 -23 203v248c0 96 -17.5 163.667 -52.5 203s-94.5 59 -178.5 59c-4.66699 0 -11.834 -0.333008 -21.501 -1s-16.834 -1 -21.501 -1v179c4.66699 0 11.834 -0.5 21.501 -1.5s16.834 -1.5 21.501 -1.5c84 0 143.5 19.667 178.5 59
s52.5 106.666 52.5 201.999v247c0 96.667 7.66699 165.5 23 206.5s42 72.5 80 94.5c29.333 18 65.666 30.833 108.999 38.5s103.666 11.5 180.999 11.5h45z" />
    <glyph glyph-name="bar" unicode="|" 
d="M424 1565h178v-2048h-178v2048z" />
    <glyph glyph-name="braceright" unicode="}" 
d="M152 1477h45.001c76.667 0 136.5 -3.83301 179.5 -11.5s79.167 -20.5 108.5 -38.5c38 -22 64.667 -53.667 80 -95s23 -110 23 -206v-247c0 -96 17.333 -163.5 52 -202.5s94.334 -58.5 179.001 -58.5c4 0 11 0.5 21 1.5s17.333 1.5 22 1.5v-179
c-4.66699 0 -11.834 0.333008 -21.501 1s-16.834 1 -21.501 1c-84 0 -143.5 -19.667 -178.5 -59s-52.5 -107 -52.5 -203v-248c0 -95.333 -7.66699 -163.333 -23 -204s-42 -72.334 -80 -95.001c-28.667 -17.333 -64.667 -29.833 -108 -37.5s-103.333 -11.5 -180 -11.5h-45
v176c5.33301 0 13 -0.333008 23 -1s17.333 -1 22 -1c72.667 0 121.834 14 147.501 42s38.5 86.333 38.5 175v240c0 102 15 175 45 219s83.333 75.333 160 94c-76.667 18.667 -130 49.834 -160 93.501s-45 117.167 -45 220.5v241c0 88 -12.667 145.833 -38 173.5
s-74 41.5 -146 41.5c-4.66699 0 -12.334 -0.333008 -23.001 -1s-18.667 -1 -24 -1v179z" />
    <glyph glyph-name="asciitilde" unicode="~" horiz-adv-x="1706" 
d="M1530 784l-0.000976562 -184.002c-68.667 -47.333 -134.5 -82.666 -197.5 -105.999s-124.167 -35 -183.5 -35c-29.333 0 -60.166 2.83301 -92.499 8.5s-65.166 14.5 -98.499 26.5c-16.667 5.33301 -42 14 -76 26c-141.333 49.333 -247.666 74 -318.999 74
c-54.667 0 -112.667 -12.667 -174 -38s-131.666 -66 -210.999 -122v187c70.667 48 138 83.833 202 107.5s125.667 35.5 185 35.5c41.333 0 83.166 -4 125.499 -12s98.5 -24 168.5 -48c8.66699 -2.66699 22.667 -7.66699 42 -15c109.333 -38.667 192.666 -58 249.999 -58
c56.667 0 115.667 12.333 177 37s128.666 63.334 201.999 116.001z" />
    <glyph glyph-name="Euro" horiz-adv-x="1237" 
d="M1159 324l-8.00098 -243.998c-54.667 -39.333 -113 -69 -175 -89s-126.667 -30 -194 -30c-157.333 0 -291.5 52.333 -402.5 157s-181.5 246.334 -211.5 425.001h-168l25 110h132c0 8.66699 -0.166992 17.667 -0.5 27s-0.5 23 -0.5 41c0 9.33301 0.666992 27.666 2 54.999
c0.666992 10.667 1.33398 19 2.00098 25h-160l25 112h147c31.333 174 103.166 311.833 215.499 413.5s248.833 152.5 409.5 152.5c64.667 0 126.167 -10.833 184.5 -32.5s114.833 -54.5 169.5 -98.5v-242c-46 54 -97.667 95.167 -155 123.5s-117.666 42.5 -180.999 42.5
c-100 0 -186.5 -32.667 -259.5 -98s-119.5 -152.333 -139.5 -261h583l-34 -112h-568c-1.33301 -22.667 -2.33301 -41.834 -3 -57.501s-1 -30.167 -1 -43.5v-12c0 -4.66699 0.166992 -9.83398 0.5 -15.501s0.833008 -12.167 1.5 -19.5h523l-37 -110h-471
c20.667 -115.333 66.5 -206.666 137.5 -273.999s156.167 -101 255.5 -101c62.667 0 123.167 12.667 181.5 38s116.5 64.666 174.5 117.999z" />
    <glyph glyph-name="Euro" unicode="&#x20ac;" horiz-adv-x="1237" 
d="M1159 324l-8.00098 -243.998c-54.667 -39.333 -113 -69 -175 -89s-126.667 -30 -194 -30c-157.333 0 -291.5 52.333 -402.5 157s-181.5 246.334 -211.5 425.001h-168l25 110h132c0 8.66699 -0.166992 17.667 -0.5 27s-0.5 23 -0.5 41c0 9.33301 0.666992 27.666 2 54.999
c0.666992 10.667 1.33398 19 2.00098 25h-160l25 112h147c31.333 174 103.166 311.833 215.499 413.5s248.833 152.5 409.5 152.5c64.667 0 126.167 -10.833 184.5 -32.5s114.833 -54.5 169.5 -98.5v-242c-46 54 -97.667 95.167 -155 123.5s-117.666 42.5 -180.999 42.5
c-100 0 -186.5 -32.667 -259.5 -98s-119.5 -152.333 -139.5 -261h583l-34 -112h-568c-1.33301 -22.667 -2.33301 -41.834 -3 -57.501s-1 -30.167 -1 -43.5v-12c0 -4.66699 0.166992 -9.83398 0.5 -15.501s0.833008 -12.167 1.5 -19.5h523l-37 -110h-471
c20.667 -115.333 66.5 -206.666 137.5 -273.999s156.167 -101 255.5 -101c62.667 0 123.167 12.667 181.5 38s116.5 64.666 174.5 117.999z" />
    <glyph glyph-name="nonbreakingspace" unicode="&#xa0;" horiz-adv-x="1237" 
 />
    <glyph glyph-name="exclamdown" unicode="&#xa1;" horiz-adv-x="674" 
d="M223 -39v1163h228v-1163h-228zM205 1368c0 36 12.667 66.5 38 91.5s56.333 37.5 93 37.5s67.667 -12.5 93 -37.5s38 -55.5 38 -91.5c0 -36.667 -12.667 -67.667 -38 -93s-56.333 -38 -93 -38c-36 0 -66.833 12.833 -92.5 38.5s-38.5 56.5 -38.5 92.5z" />
    <glyph glyph-name="cent" unicode="&#xa2;" horiz-adv-x="1237" 
d="M623 1042c-71.333 -12 -129.166 -45.167 -173.499 -99.5s-66.5 -118.5 -66.5 -192.5c0 -82 21.167 -149.667 63.5 -203s101.166 -87 176.499 -101v596zM993 961c-38 24 -78.502 42.833 -121.502 56.5s-91.167 22.5 -144.5 26.5v-598
c62.667 10 115.334 22.833 158.001 38.5s78.667 35.167 108 58.5v-209c-38 -22 -79 -39 -123 -51s-91.667 -19 -143 -21v-203h-104v207c-130 10 -235.333 58.333 -316 145s-121 194.667 -121 324c0 130.667 38.833 239.167 116.5 325.5s184.5 139.833 320.5 160.5v161h104
v-157c43.333 -1.33301 86.833 -6.83301 130.5 -16.5s88.834 -24.167 135.501 -43.5v-204z" />
    <glyph glyph-name="sterling" unicode="&#xa3;" horiz-adv-x="1237" 
d="M74 49c39.333 59.333 80.5 104.168 123.5 134.501s89.167 47.833 138.5 52.5c16 32 27.833 62.5 35.5 91.5s11.5 57.833 11.5 86.5c0 27.333 -3.83301 55 -11.5 83s-19.5 57.667 -35.5 89h-250v141h188c-29.333 49.333 -51.666 99 -66.999 149s-23 100 -23 150
c0 133.333 46 242.166 138 326.499s212 126.5 360 126.5c140 0 250.5 -38 331.5 -114s127.5 -185.667 139.5 -329l-223 -30c-6.66699 92 -31.834 161.667 -75.501 209s-104.5 71 -182.5 71c-74.667 0 -135.334 -23.167 -182.001 -69.5s-70 -106.5 -70 -180.5
c0 -52 24.667 -141.667 74 -269l16 -40h358v-141h-313c5.33301 -17.333 9.33301 -35 12 -53s4 -36.667 4 -56c0 -44 -8.33301 -87 -25 -129s-40.334 -79.333 -71.001 -112h6c54.667 0 124.334 -15.167 209.001 -45.5s144 -45.5 178 -45.5c46.667 0 88 9.33301 124 28
s63.667 45 83 79l133 -119c-31.333 -56.667 -72.833 -100.167 -124.5 -130.5s-109.834 -45.5 -174.501 -45.5c-63.333 0 -148.666 16 -255.999 48s-183.666 48 -228.999 48c-37.333 0 -74.333 -8.66699 -111 -26s-72.667 -43.333 -108 -78z" />
    <glyph glyph-name="currency" unicode="&#xa4;" horiz-adv-x="1237" 
d="M1159 324l-8.00098 -243.998c-54.667 -39.333 -113 -69 -175 -89s-126.667 -30 -194 -30c-157.333 0 -291.5 52.333 -402.5 157s-181.5 246.334 -211.5 425.001h-168l25 110h132c0 8.66699 -0.166992 17.667 -0.5 27s-0.5 23 -0.5 41c0 9.33301 0.666992 27.666 2 54.999
c0.666992 10.667 1.33398 19 2.00098 25h-160l25 112h147c31.333 174 103.166 311.833 215.499 413.5s248.833 152.5 409.5 152.5c64.667 0 126.167 -10.833 184.5 -32.5s114.833 -54.5 169.5 -98.5v-242c-46 54 -97.667 95.167 -155 123.5s-117.666 42.5 -180.999 42.5
c-100 0 -186.5 -32.667 -259.5 -98s-119.5 -152.333 -139.5 -261h583l-34 -112h-568c-1.33301 -22.667 -2.33301 -41.834 -3 -57.501s-1 -30.167 -1 -43.5v-12c0 -4.66699 0.166992 -9.83398 0.5 -15.501s0.833008 -12.167 1.5 -19.5h523l-37 -110h-471
c20.667 -115.333 66.5 -206.666 137.5 -273.999s156.167 -101 255.5 -101c62.667 0 123.167 12.667 181.5 38s116.5 64.666 174.5 117.999z" />
    <glyph glyph-name="yen" unicode="&#xa5;" horiz-adv-x="1237" 
d="M492 0v578.001h-482v145h445l-101 164h-344v145h256l-266 420h240l307 -494c7.33301 -11.333 16.5 -27.833 27.5 -49.5s22.167 -45.167 33.5 -70.5c8.66699 22.667 18.167 44.667 28.5 66s21.5 41.666 33.5 60.999l315 487h229l-266 -420h256v-145h-350l-102 -164h452
v-145h-493v-578h-219z" />
    <glyph glyph-name="brokenbar" unicode="&#xa6;" 
d="M424 408h178v-758h-178v758zM424 1432h178v-758h-178v758z" />
    <glyph glyph-name="section" unicode="&#xa7;" horiz-adv-x="1090" 
d="M551 281c69.333 0 128.666 24.832 177.999 74.499s74 110.167 74 181.5c0 70.667 -24.667 131.334 -74 182.001s-108.666 76 -177.999 76s-128.333 -25 -177 -75s-73 -111 -73 -183c0 -71.333 24.333 -131.833 73 -181.5s107.667 -74.5 177 -74.5zM154 -88.001
l201.999 0.000976562c2.66699 -61.333 19.5 -107 50.5 -137s76.5 -45 136.5 -45c58 0 104.167 13.5 138.5 40.5s51.5 63.167 51.5 108.5c0 63.333 -68.667 123.666 -206 180.999l-42 18c-86.667 37.333 -149.167 66.5 -187.5 87.5s-67.833 41.5 -88.5 61.5
c-42.667 40.667 -74.167 86.334 -94.5 137.001s-30.5 109 -30.5 175c0 85.333 22.667 159.833 68 223.5s110 111.834 194 144.501c-60 28 -105 64.5 -135 109.5s-45 98.833 -45 161.5c0 99.333 35 177.666 105 234.999s166.667 86 290 86c116 0 204.833 -28.833 266.5 -86.5
s92.5 -140.834 92.5 -249.501v-20h-187c-2 60 -18.667 105.333 -50 136s-76.666 46 -135.999 46c-52.667 0 -95.5 -13.5 -128.5 -40.5s-49.5 -61.167 -49.5 -102.5c0 -38 15.5 -70.5 46.5 -97.5s100.833 -62.167 209.5 -105.5c146 -58.667 246.667 -120.834 302 -186.501
s83 -152.5 83 -260.5c0 -92 -23.167 -168.333 -69.5 -229s-114.833 -104.334 -205.5 -131.001c62.667 -29.333 111.167 -69.166 145.5 -119.499s51.5 -106.833 51.5 -169.5c0 -102.667 -35.167 -184 -105.5 -244s-166.833 -90 -289.5 -90c-116 0 -208.833 31.333 -278.5 94
s-104.5 145.334 -104.5 248.001v21z" />
    <glyph glyph-name="dieresis" unicode="&#xa8;" 
d="M573 1255c0 32 12 59.833 36 83.5s52.333 35.5 85 35.5s60.667 -11.5 84 -34.5s35 -51.167 35 -84.5c0 -35.333 -11.167 -64.5 -33.5 -87.5s-50.833 -34.5 -85.5 -34.5c-34 0 -62.667 11.667 -86 35s-35 52.333 -35 87zM209 1255c0 32 12 59.833 36 83.5
s52.333 35.5 85 35.5s60.667 -11.5 84 -34.5s35 -51.167 35 -84.5c0 -35.333 -11.167 -64.5 -33.5 -87.5s-50.833 -34.5 -85.5 -34.5c-34 0 -62.667 11.667 -86 35s-35 52.333 -35 87z" />
    <glyph glyph-name="copyright" unicode="&#xa9;" horiz-adv-x="1706" 
d="M1206 903h-166.001c-6.66699 49.333 -26.667 87.333 -60 114s-76.666 40 -129.999 40c-66 0 -117.667 -28.833 -155 -86.5s-56 -137.5 -56 -239.5c0 -101.333 19.167 -179.5 57.5 -234.5s92.833 -82.5 163.5 -82.5c53.333 0 96.333 14.5 129 43.5s52.667 70.5 60 124.5
h165c-4.66699 -90 -40.167 -162.333 -106.5 -217s-150.833 -82 -253.5 -82c-122 0 -218.667 39.667 -290 119s-107 187 -107 323c0 138.667 36.5 249.167 109.5 331.5s170.167 123.5 291.5 123.5c98 0 179 -25.667 243 -77s99 -118 105 -200zM853.999 1362
c-86.667 0 -167.667 -15.5 -243 -46.5s-142.333 -76.167 -201 -135.5c-60 -61.333 -106.167 -130.666 -138.5 -207.999s-48.5 -157.666 -48.5 -240.999c0 -84 16 -164 48 -240s78.333 -144 139 -204c60 -60.667 128.167 -107 204.5 -139s156.166 -48 239.499 -48
s163.333 16.167 240 48.5s146.334 79.166 209.001 140.499c59.333 58.667 104.5 125.5 135.5 200.5s46.5 155.5 46.5 241.5s-15.667 167.167 -47 243.5s-76.333 144.166 -135 203.499c-60.667 60 -129 105.667 -205 137s-157.333 47 -244 47zM851.999 1470
c101.333 0 196.664 -18.335 285.997 -55.002s169.333 -90.667 240 -162c70 -70 123.333 -149.5 160 -238.5s55 -183.5 55 -283.5c0 -102 -18.167 -197.333 -54.5 -286s-89.166 -166.667 -158.499 -234c-72 -71.333 -153.5 -126 -244.5 -164s-185.5 -57 -283.5 -57
c-97.333 0 -190.666 18.833 -279.999 56.5s-169.333 91.834 -240 162.501c-71.333 70.667 -125.666 150.834 -162.999 240.501s-56 183.5 -56 281.5c0 96.667 19 190.167 57 280.5s92.667 171.5 164 243.5c70 71.333 148.5 125 235.5 161s181.167 54 282.5 54z" />
    <glyph glyph-name="ordfeminine" unicode="&#xaa;" horiz-adv-x="895" 
d="M782 801l-164 0.000976562v86c-28 -38 -61.5 -66.333 -100.5 -85s-83.167 -28 -132.5 -28c-100.667 0 -180.167 32 -238.5 96s-87.5 151.667 -87.5 263c0 105.333 29.667 190.666 89 255.999s136.333 98 231 98c58 0 107.833 -11.333 149.5 -34s71.5 -55 89.5 -97v108
h164v-663zM625 1135c0 68.667 -17.333 122.333 -52 161s-83 58 -145 58c-61.333 0 -109.5 -20 -144.5 -60s-52.5 -95.333 -52.5 -166c0 -70 17 -124 51 -162s82 -57 144 -57c58.667 0 106.5 20.833 143.5 62.5s55.5 96.167 55.5 163.5z" />
    <glyph glyph-name="guillemotleft" unicode="&#xab;" horiz-adv-x="930" 
d="M713 877l139 -84l-207 -324l207 -324l-139 -84l-254 408zM334 877l137 -84l-205 -324l205 -324l-137 -84l-254 408z" />
    <glyph glyph-name="logicalnot" unicode="&#xac;" horiz-adv-x="1706" 
d="M254 862h1198v-502h-166v336h-1032v166z" />
    <glyph glyph-name="sfthyphen" unicode="&#xad;" horiz-adv-x="829" 
d="M147 571h535v-200h-535v200z" />
    <glyph glyph-name="registered" unicode="&#xae;" horiz-adv-x="1706" 
d="M729 1047l-0.000976562 -261h117c66.667 0 115.334 10.167 146.001 30.5s46 52.5 46 96.5c0 46 -16 79.833 -48 101.5s-82.667 32.5 -152 32.5h-109zM550.999 1159l319.001 0.00195312c115.333 0 202.666 -19 261.999 -57s89 -94 89 -168
c0 -60.667 -16 -110.834 -48 -150.501s-77.667 -65.834 -137 -78.501l185 -375h-199l-164 346h-129v-346h-178v829zM854 1362c-86 0 -166.001 -15.168 -240.001 -45.501s-140.667 -75.166 -200 -134.499c-61.333 -62.667 -108.5 -132.667 -141.5 -210
s-49.5 -157.666 -49.5 -240.999s15.667 -162.833 47 -238.5s76.666 -143.5 135.999 -203.5c60 -60.667 128 -107.334 204 -140.001s154 -49 234 -49c86.667 0 168.834 15.667 246.501 47s147.5 77.333 209.5 138c59.333 57.333 105 123.5 137 198.5s48 154.167 48 237.5
c0 88.667 -15.167 171.167 -45.5 247.5s-75.166 144.833 -134.499 205.5c-62 61.333 -131.167 108 -207.5 140s-157.5 48 -243.5 48zM851.999 1470c102 0 198.167 -18.6689 288.5 -56.002s170.833 -92.333 241.5 -165c68.667 -69.333 121 -148.166 157 -236.499
s54 -182.166 54 -281.499c0 -102 -18.5 -197.667 -55.5 -287s-90.833 -168.333 -161.5 -237c-72 -70 -153 -123.667 -243 -161s-183.667 -56 -281 -56c-98 0 -192.167 19.167 -282.5 57.5s-170.833 93.5 -241.5 165.5c-70 70.667 -123.333 150.334 -160 239.001
s-55 181.667 -55 279c0 98 19.167 192.667 57.5 284s93.5 173 165.5 245c69.333 69.333 147.5 121.666 234.5 156.999s180.833 53 281.5 53z" />
    <glyph glyph-name="macron" unicode="&#xaf;" 
d="M248 1153v141h526v-141h-526z" />
    <glyph glyph-name="degree" unicode="&#xb0;" horiz-adv-x="674" 
d="M338 1350c-51.333 0 -95.166 -17.998 -131.499 -53.998s-54.5 -79.667 -54.5 -131c0 -50.667 18.167 -94.334 54.5 -131.001s80.166 -55 131.499 -55s94.833 18.167 130.5 54.5s53.5 80.166 53.5 131.499s-17.833 95 -53.5 131s-79.167 54 -130.5 54zM338 1460
c80.667 0 150 -28.999 208 -86.999s87 -128 87 -210c0 -80.667 -29 -150 -87 -208s-128 -87 -210 -87s-151.333 28.5 -208 85.5s-85 126.833 -85 209.5c0 83.333 28.667 153.666 86 210.999s127 86 209 86z" />
    <glyph glyph-name="plusminus" unicode="&#xb1;" horiz-adv-x="1706" 
d="M254 182h1198v-168h-1198v168zM768 1206h170v-334h514v-165h-514v-334h-170v334h-514v165h514v334z" />
    <glyph glyph-name="twosuperior" unicode="&#xb2;" horiz-adv-x="817" 
d="M676 690l-0.000976562 -115h-647l360 394c44.667 48.667 77.334 91.667 98.001 129s31 71.333 31 102c0 43.333 -14 77.333 -42 102s-66.667 37 -116 37c-44 0 -80.333 -12.167 -109 -36.5s-44.667 -56.833 -48 -97.5l-152 -1c0 78.667 29.167 141.334 87.5 188.001
s136.5 70 234.5 70c93.333 0 166.833 -21.667 220.5 -65s80.5 -102.666 80.5 -177.999c0 -52.667 -15.167 -105.834 -45.5 -159.501s-95.833 -133.834 -196.5 -240.501l-125 -129h369z" />
    <glyph glyph-name="threesuperior" unicode="&#xb3;" horiz-adv-x="817" 
d="M62 811l151 -0.000976562v-8c0 -40.667 15.167 -73 45.5 -97s71.166 -36 122.499 -36c59.333 0 104.833 13.333 136.5 40s47.5 65 47.5 115c0 52.667 -16.333 92.167 -49 118.5s-81.667 39.5 -147 39.5h-29v115c2.66699 0 7.16699 -0.333008 13.5 -1s11.5 -1 15.5 -1
c56.667 0 99.5 10.833 128.5 32.5s43.5 53.834 43.5 96.501c0 37.333 -13.167 67.166 -39.5 89.499s-61.833 33.5 -106.5 33.5c-46.667 0 -83.167 -10.167 -109.5 -30.5s-40.5 -49.166 -42.5 -86.499h-141c4.66699 74 32.5 131 83.5 171s122.167 60 213.5 60
c89.333 0 159.833 -21 211.5 -63s77.5 -98.667 77.5 -170c0 -54 -14.667 -98.167 -44 -132.5s-70 -55.166 -122 -62.499c61.333 -10 108.166 -34.5 140.499 -73.5s48.5 -90.167 48.5 -153.5c0 -78 -30.167 -139.833 -90.5 -185.5s-142.166 -68.5 -245.499 -68.5
c-93.333 0 -168.166 23.167 -224.499 69.5s-85.833 109.166 -88.5 188.499z" />
    <glyph glyph-name="acute" unicode="&#xb4;" 
d="M371 1092l190 272h225l-292 -272h-123z" />
    <glyph glyph-name="mu" unicode="&#xb5;" horiz-adv-x="1208" 
d="M205 1081h228.999l-125 -635c-4 -19.333 -7 -37.666 -9 -54.999s-3 -33.666 -3 -48.999c0 -64 15.5 -112.833 46.5 -146.5s76.167 -50.5 135.5 -50.5c81.333 0 145.833 29.5 193.5 88.5s84.834 156.5 111.501 292.5l109 555h225l-145 -739
c-6.66699 -32.667 -11.5 -59.834 -14.5 -81.501s-4.5 -38.834 -4.5 -51.501c0 -24 5.16699 -41 15.5 -51s27.833 -15 52.5 -15c8.66699 0 15.5 0.166992 20.5 0.5s9.5 0.833008 13.5 1.5l-32 -159c-21.333 -6 -44.166 -10.333 -68.499 -13s-51.5 -4 -81.5 -4
c-49.333 0 -86.5 10.5 -111.5 31.5s-37.5 52.167 -37.5 93.5v15c-27.333 -44.667 -63.333 -79.5 -108 -104.5s-93.334 -37.5 -146.001 -37.5c-54 0 -99.833 8.66699 -137.5 26s-70.167 45 -97.5 83l-99 -506h-229z" />
    <glyph glyph-name="paragraph" unicode="&#xb6;" 
d="M969 1479v-99h-117v-1380h-129v1380h-168v-1380h-131v784c-112 4 -201.5 37.667 -268.5 101s-100.5 145 -100.5 245c0 105.333 35.667 189.833 107 253.5s166 95.5 284 95.5h523z" />
    <glyph glyph-name="periodcentered" unicode="&#xb7;" horiz-adv-x="618" 
d="M178 721c0 36.667 12.667 67.667 38 93s56.333 38 93 38c37.333 0 68.5 -12.667 93.5 -38s37.5 -56.333 37.5 -93c0 -36 -12.667 -66.833 -38 -92.5s-56.333 -38.5 -93 -38.5c-36 0 -66.833 12.833 -92.5 38.5s-38.5 56.5 -38.5 92.5z" />
    <glyph glyph-name="cedilla" unicode="&#xb8;" 
d="M274 -393v106.001c54 -12.667 100.667 -22 140 -28s73.333 -9 102 -9c34.667 0 60.334 5.66699 77.001 17s25 28.333 25 51c0 26 -10.5 44.833 -31.5 56.5s-54.833 17.5 -101.5 17.5c-4.66699 0 -11.334 -0.333008 -20.001 -1s-15.667 -1 -21 -1v184h86v-86h17
c74.667 0 130.5 -14.5 167.5 -43.5s55.5 -72.5 55.5 -130.5c0 -55.333 -20.5 -97.833 -61.5 -127.5s-99.833 -44.5 -176.5 -44.5c-32.667 0 -70.667 3.16699 -114 9.5s-91.333 16.166 -144 29.499z" />
    <glyph glyph-name="onesuperior" unicode="&#xb9;" horiz-adv-x="817" 
d="M358 575v758h-200l61 113h281v-871h-142z" />
    <glyph glyph-name="ordmasculine" unicode="&#xba;" horiz-adv-x="903" 
d="M672 1130c0 62 -21.332 114.501 -63.999 157.501s-94.334 64.5 -155.001 64.5c-62 0 -114.5 -21.333 -157.5 -64s-64.5 -95.334 -64.5 -158.001c0 -62 21.5 -114.333 64.5 -157s95.5 -64 157.5 -64c60 0 111.5 21.5 154.5 64.5s64.5 95.167 64.5 156.5zM59.001 1133
c0 48 10 93.5 30 136.5s49 81.167 87 114.5c36 33.333 77.667 58.833 125 76.5s97.333 26.5 150 26.5c54 0 104.5 -8.83301 151.5 -26.5s89.167 -43.834 126.5 -78.501c37.333 -34 65.833 -72.167 85.5 -114.5s29.5 -87.166 29.5 -134.499
c0 -49.333 -9.66699 -95.333 -29 -138s-48 -80.667 -86 -114c-38 -35.333 -80.667 -62 -128 -80s-97.333 -27 -150 -27c-52 0 -101.667 9 -149 27s-89.333 44 -126 78c-38 34 -67 72.5 -87 115.5s-30 89.167 -30 138.5z" />
    <glyph glyph-name="guillemotright" unicode="&#xbb;" horiz-adv-x="930" 
d="M598 61l-139 84l207 324l-207 324l139 84l254 -408zM219 61l-137 84l205 324l-205 324l137 84l254 -408z" />
    <glyph glyph-name="onequarter" unicode="&#xbc;" horiz-adv-x="1901" 
d="M1585 553l-233 -293.001h229v213c0 11.333 0.333008 23.833 1 37.5s1.66699 27.834 3 42.501zM1581 -0.000976562v166h-442l536 661h43v-567h113v-94h-113v-166h-137zM438 -39.001l887 1518h137l-887 -1518h-137zM340 632.999v706h-190l57 105h270v-811h-137z" />
    <glyph glyph-name="onehalf" unicode="&#xbd;" horiz-adv-x="1901" 
d="M1767 106v-106h-618l344 367c44 46.667 75.833 87.167 95.5 121.5s29.5 65.5 29.5 93.5c0 40.667 -13.5 72.667 -40.5 96s-64.167 35 -111.5 35c-42 0 -76.5 -11.5 -103.5 -34.5s-42.167 -53.833 -45.5 -92.5h-146c0 73.333 27.833 131.833 83.5 175.5
s130.5 65.5 224.5 65.5c88.667 0 158.5 -20.167 209.5 -60.5s76.5 -95.833 76.5 -166.5c0 -50 -15 -100.833 -45 -152.5s-92 -125.167 -186 -220.5l-117 -121h350zM438 -39l887 1518h137l-887 -1518h-137zM340 633v706h-190l57 105h270v-811h-137z" />
    <glyph glyph-name="threequarters" unicode="&#xbe;" horiz-adv-x="1901" 
d="M1585 553l-233 -293.001h229v213c0 11.333 0.333008 23.833 1 37.5s1.66699 27.834 3 42.501zM1581 -0.000976562v166h-442l536 661h43v-567h113v-94h-113v-166h-137zM438 -39.001l887 1518h137l-887 -1518h-137zM60 851.999l142.999 -0.000976562v-6
c0 -38.667 14.5 -69.167 43.5 -91.5s68.5 -33.5 118.5 -33.5c55.333 0 98.166 12.5 128.499 37.5s45.5 60.833 45.5 107.5c0 49.333 -15.667 86.333 -47 111s-78 37 -140 37c-2.66699 0 -7.16699 -0.333008 -13.5 -1s-11.166 -1 -14.499 -1v108
c3.33301 0 7.83301 -0.333008 13.5 -1s9.83398 -1 12.501 -1c54.667 0 96 10.167 124 30.5s42 50.5 42 90.5c0 34.667 -12.333 62.5 -37 83.5s-58 31.5 -100 31.5c-46 0 -81.5 -9.5 -106.5 -28.5s-38.833 -46.5 -41.5 -82.5h-135c5.33301 70.667 32.333 124.5 81 161.5
s116.667 55.5 204 55.5c85.333 0 152.666 -19.333 201.999 -58s74 -91.667 74 -159c0 -50 -14 -91 -42 -123s-67 -51.667 -117 -59c58.667 -9.33301 103.334 -32.166 134.001 -68.499s46 -84.5 46 -144.5c0 -72.667 -28.833 -130.5 -86.5 -173.5s-135.5 -64.5 -233.5 -64.5
c-88 0 -159 22 -213 66s-82.333 102.667 -85 176z" />
    <glyph glyph-name="questiondown" unicode="&#xbf;" horiz-adv-x="1114" 
d="M725 344l171.994 -0.00195312c0 -4 0.333008 -10.167 1 -18.5s1 -14.5 1 -18.5c0 -105.333 -31.5 -189.333 -94.5 -252s-147.5 -94 -253.5 -94c-108.667 0 -195.5 31.333 -260.5 94s-97.5 146 -97.5 250c0 76 18.833 138.667 56.5 188s112.834 101.333 225.501 156l20 10
c132.667 66 199 128.333 199 187c0 34 -13 63.333 -39 88s-57.333 37 -94 37c-44.667 0 -79.167 -13.5 -103.5 -40.5s-37.166 -65.5 -38.499 -115.5h-177v21c0 98.667 27.667 174.834 83 228.501s134 80.5 236 80.5c94.667 0 172.667 -27.833 234 -83.5
s92 -126.167 92 -211.5c0 -78.667 -21.167 -144 -63.5 -196s-125.166 -107.667 -248.499 -167c-81.333 -38 -133.666 -70 -156.999 -96s-35 -57.333 -35 -94c0 -44.667 15.833 -81.5 47.5 -110.5s71.834 -43.5 120.501 -43.5c54.667 0 97.334 17.833 128.001 53.5
s46 84.834 46 147.501zM710.994 1368c0 -36 -13 -66.833 -39 -92.5s-56.667 -38.5 -92 -38.5c-37.333 0 -68.5 12.667 -93.5 38s-37.5 56.333 -37.5 93c0 36 12.667 66.5 38 91.5s56.333 37.5 93 37.5s67.667 -12.5 93 -37.5s38 -55.5 38 -91.5z" />
    <glyph glyph-name="Agrave" unicode="&#xc0;" horiz-adv-x="1356" 
d="M477 575h407.999l-150 334c-8.66699 21.333 -17.667 45.833 -27 73.5s-18.666 58.5 -27.999 92.5c-8 -32 -16.5 -61.833 -25.5 -89.5s-18.167 -53.167 -27.5 -76.5zM1135 0l-166 377h-580l-170 -377h-250l709 1522l708 -1522h-251zM818.999 1608h-123l-292 272h225z" />
    <glyph glyph-name="Aacute" unicode="&#xc1;" horiz-adv-x="1356" 
d="M477 575h407.999l-150 334c-8.66699 21.333 -17.667 45.833 -27 73.5s-18.666 58.5 -27.999 92.5c-8 -32 -16.5 -61.833 -25.5 -89.5s-18.167 -53.167 -27.5 -76.5zM1135 0l-166 377h-580l-170 -377h-250l709 1522l708 -1522h-251zM536.999 1608l190 272h225l-292 -272
h-123z" />
    <glyph glyph-name="Acircumflex" unicode="&#xc2;" horiz-adv-x="1356" 
d="M477 575h407.999l-150 334c-8.66699 21.333 -17.667 45.833 -27 73.5s-18.666 58.5 -27.999 92.5c-8 -32 -16.5 -61.833 -25.5 -89.5s-18.167 -53.167 -27.5 -76.5zM1135 0l-166 377h-580l-170 -377h-250l709 1522l708 -1522h-251zM380.999 1608l193 272h208l193 -272
h-123l-174 157l-174 -157h-123z" />
    <glyph glyph-name="Atilde" unicode="&#xc3;" horiz-adv-x="1356" 
d="M477 575h407.999l-150 334c-8.66699 21.333 -17.667 45.833 -27 73.5s-18.666 58.5 -27.999 92.5c-8 -32 -16.5 -61.833 -25.5 -89.5s-18.167 -53.167 -27.5 -76.5zM1135 0l-166 377h-580l-170 -377h-250l709 1522l708 -1522h-251zM970.999 1857
c-12 -66 -35.1699 -117.167 -69.5029 -153.5s-76.166 -54.5 -125.499 -54.5c-8.66699 0 -17.334 0.5 -26.001 1.5s-17.667 2.5 -27 4.5l-124 32c-10.667 2 -18.667 3.33301 -24 4s-10 1 -14 1c-23.333 0 -41.666 -5.33301 -54.999 -16s-23.666 -28 -30.999 -52h-90
c15.333 70.667 38.5 123.167 69.5 157.5s70.833 51.5 119.5 51.5c10 0 20.167 -0.666992 30.5 -2s20.5 -3.33301 30.5 -6l117 -31c5.33301 -1.33301 11.333 -2.33301 18 -3s16.334 -1 29.001 -1c20.667 0 38 5.83301 52 17.5s24 28.167 30 49.5h90z" />
    <glyph glyph-name="Adieresis" unicode="&#xc4;" horiz-adv-x="1356" 
d="M477 575h407.999l-150 334c-8.66699 21.333 -17.667 45.833 -27 73.5s-18.666 58.5 -27.999 92.5c-8 -32 -16.5 -61.833 -25.5 -89.5s-18.167 -53.167 -27.5 -76.5zM1135 0l-166 377h-580l-170 -377h-250l709 1522l708 -1522h-251zM738.999 1771c0 32 12 59.833 36 83.5
s52.333 35.5 85 35.5s60.667 -11.5 84 -34.5s35 -51.167 35 -84.5c0 -35.333 -11.167 -64.5 -33.5 -87.5s-50.833 -34.5 -85.5 -34.5c-34 0 -62.667 11.667 -86 35s-35 52.333 -35 87zM374.999 1771c0 32 12 59.833 36 83.5s52.333 35.5 85 35.5s60.667 -11.5 84 -34.5
s35 -51.167 35 -84.5c0 -35.333 -11.167 -64.5 -33.5 -87.5s-50.833 -34.5 -85.5 -34.5c-34 0 -62.667 11.667 -86 35s-35 52.333 -35 87z" />
    <glyph glyph-name="Aring" unicode="&#xc5;" horiz-adv-x="1356" 
d="M565 1735c0 -32 11.167 -58.833 33.5 -80.5s49.5 -32.5 81.5 -32.5c31.333 0 58.333 11 81 33s34 48.667 34 80s-11.167 58.166 -33.5 80.499s-49.5 33.5 -81.5 33.5s-59.167 -11.167 -81.5 -33.5s-33.5 -49.166 -33.5 -80.499zM442 1735
c0 66 22.835 121.999 68.502 167.999s101.5 69 167.5 69c65.333 0 121.166 -23.167 167.499 -69.5s69.5 -102.166 69.5 -167.499c0 -66 -22.833 -121.833 -68.5 -167.5s-101.834 -68.5 -168.501 -68.5s-122.667 22.667 -168 68s-68 101.333 -68 168zM1135 -0.000976562
l-166 377h-580l-170 -377h-250l684 1464h52l681 -1464h-251zM477.002 574.999h407.999l-150 334c-8.66699 21.333 -17.667 45.833 -27 73.5s-18.666 58.5 -27.999 92.5c-8 -32 -16.5 -61.833 -25.5 -89.5s-18.167 -53.167 -27.5 -76.5z" />
    <glyph glyph-name="AE" unicode="&#xc6;" horiz-adv-x="1866" 
d="M477 575h421.999l-123 334c-16.667 44.667 -30.834 87 -42.501 127s-21.167 79 -28.5 117c-7.33301 -35.333 -17.166 -71.5 -29.499 -108.5s-27.166 -75.167 -44.499 -114.5zM1329 1464l84 -202h-536l129 -359h491l78 -209h-490l179 -481h538l80 -213h-772l-139 377h-582
l-170 -377h-250l684 1464h676z" />
    <glyph glyph-name="Ccedilla" unicode="&#xc7;" horiz-adv-x="1470" 
d="M1343 1108c-67.333 57.333 -138.502 100.335 -213.502 129.002s-153.833 43 -236.5 43c-160 0 -290.167 -51.333 -390.5 -154s-150.5 -235.667 -150.5 -399c0 -158 48.833 -288.333 146.5 -391s220.834 -154 369.501 -154c86.667 0 169.167 15.333 247.5 46
s153.5 77 225.5 139v-269c-64 -46 -133.667 -80.333 -209 -103s-157 -34 -245 -34c-112 0 -215.5 18.333 -310.5 55s-178.5 90.667 -250.5 162c-71.333 70 -126.166 152.5 -164.499 247.5s-57.5 196.167 -57.5 303.5s19.167 208.166 57.5 302.499
s93.833 177.166 166.5 248.499c72.667 72 156 126.5 250 163.5s195.667 55.5 305 55.5c86 0 168 -12.5 246 -37.5s153.667 -62.833 227 -113.5zM629.998 -392.998v106.001c54 -12.667 100.667 -22 140 -28s73.333 -9 102 -9c34.667 0 60.334 5.66699 77.001 17
s25 28.333 25 51c0 26 -10.5 44.833 -31.5 56.5s-54.833 17.5 -101.5 17.5c-4.66699 0 -11.334 -0.333008 -20.001 -1s-15.667 -1 -21 -1v184h86v-86h17c74.667 0 130.5 -14.5 167.5 -43.5s55.5 -72.5 55.5 -130.5c0 -55.333 -20.5 -97.833 -61.5 -127.5
s-99.833 -44.5 -176.5 -44.5c-32.667 0 -70.667 3.16699 -114 9.5s-91.333 16.166 -144 29.499z" />
    <glyph glyph-name="Egrave" unicode="&#xc8;" horiz-adv-x="1090" 
d="M168 0v1464h817v-202h-579v-367h579v-209h-579v-473h579v-213h-817zM721 1608h-123l-292 272h225z" />
    <glyph glyph-name="Eacute" unicode="&#xc9;" horiz-adv-x="1090" 
d="M168 0v1464h817v-202h-579v-367h579v-209h-579v-473h579v-213h-817zM439 1608l190 272h225l-292 -272h-123z" />
    <glyph glyph-name="Ecircumflex" unicode="&#xca;" horiz-adv-x="1090" 
d="M168 0v1464h817v-202h-579v-367h579v-209h-579v-473h579v-213h-817zM283 1608l193 272h208l193 -272h-123l-174 157l-174 -157h-123z" />
    <glyph glyph-name="Edieresis" unicode="&#xcb;" horiz-adv-x="1090" 
d="M168 0v1464h817v-202h-579v-367h579v-209h-579v-473h579v-213h-817zM641 1771c0 32 12 59.833 36 83.5s52.333 35.5 85 35.5s60.667 -11.5 84 -34.5s35 -51.167 35 -84.5c0 -35.333 -11.167 -64.5 -33.5 -87.5s-50.833 -34.5 -85.5 -34.5c-34 0 -62.667 11.667 -86 35
s-35 52.333 -35 87zM277 1771c0 32 12 59.833 36 83.5s52.333 35.5 85 35.5s60.667 -11.5 84 -34.5s35 -51.167 35 -84.5c0 -35.333 -11.167 -64.5 -33.5 -87.5s-50.833 -34.5 -85.5 -34.5c-34 0 -62.667 11.667 -86 35s-35 52.333 -35 87z" />
    <glyph glyph-name="Igrave" unicode="&#xcc;" horiz-adv-x="584" 
d="M172 0v1464h238v-1464h-238zM434 1608h-123l-292 272h225z" />
    <glyph glyph-name="Iacute" unicode="&#xcd;" horiz-adv-x="584" 
d="M172 0v1464h238v-1464h-238zM152 1608l190 272h225l-292 -272h-123z" />
    <glyph glyph-name="Icircumflex" unicode="&#xce;" horiz-adv-x="584" 
d="M172 0v1464h238v-1464h-238zM-4 1608l193 272h208l193 -272h-123l-174 157l-174 -157h-123z" />
    <glyph glyph-name="Idieresis" unicode="&#xcf;" horiz-adv-x="584" 
d="M172 0v1464h238v-1464h-238zM354 1771c0 32 12 59.833 36 83.5s52.333 35.5 85 35.5s60.667 -11.5 84 -34.5s35 -51.167 35 -84.5c0 -35.333 -11.167 -64.5 -33.5 -87.5s-50.833 -34.5 -85.5 -34.5c-34 0 -62.667 11.667 -86 35s-35 52.333 -35 87zM-10 1771
c0 32 12 59.833 36 83.5s52.333 35.5 85 35.5s60.667 -11.5 84 -34.5s35 -51.167 35 -84.5c0 -35.333 -11.167 -64.5 -33.5 -87.5s-50.833 -34.5 -85.5 -34.5c-34 0 -62.667 11.667 -86 35s-35 52.333 -35 87z" />
    <glyph glyph-name="Eth" unicode="&#xd0;" horiz-adv-x="1530" 
d="M420 215l201.001 0.00195312c109.333 0 191.5 7.33301 246.5 22s103.167 39.334 144.5 74.001c55.333 47.333 96.833 106.166 124.5 176.499s41.5 152.166 41.5 245.499s-13.833 175.166 -41.5 245.499s-69.167 129.166 -124.5 176.499
c-42 34.667 -91.833 59.334 -149.5 74.001s-147.834 22 -270.501 22h-86h-86v-344h387v-184h-387v-508zM182.001 0.00195312v722.999h-182v184h182v557h322c208 0 354.5 -10.5 439.5 -31.5s159.5 -56.167 223.5 -105.5c84.667 -64.667 148.834 -147.667 192.501 -249
s65.5 -217 65.5 -347s-21.833 -245.167 -65.5 -345.5s-107.834 -183.166 -192.501 -248.499c-63.333 -49.333 -136 -84.5 -218 -105.5s-209.333 -31.5 -382 -31.5h-63h-322z" />
    <glyph glyph-name="Ntilde" unicode="&#xd1;" horiz-adv-x="1645" 
d="M168 0v1522l930 -895l77 -81c26 -28.667 53.333 -61 82 -97v1015h220v-1521l-949 911c-25.333 24.667 -49.833 50.667 -73.5 78s-46.167 56 -67.5 86v-1018h-219zM1116 1857c-12 -66 -35.1699 -117.167 -69.5029 -153.5s-76.166 -54.5 -125.499 -54.5
c-8.66699 0 -17.334 0.5 -26.001 1.5s-17.667 2.5 -27 4.5l-124 32c-10.667 2 -18.667 3.33301 -24 4s-10 1 -14 1c-23.333 0 -41.666 -5.33301 -54.999 -16s-23.666 -28 -30.999 -52h-90c15.333 70.667 38.5 123.167 69.5 157.5s70.833 51.5 119.5 51.5
c10 0 20.167 -0.666992 30.5 -2s20.5 -3.33301 30.5 -6l117 -31c5.33301 -1.33301 11.333 -2.33301 18 -3s16.334 -1 29.001 -1c20.667 0 38 5.83301 52 17.5s24 28.167 30 49.5h90z" />
    <glyph glyph-name="Ograve" unicode="&#xd2;" horiz-adv-x="1774" 
d="M1421 729c0 74 -13.5 144.335 -40.5 211.002s-65.833 126 -116.5 178c-49.333 51.333 -106.5 90.833 -171.5 118.5s-133.5 41.5 -205.5 41.5s-140.5 -13.667 -205.5 -41s-122.833 -67 -173.5 -119c-50.667 -51.333 -89.334 -110.333 -116.001 -177
s-40 -137.334 -40 -212.001c0 -74 13.333 -144 40 -210s65.334 -125 116.001 -177s108.334 -91.667 173.001 -119s133.334 -41 206.001 -41c71.333 0 139.166 13.667 203.499 41s122.166 67 173.499 119c50.667 52 89.5 111.167 116.5 177.5s40.5 136.166 40.5 209.499z
M1669 729.002c0 -104 -19.5 -202.332 -58.5 -294.999s-95.833 -175.334 -170.5 -248.001c-75.333 -72.667 -160.333 -128.334 -255 -167.001s-194 -58 -298 -58c-105.333 0 -205.833 19.5 -301.5 58.5s-180.167 94.5 -253.5 166.5c-74.667 72.667 -131.334 155 -170.001 247
s-58 190.667 -58 296c0 104.667 19.333 203.334 58 296.001s95.334 175.667 170.001 249c74.667 72.667 159.334 128 254.001 166s195 57 301 57c105.333 0 205.166 -19 299.499 -57s178.833 -93.333 253.5 -166c74.667 -74 131.5 -157.5 170.5 -250.5
s58.5 -191.167 58.5 -294.5zM1028 1608h-123l-292 272h225z" />
    <glyph glyph-name="Oacute" unicode="&#xd3;" horiz-adv-x="1774" 
d="M1421 729c0 74 -13.5 144.335 -40.5 211.002s-65.833 126 -116.5 178c-49.333 51.333 -106.5 90.833 -171.5 118.5s-133.5 41.5 -205.5 41.5s-140.5 -13.667 -205.5 -41s-122.833 -67 -173.5 -119c-50.667 -51.333 -89.334 -110.333 -116.001 -177
s-40 -137.334 -40 -212.001c0 -74 13.333 -144 40 -210s65.334 -125 116.001 -177s108.334 -91.667 173.001 -119s133.334 -41 206.001 -41c71.333 0 139.166 13.667 203.499 41s122.166 67 173.499 119c50.667 52 89.5 111.167 116.5 177.5s40.5 136.166 40.5 209.499z
M1669 729.002c0 -104 -19.5 -202.332 -58.5 -294.999s-95.833 -175.334 -170.5 -248.001c-75.333 -72.667 -160.333 -128.334 -255 -167.001s-194 -58 -298 -58c-105.333 0 -205.833 19.5 -301.5 58.5s-180.167 94.5 -253.5 166.5c-74.667 72.667 -131.334 155 -170.001 247
s-58 190.667 -58 296c0 104.667 19.333 203.334 58 296.001s95.334 175.667 170.001 249c74.667 72.667 159.334 128 254.001 166s195 57 301 57c105.333 0 205.166 -19 299.499 -57s178.833 -93.333 253.5 -166c74.667 -74 131.5 -157.5 170.5 -250.5
s58.5 -191.167 58.5 -294.5zM746 1608l190 272h225l-292 -272h-123z" />
    <glyph glyph-name="Ocircumflex" unicode="&#xd4;" horiz-adv-x="1774" 
d="M1421 729c0 74 -13.5 144.335 -40.5 211.002s-65.833 126 -116.5 178c-49.333 51.333 -106.5 90.833 -171.5 118.5s-133.5 41.5 -205.5 41.5s-140.5 -13.667 -205.5 -41s-122.833 -67 -173.5 -119c-50.667 -51.333 -89.334 -110.333 -116.001 -177
s-40 -137.334 -40 -212.001c0 -74 13.333 -144 40 -210s65.334 -125 116.001 -177s108.334 -91.667 173.001 -119s133.334 -41 206.001 -41c71.333 0 139.166 13.667 203.499 41s122.166 67 173.499 119c50.667 52 89.5 111.167 116.5 177.5s40.5 136.166 40.5 209.499z
M1669 729.002c0 -104 -19.5 -202.332 -58.5 -294.999s-95.833 -175.334 -170.5 -248.001c-75.333 -72.667 -160.333 -128.334 -255 -167.001s-194 -58 -298 -58c-105.333 0 -205.833 19.5 -301.5 58.5s-180.167 94.5 -253.5 166.5c-74.667 72.667 -131.334 155 -170.001 247
s-58 190.667 -58 296c0 104.667 19.333 203.334 58 296.001s95.334 175.667 170.001 249c74.667 72.667 159.334 128 254.001 166s195 57 301 57c105.333 0 205.166 -19 299.499 -57s178.833 -93.333 253.5 -166c74.667 -74 131.5 -157.5 170.5 -250.5
s58.5 -191.167 58.5 -294.5zM590 1608l193 272h208l193 -272h-123l-174 157l-174 -157h-123z" />
    <glyph glyph-name="Otilde" unicode="&#xd5;" horiz-adv-x="1774" 
d="M1421 729c0 74 -13.5 144.335 -40.5 211.002s-65.833 126 -116.5 178c-49.333 51.333 -106.5 90.833 -171.5 118.5s-133.5 41.5 -205.5 41.5s-140.5 -13.667 -205.5 -41s-122.833 -67 -173.5 -119c-50.667 -51.333 -89.334 -110.333 -116.001 -177
s-40 -137.334 -40 -212.001c0 -74 13.333 -144 40 -210s65.334 -125 116.001 -177s108.334 -91.667 173.001 -119s133.334 -41 206.001 -41c71.333 0 139.166 13.667 203.499 41s122.166 67 173.499 119c50.667 52 89.5 111.167 116.5 177.5s40.5 136.166 40.5 209.499z
M1669 729.002c0 -104 -19.5 -202.332 -58.5 -294.999s-95.833 -175.334 -170.5 -248.001c-75.333 -72.667 -160.333 -128.334 -255 -167.001s-194 -58 -298 -58c-105.333 0 -205.833 19.5 -301.5 58.5s-180.167 94.5 -253.5 166.5c-74.667 72.667 -131.334 155 -170.001 247
s-58 190.667 -58 296c0 104.667 19.333 203.334 58 296.001s95.334 175.667 170.001 249c74.667 72.667 159.334 128 254.001 166s195 57 301 57c105.333 0 205.166 -19 299.499 -57s178.833 -93.333 253.5 -166c74.667 -74 131.5 -157.5 170.5 -250.5
s58.5 -191.167 58.5 -294.5zM1180 1857c-12 -66 -35.1699 -117.167 -69.5029 -153.5s-76.166 -54.5 -125.499 -54.5c-8.66699 0 -17.334 0.5 -26.001 1.5s-17.667 2.5 -27 4.5l-124 32c-10.667 2 -18.667 3.33301 -24 4s-10 1 -14 1c-23.333 0 -41.666 -5.33301 -54.999 -16
s-23.666 -28 -30.999 -52h-90c15.333 70.667 38.5 123.167 69.5 157.5s70.833 51.5 119.5 51.5c10 0 20.167 -0.666992 30.5 -2s20.5 -3.33301 30.5 -6l117 -31c5.33301 -1.33301 11.333 -2.33301 18 -3s16.334 -1 29.001 -1c20.667 0 38 5.83301 52 17.5s24 28.167 30 49.5
h90z" />
    <glyph glyph-name="Odieresis" unicode="&#xd6;" horiz-adv-x="1774" 
d="M1421 729c0 74 -13.5 144.335 -40.5 211.002s-65.833 126 -116.5 178c-49.333 51.333 -106.5 90.833 -171.5 118.5s-133.5 41.5 -205.5 41.5s-140.5 -13.667 -205.5 -41s-122.833 -67 -173.5 -119c-50.667 -51.333 -89.334 -110.333 -116.001 -177
s-40 -137.334 -40 -212.001c0 -74 13.333 -144 40 -210s65.334 -125 116.001 -177s108.334 -91.667 173.001 -119s133.334 -41 206.001 -41c71.333 0 139.166 13.667 203.499 41s122.166 67 173.499 119c50.667 52 89.5 111.167 116.5 177.5s40.5 136.166 40.5 209.499z
M1669 729.002c0 -104 -19.5 -202.332 -58.5 -294.999s-95.833 -175.334 -170.5 -248.001c-75.333 -72.667 -160.333 -128.334 -255 -167.001s-194 -58 -298 -58c-105.333 0 -205.833 19.5 -301.5 58.5s-180.167 94.5 -253.5 166.5c-74.667 72.667 -131.334 155 -170.001 247
s-58 190.667 -58 296c0 104.667 19.333 203.334 58 296.001s95.334 175.667 170.001 249c74.667 72.667 159.334 128 254.001 166s195 57 301 57c105.333 0 205.166 -19 299.499 -57s178.833 -93.333 253.5 -166c74.667 -74 131.5 -157.5 170.5 -250.5
s58.5 -191.167 58.5 -294.5zM948 1771c0 32 12 59.833 36 83.5s52.333 35.5 85 35.5s60.667 -11.5 84 -34.5s35 -51.167 35 -84.5c0 -35.333 -11.167 -64.5 -33.5 -87.5s-50.833 -34.5 -85.5 -34.5c-34 0 -62.667 11.667 -86 35s-35 52.333 -35 87zM584 1771
c0 32 12 59.833 36 83.5s52.333 35.5 85 35.5s60.667 -11.5 84 -34.5s35 -51.167 35 -84.5c0 -35.333 -11.167 -64.5 -33.5 -87.5s-50.833 -34.5 -85.5 -34.5c-34 0 -62.667 11.667 -86 35s-35 52.333 -35 87z" />
    <glyph glyph-name="multiply" unicode="&#xd7;" horiz-adv-x="1706" 
d="M403 1188l459 -459l461 459l117 -117l-459 -461l459 -458l-117 -119l-461 461l-459 -461l-116 119l458 458l-458 461z" />
    <glyph glyph-name="Oslash" unicode="&#xd8;" horiz-adv-x="1774" 
d="M233 -74l-124.002 108.998l184 196c-64 72 -111.5 149 -142.5 231s-46.5 171.667 -46.5 269c0 104.667 19.5 203.334 58.5 296.001s95.5 175 169.5 247c73.333 72.667 157.833 128.334 253.5 167.001s196.167 58 301.5 58c77.333 0 153.333 -11.833 228 -35.5
s150 -60.167 226 -109.5l172 184l129 -104l-176 -189c68.667 -76 119.667 -156 153 -240s50 -175.333 50 -274c0 -104 -19.667 -202.333 -59 -295s-96 -175.334 -170 -248.001c-74 -71.333 -158.667 -126.333 -254 -165s-195 -58 -299 -58
c-87.333 0 -170.166 12.833 -248.499 38.5s-153.166 64.834 -224.499 117.501zM570.998 288.998c44.667 -35.333 91.833 -61.667 141.5 -79s102.834 -26 159.501 -26c79.333 0 151.666 13.333 216.999 40s124.333 66.667 177 120c50.667 52 89.167 111 115.5 177
s39.5 136 39.5 210c0 63.333 -10 123.833 -30 181.5s-49.333 111.167 -88 160.5zM1184 1186c-45.333 32 -92.166 55.6689 -140.499 71.002s-100.5 23 -156.5 23c-72 0 -140.833 -13.833 -206.5 -41.5s-123.167 -67.167 -172.5 -118.5
c-50.667 -51.333 -89.334 -110.333 -116.001 -177s-40 -137.334 -40 -212.001c0 -62.667 8.5 -120.334 25.5 -173.001s43.5 -102.667 79.5 -150z" />
    <glyph glyph-name="Ugrave" unicode="&#xd9;" horiz-adv-x="1524" 
d="M162 1464h234.999v-889c0 -132 30.5 -231.167 91.5 -297.5s152.167 -99.5 273.5 -99.5c120.667 0 211.5 33.167 272.5 99.5s91.5 165.5 91.5 297.5v889h238v-911c0 -198 -50 -346.167 -150 -444.5s-250.667 -147.5 -452 -147.5s-351.666 49 -450.999 147
s-149 246.333 -149 445v911zM902.999 1608h-123l-292 272h225z" />
    <glyph glyph-name="Uacute" unicode="&#xda;" horiz-adv-x="1524" 
d="M162 1464h234.999v-889c0 -132 30.5 -231.167 91.5 -297.5s152.167 -99.5 273.5 -99.5c120.667 0 211.5 33.167 272.5 99.5s91.5 165.5 91.5 297.5v889h238v-911c0 -198 -50 -346.167 -150 -444.5s-250.667 -147.5 -452 -147.5s-351.666 49 -450.999 147
s-149 246.333 -149 445v911zM620.999 1608l190 272h225l-292 -272h-123z" />
    <glyph glyph-name="Ucircumflex" unicode="&#xdb;" horiz-adv-x="1524" 
d="M162 1464h234.999v-889c0 -132 30.5 -231.167 91.5 -297.5s152.167 -99.5 273.5 -99.5c120.667 0 211.5 33.167 272.5 99.5s91.5 165.5 91.5 297.5v889h238v-911c0 -198 -50 -346.167 -150 -444.5s-250.667 -147.5 -452 -147.5s-351.666 49 -450.999 147
s-149 246.333 -149 445v911zM464.999 1608l193 272h208l193 -272h-123l-174 157l-174 -157h-123z" />
    <glyph glyph-name="Udieresis" unicode="&#xdc;" horiz-adv-x="1524" 
d="M162 1464h234.999v-889c0 -132 30.5 -231.167 91.5 -297.5s152.167 -99.5 273.5 -99.5c120.667 0 211.5 33.167 272.5 99.5s91.5 165.5 91.5 297.5v889h238v-911c0 -198 -50 -346.167 -150 -444.5s-250.667 -147.5 -452 -147.5s-351.666 49 -450.999 147
s-149 246.333 -149 445v911zM822.999 1771c0 32 12 59.833 36 83.5s52.333 35.5 85 35.5s60.667 -11.5 84 -34.5s35 -51.167 35 -84.5c0 -35.333 -11.167 -64.5 -33.5 -87.5s-50.833 -34.5 -85.5 -34.5c-34 0 -62.667 11.667 -86 35s-35 52.333 -35 87zM458.999 1771
c0 32 12 59.833 36 83.5s52.333 35.5 85 35.5s60.667 -11.5 84 -34.5s35 -51.167 35 -84.5c0 -35.333 -11.167 -64.5 -33.5 -87.5s-50.833 -34.5 -85.5 -34.5c-34 0 -62.667 11.667 -86 35s-35 52.333 -35 87z" />
    <glyph glyph-name="Yacute" unicode="&#xdd;" horiz-adv-x="1214" 
d="M483 0l0.00195312 670l-493 794h250l307 -497l27.5 -50c11 -20.667 22.167 -43 33.5 -67c9.33301 23.333 19.166 45.333 29.499 66s21.166 39.667 32.499 57l315 491h238l-504 -794v-670h-236zM467.002 1608l190 272h225l-292 -272h-123z" />
    <glyph glyph-name="Thorn" unicode="&#xde;" horiz-adv-x="1090" 
d="M391 551l76 -0.000976562c132 0 220 14.333 264 43s66 79 66 151c0 78.667 -23.5 133.834 -70.5 165.501s-133.5 47.5 -259.5 47.5h-76v-407zM391 355.999l-0.000976562 -356h-223v1464h223v-301h115c118 0 202.833 -5.83301 254.5 -17.5s96.5 -31.167 134.5 -58.5
c46 -33.333 82 -78.833 108 -136.5s39 -121.167 39 -190.5s-13 -133.333 -39 -192s-62 -104.667 -108 -138c-37.333 -26.667 -81.166 -45.667 -131.499 -57s-128.833 -17 -235.5 -17h-47h-90z" />
    <glyph glyph-name="germandbls" unicode="&#xdf;" horiz-adv-x="1233" 
d="M512 193c20.667 -10.667 42.168 -18.5 64.501 -23.5s45.833 -7.5 70.5 -7.5c88 0 155.833 24.667 203.5 74s71.5 120.333 71.5 213c0 96.667 -28.167 168.834 -84.5 216.501s-141.5 71.5 -255.5 71.5h-35v201c4 0 9.66699 -0.333008 17 -1s12.666 -1 15.999 -1
c70.667 0 125.5 18.333 164.5 55s58.5 88.667 58.5 156c0 74.667 -17.667 131.834 -53 171.501s-86 59.5 -152 59.5c-80.667 0 -137 -23.5 -169 -70.5s-48 -142.167 -48 -285.5v-1022h-217v743h-117v205h117v234c0 114.667 40.833 208.167 122.5 280.5
s188.167 108.5 319.5 108.5c128.667 0 231.5 -35.333 308.5 -106s115.5 -164.334 115.5 -281.001c0 -85.333 -22.833 -155.5 -68.5 -210.5s-114.834 -96.167 -207.501 -123.5c125.333 -6 222.5 -45.5 291.5 -118.5s103.5 -173.5 103.5 -301.5
c0 -150 -40.167 -265.667 -120.5 -347s-195.166 -122 -344.499 -122c-35.333 0 -66.833 3.16699 -94.5 9.5s-53.5 16.166 -77.5 29.499v193z" />
    <glyph glyph-name="agrave" unicode="&#xe0;" horiz-adv-x="1192" 
d="M1042 0l-216.999 0.000976562v123c-38.667 -54.667 -83.834 -95.334 -135.501 -122.001s-110.834 -40 -177.501 -40c-134 0 -239.5 45.833 -316.5 137.5s-115.5 217.167 -115.5 376.5c0 151.333 39.333 273.5 118 366.5s181.334 139.5 308.001 139.5
c77.333 0 143.5 -16.167 198.5 -48.5s95.167 -78.833 120.5 -139.5v155h217v-948zM831.001 477.001c0 98 -22.833 174.334 -68.5 229.001s-109.5 82 -191.5 82s-146.5 -28.167 -193.5 -84.5s-70.5 -134.5 -70.5 -234.5c0 -100.667 22.667 -178.334 68 -233.001
s109.333 -82 192 -82c78 0 141.5 29.667 190.5 89s73.5 137.333 73.5 234zM747.001 1092h-123l-292 272h225z" />
    <glyph glyph-name="aacute" unicode="&#xe1;" horiz-adv-x="1192" 
d="M1042 0l-216.999 0.000976562v123c-38.667 -54.667 -83.834 -95.334 -135.501 -122.001s-110.834 -40 -177.501 -40c-134 0 -239.5 45.833 -316.5 137.5s-115.5 217.167 -115.5 376.5c0 151.333 39.333 273.5 118 366.5s181.334 139.5 308.001 139.5
c77.333 0 143.5 -16.167 198.5 -48.5s95.167 -78.833 120.5 -139.5v155h217v-948zM831.001 477.001c0 98 -22.833 174.334 -68.5 229.001s-109.5 82 -191.5 82s-146.5 -28.167 -193.5 -84.5s-70.5 -134.5 -70.5 -234.5c0 -100.667 22.667 -178.334 68 -233.001
s109.333 -82 192 -82c78 0 141.5 29.667 190.5 89s73.5 137.333 73.5 234zM465.001 1092l190 272h225l-292 -272h-123z" />
    <glyph glyph-name="acircumflex" unicode="&#xe2;" horiz-adv-x="1192" 
d="M1042 0l-216.999 0.000976562v123c-38.667 -54.667 -83.834 -95.334 -135.501 -122.001s-110.834 -40 -177.501 -40c-134 0 -239.5 45.833 -316.5 137.5s-115.5 217.167 -115.5 376.5c0 151.333 39.333 273.5 118 366.5s181.334 139.5 308.001 139.5
c77.333 0 143.5 -16.167 198.5 -48.5s95.167 -78.833 120.5 -139.5v155h217v-948zM831.001 477.001c0 98 -22.833 174.334 -68.5 229.001s-109.5 82 -191.5 82s-146.5 -28.167 -193.5 -84.5s-70.5 -134.5 -70.5 -234.5c0 -100.667 22.667 -178.334 68 -233.001
s109.333 -82 192 -82c78 0 141.5 29.667 190.5 89s73.5 137.333 73.5 234zM309.001 1092l193 272h208l193 -272h-123l-174 157l-174 -157h-123z" />
    <glyph glyph-name="atilde" unicode="&#xe3;" horiz-adv-x="1192" 
d="M1042 0l-216.999 0.000976562v123c-38.667 -54.667 -83.834 -95.334 -135.501 -122.001s-110.834 -40 -177.501 -40c-134 0 -239.5 45.833 -316.5 137.5s-115.5 217.167 -115.5 376.5c0 151.333 39.333 273.5 118 366.5s181.334 139.5 308.001 139.5
c77.333 0 143.5 -16.167 198.5 -48.5s95.167 -78.833 120.5 -139.5v155h217v-948zM831.001 477.001c0 98 -22.833 174.334 -68.5 229.001s-109.5 82 -191.5 82s-146.5 -28.167 -193.5 -84.5s-70.5 -134.5 -70.5 -234.5c0 -100.667 22.667 -178.334 68 -233.001
s109.333 -82 192 -82c78 0 141.5 29.667 190.5 89s73.5 137.333 73.5 234zM899.001 1341c-12 -66 -35.1699 -117.167 -69.5029 -153.5s-76.166 -54.5 -125.499 -54.5c-8.66699 0 -17.334 0.5 -26.001 1.5s-17.667 2.5 -27 4.5l-124 32c-10.667 2 -18.667 3.33301 -24 4
s-10 1 -14 1c-23.333 0 -41.666 -5.33301 -54.999 -16s-23.666 -28 -30.999 -52h-90c15.333 70.667 38.5 123.167 69.5 157.5s70.833 51.5 119.5 51.5c10 0 20.167 -0.666992 30.5 -2s20.5 -3.33301 30.5 -6l117 -31c5.33301 -1.33301 11.333 -2.33301 18 -3
s16.334 -1 29.001 -1c20.667 0 38 5.83301 52 17.5s24 28.167 30 49.5h90z" />
    <glyph glyph-name="adieresis" unicode="&#xe4;" horiz-adv-x="1192" 
d="M1042 0l-216.999 0.000976562v123c-38.667 -54.667 -83.834 -95.334 -135.501 -122.001s-110.834 -40 -177.501 -40c-134 0 -239.5 45.833 -316.5 137.5s-115.5 217.167 -115.5 376.5c0 151.333 39.333 273.5 118 366.5s181.334 139.5 308.001 139.5
c77.333 0 143.5 -16.167 198.5 -48.5s95.167 -78.833 120.5 -139.5v155h217v-948zM831.001 477.001c0 98 -22.833 174.334 -68.5 229.001s-109.5 82 -191.5 82s-146.5 -28.167 -193.5 -84.5s-70.5 -134.5 -70.5 -234.5c0 -100.667 22.667 -178.334 68 -233.001
s109.333 -82 192 -82c78 0 141.5 29.667 190.5 89s73.5 137.333 73.5 234zM667.001 1255c0 32 12 59.833 36 83.5s52.333 35.5 85 35.5s60.667 -11.5 84 -34.5s35 -51.167 35 -84.5c0 -35.333 -11.167 -64.5 -33.5 -87.5s-50.833 -34.5 -85.5 -34.5
c-34 0 -62.667 11.667 -86 35s-35 52.333 -35 87zM303.001 1255c0 32 12 59.833 36 83.5s52.333 35.5 85 35.5s60.667 -11.5 84 -34.5s35 -51.167 35 -84.5c0 -35.333 -11.167 -64.5 -33.5 -87.5s-50.833 -34.5 -85.5 -34.5c-34 0 -62.667 11.667 -86 35s-35 52.333 -35 87z
" />
    <glyph glyph-name="aring" unicode="&#xe5;" horiz-adv-x="1192" 
d="M455 1284c0 -32 10.833 -58.833 32.5 -80.5s48.167 -32.5 79.5 -32.5c32 0 59.167 11.167 81.5 33.5s33.5 48.833 33.5 79.5c0 32 -11.167 59.167 -33.5 81.5s-49.5 33.5 -81.5 33.5c-31.333 0 -57.833 -11.167 -79.5 -33.5s-32.5 -49.5 -32.5 -81.5zM330 1284
c0 66 23.001 122.167 69.001 168.5s102 69.5 168 69.5c65.333 0 121 -23.167 167 -69.5s69 -102.5 69 -168.5c0 -65.333 -22.833 -120.833 -68.5 -166.5s-101.5 -68.5 -167.5 -68.5c-66.667 0 -122.834 22.667 -168.501 68s-68.5 101 -68.5 167zM831.001 477
c0 98 -22.833 174.334 -68.5 229.001s-109.5 82 -191.5 82s-146.5 -28.167 -193.5 -84.5s-70.5 -134.5 -70.5 -234.5c0 -100.667 22.667 -178.334 68 -233.001s109.333 -82 192 -82c78 0 141.5 29.667 190.5 89s73.5 137.333 73.5 234zM1042 0.000976562
l-216.999 0.000976562v123c-38.667 -54.667 -83.834 -95.334 -135.501 -122.001s-110.834 -40 -177.501 -40c-134 0 -239.5 45.833 -316.5 137.5s-115.5 217.167 -115.5 376.5c0 151.333 39.333 273.5 118 366.5s181.334 139.5 308.001 139.5
c77.333 0 143.5 -16.167 198.5 -48.5s95.167 -78.833 120.5 -139.5v155h217v-948z" />
    <glyph glyph-name="ae" unicode="&#xe6;" horiz-adv-x="1765" 
d="M1456 588c-8 68 -33.5 119.833 -76.5 155.5s-102.167 53.5 -177.5 53.5c-71.333 0 -128.833 -17.333 -172.5 -52s-74.167 -87 -91.5 -157h518zM1681 442l-756.999 -0.00292969c4.66699 -89.333 30.834 -159.333 78.501 -210s110.834 -76 189.501 -76
c68.667 0 126.5 15 173.5 45s88.167 78.333 123.5 145l182 -102c-53.333 -96 -119 -167.167 -197 -213.5s-170.667 -69.5 -278 -69.5c-80 0 -148.667 12.667 -206 38s-106.666 64.666 -147.999 117.999c-44.667 -50 -101 -88.5 -169 -115.5s-142.667 -40.5 -224 -40.5
c-115.333 0 -207.333 30.333 -276 91s-103 141 -103 241c0 94.667 34 170.834 102 228.501s157.333 86.5 268 86.5c58 0 110.167 -5.66699 156.5 -17s89.166 -28.666 128.499 -51.999c0.666992 4 1.16699 8.5 1.5 13.5s0.5 12.5 0.5 22.5
c0 72.667 -23.5 127.834 -70.5 165.501s-115.5 56.5 -205.5 56.5c-48 0 -97.333 -8.33301 -148 -25s-100.334 -40.667 -149.001 -72v203c46.667 26.667 95.167 46.667 145.5 60s103.5 20 159.5 20c95.333 0 172.666 -13.167 231.999 -39.5s109.666 -69.166 150.999 -128.499
c40.667 55.333 91 97.166 151 125.499s127.667 42.5 203 42.5c153.333 0 272.5 -44.167 357.5 -132.5s127.5 -212.166 127.5 -371.499v-37zM735.001 298.997c0 43.333 -19.6689 78 -59.002 104s-92.666 39 -159.999 39c-68.667 0 -122.667 -13 -162 -39
s-59 -61.333 -59 -106c0 -44 17.833 -78.5 53.5 -103.5s84.834 -37.5 147.501 -37.5c74.667 0 133.167 12.667 175.5 38s63.5 60.333 63.5 105z" />
    <glyph glyph-name="ccedilla" unicode="&#xe7;" horiz-adv-x="930" 
d="M858 678c-33.333 36.667 -72.166 64.665 -116.499 83.998s-92.166 29 -143.499 29c-88.667 0 -159.667 -28.667 -213 -86s-80 -133.333 -80 -228c0 -98.667 26.833 -176.167 80.5 -232.5s127.834 -84.5 222.501 -84.5c52.667 0 99.667 9.83301 141 29.5
s77.666 49.5 108.999 89.5v-250c-40 -22.667 -82.833 -39.667 -128.5 -51s-94.167 -17 -145.5 -17c-148.667 0 -269.834 47.333 -363.501 142s-140.5 217.334 -140.5 368.001c0 152.667 48.5 275.834 145.5 369.501s223.833 140.5 380.5 140.5
c49.333 0 94.666 -4.83301 135.999 -14.5s80 -24.5 116 -44.5v-244zM317 -393.002v106.001c54 -12.667 100.667 -22 140 -28s73.333 -9 102 -9c34.667 0 60.334 5.66699 77.001 17s25 28.333 25 51c0 26 -10.5 44.833 -31.5 56.5s-54.833 17.5 -101.5 17.5
c-4.66699 0 -11.334 -0.333008 -20.001 -1s-15.667 -1 -21 -1v184h86v-86h17c74.667 0 130.5 -14.5 167.5 -43.5s55.5 -72.5 55.5 -130.5c0 -55.333 -20.5 -97.833 -61.5 -127.5s-99.833 -44.5 -176.5 -44.5c-32.667 0 -70.667 3.16699 -114 9.5s-91.333 16.166 -144 29.499
z" />
    <glyph glyph-name="egrave" unicode="&#xe8;" horiz-adv-x="1139" 
d="M1063 442l-758 -0.000976562c5.33301 -88.667 31.666 -157.834 78.999 -207.501s110.333 -74.5 189 -74.5c70 0 128.333 14.667 175 44s87.334 76.666 122.001 141.999l183 -102c-53.333 -95.333 -119.333 -166.333 -198 -213s-171 -70 -277 -70
c-152 0 -273 46.333 -363 139s-135 216.334 -135 371.001c0 148.667 46.5 270.834 139.5 366.501s212.5 143.5 358.5 143.5c152.667 0 271.667 -43.667 357 -131s128 -209.666 128 -366.999v-41zM838 587.999c-8.66699 68 -34.6699 119.833 -78.0029 155.5
s-102.666 53.5 -177.999 53.5c-71.333 0 -128.666 -17.333 -171.999 -52s-73.666 -87 -90.999 -157h519zM718.997 1092h-123l-292 272h225z" />
    <glyph glyph-name="eacute" unicode="&#xe9;" horiz-adv-x="1139" 
d="M1063 442l-758 -0.000976562c5.33301 -88.667 31.666 -157.834 78.999 -207.501s110.333 -74.5 189 -74.5c70 0 128.333 14.667 175 44s87.334 76.666 122.001 141.999l183 -102c-53.333 -95.333 -119.333 -166.333 -198 -213s-171 -70 -277 -70
c-152 0 -273 46.333 -363 139s-135 216.334 -135 371.001c0 148.667 46.5 270.834 139.5 366.501s212.5 143.5 358.5 143.5c152.667 0 271.667 -43.667 357 -131s128 -209.666 128 -366.999v-41zM838 587.999c-8.66699 68 -34.6699 119.833 -78.0029 155.5
s-102.666 53.5 -177.999 53.5c-71.333 0 -128.666 -17.333 -171.999 -52s-73.666 -87 -90.999 -157h519zM436.997 1092l190 272h225l-292 -272h-123z" />
    <glyph glyph-name="ecircumflex" unicode="&#xea;" horiz-adv-x="1139" 
d="M1063 442l-758 -0.000976562c5.33301 -88.667 31.666 -157.834 78.999 -207.501s110.333 -74.5 189 -74.5c70 0 128.333 14.667 175 44s87.334 76.666 122.001 141.999l183 -102c-53.333 -95.333 -119.333 -166.333 -198 -213s-171 -70 -277 -70
c-152 0 -273 46.333 -363 139s-135 216.334 -135 371.001c0 148.667 46.5 270.834 139.5 366.501s212.5 143.5 358.5 143.5c152.667 0 271.667 -43.667 357 -131s128 -209.666 128 -366.999v-41zM838 587.999c-8.66699 68 -34.6699 119.833 -78.0029 155.5
s-102.666 53.5 -177.999 53.5c-71.333 0 -128.666 -17.333 -171.999 -52s-73.666 -87 -90.999 -157h519zM280.997 1092l193 272h208l193 -272h-123l-174 157l-174 -157h-123z" />
    <glyph glyph-name="edieresis" unicode="&#xeb;" horiz-adv-x="1139" 
d="M1063 442l-758 -0.000976562c5.33301 -88.667 31.666 -157.834 78.999 -207.501s110.333 -74.5 189 -74.5c70 0 128.333 14.667 175 44s87.334 76.666 122.001 141.999l183 -102c-53.333 -95.333 -119.333 -166.333 -198 -213s-171 -70 -277 -70
c-152 0 -273 46.333 -363 139s-135 216.334 -135 371.001c0 148.667 46.5 270.834 139.5 366.501s212.5 143.5 358.5 143.5c152.667 0 271.667 -43.667 357 -131s128 -209.666 128 -366.999v-41zM838 587.999c-8.66699 68 -34.6699 119.833 -78.0029 155.5
s-102.666 53.5 -177.999 53.5c-71.333 0 -128.666 -17.333 -171.999 -52s-73.666 -87 -90.999 -157h519zM638.997 1255c0 32 12 59.833 36 83.5s52.333 35.5 85 35.5s60.667 -11.5 84 -34.5s35 -51.167 35 -84.5c0 -35.333 -11.167 -64.5 -33.5 -87.5
s-50.833 -34.5 -85.5 -34.5c-34 0 -62.667 11.667 -86 35s-35 52.333 -35 87zM274.997 1255c0 32 12 59.833 36 83.5s52.333 35.5 85 35.5s60.667 -11.5 84 -34.5s35 -51.167 35 -84.5c0 -35.333 -11.167 -64.5 -33.5 -87.5s-50.833 -34.5 -85.5 -34.5
c-34 0 -62.667 11.667 -86 35s-35 52.333 -35 87z" />
    <glyph glyph-name="igrave" unicode="&#xec;" horiz-adv-x="537" 
d="M160 0v948h217v-948h-217zM409 1092h-123l-292 272h225z" />
    <glyph glyph-name="iacute" unicode="&#xed;" horiz-adv-x="537" 
d="M160 0v948h217v-948h-217zM127 1092l190 272h225l-292 -272h-123z" />
    <glyph glyph-name="icircumflex" unicode="&#xee;" horiz-adv-x="537" 
d="M160 0v948h217v-948h-217zM-29 1092l193 272h208l193 -272h-123l-174 157l-174 -157h-123z" />
    <glyph glyph-name="idieresis" unicode="&#xef;" horiz-adv-x="537" 
d="M160 0v948h217v-948h-217zM329 1255c0 32 12 59.833 36 83.5s52.333 35.5 85 35.5s60.667 -11.5 84 -34.5s35 -51.167 35 -84.5c0 -35.333 -11.167 -64.5 -33.5 -87.5s-50.833 -34.5 -85.5 -34.5c-34 0 -62.667 11.667 -86 35s-35 52.333 -35 87zM-35 1255
c0 32 12 59.833 36 83.5s52.333 35.5 85 35.5s60.667 -11.5 84 -34.5s35 -51.167 35 -84.5c0 -35.333 -11.167 -64.5 -33.5 -87.5s-50.833 -34.5 -85.5 -34.5c-34 0 -62.667 11.667 -86 35s-35 52.333 -35 87z" />
    <glyph glyph-name="eth" unicode="&#xf0;" horiz-adv-x="1204" 
d="M895 442c0 80 -28.333 147.833 -85 203.5s-126 83.5 -208 83.5c-82.667 0 -152.167 -27.667 -208.5 -83s-84.5 -123.333 -84.5 -204c0 -79.333 28.5 -146.833 85.5 -202.5s126.167 -83.5 207.5 -83.5c80.667 0 149.667 28 207 84s86 123.333 86 202zM864 813
c-32.667 72 -69.833 135.834 -111.5 191.501s-87.167 102.5 -136.5 140.5l-290 -135l-60 116l240 111c-28 21.333 -59 42.833 -93 64.5s-81.667 49.167 -143 82.5l109 160c80.667 -48 146.334 -88.833 197.001 -122.5s94.334 -65.167 131.001 -94.5l317 143l59 -114
l-268 -123c101.333 -98 178.166 -206.667 230.499 -326s78.5 -245 78.5 -377c0 -174.667 -47.167 -313.167 -141.5 -415.5s-221.833 -153.5 -382.5 -153.5c-68.667 0 -134.667 12.333 -198 37s-120.333 60 -171 106c-48.667 45.333 -86 97.5 -112 156.5
s-39 121.833 -39 188.5c0 64 13.167 125.167 39.5 183.5s64.166 110.166 113.499 155.499c48 45.333 101.333 79 160 101s123.667 33 195 33c50.667 0 99 -9.16699 145 -27.5s89.667 -45.5 131 -81.5z" />
    <glyph glyph-name="ntilde" unicode="&#xf1;" horiz-adv-x="1204" 
d="M150 0v948.002h204v-155c43.333 65.333 94.333 113 153 143s130 45 214 45c70.667 0 130.834 -11.167 180.501 -33.5s88.5 -55.5 116.5 -99.5c16.667 -26 28.667 -56.333 36 -91s11 -95.334 11 -182.001v-575h-219v487c0 124.667 -15.167 207.5 -45.5 248.5
s-84.166 61.5 -161.499 61.5c-50.667 0 -95.834 -9.33301 -135.501 -28s-70.834 -45 -93.501 -79c-16 -22.667 -27.167 -51.834 -33.5 -87.501s-9.5 -92.5 -9.5 -170.5v-432h-217zM911 1341c-12 -66 -35.1699 -117.167 -69.5029 -153.5s-76.166 -54.5 -125.499 -54.5
c-8.66699 0 -17.334 0.5 -26.001 1.5s-17.667 2.5 -27 4.5l-124 32c-10.667 2 -18.667 3.33301 -24 4s-10 1 -14 1c-23.333 0 -41.666 -5.33301 -54.999 -16s-23.666 -28 -30.999 -52h-90c15.333 70.667 38.5 123.167 69.5 157.5s70.833 51.5 119.5 51.5
c10 0 20.167 -0.666992 30.5 -2s20.5 -3.33301 30.5 -6l117 -31c5.33301 -1.33301 11.333 -2.33301 18 -3s16.334 -1 29.001 -1c20.667 0 38 5.83301 52 17.5s24 28.167 30 49.5h90z" />
    <glyph glyph-name="ograve" unicode="&#xf2;" horiz-adv-x="1204" 
d="M895 471c0 88 -28.333 162.5 -85 223.5s-126 91.5 -208 91.5c-81.333 0 -150.5 -30.5 -207.5 -91.5s-85.5 -135.5 -85.5 -223.5s28.5 -162.5 85.5 -223.5s126.167 -91.5 207.5 -91.5s150.5 30.5 207.5 91.5s85.5 135.5 85.5 223.5zM80 473
c0 69.333 13.168 134.832 39.501 196.499s64.166 116.5 113.499 164.5c48.667 47.333 104.667 83.666 168 108.999s129.666 38 198.999 38c71.333 0 138.5 -12.667 201.5 -38s119.5 -62.666 169.5 -111.999c50 -48.667 88 -103.667 114 -165s39 -125.666 39 -192.999
c0 -70 -12.833 -135.667 -38.5 -197s-63.167 -115.666 -112.5 -162.999c-52 -50 -109.667 -87.833 -173 -113.5s-130 -38.5 -200 -38.5c-68.667 0 -134.667 12.833 -198 38.5s-119.666 62.834 -168.999 111.501c-50 49.333 -88 104.666 -114 165.999
s-39 126.666 -39 195.999zM743.001 1092h-123l-292 272h225z" />
    <glyph glyph-name="oacute" unicode="&#xf3;" horiz-adv-x="1204" 
d="M895 471c0 88 -28.333 162.5 -85 223.5s-126 91.5 -208 91.5c-81.333 0 -150.5 -30.5 -207.5 -91.5s-85.5 -135.5 -85.5 -223.5s28.5 -162.5 85.5 -223.5s126.167 -91.5 207.5 -91.5s150.5 30.5 207.5 91.5s85.5 135.5 85.5 223.5zM80 473
c0 69.333 13.168 134.832 39.501 196.499s64.166 116.5 113.499 164.5c48.667 47.333 104.667 83.666 168 108.999s129.666 38 198.999 38c71.333 0 138.5 -12.667 201.5 -38s119.5 -62.666 169.5 -111.999c50 -48.667 88 -103.667 114 -165s39 -125.666 39 -192.999
c0 -70 -12.833 -135.667 -38.5 -197s-63.167 -115.666 -112.5 -162.999c-52 -50 -109.667 -87.833 -173 -113.5s-130 -38.5 -200 -38.5c-68.667 0 -134.667 12.833 -198 38.5s-119.666 62.834 -168.999 111.501c-50 49.333 -88 104.666 -114 165.999
s-39 126.666 -39 195.999zM461.001 1092l190 272h225l-292 -272h-123z" />
    <glyph glyph-name="ocircumflex" unicode="&#xf4;" horiz-adv-x="1204" 
d="M895 471c0 88 -28.333 162.5 -85 223.5s-126 91.5 -208 91.5c-81.333 0 -150.5 -30.5 -207.5 -91.5s-85.5 -135.5 -85.5 -223.5s28.5 -162.5 85.5 -223.5s126.167 -91.5 207.5 -91.5s150.5 30.5 207.5 91.5s85.5 135.5 85.5 223.5zM80 473
c0 69.333 13.168 134.832 39.501 196.499s64.166 116.5 113.499 164.5c48.667 47.333 104.667 83.666 168 108.999s129.666 38 198.999 38c71.333 0 138.5 -12.667 201.5 -38s119.5 -62.666 169.5 -111.999c50 -48.667 88 -103.667 114 -165s39 -125.666 39 -192.999
c0 -70 -12.833 -135.667 -38.5 -197s-63.167 -115.666 -112.5 -162.999c-52 -50 -109.667 -87.833 -173 -113.5s-130 -38.5 -200 -38.5c-68.667 0 -134.667 12.833 -198 38.5s-119.666 62.834 -168.999 111.501c-50 49.333 -88 104.666 -114 165.999
s-39 126.666 -39 195.999zM305.001 1092l193 272h208l193 -272h-123l-174 157l-174 -157h-123z" />
    <glyph glyph-name="otilde" unicode="&#xf5;" horiz-adv-x="1204" 
d="M895 471c0 88 -28.333 162.5 -85 223.5s-126 91.5 -208 91.5c-81.333 0 -150.5 -30.5 -207.5 -91.5s-85.5 -135.5 -85.5 -223.5s28.5 -162.5 85.5 -223.5s126.167 -91.5 207.5 -91.5s150.5 30.5 207.5 91.5s85.5 135.5 85.5 223.5zM80 473
c0 69.333 13.168 134.832 39.501 196.499s64.166 116.5 113.499 164.5c48.667 47.333 104.667 83.666 168 108.999s129.666 38 198.999 38c71.333 0 138.5 -12.667 201.5 -38s119.5 -62.666 169.5 -111.999c50 -48.667 88 -103.667 114 -165s39 -125.666 39 -192.999
c0 -70 -12.833 -135.667 -38.5 -197s-63.167 -115.666 -112.5 -162.999c-52 -50 -109.667 -87.833 -173 -113.5s-130 -38.5 -200 -38.5c-68.667 0 -134.667 12.833 -198 38.5s-119.666 62.834 -168.999 111.501c-50 49.333 -88 104.666 -114 165.999
s-39 126.666 -39 195.999zM895.001 1341c-12 -66 -35.1699 -117.167 -69.5029 -153.5s-76.166 -54.5 -125.499 -54.5c-8.66699 0 -17.334 0.5 -26.001 1.5s-17.667 2.5 -27 4.5l-124 32c-10.667 2 -18.667 3.33301 -24 4s-10 1 -14 1
c-23.333 0 -41.666 -5.33301 -54.999 -16s-23.666 -28 -30.999 -52h-90c15.333 70.667 38.5 123.167 69.5 157.5s70.833 51.5 119.5 51.5c10 0 20.167 -0.666992 30.5 -2s20.5 -3.33301 30.5 -6l117 -31c5.33301 -1.33301 11.333 -2.33301 18 -3s16.334 -1 29.001 -1
c20.667 0 38 5.83301 52 17.5s24 28.167 30 49.5h90z" />
    <glyph glyph-name="odieresis" unicode="&#xf6;" horiz-adv-x="1204" 
d="M895 471c0 88 -28.333 162.5 -85 223.5s-126 91.5 -208 91.5c-81.333 0 -150.5 -30.5 -207.5 -91.5s-85.5 -135.5 -85.5 -223.5s28.5 -162.5 85.5 -223.5s126.167 -91.5 207.5 -91.5s150.5 30.5 207.5 91.5s85.5 135.5 85.5 223.5zM80 473
c0 69.333 13.168 134.832 39.501 196.499s64.166 116.5 113.499 164.5c48.667 47.333 104.667 83.666 168 108.999s129.666 38 198.999 38c71.333 0 138.5 -12.667 201.5 -38s119.5 -62.666 169.5 -111.999c50 -48.667 88 -103.667 114 -165s39 -125.666 39 -192.999
c0 -70 -12.833 -135.667 -38.5 -197s-63.167 -115.666 -112.5 -162.999c-52 -50 -109.667 -87.833 -173 -113.5s-130 -38.5 -200 -38.5c-68.667 0 -134.667 12.833 -198 38.5s-119.666 62.834 -168.999 111.501c-50 49.333 -88 104.666 -114 165.999
s-39 126.666 -39 195.999zM663.001 1255c0 32 12 59.833 36 83.5s52.333 35.5 85 35.5s60.667 -11.5 84 -34.5s35 -51.167 35 -84.5c0 -35.333 -11.167 -64.5 -33.5 -87.5s-50.833 -34.5 -85.5 -34.5c-34 0 -62.667 11.667 -86 35s-35 52.333 -35 87zM299.001 1255
c0 32 12 59.833 36 83.5s52.333 35.5 85 35.5s60.667 -11.5 84 -34.5s35 -51.167 35 -84.5c0 -35.333 -11.167 -64.5 -33.5 -87.5s-50.833 -34.5 -85.5 -34.5c-34 0 -62.667 11.667 -86 35s-35 52.333 -35 87z" />
    <glyph glyph-name="divide" unicode="&#xf7;" horiz-adv-x="1706" 
d="M854 367c38 0 70.333 -13.501 97 -40.501s40 -59.5 40 -97.5c0 -37.333 -13.167 -69.166 -39.5 -95.499s-58.833 -39.5 -97.5 -39.5s-71.167 13 -97.5 39s-39.5 58 -39.5 96s13.5 70.5 40.5 97.5s59.167 40.5 96.5 40.5zM254 693.999h1198v-166h-1198v166zM854 1128
c38 0 70.333 -13.668 97 -41.001s40 -60 40 -98c0 -37.333 -13.167 -69.166 -39.5 -95.499s-58.833 -39.5 -97.5 -39.5s-71.167 13 -97.5 39s-39.5 58 -39.5 96s13.5 70.667 40.5 98s59.167 41 96.5 41z" />
    <glyph glyph-name="oslash" unicode="&#xf8;" horiz-adv-x="1204" 
d="M424 217c25.333 -19.333 51.999 -33.667 79.999 -43s58 -14 90 -14c86.667 0 158.5 28.833 215.5 86.5s85.5 130.5 85.5 218.5c0 28.667 -3.66699 57 -11 85s-18.666 56.333 -33.999 85zM777.999 722.999c-24.667 21.333 -50.499 37.167 -77.499 47.5
s-56.5 15.5 -88.5 15.5c-87.333 0 -160.333 -29.667 -219 -89s-88 -133.333 -88 -222c0 -28 3.66699 -56 11 -84s18.666 -56.667 33.999 -86zM150 -53l-80 81.999l125 127c-38.667 49.333 -67.167 99.666 -85.5 150.999s-27.5 105.333 -27.5 162
c0 148.667 49.833 271.5 149.5 368.5s225.167 145.5 376.5 145.5c62.667 0 120.667 -9.5 174 -28.5s101.333 -47.167 144 -84.5l125 127l84 -79l-127 -130c38.667 -50 67.334 -100.667 86.001 -152s28 -105.666 28 -162.999c0 -146 -50.333 -267.833 -151 -365.5
s-226.334 -146.5 -377.001 -146.5c-61.333 0 -118.5 9.33301 -171.5 28s-100.167 46.334 -141.5 83.001z" />
    <glyph glyph-name="ugrave" unicode="&#xf9;" horiz-adv-x="1204" 
d="M360 948v-534c0 -92 19 -158 57 -198s99.667 -60 185 -60s147 20 185 60s57 106 57 198v534h217v-469c0 -181.333 -36.333 -313 -109 -395s-188.667 -123 -348 -123c-162 0 -279.333 40.667 -352 122s-109 213.333 -109 396v469h217zM743 1092h-123l-292 272h225z" />
    <glyph glyph-name="uacute" unicode="&#xfa;" horiz-adv-x="1204" 
d="M360 948v-534c0 -92 19 -158 57 -198s99.667 -60 185 -60s147 20 185 60s57 106 57 198v534h217v-469c0 -181.333 -36.333 -313 -109 -395s-188.667 -123 -348 -123c-162 0 -279.333 40.667 -352 122s-109 213.333 -109 396v469h217zM461 1092l190 272h225l-292 -272
h-123z" />
    <glyph glyph-name="ucircumflex" unicode="&#xfb;" horiz-adv-x="1204" 
d="M360 948v-534c0 -92 19 -158 57 -198s99.667 -60 185 -60s147 20 185 60s57 106 57 198v534h217v-469c0 -181.333 -36.333 -313 -109 -395s-188.667 -123 -348 -123c-162 0 -279.333 40.667 -352 122s-109 213.333 -109 396v469h217zM305 1092l193 272h208l193 -272h-123
l-174 157l-174 -157h-123z" />
    <glyph glyph-name="udieresis" unicode="&#xfc;" horiz-adv-x="1204" 
d="M360 948v-534c0 -92 19 -158 57 -198s99.667 -60 185 -60s147 20 185 60s57 106 57 198v534h217v-469c0 -181.333 -36.333 -313 -109 -395s-188.667 -123 -348 -123c-162 0 -279.333 40.667 -352 122s-109 213.333 -109 396v469h217zM663 1255c0 32 12 59.833 36 83.5
s52.333 35.5 85 35.5s60.667 -11.5 84 -34.5s35 -51.167 35 -84.5c0 -35.333 -11.167 -64.5 -33.5 -87.5s-50.833 -34.5 -85.5 -34.5c-34 0 -62.667 11.667 -86 35s-35 52.333 -35 87zM299 1255c0 32 12 59.833 36 83.5s52.333 35.5 85 35.5s60.667 -11.5 84 -34.5
s35 -51.167 35 -84.5c0 -35.333 -11.167 -64.5 -33.5 -87.5s-50.833 -34.5 -85.5 -34.5c-34 0 -62.667 11.667 -86 35s-35 52.333 -35 87z" />
    <glyph glyph-name="yacute" unicode="&#xfd;" horiz-adv-x="965" 
d="M313 -446h-223.002l260 528l-348 866h240l174 -491c10 -30 18.833 -60.5 26.5 -91.5s13.834 -62.5 18.501 -94.5c8.66699 33.333 29.334 86.333 62.001 159l5 12l234 506h235zM341.998 1092l190 272h225l-292 -272h-123z" />
    <glyph glyph-name="thorn" unicode="&#xfe;" horiz-adv-x="1192" 
d="M360 477c0 -98 24.5 -176.334 73.5 -235.001s113.5 -88 193.5 -88c82 0 145.5 27.333 190.5 82s67.5 132.334 67.5 233.001c0 100 -23.5 178.167 -70.5 234.5s-111.5 84.5 -193.5 84.5s-146 -27.333 -192 -82s-69 -131 -69 -229zM367 122.999l0.00195312 -569.001h-217
v1996h217v-757c25.333 60 65.833 106.333 121.5 139s122.167 49 199.5 49c126 0 228.167 -46.5 306.5 -139.5s117.5 -215.167 117.5 -366.5c0 -159.333 -38.5 -284.833 -115.5 -376.5s-182.5 -137.5 -316.5 -137.5c-66.667 0 -125.834 13.333 -177.501 40
s-96.834 67.334 -135.501 122.001z" />
    <glyph glyph-name="ydieresis" unicode="&#xff;" horiz-adv-x="965" 
d="M313 -446h-223.002l260 528l-348 866h240l174 -491c10 -30 18.833 -60.5 26.5 -91.5s13.834 -62.5 18.501 -94.5c8.66699 33.333 29.334 86.333 62.001 159l5 12l234 506h235zM543.998 1255c0 32 12 59.833 36 83.5s52.333 35.5 85 35.5s60.667 -11.5 84 -34.5
s35 -51.167 35 -84.5c0 -35.333 -11.167 -64.5 -33.5 -87.5s-50.833 -34.5 -85.5 -34.5c-34 0 -62.667 11.667 -86 35s-35 52.333 -35 87zM179.998 1255c0 32 12 59.833 36 83.5s52.333 35.5 85 35.5s60.667 -11.5 84 -34.5s35 -51.167 35 -84.5
c0 -35.333 -11.167 -64.5 -33.5 -87.5s-50.833 -34.5 -85.5 -34.5c-34 0 -62.667 11.667 -86 35s-35 52.333 -35 87z" />
    <glyph glyph-name="Cacute" unicode="&#x106;" horiz-adv-x="1470" 
d="M1343 1108c-67.333 57.333 -138.502 100.335 -213.502 129.002s-153.833 43 -236.5 43c-160 0 -290.167 -51.333 -390.5 -154s-150.5 -235.667 -150.5 -399c0 -158 48.833 -288.333 146.5 -391s220.834 -154 369.501 -154c86.667 0 169.167 15.333 247.5 46
s153.5 77 225.5 139v-269c-64 -46 -133.667 -80.333 -209 -103s-157 -34 -245 -34c-112 0 -215.5 18.333 -310.5 55s-178.5 90.667 -250.5 162c-71.333 70 -126.166 152.5 -164.499 247.5s-57.5 196.167 -57.5 303.5s19.167 208.166 57.5 302.499
s93.833 177.166 166.5 248.499c72.667 72 156 126.5 250 163.5s195.667 55.5 305 55.5c86 0 168 -12.5 246 -37.5s153.667 -62.833 227 -113.5zM724.998 1608l190 272h225l-292 -272h-123z" />
    <glyph glyph-name="cacute" unicode="&#x107;" horiz-adv-x="930" 
d="M858 678c-33.333 36.667 -72.166 64.665 -116.499 83.998s-92.166 29 -143.499 29c-88.667 0 -159.667 -28.667 -213 -86s-80 -133.333 -80 -228c0 -98.667 26.833 -176.167 80.5 -232.5s127.834 -84.5 222.501 -84.5c52.667 0 99.667 9.83301 141 29.5
s77.666 49.5 108.999 89.5v-250c-40 -22.667 -82.833 -39.667 -128.5 -51s-94.167 -17 -145.5 -17c-148.667 0 -269.834 47.333 -363.501 142s-140.5 217.334 -140.5 368.001c0 152.667 48.5 275.834 145.5 369.501s223.833 140.5 380.5 140.5
c49.333 0 94.666 -4.83301 135.999 -14.5s80 -24.5 116 -44.5v-244zM434 1092l190 272h225l-292 -272h-123z" />
    <glyph glyph-name="Ccaron" unicode="&#x10c;" horiz-adv-x="1470" 
d="M1343 1108c-67.333 57.333 -138.502 100.335 -213.502 129.002s-153.833 43 -236.5 43c-160 0 -290.167 -51.333 -390.5 -154s-150.5 -235.667 -150.5 -399c0 -158 48.833 -288.333 146.5 -391s220.834 -154 369.501 -154c86.667 0 169.167 15.333 247.5 46
s153.5 77 225.5 139v-269c-64 -46 -133.667 -80.333 -209 -103s-157 -34 -245 -34c-112 0 -215.5 18.333 -310.5 55s-178.5 90.667 -250.5 162c-71.333 70 -126.166 152.5 -164.499 247.5s-57.5 196.167 -57.5 303.5s19.167 208.166 57.5 302.499
s93.833 177.166 166.5 248.499c72.667 72 156 126.5 250 163.5s195.667 55.5 305 55.5c86 0 168 -12.5 246 -37.5s153.667 -62.833 227 -113.5zM568.998 1880h123l174 -158l174 158h123l-193 -272h-208z" />
    <glyph glyph-name="ccaron" unicode="&#x10d;" horiz-adv-x="930" 
d="M858 678c-33.333 36.667 -72.166 64.665 -116.499 83.998s-92.166 29 -143.499 29c-88.667 0 -159.667 -28.667 -213 -86s-80 -133.333 -80 -228c0 -98.667 26.833 -176.167 80.5 -232.5s127.834 -84.5 222.501 -84.5c52.667 0 99.667 9.83301 141 29.5
s77.666 49.5 108.999 89.5v-250c-40 -22.667 -82.833 -39.667 -128.5 -51s-94.167 -17 -145.5 -17c-148.667 0 -269.834 47.333 -363.501 142s-140.5 217.334 -140.5 368.001c0 152.667 48.5 275.834 145.5 369.501s223.833 140.5 380.5 140.5
c49.333 0 94.666 -4.83301 135.999 -14.5s80 -24.5 116 -44.5v-244zM278 1364h123l174 -158l174 158h123l-193 -272h-208z" />
    <glyph glyph-name="dcroat" unicode="&#x111;" horiz-adv-x="1210" 
d="M831 477c0 98.667 -22.834 175.167 -68.501 229.5s-109.5 81.5 -191.5 81.5s-146.5 -28.333 -193.5 -85s-70.5 -134.667 -70.5 -234c0 -100 22.833 -177.5 68.5 -232.5s109.5 -82.5 191.5 -82.5c78.667 0 142.334 29.333 191.001 88s73 137 73 235zM824.999 1169
l-336.002 0.000976562v162h336v219h217v-219h168v-162h-168v-1169h-217v123c-38 -54.667 -82.833 -95.334 -134.5 -122.001s-111.167 -40 -178.5 -40c-133.333 0 -238.666 45.667 -315.999 137s-116 217 -116 377c0 150.667 39.333 272.667 118 366s181.334 140 308.001 140
c76.667 0 142.5 -16.333 197.5 -49s95.5 -79 121.5 -139v376z" />
    <glyph glyph-name="Gbreve" unicode="&#x11e;" horiz-adv-x="1645" 
d="M979 750l580 0.00390625c0 -10 0.333008 -24 1 -42c2 -47.333 3 -79.333 3 -96c0 -206 -59 -366 -177 -480s-284.333 -171 -499 -171c-120 0 -227 17.667 -321 53s-176.333 88.666 -247 159.999c-69.333 70.667 -122.5 153.667 -159.5 249s-55.5 197.333 -55.5 306
c0 110.667 18.833 212.667 56.5 306s93.5 175.666 167.5 246.999c71.333 70 155 123.333 251 160s198.667 55 308 55c115.333 0 218.5 -21 309.5 -63s172.167 -106.333 243.5 -193l-174 -131c-49.333 57.333 -105 100 -167 128s-131.333 42 -208 42
c-158.667 0 -288.167 -50.833 -388.5 -152.5s-150.5 -233.834 -150.5 -396.501c0 -165.333 50.167 -299.5 150.5 -402.5s230.5 -154.5 390.5 -154.5c136 0 243 31.667 321 95s117 149.666 117 258.999v21h-352v201zM524 1876l121 -1.00098c6 -42.667 23.333 -74 52 -94
s70.667 -30 126 -30c54.667 0 96.167 10 124.5 30s45.5 51.333 51.5 94l119 1c-10.667 -92 -39.5 -159 -86.5 -201s-116.5 -63 -208.5 -63c-92.667 0 -163.167 21.333 -211.5 64s-77.5 109.334 -87.5 200.001z" />
    <glyph glyph-name="gbreve" unicode="&#x11f;" horiz-adv-x="1192" 
d="M831 477c0 98 -22.833 174.334 -68.5 229.001s-109.5 82 -191.5 82s-146.5 -28.167 -193.5 -84.5s-70.5 -134.5 -70.5 -234.5c0 -100.667 22.667 -178.334 68 -233.001s109.333 -82 192 -82c78 0 141.5 29.667 190.5 89s73.5 137.333 73.5 234zM1042 59.001
c0 -185.333 -37.002 -315.832 -111.002 -391.499s-198.667 -113.5 -374 -113.5c-130.667 0 -235 27.5 -313 82.5s-117.667 128.167 -119 219.5l233 1c3.33301 -40.667 22.333 -71.667 57 -93s83.334 -32 146.001 -32c92.667 0 159.334 20.333 200.001 61
s61.334 108.667 62.001 204l2 126c-38.667 -54.667 -83.834 -95.334 -135.501 -122.001s-110.834 -40 -177.501 -40c-134 0 -239.5 45.833 -316.5 137.5s-115.5 217.167 -115.5 376.5c0 151.333 39.333 273.5 118 366.5s181.334 139.5 308.001 139.5
c77.333 0 143.5 -16.167 198.5 -48.5s95.167 -78.833 120.5 -139.5v155h217v-889zM296.998 1360l121 -1.00098c6 -42.667 23.333 -74 52 -94s70.667 -30 126 -30c54.667 0 96.167 10 124.5 30s45.5 51.333 51.5 94l119 1c-10.667 -92 -39.5 -159 -86.5 -201
s-116.5 -63 -208.5 -63c-92.667 0 -163.167 21.333 -211.5 64s-77.5 109.334 -87.5 200.001z" />
    <glyph glyph-name="Idotaccent" unicode="&#x130;" horiz-adv-x="584" 
d="M172 0v1464h238v-1464h-238zM166 1771c0 34 12.667 63.667 38 89s55 38 89 38c34.667 0 64.5 -12.333 89.5 -37s37.5 -54.667 37.5 -90c0 -36.667 -12 -67 -36 -91s-54.333 -36 -91 -36c-36 0 -66.167 12.333 -90.5 37s-36.5 54.667 -36.5 90z" />
    <glyph glyph-name="dotlessi" unicode="&#x131;" horiz-adv-x="537" 
d="M160 0v948h217v-948h-217z" />
    <glyph glyph-name="Lslash" unicode="&#x141;" horiz-adv-x="977" 
d="M182 0v547l-145 -101l-103 144l248 178v696h238v-561l233 164l103 -147l-336 -236v-471h532v-213h-770z" />
    <glyph glyph-name="lslash" unicode="&#x142;" horiz-adv-x="563" 
d="M172 0v557l-111 -78l-96 142l207 147v782h219v-649l111 78l98 -141l-209 -148v-690h-219z" />
    <glyph glyph-name="OE" unicode="&#x152;" horiz-adv-x="2304" 
d="M1401 731c0 74.667 -13.167 145.167 -39.5 211.5s-64.5 125.5 -114.5 177.5c-49.333 51.333 -106 90.833 -170 118.5s-130.667 41.5 -200 41.5c-70.667 0 -137.834 -13.667 -201.501 -41s-120.167 -67 -169.5 -119c-50 -52 -88.167 -111.167 -114.5 -177.5
s-39.5 -136.833 -39.5 -211.5c0 -74 13.167 -144 39.5 -210s64.5 -125 114.5 -177c49.333 -52 105.833 -91.667 169.5 -119s130.834 -41 201.501 -41c70 0 136.833 13.667 200.5 41s120.167 67 169.5 119c50 52 88.167 111 114.5 177s39.5 136 39.5 210zM1407 1464
l788.002 -0.000976562v-202h-569v-361h569v-209h-569v-479h569v-213h-788l-2 225c-62.667 -84 -139.334 -148.333 -230.001 -193s-190 -67 -298 -67c-104 0 -202.333 19.167 -295 57.5s-175.334 93.5 -248.001 165.5c-73.333 73.333 -129.166 156.333 -167.499 249
s-57.5 190.667 -57.5 294s19.167 201.333 57.5 294s94.166 175.667 167.499 249c72.667 72.667 155.5 128.334 248.5 167.001s191.167 58 294.5 58c106 0 203 -21 291 -63s167 -105 237 -189z" />
    <glyph glyph-name="oe" unicode="&#x153;" horiz-adv-x="1944" 
d="M1636 588c-8 68 -33.5 119.833 -76.5 155.5s-102.167 53.5 -177.5 53.5c-70.667 0 -128 -17.333 -172 -52s-74.667 -87 -92 -157h518zM993 147c-57.333 -63.333 -117.499 -110.169 -180.499 -140.502s-131.833 -45.5 -206.5 -45.5c-47.333 0 -93.333 5.83301 -138 17.5
s-86.667 29.167 -126 52.5c-84 48 -148.667 110.333 -194 187s-68 161.667 -68 255c0 67.333 12.833 131.5 38.5 192.5s62.5 115.5 110.5 163.5c50.667 49.333 108.667 87 174 113s135 39 209 39c82.667 0 157.167 -17.167 223.5 -51.5s121.5 -84.166 165.5 -149.499
c42.667 68 94.834 118.5 156.501 151.5s134.5 49.5 218.5 49.5c153.333 0 272.666 -43.667 357.999 -131s128 -209.666 128 -366.999v-41h-758c5.33301 -89.333 31.666 -159.333 78.999 -210s110.333 -76 189 -76c68.667 0 126.5 15 173.5 45s88.167 78.333 123.5 145
l182 -102c-52.667 -95.333 -118.334 -166.333 -197.001 -213s-171.334 -70 -278.001 -70c-85.333 0 -158.666 15 -219.999 45s-115.666 77 -162.999 141zM895.001 470.997c0 88 -28.667 162.5 -86 223.5s-127 91.5 -209 91.5c-81.333 0 -150.5 -30.5 -207.5 -91.5
s-85.5 -135.5 -85.5 -223.5s28.5 -162.5 85.5 -223.5s126.167 -91.5 207.5 -91.5s150.833 30.5 208.5 91.5s86.5 135.5 86.5 223.5z" />
    <glyph glyph-name="Scedilla" unicode="&#x15e;" horiz-adv-x="1124" 
d="M84 293l190.001 88c18 -65.333 51 -115.166 99 -149.499s109.333 -51.5 184 -51.5c70.667 0 126.834 19.667 168.501 59s62.5 92 62.5 158c0 86 -71.333 162.667 -214 230c-20 10 -35.333 17.333 -46 22c-161.333 78.667 -268.833 149.834 -322.5 213.501
s-80.5 141.5 -80.5 233.5c0 119.333 40.5 216 121.5 290s187.167 111 318.5 111c108 0 198.333 -20.833 271 -62.5s123 -101.5 151 -179.5l-186 -96c-29.333 46 -61.5 79.667 -96.5 101s-75.167 32 -120.5 32c-64 0 -114.833 -16.667 -152.5 -50s-56.5 -78 -56.5 -134
c0 -88 82.667 -170 248 -246l30 -14c144.667 -66.667 244 -131.834 298 -195.501s81 -143.167 81 -238.5c0 -138.667 -43.667 -248.834 -131 -330.501s-205.333 -122.5 -354 -122.5c-124.667 0 -226.834 28.667 -306.501 86s-131.834 139.333 -156.501 246zM337.001 -393
v106.001c54 -12.667 100.667 -22 140 -28s73.333 -9 102 -9c34.667 0 60.334 5.66699 77.001 17s25 28.333 25 51c0 26 -10.5 44.833 -31.5 56.5s-54.833 17.5 -101.5 17.5c-4.66699 0 -11.334 -0.333008 -20.001 -1s-15.667 -1 -21 -1v184h86v-86h17
c74.667 0 130.5 -14.5 167.5 -43.5s55.5 -72.5 55.5 -130.5c0 -55.333 -20.5 -97.833 -61.5 -127.5s-99.833 -44.5 -176.5 -44.5c-32.667 0 -70.667 3.16699 -114 9.5s-91.333 16.166 -144 29.499z" />
    <glyph glyph-name="scedilla" unicode="&#x15f;" horiz-adv-x="872" 
d="M41 172l180 98.002c13.333 -47.333 38 -83.333 74 -108s82.333 -37 139 -37c48.667 0 86.834 11.167 114.501 33.5s41.5 52.833 41.5 91.5c0 51.333 -49.333 95.333 -148 132c-33.333 12 -59 22 -77 30c-101.333 42 -172.166 84.667 -212.499 128s-60.5 96 -60.5 158
c0 84.667 33.167 153.334 99.5 206.001s154.166 79 263.499 79c73.333 0 136.166 -13.5 188.499 -40.5s90.5 -65.5 114.5 -115.5l-154 -106c-11.333 30 -31.166 53.833 -59.499 71.5s-61.166 26.5 -98.499 26.5c-41.333 0 -74.5 -9.83301 -99.5 -29.5
s-37.5 -45.834 -37.5 -78.501c0 -49.333 56 -94.333 168 -135c35.333 -12.667 62.666 -23 81.999 -31c87.333 -34.667 149.833 -73.834 187.5 -117.501s56.5 -98.167 56.5 -163.5c0 -94.667 -34.333 -168.834 -103 -222.501s-163.334 -80.5 -284.001 -80.5
c-92.667 0 -169.667 17.333 -231 52s-109.333 87.667 -144 159zM198 -392.998v106.001c54 -12.667 100.667 -22 140 -28s73.333 -9 102 -9c34.667 0 60.334 5.66699 77.001 17s25 28.333 25 51c0 26 -10.5 44.833 -31.5 56.5s-54.833 17.5 -101.5 17.5
c-4.66699 0 -11.334 -0.333008 -20.001 -1s-15.667 -1 -21 -1v184h86v-86h17c74.667 0 130.5 -14.5 167.5 -43.5s55.5 -72.5 55.5 -130.5c0 -55.333 -20.5 -97.833 -61.5 -127.5s-99.833 -44.5 -176.5 -44.5c-32.667 0 -70.667 3.16699 -114 9.5s-91.333 16.166 -144 29.499
z" />
    <glyph glyph-name="Scaron" unicode="&#x160;" horiz-adv-x="1124" 
d="M84 293l190.001 88c18 -65.333 51 -115.166 99 -149.499s109.333 -51.5 184 -51.5c70.667 0 126.834 19.667 168.501 59s62.5 92 62.5 158c0 86 -71.333 162.667 -214 230c-20 10 -35.333 17.333 -46 22c-161.333 78.667 -268.833 149.834 -322.5 213.501
s-80.5 141.5 -80.5 233.5c0 119.333 40.5 216 121.5 290s187.167 111 318.5 111c108 0 198.333 -20.833 271 -62.5s123 -101.5 151 -179.5l-186 -96c-29.333 46 -61.5 79.667 -96.5 101s-75.167 32 -120.5 32c-64 0 -114.833 -16.667 -152.5 -50s-56.5 -78 -56.5 -134
c0 -88 82.667 -170 248 -246l30 -14c144.667 -66.667 244 -131.834 298 -195.501s81 -143.167 81 -238.5c0 -138.667 -43.667 -248.834 -131 -330.501s-205.333 -122.5 -354 -122.5c-124.667 0 -226.834 28.667 -306.501 86s-131.834 139.333 -156.501 246zM266.001 1880
h123l174 -158l174 158h123l-193 -272h-208z" />
    <glyph glyph-name="scaron" unicode="&#x161;" horiz-adv-x="872" 
d="M41 172l180 98.002c13.333 -47.333 38 -83.333 74 -108s82.333 -37 139 -37c48.667 0 86.834 11.167 114.501 33.5s41.5 52.833 41.5 91.5c0 51.333 -49.333 95.333 -148 132c-33.333 12 -59 22 -77 30c-101.333 42 -172.166 84.667 -212.499 128s-60.5 96 -60.5 158
c0 84.667 33.167 153.334 99.5 206.001s154.166 79 263.499 79c73.333 0 136.166 -13.5 188.499 -40.5s90.5 -65.5 114.5 -115.5l-154 -106c-11.333 30 -31.166 53.833 -59.499 71.5s-61.166 26.5 -98.499 26.5c-41.333 0 -74.5 -9.83301 -99.5 -29.5
s-37.5 -45.834 -37.5 -78.501c0 -49.333 56 -94.333 168 -135c35.333 -12.667 62.666 -23 81.999 -31c87.333 -34.667 149.833 -73.834 187.5 -117.501s56.5 -98.167 56.5 -163.5c0 -94.667 -34.333 -168.834 -103 -222.501s-163.334 -80.5 -284.001 -80.5
c-92.667 0 -169.667 17.333 -231 52s-109.333 87.667 -144 159zM139 1364h123l174 -158l174 158h123l-193 -272h-208z" />
    <glyph glyph-name="Ydieresis" unicode="&#x178;" horiz-adv-x="1214" 
d="M483 0l0.00195312 670l-493 794h250l307 -497l27.5 -50c11 -20.667 22.167 -43 33.5 -67c9.33301 23.333 19.166 45.333 29.499 66s21.166 39.667 32.499 57l315 491h238l-504 -794v-670h-236zM669.002 1771c0 32 12 59.833 36 83.5s52.333 35.5 85 35.5
s60.667 -11.5 84 -34.5s35 -51.167 35 -84.5c0 -35.333 -11.167 -64.5 -33.5 -87.5s-50.833 -34.5 -85.5 -34.5c-34 0 -62.667 11.667 -86 35s-35 52.333 -35 87zM305.002 1771c0 32 12 59.833 36 83.5s52.333 35.5 85 35.5s60.667 -11.5 84 -34.5s35 -51.167 35 -84.5
c0 -35.333 -11.167 -64.5 -33.5 -87.5s-50.833 -34.5 -85.5 -34.5c-34 0 -62.667 11.667 -86 35s-35 52.333 -35 87z" />
    <glyph glyph-name="Zcaron" unicode="&#x17d;" horiz-adv-x="1180" 
d="M18 0l746 1262h-621v202h987l-739 -1251h748v-213h-1121zM293 1880h123l174 -158l174 158h123l-193 -272h-208z" />
    <glyph glyph-name="zcaron" unicode="&#x17e;" horiz-adv-x="920" 
d="M879 0h-881l528 758h-475v190h828l-517 -758h517v-190zM164 1364h123l174 -158l174 158h123l-193 -272h-208z" />
    <glyph glyph-name="florin" unicode="&#x192;" horiz-adv-x="1237" 
d="M725 782l-96.0029 -756.999c-23.333 -186 -59 -311.5 -107 -376.5s-123.667 -97.5 -227 -97.5c-24 0 -49 2.16699 -75 6.5s-53.667 10.5 -83 18.5l41 202c18 -6.66699 34.167 -12 48.5 -16s26.166 -6 35.499 -6c45.333 0 78.333 17 99 51s40.334 127 59.001 279l84 696
h-209l14 166h211l21 154c17.333 130.667 51 226.5 101 287.5s120 91.5 210 91.5c28.667 0 57.834 -2.83301 87.501 -8.5s61.167 -14.5 94.5 -26.5l-18 -189c-22.667 9.33301 -43.667 16.166 -63 20.499s-36.666 6.5 -51.999 6.5c-42.667 0 -74.167 -14.5 -94.5 -43.5
s-37.166 -90.167 -50.499 -183.5l-15 -109h232l-17 -166h-231z" />
    <glyph glyph-name="circumflex" unicode="&#x2c6;" 
d="M215 1092l193 272h208l193 -272h-123l-174 157l-174 -157h-123z" />
    <glyph glyph-name="caron" unicode="&#x2c7;" 
d="M215 1364h123l174 -158l174 158h123l-193 -272h-208z" />
    <glyph glyph-name="breve" unicode="&#x2d8;" 
d="M213 1360l121 -1.00098c6 -42.667 23.333 -74 52 -94s70.667 -30 126 -30c54.667 0 96.167 10 124.5 30s45.5 51.333 51.5 94l119 1c-10.667 -92 -39.5 -159 -86.5 -201s-116.5 -63 -208.5 -63c-92.667 0 -163.167 21.333 -211.5 64s-77.5 109.334 -87.5 200.001z" />
    <glyph glyph-name="dotaccent" unicode="&#x2d9;" 
d="M385 1255c0 34 12.667 63.667 38 89s55 38 89 38c34.667 0 64.5 -12.333 89.5 -37s37.5 -54.667 37.5 -90c0 -36.667 -12 -67 -36 -91s-54.333 -36 -91 -36c-36 0 -66.167 12.333 -90.5 37s-36.5 54.667 -36.5 90z" />
    <glyph glyph-name="ring" unicode="&#x2da;" 
d="M399 1284c0 -32 10.833 -58.833 32.5 -80.5s48.5 -32.5 80.5 -32.5c31.333 0 58.333 11.167 81 33.5s34 48.833 34 79.5c0 32 -11.167 59.167 -33.5 81.5s-49.5 33.5 -81.5 33.5c-31.333 0 -58 -11.167 -80 -33.5s-33 -49.5 -33 -81.5zM274 1284
c0 66 23.167 122.167 69.5 168.5s102.5 69.5 168.5 69.5c65.333 0 121.333 -23.333 168 -70s70 -102.667 70 -168s-23 -120.833 -69 -166.5s-102.333 -68.5 -169 -68.5s-123 22.667 -169 68s-69 101 -69 167z" />
    <glyph glyph-name="ogonek" unicode="&#x2db;" 
d="M625 0c-46 -39.333 -79.334 -76.002 -100.001 -110.002s-31 -68.333 -31 -103c0 -28.667 6.66699 -49.167 20 -61.5s36 -18.5 68 -18.5h94v-156h-96c-79.333 0 -137.833 14.667 -175.5 44s-56.5 75 -56.5 137c0 42.667 15.333 85.834 46 129.501
s78.334 89.834 143.001 138.501h88z" />
    <glyph glyph-name="tilde" unicode="&#x2dc;" 
d="M805 1341c-12 -66 -35.1699 -117.167 -69.5029 -153.5s-76.166 -54.5 -125.499 -54.5c-8.66699 0 -17.334 0.5 -26.001 1.5s-17.667 2.5 -27 4.5l-124 32c-10.667 2 -18.667 3.33301 -24 4s-10 1 -14 1c-23.333 0 -41.666 -5.33301 -54.999 -16s-23.666 -28 -30.999 -52
h-90c15.333 70.667 38.5 123.167 69.5 157.5s70.833 51.5 119.5 51.5c10 0 20.167 -0.666992 30.5 -2s20.5 -3.33301 30.5 -6l117 -31c5.33301 -1.33301 11.333 -2.33301 18 -3s16.334 -1 29.001 -1c20.667 0 38 5.83301 52 17.5s24 28.167 30 49.5h90z" />
    <glyph glyph-name="hungarumlaut" unicode="&#x2dd;" 
d="M567 1092l156 272h199l-258 -272h-97zM305 1092l129 272h189l-230 -272h-88z" />
    <glyph glyph-name="Omega" unicode="&#x3a9;" horiz-adv-x="1569" 
d="M1194 213l305 0.00195312v-213h-602v229c106.667 62.667 187.334 144.167 242.001 244.5s82 217.5 82 351.5c0 140 -40.333 253.833 -121 341.5s-186 131.5 -316 131.5c-131.333 0 -236.833 -44.167 -316.5 -132.5s-119.5 -205.833 -119.5 -352.5
c0 -127.333 28 -241.333 84 -342s136 -181.334 240 -242.001v-229h-602v213h305c-96 86.667 -166.5 178 -211.5 274s-67.5 203.333 -67.5 322c0 209.333 63.5 378.666 190.5 507.999s292.833 194 497.5 194c202 0 367.333 -64.167 496 -192.5s193 -292.833 193 -493.5
c0 -126.667 -21.833 -237.667 -65.5 -333s-114.834 -188.333 -213.501 -279z" />
    <glyph glyph-name="pi" unicode="&#x3c0;" horiz-adv-x="1368" 
d="M360 889l-44.999 0.000976562c-36 0 -63.833 -10.5 -83.5 -31.5s-32.834 -54.167 -39.501 -99.5h-174c18.667 124.667 52 209.667 100 255s128.667 68 242 68h953l-39 -192h-193l-84 -437c-1.33301 -8.66699 -4 -22.334 -8 -41.001
c-14.667 -75.333 -22 -124.333 -22 -147c0 -38.667 7.66699 -66 23 -82s41 -24 77 -24c12 0 26.167 0.833008 42.5 2.5s36.166 4.16699 59.499 7.5l-34 -168c-19.333 -5.33301 -39.666 -9.33301 -60.999 -12s-46.333 -4 -75 -4c-92.667 0 -160.167 16 -202.5 48
s-63.5 83.333 -63.5 154c0 51.333 17.333 166 52 344l1 6l70 353h-268l-174 -889h-226z" />
    <glyph glyph-name="endash" unicode="&#x2013;" 
d="M0 545h1024v-146h-1024v146z" />
    <glyph glyph-name="emdash" unicode="&#x2014;" horiz-adv-x="2048" 
d="M0 399v146h2048v-146h-2048z" />
    <glyph glyph-name="quoteleft" unicode="&#x2018;" horiz-adv-x="618" 
d="M496 1452l-191 -545l-182 62l246 528z" />
    <glyph glyph-name="quoteright" unicode="&#x2019;" horiz-adv-x="618" 
d="M123 954l190 543l183 -59l-246 -531z" />
    <glyph glyph-name="quotesinglbase" unicode="&#x201a;" horiz-adv-x="618" 
d="M123 -299l190 545l183 -60l-246 -530z" />
    <glyph glyph-name="quotedblleft" unicode="&#x201c;" horiz-adv-x="905" 
d="M457 1452l-189 -545l-184 62l246 528zM821 1452l-190 -545l-182 62l245 528z" />
    <glyph glyph-name="quotedblright" unicode="&#x201d;" horiz-adv-x="905" 
d="M84 954l190 543l183 -59l-246 -531zM449 954l190 543l182 -59l-246 -531z" />
    <glyph glyph-name="quotedblbase" unicode="&#x201e;" horiz-adv-x="905" 
d="M84 -299l190 545l183 -60l-246 -530zM449 -299l190 545l182 -60l-246 -530z" />
    <glyph glyph-name="dagger" unicode="&#x2020;" horiz-adv-x="1090" 
d="M442 -446v1187h-358v183h358v540h205v-540h361v-183h-361v-1187h-205z" />
    <glyph glyph-name="daggerdbl" unicode="&#x2021;" horiz-adv-x="1090" 
d="M442 -446v491h-360v180h360v652h-360v180h360v407h205v-407h361v-180h-361v-652h361v-180h-361v-491h-205z" />
    <glyph glyph-name="bullet" unicode="&#x2022;" horiz-adv-x="1208" 
d="M307 762c0 82 28.999 151.666 86.999 208.999s128 86 210 86c81.333 0 150.833 -28.833 208.5 -86.5s86.5 -127.167 86.5 -208.5s-29.167 -151.166 -87.5 -209.499s-128.166 -87.5 -209.499 -87.5c-82 0 -151.667 29 -209 87s-86 128 -86 210z" />
    <glyph glyph-name="ellipsis" unicode="&#x2026;" horiz-adv-x="2048" 
d="M211 111c0 36.667 12.667 68 38 94s56.333 39 93 39s67.667 -13 93 -39s38 -57.333 38 -94c0 -36 -12.667 -66.5 -38 -91.5s-56.333 -37.5 -93 -37.5s-67.667 12.5 -93 37.5s-38 55.5 -38 91.5zM893 111c0 36.667 12.667 68 38 94s56.333 39 93 39s67.667 -13 93 -39
s38 -57.333 38 -94c0 -36 -12.667 -66.5 -38 -91.5s-56.333 -37.5 -93 -37.5s-67.667 12.5 -93 37.5s-38 55.5 -38 91.5zM1577 111c0 36.667 12.667 68 38 94s56.333 39 93 39s67.667 -13 93 -39s38 -57.333 38 -94c0 -36 -12.667 -66.5 -38 -91.5s-56.333 -37.5 -93 -37.5
s-67.667 12.5 -93 37.5s-38 55.5 -38 91.5z" />
    <glyph glyph-name="perthousand" unicode="&#x2030;" horiz-adv-x="2394" 
d="M2007 80c50 0 87.5 22.333 112.5 67s37.5 111.667 37.5 201c0 86 -12.667 151.833 -38 197.5s-61.333 68.5 -108 68.5c-49.333 0 -86.5 -22.5 -111.5 -67.5s-37.5 -111.833 -37.5 -200.5c0 -85.333 12.5 -151 37.5 -197s60.833 -69 107.5 -69zM1683 348
c0 121.333 29 215.832 87 283.499s138.333 101.5 241 101.5c103.333 0 183.5 -33.5 240.5 -100.5s85.5 -161.833 85.5 -284.5c0 -121.333 -29 -216.166 -87 -284.499s-138.333 -102.5 -241 -102.5s-182.667 34 -240 102s-86 163 -86 285zM913 347.999
c0 121.333 29 215.832 87 283.499s138.333 101.5 241 101.5c103.333 0 183.5 -33.5 240.5 -100.5s85.5 -161.833 85.5 -284.5c0 -121.333 -29 -216.166 -87 -284.499s-138.333 -102.5 -241 -102.5s-182.667 34 -240 102s-86 163 -86 285zM1237 79.998
c50 0 87.333 22.333 112 67s37 111.667 37 201c0 86 -12.5 151.833 -37.5 197.5s-60.833 68.5 -107.5 68.5c-49.333 0 -86.5 -22.5 -111.5 -67.5s-37.5 -111.833 -37.5 -200.5c0 -85.333 12.5 -151 37.5 -197s60.833 -69 107.5 -69zM383 824.998
c49.333 0 86.167 22.334 110.5 67.001s36.5 112 36.5 202c0 86.667 -12.333 153 -37 199s-60 69 -106 69c-49.333 0 -86.5 -22.833 -111.5 -68.5s-37.5 -112.834 -37.5 -201.501c0 -86 12.5 -152 37.5 -198s60.833 -69 107.5 -69zM57.001 1094c0 120.667 29 215 87 283
s138.333 102 241 102c103.333 0 183.5 -33.5 240.5 -100.5s85.5 -161.833 85.5 -284.5c0 -122 -28.667 -216.667 -86 -284s-137.333 -101 -240 -101c-103.333 0 -183.833 33.667 -241.5 101s-86.5 162 -86.5 284zM455.001 -39.001h-138l854 1518h138z" />
    <glyph glyph-name="guilsinglleft" unicode="&#x2039;" horiz-adv-x="627" 
d="M334 877l139 -84l-207 -324l207 -324l-139 -84l-254 408z" />
    <glyph glyph-name="guilsinglright" unicode="&#x203a;" horiz-adv-x="545" 
d="M219 61l-139 84l207 324l-207 324l139 84l254 -408z" />
    <glyph glyph-name="franc" unicode="&#x20a3;" horiz-adv-x="1829" 
d="M168 0v1464h817v-202h-579v-365h579v-209h-579v-688h-238zM1442 797c23.333 62.667 54.167 109.001 92.5 139.001s85.833 45 142.5 45c30.667 0 60.834 -3.66699 90.501 -11s58.834 -18 87.501 -32l-78 -184c-18.667 13.333 -38.834 23.166 -60.501 29.499
s-45.834 9.5 -72.501 9.5c-72 0 -123.667 -28.833 -155 -86.5s-47 -154.5 -47 -290.5v-416h-217v950h217v-153z" />
    <glyph glyph-name="trademark" unicode="&#x2122;" horiz-adv-x="1706" 
d="M809 1460h170l141 -360l133 360h170v-542h-114v428l-160 -428h-59l-166 428v-428h-115v542zM225 1460h467v-94h-168v-448h-129v448h-170v94z" />
    <glyph glyph-name="partialdiff" unicode="&#x2202;" horiz-adv-x="1075" 
d="M758 639c11.333 68.667 20.0029 130.832 26.0029 186.499s9 104.834 9 147.501c0 80 -9.66699 138.167 -29 174.5s-50 54.5 -92 54.5c-41.333 0 -90.333 -19.5 -147 -58.5s-97.334 -58.5 -122.001 -58.5s-46.167 8.66699 -64.5 26s-27.5 37.333 -27.5 60
c0 44 26.333 82.333 79 115s119.334 49 200.001 49c117.333 0 213.166 -53 287.499 -159s111.5 -246.667 111.5 -422c0 -225.333 -50 -411.5 -150 -558.5s-225.333 -220.5 -376 -220.5c-107.333 0 -196 37.333 -266 112s-105 170 -105 286
c0 128.667 37.667 236.167 113 322.5s168 129.5 278 129.5c67.333 0 123.166 -15 167.499 -45s80.166 -77 107.499 -141zM705.003 503.998c0 77.333 -13.667 136.833 -41 178.5s-66.333 62.5 -117 62.5c-70 0 -128.167 -43.833 -174.5 -131.5s-69.5 -200.167 -69.5 -337.5
c0 -77.333 13.5 -136.5 40.5 -177.5s66.167 -61.5 117.5 -61.5c70 0 128.167 44.167 174.5 132.5s69.5 199.833 69.5 334.5z" />
    <glyph glyph-name="Delta" unicode="&#x2206;" horiz-adv-x="1395" 
d="M698 1196l-379 -983h756zM569 1473h256l574 -1473h-1403z" />
    <glyph glyph-name="product" unicode="&#x220f;" horiz-adv-x="1579" 
d="M154 1473h1267v-1866h-286v1622h-695v-1622h-286v1866z" />
    <glyph glyph-name="summation" unicode="&#x2211;" horiz-adv-x="1421" 
d="M61 1473h1280v-226h-921l647 -684l-661 -729h974v-227h-1347v160l712 786l-684 719v201z" />
    <glyph glyph-name="minus" unicode="&#x2212;" horiz-adv-x="1706" 
d="M254 696h1198v-170h-1198v170z" />
    <glyph glyph-name="fraction" unicode="&#x2215;" horiz-adv-x="342" 
d="M-342 -39l887 1518h137l-887 -1518h-137z" />
    <glyph glyph-name="periodcentered" unicode="&#x2219;" horiz-adv-x="618" 
d="M178 721c0 36.667 12.667 67.667 38 93s56.333 38 93 38c37.333 0 68.5 -12.667 93.5 -38s37.5 -56.333 37.5 -93c0 -36 -12.667 -66.833 -38 -92.5s-56.333 -38.5 -93 -38.5c-36 0 -66.833 12.833 -92.5 38.5s-38.5 56.5 -38.5 92.5z" />
    <glyph glyph-name="radical" unicode="&#x221a;" horiz-adv-x="1323" 
d="M1128 1675h197v-110h-108l-594 -1606h-82l-316 872l-131 -49l-28 95l305 108l247 -688z" />
    <glyph glyph-name="infinity" unicode="&#x221e;" horiz-adv-x="1706" 
d="M928 559c30 -54 66.5 -94.832 109.5 -122.499s91.833 -41.5 146.5 -41.5c64.667 0 117.667 20.5 159 61.5s62 93.5 62 157.5c0 63.333 -19 116.166 -57 158.499s-85.333 63.5 -142 63.5c-52 0 -99.333 -21.167 -142 -63.5s-88 -113.5 -136 -213.5zM780 662.001
c-30.667 54 -67.668 95.001 -111.001 123.001s-91.666 42 -144.999 42c-65.333 0 -118.5 -20.667 -159.5 -62s-61.5 -94.333 -61.5 -159c0 -62.667 18.833 -114.834 56.5 -156.501s84.5 -62.5 140.5 -62.5c53.333 0 101.5 20.833 144.5 62.5s88.167 112.5 135.5 212.5z
M861.999 471.002c-47.333 -90 -96.832 -155.83 -148.499 -197.497s-109.167 -62.5 -172.5 -62.5c-91.333 0 -168.833 38.167 -232.5 114.5s-95.5 171.166 -95.5 284.499c0 119.333 28.333 215.833 85 289.5s130 110.5 220 110.5c62 0 118.167 -20 168.5 -60
s102.833 -106.667 157.5 -200c47.333 92.667 97.166 159.5 149.499 200.5s113.833 61.5 184.5 61.5c84.667 0 158.667 -38.667 222 -116s95 -172 95 -284c0 -118.667 -28.167 -214.834 -84.5 -288.501s-129.833 -110.5 -220.5 -110.5c-61.333 0 -116.833 19.167 -166.5 57.5
s-103.5 105.166 -161.5 200.499z" />
    <glyph glyph-name="integral" unicode="&#x222b;" horiz-adv-x="1120" 
d="M324 -258c70.667 0 111.332 230.669 121.999 692.002l3 123c8.66699 358.667 46.334 614.167 113.001 766.5s170.667 228.5 312 228.5c58 0 105.667 -15.167 143 -45.5s56 -67.5 56 -111.5c0 -40.667 -11.333 -72.334 -34 -95.001s-54.334 -34 -95.001 -34
c-30 0 -54.833 7.5 -74.5 22.5s-33.167 36.833 -40.5 65.5c-2.66699 11.333 -4.66699 26.333 -6 45c-2 26.667 -10.667 40.334 -26 41.001c-67.333 0 -107 -205 -119 -615c-3.33301 -107.333 -6 -190.333 -8 -249c-6.66699 -186.667 -16.834 -329 -30.501 -427
s-33.5 -179.667 -59.5 -245c-36.667 -90.667 -83.167 -159.167 -139.5 -205.5s-121.166 -69.5 -194.499 -69.5c-58 0 -105.333 14.667 -142 44s-55 66.666 -55 111.999c0 42 11.833 74.333 35.5 97s56.834 34 99.501 34c26 0 48 -6 66 -18s31.667 -30 41 -54
c4 -10.667 7 -30.334 9 -59.001s10 -43 24 -43z" />
    <glyph glyph-name="approxequal" unicode="&#x2248;" horiz-adv-x="1706" 
d="M1530 592l0.00195312 -185.999c-71.333 -48.667 -138 -84.167 -200 -106.5s-125 -33.5 -189 -33.5c-59.333 0 -152.5 22.167 -279.5 66.5s-226.5 66.5 -298.5 66.5c-56 0 -113.833 -12 -173.5 -36s-130.167 -64.333 -211.5 -121v184c74.667 50 143.5 86.667 206.5 110
s123.167 35 180.5 35c78.667 0 181.667 -22.5 309 -67.5s219.666 -67.5 276.999 -67.5c55.333 0 112.666 12.167 171.999 36.5s128.333 64.166 207 119.499zM1530 979.001l0.00390625 -184c-72.667 -50 -139.834 -86.167 -201.501 -108.5s-124.167 -33.5 -187.5 -33.5
c-58.667 0 -151.5 22.5 -278.5 67.5s-226.833 67.5 -299.5 67.5c-54.667 0 -111.334 -11.667 -170.001 -35s-130.334 -64 -215.001 -122v184c72.667 48.667 141 85.167 205 109.5s124.667 36.5 182 36.5c80 0 183.333 -22.667 310 -68s216 -68 268 -68
c61.333 0 121.666 11.667 180.999 35s128 63 206 119z" />
    <glyph glyph-name="notequal" unicode="&#x2260;" horiz-adv-x="1706" 
d="M1204 1212l123 -100l-170 -215h295v-162h-403l-197 -250h600v-161h-707l-249 -314l-123 99l170 215h-289v161h393l199 250h-592v162h700z" />
    <glyph glyph-name="lessequal" unicode="&#x2264;" horiz-adv-x="1706" 
d="M260 178h1186v-166h-1186v166zM1446 1223v-176l-889 -287l889 -287v-176l-1186 389v145z" />
    <glyph glyph-name="greaterequal" unicode="&#x2265;" horiz-adv-x="1706" 
d="M260 178h1188v-166h-1188v166zM260 1223l1186 -392v-145l-1186 -389v176l891 287l-891 287v176z" />
    <glyph glyph-name="lozenge" unicode="&#x25ca;" horiz-adv-x="1012" 
d="M506 1409l-385 -817l385 -825l385 825zM506 1653l500 -1061l-500 -1069l-500 1069z" />
    <glyph glyph-name="apple" unicode="&#xf000;" horiz-adv-x="1618" 
d="M836 1216c-0.666992 4 -1.16699 8.66895 -1.5 14.002s-0.5 13 -0.5 23c0 82.667 31.667 159.167 95 229.5s142 114.166 236 131.499c0.666992 -6.66699 1.16699 -14.334 1.5 -23.001s0.5 -21.667 0.5 -39c0 -87.333 -34.5 -165.5 -103.5 -234.5
s-136.833 -103.5 -203.5 -103.5h-8c-2 0 -4.5 0.333008 -7.5 1s-5.83301 1 -8.5 1zM1505 403.002c-76 -164.667 -144.336 -278.834 -205.003 -342.501s-128.667 -95.5 -204 -95.5c-33.333 0 -77.166 11 -131.499 33s-95.166 33 -122.499 33c-30 0 -73.667 -11 -131 -33
s-99.666 -33 -126.999 -33c-42.667 0 -85.5 14.667 -128.5 44s-86.167 73.333 -129.5 132c-68 93.333 -120.5 191.833 -157.5 295.5s-55.5 203.834 -55.5 300.501c0 146 41.667 264.833 125 356.5s191 137.5 323 137.5c45.333 0 97 -11.333 155 -34s99.333 -34 124 -34
c22.667 0 63.167 11.667 121.5 35s109.166 35 152.499 35c73.333 0 139.333 -13.333 198 -40s112.334 -68 161.001 -124c-68 -43.333 -118.5 -91.833 -151.5 -145.5s-49.5 -114.5 -49.5 -182.5c0 -75.333 20 -142 60 -200s97.667 -104 173 -138z" />
    <glyph glyph-name="fi" unicode="&#xf001;" horiz-adv-x="1151" 
d="M748 1358c0 36.667 13.333 68.334 40 95.001s59 40 97 40s70 -12.833 96 -38.5s39 -57.834 39 -96.501s-13 -71.167 -39 -97.5s-58 -39.5 -96 -39.5s-70.333 13.5 -97 40.5s-40 59.167 -40 96.5zM774 0v948h219v-948h-219zM180 0v757.999h-166v190h166v254
c0 126 26.167 219 78.5 279s133.5 90 243.5 90c23.333 0 47.333 -1.66699 72 -5s49.667 -8.66602 75 -15.999v-196c-17.333 10 -34.833 17.5 -52.5 22.5s-35.5 7.5 -53.5 7.5c-52 0 -89.333 -16 -112 -48s-34 -86 -34 -162v-226h228v-190h-228v-758h-217z" />
    <glyph glyph-name="fl" unicode="&#xf002;" horiz-adv-x="1151" 
d="M774 0v1550h219v-1550h-219zM180 0v757.999h-166v190h166v254c0 126 26.167 219 78.5 279s133.5 90 243.5 90c23.333 0 47.333 -1.66699 72 -5s49.667 -8.66602 75 -15.999v-196c-17.333 10 -34.833 17.5 -52.5 22.5s-35.5 7.5 -53.5 7.5c-52 0 -89.333 -16 -112 -48
s-34 -86 -34 -162v-226h228v-190h-228v-758h-217z" />
    <glyph glyph-name=".null" horiz-adv-x="0" 
 />
    <glyph glyph-name="nonmarkingreturn" horiz-adv-x="618" 
 />
    </font>
</defs>
</svg>
