<?xml version="1.0" encoding="utf-8"?>
<!-- Generator: Adobe Illustrator 16.0.0, SVG Export Plug-In . SVG Version: 6.00 Build 0)  -->
<!DOCTYPE svg PUBLIC "-//W3C//DTD SVG 1.1//EN" "http://www.w3.org/Graphics/SVG/1.1/DTD/svg11.dtd">
<svg version="1.1" id="vivala-icon-empresa"
	 xmlns="http://www.w3.org/2000/svg" xmlns:xlink="http://www.w3.org/1999/xlink" x="0px" y="0px" width="112.616px"
	 height="93.061px" viewBox="0 0 112.616 93.061" enable-background="new 0 0 112.616 93.061" xml:space="preserve">
<path fill="#F3712C" d="M87.418,43.684V17.152H72.13V6.496C72.13,2.516,68.644,0,64.429,0H48.252c-4.218,0-7.759,2.519-7.759,6.496
	v10.656H25.335v26.547c1.564,0.205,2.709,1.025,2.709,3.352v9.691c0,2.324-1.145,3.146-2.709,3.35v32.97h62.083V60.107
	c-1.62-0.181-2.825-0.984-2.825-3.363V47.05C84.593,44.669,85.798,43.865,87.418,43.684 M66.363,17.152H46.066V6.16h20.297V17.152z"
	/>
<path fill="#F3712C" d="M17.028,47.05v9.69c0,2.276,1.103,3.106,2.612,3.339v32.848h-8.329C5.572,92.927,0,88.683,0,81.3V28.571
	c0-6.573,5.438-11.55,11.312-11.55h8.329V43.71C18.13,43.943,17.028,44.775,17.028,47.05"/>
<path fill="#F3712C" d="M112.616,28.57V81.3c0,7.38-5.567,11.627-11.312,11.627h-8.33V60.085c1.527-0.225,2.636-1.059,2.636-3.344
	v-9.692c0-2.287-1.108-3.117-2.636-3.345V17.021h8.33C107.179,17.021,112.616,22,112.616,28.57"/>
<path fill="#F3712C" d="M23.979,44.736h-0.892v4.719h-1.102v-4.719h-0.888c-1.642,0-2.969,0.533-2.969,2.957v8.398
	c0,2.428,1.329,2.964,2.969,2.964h2.881c1.638,0,2.964-0.536,2.964-2.964v-8.398C26.943,45.269,25.617,44.736,23.979,44.736
	 M25.841,55.447c0,2.057-0.999,2.508-2.225,2.508h-2.16c-1.228,0-2.223-0.451-2.223-2.508v-7.109c0-1.879,0.836-2.413,1.926-2.49
	v4.71h2.752v-4.71c1.092,0.078,1.93,0.611,1.93,2.49V55.447z"/>
<path fill="#F3712C" d="M91.544,44.736h-0.893v4.719h-1.104v-4.719h-0.886c-1.642,0-2.968,0.533-2.968,2.957v8.398
	c0,2.428,1.327,2.964,2.968,2.964h2.882c1.633,0,2.963-0.536,2.963-2.964v-8.398C94.507,45.269,93.177,44.736,91.544,44.736
	 M93.404,55.447c0,2.057-0.994,2.508-2.227,2.508h-2.156c-1.229,0-2.227-0.451-2.227-2.508v-7.109c0-1.879,0.838-2.418,1.93-2.49
	v4.71h2.754v-4.71c1.09,0.074,1.926,0.611,1.926,2.49V55.447z"/>
</svg>
