<?xml version="1.0" encoding="utf-8"?>
<!-- Generator: Adobe Illustrator 16.0.0, SVG Export Plug-In . SVG Version: 6.00 Build 0)  -->
<!DOCTYPE svg PUBLIC "-//W3C//DTD SVG 1.1//EN" "http://www.w3.org/Graphics/SVG/1.1/DTD/svg11.dtd">
<svg version="1.1" id="vivala-icon-cultura" xmlns="http://www.w3.org/2000/svg" xmlns:xlink="http://www.w3.org/1999/xlink"
	 x="0px" y="0px" width="139.847px" height="88.315px" viewBox="0 0 139.847 88.315" enable-background="new 0 0 139.847 88.315"
	 xml:space="preserve">
<path fill="#F3712C" d="M71.416,14.088c0.084,0.877-0.332,1.764-1.434,2.05c-4.662,1.216-9.828,2.77-13.785,5.591
	c-11.086,7.897,2.736,26.642,9.363,32.711c0.807,0.74,0.797,2.142,0,2.881c-1.734,1.642-3.57,3.106-5.445,4.587
	c-2.057,1.59-4.953-1.259-2.893-2.869c1.348-1.047,2.643-2.121,3.912-3.219c-7.492-7.552-17.172-22.188-11.877-32.474
	c3.434-6.648,12.922-9.375,19.652-11.123c0.924-0.244,1.643,0.121,2.086,0.713C69.291,8.555,67.347,4.26,65.013,0
	c-5.781,9.988-23.68,13.876-33.334,15.325C21.178,16.905,10.545,16.207,0,15.631c4.894,35.01,25.944,76.678,66.767,72.376
	c20.176-4.453,13.92-36.215,11.096-50.461C76.222,29.285,74.205,21.548,71.416,14.088 M60.798,32.391
	c-0.645,0.92-1.008,1.644-1.178,2.764c-0.4,2.578-4.307,1.474-3.916-1.088c0.273-1.813,1.313-3.825,2.695-5.036
	c3.141-2.763,7.184-2.484,10.916-1.111c2.422,0.912,1.383,4.842-1.084,3.928C66.039,31.035,62.478,30.007,60.798,32.391
	 M15.121,33.099c6.027-6.107,15.063-7.979,23.224-6.166c2.561,0.581,1.475,4.497-1.075,3.915c-6.759-1.5-14.289,0.073-19.277,5.125
	C16.147,37.849,13.275,34.958,15.121,33.099 M38.583,39.919c-4.238-1.029-9.152,0.086-10.324,4.265
	c-0.713,2.506-4.64,1.442-3.922-1.088c1.899-6.796,9.162-8.601,15.322-7.101C42.208,36.619,41.13,40.542,38.583,39.919
	 M67.103,75.438c-9.002,5.724-22.057,3.692-27.57-3.11c-0.088-0.117,0.479-1.175,0.557-1.19c9.715-1.431,26.18-5.521,34.242-10.9
	c0.436-0.276,1.025,0.097,1.025,0.581C75.255,67.033,72.398,72.078,67.103,75.438"/>
<path fill="#F3712C" d="M139.442,9.46l-8.961,2.525C89.689,23.483,79.289,6.907,76.837,8.282c-0.367,0.195-0.826,2.002-1.289,4.945
	c1.998,5.3,3.613,10.752,4.928,16.284c6.559-1.459,16.26-7.577,17.783,2.943c0.728,5.094,0.621,10.451-0.83,15.45
	c-0.826,2.869-1.781,5.845-3.387,8.406c-0.59,0.914,1.951,2.112,2.557,2.721c1.826,1.876-1.061,4.757-2.889,2.875
	c-1.365-1.396-5.088-2.146-4.434-4.914c1.305-5.421,4.777-9.754,5.221-15.683c0.266-3.518,0.396-14.657-6.217-10.377
	c-2.281,1.48-4.439,2.293-6.877,2.673c0.186,0.86,0.371,1.713,0.527,2.59c0.264,0.058,0.527,0.181,0.781,0.375
	c2.408,1.854,4.494,2.203,6.857,0.101c1.945-1.75,4.832,1.121,2.877,2.873c-1.715,1.533-4,3.065-6.438,2.754
	c-1.172-0.147-2.188-0.481-3.15-0.935c0.523,3.275,0.963,6.595,1.309,9.923c0.363,3.348,0.617,7.111,0.611,10.979
	c3.795-0.201,7.766,1.19,11.404,2.188c2.369,0.633,5.315,1.336,7.073,3.213c1.758,1.879,6.213,6.465,2.574,8.685
	c-0.459,0.284-0.92,0.35-1.324,0.264c-3.85,0.101-6.501-1.754-9.685-3.766c-2.506-1.597-5.275-2.812-8.295-2.986
	c-0.611-0.03-1.449,0.084-2.227,0.127c-0.479,3.752-1.344,7.388-2.799,10.599c3.18,5.115,7.541,8.117,13.486,7.545
	C147.178,83.179,139.442,9.46,139.442,9.46 M119.907,45.458c-4.117,1.315-15.01-1.121-14.154-7.033
	c0.371-2.59,4.277-1.49,3.926,1.078c0.104-0.826,0.074-0.287,0.68,0.084c0.303,0.211,0.615,0.392,0.941,0.565
	c0.508,0.261,1.012,0.522,1.564,0.709c1.898,0.623,4,1.32,5.967,0.681C121.336,40.735,122.397,44.669,119.907,45.458
	 M124.395,38.235c-7.244-1.416-14.086-2.356-20.07-6.979c-2.08-1.601,0.826-4.465,2.873-2.875c5.285,4.09,11.932,4.687,18.271,5.922
	C128.047,34.811,126.95,38.72,124.395,38.235"/>
</svg>
