<?xml version="1.0" encoding="utf-8"?>
<!-- Generator: Adobe Illustrator 16.0.0, SVG Export Plug-In . SVG Version: 6.00 Build 0)  -->
<!DOCTYPE svg PUBLIC "-//W3C//DTD SVG 1.1//EN" "http://www.w3.org/Graphics/SVG/1.1/DTD/svg11.dtd">
<svg version="1.1" id="vivala-icon-mensagem-enviada"
	 xmlns="http://www.w3.org/2000/svg" xmlns:xlink="http://www.w3.org/1999/xlink" x="0px" y="0px" width="57.814px"
	 height="52.973px" viewBox="0 0 57.814 52.973" enable-background="new 0 0 57.814 52.973" xml:space="preserve">
<g id="icon-mensagem-enviada">
	<polygon fill="none" points="13.757,27.406 24.97,31.143 49.264,6.849 	"/>
	<polygon fill="none" points="48.462,40.45 54.502,6.233 34.372,34.413 	"/>
	<polygon fill="none" points="33.408,36.628 32.333,42.005 35.646,37.587 	"/>
	<path fill="none" d="M31.568,34.195l15.604-21.847l-20.5,20.5l3.146,9.444l1.521-7.601c0.001-0.008,0.005-0.014,0.007-0.021
		c0-0.002,0.002-0.004,0.002-0.007C31.386,34.491,31.461,34.331,31.568,34.195z"/>
	<path fill="#F3712C" d="M57.445,0.354c0.069,0.068,0.13,0.141,0.179,0.221C57.573,0.494,57.514,0.422,57.445,0.354z"/>
	<path fill="#F3712C" d="M31.54,34.233l0.027-0.038c-0.106,0.137-0.182,0.297-0.221,0.469C31.382,34.513,31.445,34.365,31.54,34.233
		z"/>
	<path fill="#F3712C" d="M57.691,0.688c0.05,0.104,0.085,0.214,0.104,0.328C57.776,0.902,57.74,0.792,57.691,0.688z"/>
	<path fill="#F3712C" d="M29.35,47.897c-0.096-0.079-0.177-0.171-0.241-0.271C29.176,47.73,29.257,47.82,29.35,47.897z"/>
	<path fill="#F3712C" d="M56.225,0.077c0.076-0.026,0.154-0.043,0.233-0.053C56.379,0.034,56.302,0.052,56.225,0.077z"/>
	<path fill="#F3712C" d="M56.618,0.009c0.107,0.001,0.214,0.016,0.318,0.046C56.832,0.025,56.727,0.009,56.618,0.009z"/>
	<path fill="#F3712C" d="M57.301,0.22c-0.084-0.06-0.176-0.102-0.271-0.137c0.111,0.042,0.217,0.103,0.315,0.179
		C57.329,0.249,57.319,0.232,57.301,0.22z"/>
	<path fill="#F3712C" d="M30.939,47.844c-0.018,0.018-0.032,0.038-0.052,0.054C30.906,47.882,30.921,47.862,30.939,47.844z"/>
	<path fill="#F3712C" d="M29.401,47.947c0.202,0.148,0.449,0.235,0.711,0.235c0.024,0,0.052-0.003,0.072,0.002
		c0.033-0.002,0.063-0.018,0.095-0.021c-0.056,0.008-0.111,0.019-0.167,0.019C29.865,48.181,29.615,48.104,29.401,47.947z"/>
	<path fill="#F3712C" d="M30.612,48.07c-0.041,0.019-0.084,0.03-0.127,0.045C30.528,48.1,30.571,48.088,30.612,48.07z"/>
	<path fill="#F3712C" d="M57.806,1.063c0.034,0.289-0.034,0.589-0.214,0.843l-3.09,4.326l-6.04,34.218l-14.09-6.037l-0.871,1.22
		c-0.233,0.327-0.607,0.503-0.98,0.503c-0.243,0-0.486-0.072-0.701-0.224c-0.406-0.289-0.576-0.785-0.475-1.242
		c-0.002,0.008-0.006,0.014-0.007,0.021l-1.521,7.601l-3.146-9.444l-0.528,0.527c-0.47,0.47-1.232,0.47-1.703,0
		c-0.47-0.47-0.47-1.233,0-1.703l0.529-0.529l-11.213-3.737L49.264,6.849l6.496-6.496c0.096-0.096,0.208-0.164,0.323-0.221
		c-0.025,0.012-0.053,0.017-0.077,0.03l-45.771,26.5c-0.409,0.235-0.643,0.69-0.593,1.164c0.048,0.469,0.366,0.87,0.817,1.02
		l13.881,4.627l4.628,13.884c0.017,0.05,0.049,0.09,0.071,0.137c-0.188-0.393-0.171-0.867,0.106-1.239l3.188-4.25l1.075-5.377
		l2.237,0.959l0.728-0.97c0.401-0.534,1.155-0.639,1.688-0.239c0.532,0.397,0.641,1.153,0.243,1.686l-0.376,0.501l10.98,4.705
		c0.342,0.144,0.727,0.127,1.048-0.049c0.325-0.175,0.551-0.49,0.613-0.851l7.228-40.953C57.819,1.298,57.82,1.179,57.806,1.063z"/>
	<path fill="#F3712C" d="M56.937,0.054c0.031,0.009,0.063,0.017,0.094,0.028C56.999,0.071,56.969,0.064,56.937,0.054z"/>
	<path fill="#F3712C" d="M57.391,0.287c-0.014-0.012-0.031-0.015-0.045-0.025c0.036,0.028,0.066,0.061,0.099,0.092
		C57.424,0.334,57.413,0.306,57.391,0.287z"/>
	<path fill="#F3712C" d="M56.458,0.024c0.054-0.007,0.106-0.016,0.16-0.016C56.564,0.008,56.512,0.017,56.458,0.024z"/>
	<path fill="#F3712C" d="M56.083,0.133c0.046-0.022,0.094-0.04,0.142-0.056C56.176,0.094,56.13,0.11,56.083,0.133z"/>
	<path fill="#F3712C" d="M31.345,34.67c0-0.002,0.002-0.004,0.002-0.007C31.347,34.666,31.345,34.668,31.345,34.67z"/>
	<path fill="#F3712C" d="M57.794,1.016c0.002,0.016,0.01,0.031,0.012,0.047C57.804,1.047,57.796,1.032,57.794,1.016z"/>
	<path fill="#F3712C" d="M49.264,6.849L24.97,31.143l0.705,0.235c0.359,0.119,0.643,0.402,0.761,0.762l0.236,0.708l20.5-20.5
		L31.568,34.195c0.104-0.135,0.237-0.249,0.393-0.33c0.319-0.172,0.701-0.187,1.036-0.041l1.376,0.59l20.13-28.181l0.475-2.69
		L49.264,6.849z"/>
	<path fill="#F3712C" d="M57.623,0.575c0.023,0.038,0.048,0.074,0.067,0.113C57.671,0.648,57.648,0.613,57.623,0.575z"/>
	<path fill="#F3712C" d="M31.96,33.865c-0.155,0.081-0.288,0.195-0.393,0.33l-0.027,0.038c-0.096,0.133-0.158,0.28-0.193,0.431
		c0,0.003-0.002,0.005-0.002,0.007c-0.102,0.457,0.068,0.953,0.475,1.242c0.215,0.151,0.458,0.224,0.701,0.224
		c0.373,0,0.747-0.176,0.98-0.503l0.871-1.22l-1.376-0.59C32.661,33.678,32.28,33.693,31.96,33.865z"/>
	<path fill="#F3712C" d="M25.675,31.378l-0.705-0.235l-0.529,0.529c-0.47,0.47-0.47,1.233,0,1.703c0.471,0.47,1.233,0.47,1.703,0
		l0.528-0.527l-0.236-0.708C26.318,31.781,26.034,31.497,25.675,31.378z"/>
	<path fill="#F3712C" d="M49.264,6.849l5.713-3.307l-0.475,2.69l3.09-4.326c0.18-0.254,0.248-0.555,0.214-0.843
		c-0.002-0.016-0.01-0.031-0.012-0.047c-0.019-0.114-0.054-0.224-0.104-0.328c-0.02-0.04-0.044-0.076-0.067-0.113
		c-0.049-0.08-0.109-0.153-0.179-0.221c-0.032-0.032-0.063-0.064-0.099-0.092c-0.099-0.077-0.204-0.137-0.315-0.179
		c-0.031-0.012-0.063-0.02-0.094-0.028c-0.104-0.03-0.211-0.045-0.318-0.046c-0.054,0-0.106,0.009-0.16,0.016
		c-0.079,0.01-0.157,0.027-0.233,0.053c-0.048,0.016-0.096,0.034-0.142,0.056c-0.115,0.057-0.228,0.125-0.323,0.221L49.264,6.849z"
		/>
	<path fill="#F3712C" d="M29.389,47.941c0.003,0.003,0.008,0.003,0.012,0.006c-0.019-0.014-0.033-0.034-0.051-0.05
		C29.365,47.909,29.373,47.928,29.389,47.941z"/>
	<path fill="#F3712C" d="M30.485,48.115c-0.066,0.021-0.136,0.037-0.206,0.048C30.349,48.153,30.417,48.136,30.485,48.115z"/>
	<path fill="#F3712C" d="M30.887,47.898c-0.082,0.07-0.176,0.126-0.275,0.172C30.71,48.025,30.803,47.969,30.887,47.898z"/>
	<path fill="#F3712C" d="M32.333,42.005l-1.043,5.213c-0.049,0.248-0.179,0.46-0.352,0.626c0.048-0.045,0.098-0.089,0.139-0.144
		l6.851-9.136l-2.282-0.978L32.333,42.005z"/>
	<path fill="#F3712C" d="M29.109,47.626c-0.027-0.042-0.047-0.087-0.069-0.132C29.061,47.539,29.081,47.583,29.109,47.626z"/>
	<path fill="#F3712C" d="M38.061,36.378c-0.532-0.399-1.286-0.295-1.688,0.239l-0.728,0.97l2.282,0.978l0.376-0.501
		C38.701,37.531,38.593,36.776,38.061,36.378z"/>
	<path fill="#F3712C" d="M32.333,42.005l-3.188,4.25c-0.278,0.372-0.294,0.847-0.106,1.239c0.022,0.045,0.042,0.09,0.069,0.132
		c0.064,0.1,0.146,0.191,0.241,0.271c0.018,0.016,0.032,0.036,0.051,0.05c0.215,0.157,0.464,0.234,0.711,0.234
		c0.056,0,0.111-0.011,0.167-0.019c0.07-0.011,0.14-0.026,0.206-0.048c0.043-0.015,0.086-0.026,0.127-0.045
		c0.1-0.046,0.193-0.102,0.275-0.172c0.02-0.016,0.034-0.036,0.052-0.054c0.173-0.166,0.303-0.378,0.352-0.626L32.333,42.005z"/>
	<path fill="#F3712C" d="M2.055,41.306c-0.469-0.467-1.233-0.47-1.703,0.003c-0.47,0.47-0.47,1.233,0,1.703
		c0.583,0.583,1.173,1.151,1.773,1.703c0.233,0.213,0.524,0.317,0.816,0.317c0.323,0,0.648-0.134,0.888-0.388
		c0.449-0.491,0.419-1.253-0.07-1.702C3.183,42.411,2.614,41.865,2.055,41.306z"/>
	<path fill="#F3712C" d="M11.277,48.395c-1.032-0.534-2.095-1.179-3.154-1.919c-0.54-0.378-1.294-0.248-1.676,0.301
		c-0.38,0.546-0.247,1.298,0.302,1.678c1.146,0.795,2.296,1.496,3.419,2.078c0.178,0.092,0.366,0.135,0.554,0.135
		c0.437,0,0.855-0.235,1.07-0.647C12.099,49.43,11.868,48.702,11.277,48.395z"/>
	<path fill="#F3712C" d="M19.908,50.552l-0.542,0.01h-0.015c-0.975,0-1.977-0.104-2.979-0.309c-0.646-0.125-1.289,0.287-1.424,0.938
		c-0.131,0.654,0.286,1.289,0.938,1.423c1.162,0.237,2.328,0.358,3.465,0.358v0.001h0.016l0.629-0.014
		c0.663-0.023,1.186-0.586,1.161-1.25C21.134,51.048,20.691,50.509,19.908,50.552z"/>
	<path fill="#F3712C" d="M27.09,48.348c-0.672,0.397-1.349,0.735-2.016,1.021c-0.612,0.264-0.896,0.973-0.637,1.584
		c0.195,0.455,0.642,0.729,1.108,0.729c0.16,0,0.321-0.029,0.475-0.094c0.778-0.332,1.549-0.727,2.293-1.164
		c0.576-0.339,0.767-1.076,0.427-1.65C28.398,48.198,27.661,48.011,27.09,48.348z"/>
</g>
</svg>
