<?xml version="1.0" encoding="utf-8"?>
<!-- Generator: Adobe Illustrator 16.0.0, SVG Export Plug-In . SVG Version: 6.00 Build 0)  -->
<!DOCTYPE svg PUBLIC "-//W3C//DTD SVG 1.1//EN" "http://www.w3.org/Graphics/SVG/1.1/DTD/svg11.dtd">
<svg version="1.1" id="vivala-icon-festa" xmlns="http://www.w3.org/2000/svg" xmlns:xlink="http://www.w3.org/1999/xlink" x="0px"
	 y="0px" width="107.548px" height="106.652px" viewBox="0 0 107.548 106.652" enable-background="new 0 0 107.548 106.652"
	 xml:space="preserve">
<path fill="#F3712C" d="M104.141,41.719l0.003,0.003l-1.776,0.901l-0.01,0.005l-11.517,5.834l0.998,18.894
	c0.026,0.512-0.006,1.021-0.094,1.525l-2.272,12.803l11.672,18.73l-7.251,4.662L81.079,84.512l0.047-0.043l-0.092-0.018
	l1.965-10.875l-1.771,0.105l-4.99,12.615l-2.532,20.355l-7.767-0.967l2.651-21.291l-0.012-0.004l5.735-14.502l-1.169-19.66
	l-11.313-5.195l-8.17,6.869l-0.007-0.008c-0.655,0.593-1.573,0.905-2.567,0.697c-1.162-0.246-2.088-1.232-2.262-2.408
	c-0.166-1.113,0.307-2.113,1.094-2.729l-0.004-0.008l11.015-9.235l13.793,6.336l12.483-0.769l12.562-6.363L94.74,27.294h0.003
	c-0.365-0.697-0.49-1.536-0.115-2.454c0.338-0.829,1.063-1.486,1.933-1.707c1.476-0.372,2.815,0.383,3.382,1.574l0.012-0.006
	l7.594,15.283L104.141,41.719z M35.225,80.09l13.567,21.814l-7.252,4.661L28.753,85.998l-3.297-11.926L11.827,87.991l-1.758,18.661
	l-7.791-0.731l2.016-21.4l0.008,0.001l-0.014-0.014l12.84-13.115v-24.33L0.588,23.418l0.009-0.006
	c-0.534-0.706-0.763-1.645-0.467-2.617c0.346-1.137,1.411-1.97,2.596-2.041c1.125-0.067,2.08,0.491,2.625,1.332l0.006-0.006
	l17.119,24.502h5.428l0.024,0.027c1.936,0.178,3.599,1.279,4.556,2.858l0.004-0.003l12.589,16.694l-0.005,0.003L46.46,76.68
	l-0.013,0.001c0.168,1.306-0.547,2.663-1.981,3.151c-0.848,0.287-1.812,0.129-2.547-0.381c-0.818-0.568-1.172-1.346-1.242-2.133
	h-0.002L39.46,66.381l-6.097-8.088v14.425c0,0.478,0.065,0.954,0.193,1.415L35.225,80.09z M40.376,18.107
	c0,6.135,4.989,11.123,11.123,11.123c6.133,0,11.123-4.99,11.123-11.123c0-5.789-4.451-10.557-10.111-11.07V1.016
	C52.511,0.455,52.059,0,51.497,0c-0.561,0-1.016,0.455-1.016,1.016v6.021C44.824,7.551,40.376,12.318,40.376,18.107 M43.329,14.143
	h2.391c-0.191,0.928-0.32,1.916-0.368,2.951h-2.886C42.583,16.045,42.884,15.054,43.329,14.143 M43.329,22.074
	c-0.445-0.91-0.746-1.899-0.863-2.951h2.886c0.049,1.037,0.177,2.022,0.368,2.951H43.329z M44.681,24.104h1.595
	c0.255,0.73,0.554,1.402,0.896,2C46.225,25.588,45.386,24.906,44.681,24.104 M50.483,26.875c-0.755-0.468-1.482-1.428-2.045-2.771
	h2.045V26.875z M52.514,26.875v-2.771h2.045C53.995,25.447,53.27,26.407,52.514,26.875 M55.204,22.074h-2.69v-2.951h3.104
	C55.561,20.19,55.413,21.178,55.204,22.074 M59.669,22.074h-2.392c0.19-0.929,0.317-1.914,0.369-2.951h2.885
	C60.413,20.175,60.112,21.164,59.669,22.074 M59.669,14.143c0.443,0.911,0.744,1.902,0.862,2.951h-2.885
	c-0.052-1.035-0.179-2.023-0.369-2.951H59.669z M58.317,12.111h-1.595c-0.255-0.729-0.552-1.401-0.894-1.996
	C56.773,10.629,57.61,11.312,58.317,12.111 M56.723,24.104h1.593c-0.705,0.803-1.543,1.484-2.486,2
	C56.169,25.506,56.468,24.834,56.723,24.104 M55.617,17.094h-3.104v-2.951h2.69C55.413,15.04,55.561,16.025,55.617,17.094
	 M54.559,12.111h-2.045v-2.77C53.27,9.809,53.995,10.77,54.559,12.111 M50.483,9.342v2.77h-2.045
	C49.001,10.77,49.729,9.809,50.483,9.342 M47.796,14.143h2.688v2.951h-3.103C47.438,16.025,47.583,15.04,47.796,14.143
	 M50.483,19.123v2.951h-2.689c-0.211-0.896-0.357-1.884-0.414-2.951H50.483z M47.171,10.115c-0.342,0.598-0.639,1.268-0.896,1.996
	h-1.595C45.386,11.312,46.225,10.629,47.171,10.115 M51.499,30.803c0.56,0,1.015,0.455,1.015,1.014v3.385
	c0,0.562-0.455,1.017-1.015,1.017c-0.562,0-1.016-0.455-1.016-1.017v-3.385C50.483,31.258,50.938,30.803,51.499,30.803
	 M33.391,18.107c0-0.561,0.454-1.014,1.016-1.014h3.384c0.562,0,1.016,0.453,1.016,1.014c0,0.563-0.454,1.016-1.016,1.016h-3.384
	C33.845,19.123,33.391,18.67,33.391,18.107 M65.208,17.094h3.383c0.562,0,1.016,0.453,1.016,1.014c0,0.563-0.454,1.016-1.016,1.016
	h-3.383c-0.561,0-1.016-0.453-1.016-1.016C64.192,17.547,64.646,17.094,65.208,17.094 M38.695,6.74
	c-0.397-0.396-0.397-1.039,0-1.436c0.396-0.396,1.039-0.396,1.435,0l2.394,2.393c0.397,0.396,0.397,1.039,0,1.436
	C42.324,9.33,42.065,9.43,41.807,9.43c-0.261,0-0.519-0.1-0.718-0.297L38.695,6.74z M64.304,29.477c0.397,0.396,0.397,1.039,0,1.436
	c-0.198,0.197-0.459,0.297-0.717,0.297c-0.26,0-0.52-0.1-0.717-0.297l-2.394-2.393c-0.397-0.396-0.397-1.041,0-1.436
	c0.397-0.396,1.039-0.396,1.435,0L64.304,29.477z M42.523,27.084c0.397,0.396,0.397,1.039,0,1.436l-2.394,2.393
	c-0.198,0.197-0.459,0.297-0.717,0.297c-0.26,0-0.519-0.1-0.718-0.297c-0.397-0.396-0.397-1.04,0-1.436l2.394-2.393
	C41.484,26.688,42.126,26.688,42.523,27.084 M60.475,9.133c-0.396-0.396-0.396-1.039,0-1.436l2.394-2.393
	c0.396-0.396,1.039-0.396,1.434,0c0.396,0.396,0.397,1.04,0,1.436l-2.391,2.393C61.71,9.33,61.452,9.43,61.192,9.43
	C60.934,9.43,60.673,9.33,60.475,9.133 M88.007,35.114c0,3.882-3.148,7.031-7.03,7.031c-3.884,0-7.031-3.149-7.031-7.031
	c0-3.884,3.147-7.032,7.031-7.032C84.858,28.082,88.007,31.23,88.007,35.114 M35.273,35.114c0,3.882-3.147,7.031-7.032,7.031
	c-3.883,0-7.031-3.149-7.031-7.031c0-3.884,3.148-7.032,7.031-7.032C32.126,28.082,35.273,31.23,35.273,35.114"/>
</svg>
