<?xml version="1.0" encoding="utf-8"?>
<!-- Generator: Adobe Illustrator 16.0.0, SVG Export Plug-In . SVG Version: 6.00 Build 0)  -->
<!DOCTYPE svg PUBLIC "-//W3C//DTD SVG 1.1//EN" "http://www.w3.org/Graphics/SVG/1.1/DTD/svg11.dtd">
<svg version="1.1" id="vivala-icon-pessoa" xmlns="http://www.w3.org/2000/svg" xmlns:xlink="http://www.w3.org/1999/xlink" x="0px"
	 y="0px" width="56.16px" height="151.504px" viewBox="0 0 56.16 151.504" enable-background="new 0 0 56.16 151.504"
	 xml:space="preserve">
<path fill="#F3712C" d="M28.077,0c7.142,0,12.931,5.789,12.931,12.93s-5.789,12.93-12.931,12.93c-7.14,0-12.931-5.789-12.931-12.93
	S20.938,0,28.077,0"/>
<path fill="#F3712C" d="M15.597,28.674l5.101-0.557h0.523h10.587c22.535,0,24.188,9.258,24.188,9.258l0.164,1.324v46.172
	c0,3.007-2.314,5.441-5.172,5.441c-2.854,0-5.17-2.435-5.17-5.441V43.248"/>
<path fill="#F3712C" d="M45.813,43.248l-3.25-0.51l0.183,34.813l-0.222,9.261l0.033,4.272l0.112,53.154v0.463
	c0,3.547-3.244,6.406-6.791,6.406l-0.373,0.016c-3.543,0-6.42-2.873-6.42-6.42l-0.01-0.506V90.313c0,0-0.746-5.404-1.685,0v54.385
	v0.383c0,3.547-3.246,6.406-6.79,6.406l-0.372,0.018c-3.542,0-6.421-2.875-6.421-6.422v-0.383V89.68l0.021-2.104l-0.24-10.025
	V43.059l-3.25,0.191v-0.467v42.091c0,3.007-2.313,5.44-5.168,5.44C2.315,90.314,0,87.881,0,84.874V38.699l0.162-1.324
	c0,0,1.656-9.258,24.191-9.258h10.588h0.521"/>
</svg>
