<?xml version="1.0" encoding="utf-8"?>
<!-- Generator: Adobe Illustrator 16.0.0, SVG Export Plug-In . SVG Version: 6.00 Build 0)  -->
<!DOCTYPE svg PUBLIC "-//W3C//DTD SVG 1.1//EN" "http://www.w3.org/Graphics/SVG/1.1/DTD/svg11.dtd">
<svg version="1.1" id="vivala-icon-quero-me-conectar"
	 xmlns="http://www.w3.org/2000/svg" xmlns:xlink="http://www.w3.org/1999/xlink" x="0px" y="0px" width="22.225px"
	 height="21.72px" viewBox="0 0 22.225 21.72" enable-background="new 0 0 22.225 21.72" xml:space="preserve">
<g id="icon-quero-me-conectar">
	<g id="caminhos">
		<polygon fill="none" points="13.154,0.626 6.895,1.729 12.566,3.161 		"/>
		<polygon fill="none" points="0.602,12.497 2.288,18.303 6.813,11.702 4.697,9.586 		"/>
		<polygon fill="none" points="10.351,20.181 9.938,15.125 3.024,18.822 		"/>
		<polygon fill="none" points="3.066,18.162 9.718,14.606 7.218,12.106 		"/>
		<polygon fill="none" points="10.701,13.688 18.391,5.208 12.984,3.844 		"/>
		<polygon fill="none" points="10.863,19.55 13.313,14.956 10.487,14.956 		"/>
		<polygon fill="none" points="13.111,3.296 17.863,4.495 13.689,0.799 		"/>
		<polygon fill="none" points="10.818,14.394 13.612,14.394 17.602,6.912 		"/>
		<polygon fill="none" points="11.652,4.644 7.865,7.335 8.529,9.199 		"/>
		<polygon fill="none" points="10.126,13.676 12.166,4.887 8.763,9.852 		"/>
		<polygon fill="none" points="7.54,11.636 9.5,13.597 8.37,10.424 		"/>
		<polygon fill="none" points="5.992,2.082 7.669,6.786 12.115,3.626 		"/>
		<polygon fill="none" points="8.138,9.771 7.39,7.673 5.161,9.257 7.136,11.232 		"/>
		<polygon fill="none" points="0.678,11.754 4.295,9.184 1.635,6.523 		"/>
		<polygon fill="none" points="21.561,14.394 18.846,5.772 14.248,14.394 		"/>
		<path fill="#F3712C" d="M22.212,14.592l-3.03-9.622c0.017,0.062,0.006,0.124-0.018,0.181c-0.003,0.009,0.003,0.019-0.002,0.028
			l-0.316,0.593l2.715,8.622h-7.313l-0.3,0.562h7.995c0.09,0,0.175-0.042,0.226-0.114C22.223,14.769,22.238,14.676,22.212,14.592z"
			/>
		<polygon fill="#F3712C" points="7.39,7.673 7.194,7.123 4.758,8.854 5.161,9.257 		"/>
		<polygon fill="#F3712C" points="8.529,9.199 8.763,9.852 12.166,4.887 12.439,3.708 12.115,3.626 7.669,6.786 7.865,7.335 
			11.652,4.644 		"/>
		<polygon fill="#F3712C" points="10.473,14.775 10.487,14.956 13.313,14.956 13.612,14.394 10.818,14.394 		"/>
		<path fill="#F3712C" d="M2.014,19.174c0.02,0.017,0.045,0.029,0.067,0.039c0.014,0.005,0.027,0.004,0.041,0.008
			c-0.061-0.014-0.109-0.05-0.146-0.096C1.989,19.141,1.998,19.161,2.014,19.174z"/>
		<path fill="#F3712C" d="M13.709,0.066c-0.005-0.004-0.012-0.002-0.018-0.006c0.012,0.009,0.026,0.012,0.036,0.022L13.709,0.066z"
			/>
		<path fill="#F3712C" d="M13.496,0.002c0.011-0.001,0.021,0.002,0.032,0.002C13.517,0.004,13.508,0.001,13.496,0.002z"/>
		<path fill="#F3712C" d="M2.234,18.676l0.79,0.146l6.913-3.697l-0.026-0.324l-0.193-0.194l-6.651,3.556l4.151-6.056l-0.404-0.404
			l-4.525,6.601l-1.687-5.806l4.096-2.911L4.295,9.184l-3.617,2.571l-0.125,0.68c-0.029,0.153-0.176,0.253-0.328,0.226
			c-0.136-0.025-0.219-0.151-0.216-0.287c-0.002,0.03-0.011,0.059-0.003,0.089l1.907,6.564c0.004,0.012,0.008,0.024,0.013,0.035
			c0.005,0.012,0.017,0.019,0.023,0.03c-0.033-0.057-0.054-0.122-0.041-0.191C1.936,18.748,2.084,18.647,2.234,18.676z"/>
		<polygon fill="#F3712C" points="8.138,9.771 7.136,11.232 7.54,11.636 8.37,10.424 		"/>
		<path fill="#F3712C" d="M13.689,0.799l4.174,3.695l1.117,0.282c0.016,0.004,0.025,0.016,0.04,0.022
			c0.008,0.003,0.017-0.002,0.024,0.002s0.009,0.015,0.017,0.021c0.013,0.008,0.028,0.011,0.039,0.021
			C19.1,4.841,19.1,4.839,19.098,4.838l-5.369-4.754c0.063,0.069,0.09,0.165,0.067,0.256L13.689,0.799z"/>
		<polygon fill="#F3712C" points="9.5,13.597 7.54,11.636 7.218,12.106 9.718,14.606 9.837,14.542 		"/>
		<path fill="#F3712C" d="M5.325,1.537c0.022-0.036,0.056-0.063,0.094-0.085C5.38,1.475,5.349,1.499,5.325,1.537z"/>
		<path fill="#F3712C" d="M13.528,0.004c0.059,0.001,0.115,0.019,0.163,0.056C13.644,0.024,13.589,0.006,13.528,0.004z"/>
		<polygon fill="#F3712C" points="5.161,9.257 4.697,9.586 6.813,11.702 7.136,11.232 		"/>
		<path fill="#F3712C" d="M5.273,1.669C5.272,1.691,5.287,1.707,5.291,1.728C5.284,1.687,5.286,1.648,5.297,1.61
			C5.291,1.631,5.274,1.647,5.273,1.669z"/>
		<polygon fill="#F3712C" points="13.729,0.083 13.728,0.083 13.729,0.084 		"/>
		<path fill="#F3712C" d="M19.182,4.97c0-0.001,0-0.002,0-0.003c-0.016-0.049-0.044-0.09-0.081-0.124
			c0.037,0.034,0.066,0.075,0.079,0.121L19.182,4.97z"/>
		<path fill="#F3712C" d="M5.815,1.586l0.177,0.496l6.123,1.544l0.498-0.354c0.111-0.079,0.261-0.066,0.359,0.029
			c0.096,0.095,0.11,0.247,0.034,0.359l-0.841,1.227l-2.04,8.789l0.256,0.718h0.437l6.783-7.482l0.96-1.8l-0.698-0.618l-4.752-1.198
			l0.578-2.497l-0.353-0.312c-0.116-0.102-0.127-0.28-0.022-0.396c0.048-0.055,0.114-0.082,0.182-0.089
			C13.488,0.003,13.482-0.001,13.475,0L5.503,1.404C5.494,1.406,5.489,1.415,5.48,1.417C5.619,1.38,5.768,1.448,5.815,1.586z
			 M18.391,5.208l-7.689,8.48l2.283-9.844L18.391,5.208z M13.154,0.626l-0.588,2.534L6.895,1.729L13.154,0.626z"/>
		<path fill="#F3712C" d="M0.678,11.754l0.957-5.231l2.66,2.66l0.463-0.329L1.652,5.749c-0.072-0.075-0.182-0.1-0.281-0.07
			c-0.1,0.031-0.174,0.114-0.191,0.218L0,12.333c-0.003,0.014,0.009,0.026,0.009,0.04c0.004-0.085,0.032-0.167,0.104-0.218
			L0.678,11.754z"/>
		<polygon fill="#F3712C" points="4.697,9.586 5.161,9.257 4.758,8.854 4.295,9.184 		"/>
		<path fill="#F3712C" d="M0.225,12.661c0.152,0.027,0.299-0.073,0.328-0.226l0.125-0.68l-0.564,0.401
			c-0.072,0.052-0.101,0.133-0.104,0.218C0.006,12.509,0.089,12.635,0.225,12.661z"/>
		<path fill="#F3712C" d="M12.166,4.887l0.841-1.227c0.076-0.112,0.062-0.264-0.034-0.359c-0.099-0.095-0.248-0.108-0.359-0.029
			l-0.498,0.354l0.324,0.082L12.166,4.887z"/>
		<path fill="#F3712C" d="M19.164,5.151c0.023-0.058,0.034-0.119,0.018-0.181L19.18,4.964c-0.013-0.046-0.042-0.087-0.079-0.121
			c-0.011-0.01-0.026-0.014-0.039-0.021C19.171,4.894,19.211,5.029,19.164,5.151z"/>
		<path fill="#F3712C" d="M13.337,0.487l0.353,0.312l0.106-0.459c0.022-0.091-0.005-0.187-0.067-0.256l-0.001-0.001
			c-0.01-0.01-0.024-0.014-0.036-0.022c-0.048-0.038-0.104-0.055-0.163-0.056c-0.011,0-0.021-0.003-0.032-0.002
			c-0.067,0.007-0.134,0.035-0.182,0.089C13.21,0.207,13.221,0.385,13.337,0.487z"/>
		<polygon fill="#F3712C" points="9.837,14.542 9.718,14.606 9.911,14.801 9.906,14.736 		"/>
		<path fill="#F3712C" d="M19.021,4.798c-0.015-0.006-0.024-0.018-0.04-0.022l-1.117-0.282l0.698,0.618l0.104-0.196
			C18.734,4.788,18.889,4.743,19.021,4.798z"/>
		<path fill="#F3712C" d="M10.463,14.654l0.01,0.122l0.346-0.381h-0.437l0.067,0.188C10.457,14.605,10.461,14.629,10.463,14.654z"/>
		<polygon fill="#F3712C" points="7.136,11.232 6.813,11.702 7.218,12.106 7.54,11.636 		"/>
		<path fill="#F3712C" d="M5.459,1.416C5.44,1.423,5.436,1.442,5.419,1.452C5.439,1.44,5.457,1.424,5.48,1.417
			C5.473,1.419,5.466,1.414,5.459,1.416z"/>
		<path fill="#F3712C" d="M10.85,20.733c0.017-0.015,0.024-0.035,0.036-0.053c-0.017,0.024-0.037,0.044-0.06,0.062
			C10.833,20.737,10.843,20.739,10.85,20.733z"/>
		<path fill="#F3712C" d="M10.414,20.392l0.449-0.841l-0.376-4.594h-0.233l-0.316,0.169l0.413,5.056l-7.326-1.358l-0.701,0.375
			c-0.013,0.006-0.027,0.012-0.04,0.018c-0.016,0.006-0.034,0.011-0.051,0.013c-0.016,0.003-0.033,0.004-0.047,0.004
			c-0.022,0-0.043-0.007-0.063-0.012c0.005,0.001,0.006,0.006,0.011,0.007l8.477,1.571c0.018,0.004,0.034,0.006,0.051,0.006
			c-0.043,0-0.09-0.011-0.131-0.033C10.392,20.698,10.341,20.529,10.414,20.392z"/>
		<path fill="#F3712C" d="M5.297,1.61c0.007-0.026,0.015-0.051,0.028-0.073C5.31,1.561,5.304,1.583,5.297,1.61z"/>
		<path fill="#F3712C" d="M5.992,2.082L5.484,1.954c-0.108-0.029-0.174-0.12-0.193-0.226c0.003,0.017-0.008,0.032-0.002,0.048
			l1.905,5.347l0.475-0.337L5.992,2.082z"/>
		<path fill="#F3712C" d="M1.976,19.125c-0.01-0.011-0.019-0.021-0.026-0.033C1.957,19.105,1.966,19.113,1.976,19.125z"/>
		<polygon fill="#F3712C" points="8.529,9.199 7.865,7.335 7.39,7.673 8.138,9.771 		"/>
		<polygon fill="#F3712C" points="8.37,10.424 9.5,13.597 10.023,14.12 10.126,13.676 8.763,9.852 		"/>
		<polygon fill="#F3712C" points="7.865,7.335 7.669,6.786 7.194,7.123 7.39,7.673 		"/>
		<polygon fill="#F3712C" points="8.763,9.852 8.529,9.199 8.138,9.771 8.37,10.424 		"/>
		<path fill="#F3712C" d="M10.396,14.859c-0.018,0.019-0.035,0.035-0.056,0.049H10.34v0.001h-0.001
			c-0.004,0.003-0.007,0.005-0.011,0.008h-0.001c-0.042,0.025-0.093,0.039-0.144,0.039c-0.018,0-0.037-0.001-0.057-0.005
			c-0.004-0.002-0.008-0.002-0.012-0.004c-0.053-0.014-0.098-0.04-0.133-0.076l-0.071-0.071l0.026,0.324l0.316-0.169h0.233
			l-0.015-0.181L10.396,14.859z"/>
		<path fill="#F3712C" d="M2.232,19.228c0.017-0.002,0.035-0.007,0.051-0.013c0.013-0.006,0.027-0.012,0.04-0.018l0.701-0.375
			l-0.79-0.146c-0.15-0.028-0.299,0.072-0.326,0.225c-0.013,0.069,0.008,0.134,0.041,0.191c0.008,0.012,0.017,0.022,0.026,0.033
			c0.037,0.045,0.086,0.082,0.146,0.096c0.021,0.005,0.041,0.012,0.063,0.012C2.199,19.232,2.217,19.231,2.232,19.228z"/>
		<path fill="#F3712C" d="M5.484,1.954l0.508,0.128L5.815,1.586C5.768,1.448,5.619,1.38,5.48,1.417
			C5.457,1.424,5.439,1.44,5.419,1.452C5.381,1.475,5.348,1.501,5.325,1.537C5.312,1.559,5.304,1.584,5.297,1.61
			C5.286,1.648,5.284,1.687,5.291,1.728C5.311,1.833,5.376,1.925,5.484,1.954z"/>
		<path fill="#F3712C" d="M9.5,13.597l0.337,0.946l0.214-0.114c0.041-0.022,0.086-0.034,0.133-0.034h0.198l-0.256-0.718
			l-0.103,0.443L9.5,13.597z"/>
		<path fill="#F3712C" d="M10.115,14.947c0.004,0.002,0.008,0.002,0.012,0.004c0.02,0.004,0.039,0.005,0.057,0.005
			c0.051,0,0.102-0.014,0.144-0.039h0.001c0.004-0.003,0.007-0.005,0.011-0.008h0.001v-0.001h0.001
			c0.021-0.014,0.038-0.03,0.056-0.049l0.076-0.084l-0.01-0.122c-0.002-0.025-0.006-0.048-0.014-0.072l-0.067-0.188h-0.198
			c-0.047,0-0.092,0.012-0.133,0.034l-0.214,0.114l0.069,0.193l0.005,0.065l0.071,0.071C10.018,14.908,10.063,14.934,10.115,14.947z
			"/>
		<polygon fill="#F3712C" points="17.602,6.912 13.612,14.394 14.248,14.394 18.846,5.772 18.792,5.6 		"/>
		<path fill="#F3712C" d="M10.826,20.742c-0.049,0.037-0.105,0.063-0.166,0.063C10.722,20.805,10.777,20.779,10.826,20.742z"/>
		<path fill="#F3712C" d="M10.863,19.55l0.077,0.951c0.005,0.065-0.019,0.126-0.055,0.179c0.007-0.009,0.017-0.014,0.022-0.023
			l3.04-5.701h-0.636L10.863,19.55z"/>
		<polygon fill="#F3712C" points="13.612,14.394 13.313,14.956 13.948,14.956 14.248,14.394 		"/>
		<path fill="#F3712C" d="M18.792,5.6l0.054,0.173l0.316-0.593c0.005-0.009-0.001-0.019,0.002-0.028
			c-0.012,0.03-0.021,0.062-0.044,0.086L18.792,5.6z"/>
		<path fill="#F3712C" d="M19.045,4.801c-0.008-0.004-0.017,0.001-0.024-0.002c0.015,0.006,0.028,0.014,0.041,0.023
			C19.054,4.816,19.053,4.805,19.045,4.801z"/>
		<polygon fill="#F3712C" points="18.668,5.207 18.562,5.112 17.602,6.912 18.792,5.6 		"/>
		<path fill="#F3712C" d="M19.062,4.821c-0.013-0.009-0.026-0.017-0.041-0.023c-0.132-0.056-0.286-0.011-0.354,0.118l-0.104,0.196
			l0.106,0.095L18.792,5.6l0.328-0.362c0.022-0.024,0.032-0.056,0.044-0.086C19.211,5.029,19.171,4.894,19.062,4.821z"/>
		<path fill="#F3712C" d="M10.863,19.55l-0.449,0.841c-0.073,0.137-0.022,0.306,0.115,0.38c0.041,0.022,0.088,0.033,0.131,0.033
			c0.061,0,0.117-0.026,0.166-0.063c0.022-0.017,0.043-0.038,0.06-0.062c0.036-0.053,0.06-0.114,0.055-0.179L10.863,19.55z"/>
	</g>
	<g id="pontos">
		<circle id="ponto-6" fill="#F3712C" cx="18.914" cy="5.011" r="1.197"/>
		<circle id="ponto-5" fill="#F3712C" cx="12.576" cy="3.576" r="1.197"/>
		<circle id="ponto-4" fill="#F3712C" cx="10.66" cy="20.524" r="1.197"/>
		<circle id="ponto-3" fill="#F3712C" cx="10.184" cy="14.676" r="1.196"/>
		<circle id="ponto-2" fill="#F3712C" cx="4.75" cy="9.171" r="1.197"/>
		<circle id="ponto-1" fill="#F3712C" cx="2.186" cy="18.952" r="1.197"/>
	</g>
</g>
</svg>
