<?xml version="1.0" encoding="utf-8"?>
<!-- Generator: Adobe Illustrator 16.0.0, SVG Export Plug-In . SVG Version: 6.00 Build 0)  -->
<!DOCTYPE svg PUBLIC "-//W3C//DTD SVG 1.1//EN" "http://www.w3.org/Graphics/SVG/1.1/DTD/svg11.dtd">
<svg version="1.1" id="vivala-icon-mensagem-mapa-avatar"
	 xmlns="http://www.w3.org/2000/svg" xmlns:xlink="http://www.w3.org/1999/xlink" x="0px" y="0px" width="55.975px"
	 height="57.834px" viewBox="0 0 55.975 57.834" enable-background="new 0 0 55.975 57.834" xml:space="preserve">
<path id="avatar" fill="#8DA6AD" d="M55.735,49.906c-2.533-6.673-6.816-8.234-10.267-8.849c-2.881-0.517-6.469-1.589-7.739-2.287
	c-0.041-0.578-0.063-1.752,0.051-3.67c0.072-0.078,0.143-0.146,0.213-0.229l-0.037-0.033c1.703-2.282,2.515-4.428,2.883-5.876
	c1.101-0.774,2.252-2.284,2.933-5.206c0.395-1.693,0.688-3.832-0.527-5.363c-0.031-0.036-0.061-0.072-0.088-0.108
	C44.244,7.558,37.369,2.139,33.33,0.729l-0.059-0.02l-0.056-0.018C31.696,0.234,30.228,0,28.864,0c-0.32,0-0.621,0.014-0.912,0.036
	C27.655,0.013,27.347,0,27.046,0c-1.366,0-2.832,0.233-4.354,0.691l-0.058,0.018l-0.055,0.02
	c-4.041,1.408-10.916,6.829-9.828,17.556c-0.03,0.035-0.059,0.072-0.088,0.108c-1.217,1.531-0.92,3.67-0.526,5.362
	c0.68,2.922,1.831,4.432,2.934,5.207c0.363,1.436,1.174,3.553,2.842,5.816v0.002l0.019,0.025c0.1,0.131,0.164,0.254,0.266,0.385
	c0.111,1.834,0.09,2.979,0.039,3.584c-1.275,0.694-4.854,1.767-7.729,2.283c-3.451,0.614-7.735,2.176-10.267,8.848
	c-0.429,1.136-0.278,2.365,0.421,3.373c2.597,3.765,16.295,4.556,27.329,4.556c11.029,0,24.729-0.791,27.326-4.556
	C56.013,52.271,56.163,51.039,55.735,49.906 M17.448,26.976c-0.34,0-1.775-0.224-2.615-3.849c-0.656-2.818,0.031-3.264,0.533-3.264
	c0.236,0,0.428,0.094,0.428,0.094c-2.498-13.06,7.695-16.615,7.695-16.615c1.404-0.423,2.582-0.573,3.557-0.573
	c0.324,0,0.627,0.014,0.906,0.047c0.281-0.033,0.586-0.047,0.912-0.047c0.973,0,2.148,0.15,3.555,0.573
	c0,0,10.193,3.555,7.693,16.615c0,0,0.197-0.094,0.43-0.094c0.504,0,1.189,0.446,0.531,3.264c-0.842,3.626-2.277,3.849-2.615,3.849
	c-0.045,0-0.071-0.004-0.071-0.004s-0.183,3.399-3.31,7.064c0,0.029-0.004,0.061-0.004,0.088c-2.436,2.479-4.918,3.679-7.408,3.584
	c-3.098-0.128-5.543-2.24-6.762-3.52c0-0.02,0-0.047,0-0.067c-3.191-3.697-3.383-7.149-3.383-7.149S17.495,26.976,17.448,26.976
	 M20.786,40.129c0.176-0.461,0.242-1.321,0.252-2.29c1.646,1.233,3.846,2.402,6.496,2.518c0.146,0.009,0.289,0.013,0.437,0.013
	c2.391,0,4.719-0.886,6.965-2.599c0.012,0.994,0.073,1.886,0.252,2.358c0.27,0.718,1.844,1.458,3.715,2.088
	c-2.715,2.662-6.592,4.343-10.912,4.343c-4.324,0-8.197-1.685-10.912-4.343C18.948,41.584,20.519,40.847,20.786,40.129"/>
</svg>
