<?xml version="1.0" encoding="utf-8"?>
<!-- Generator: Adobe Illustrator 16.0.0, SVG Export Plug-In . SVG Version: 6.00 Build 0)  -->
<!DOCTYPE svg PUBLIC "-//W3C//DTD SVG 1.1//EN" "http://www.w3.org/Graphics/SVG/1.1/DTD/svg11.dtd">
<svg version="1.1" id="vivala-icon-mensagem-mao" xmlns="http://www.w3.org/2000/svg" xmlns:xlink="http://www.w3.org/1999/xlink"
	 x="0px" y="0px" width="56.351px" height="62.154px" viewBox="0 0 56.351 62.154" enable-background="new 0 0 56.351 62.154"
	 xml:space="preserve">
<path fill="#F3712C" d="M34.005,44.93c-3.463,2.476-2.907,4.765-3.09,7.672c-0.185,2.91-1.427,7.609-4.89,8.974
	c-3.525,1.298-12,0.677-14.972-4.582c-2.97-5.258,4.331-8.041-0.125-17.008c-1.793-3.591-3.403-7.8-7.237-12.687
	c-6.125-7.734-3.156-8.104-1.483-7.611c1.668,0.498,12.559,8.785,12.559,8.785S30.605,2.055,34.626,0.078
	c0.805-0.433,2.229,0.989,1.918,3.031c-0.31,2.042-2.659,6.742-4.394,9.527c-1.668,2.785-5.072,10.392-4.826,11.012
	c0.248,0.621,1.486,0.373,2.848-1.607c1.359-1.982,10.827-14.787,11.755-15.716c0.987-0.929,2.847-1.421,4.017-0.556
	c1.242,0.867,1.735,1.916-0.74,5.443c-2.535,3.588-8.415,12.002-9.463,13.489c-0.991,1.422-2.289,4.081-1.426,3.647
	c0.868-0.43,5.694-4.514,7.547-6.063c1.86-1.547,9.84-7.546,11.449-8.229c1.608-0.68,2.846,0.187,3.03,1.484
	c0.246,1.299-4.392,6.004-8.662,9.159c-4.269,3.153-7.854,6.06-8.353,6.742c-0.495,0.678,0.25,0.991,1.734,0.431
	c1.486-0.553,10.766-3.836,11.939-4.082c1.238-0.308,3.093-0.121,2.599,1.547c-0.491,1.67-5.94,3.961-8.786,5.817
	C43.968,36.887,37.535,42.393,34.005,44.93"/>
</svg>
