<?xml version="1.0" encoding="utf-8"?>
<!-- Generator: Adobe Illustrator 16.0.0, SVG Export Plug-In . SVG Version: 6.00 Build 0)  -->
<!DOCTYPE svg PUBLIC "-//W3C//DTD SVG 1.1//EN" "http://www.w3.org/Graphics/SVG/1.1/DTD/svg11.dtd">
<svg version="1.1" id="vivala-icon-aviao" xmlns="http://www.w3.org/2000/svg" xmlns:xlink="http://www.w3.org/1999/xlink" x="0px"
	 y="0px" width="104.676px" height="103.393px" viewBox="0 0 104.676 103.393" enable-background="new 0 0 104.676 103.393"
	 xml:space="preserve">
<path fill="#F3712C" d="M87.002,51.898l5.668-7.164c2.178-2.75,1.717-6.73-1.026-8.904c-2.749-2.178-6.731-1.717-8.909,1.033
	l-1.395,1.754l-1.934-4.549c5.053-6.995,9.151-13.602,11.905-19.096c3.743-7.455,5.043-12.877,3.003-14.486
	c-2.031-1.617-7.01,0.879-13.418,6.236c-4.725,3.932-10.217,9.424-15.887,15.946l-4.305-0.758l1.232-1.545
	c2.177-2.753,1.712-6.73-1.029-8.916C58.163,9.275,54.177,9.738,52,12.482l-5.51,6.951l-44.679-7.81
	C0.73,11.435-0.188,12.4,0.033,13.472c0.301,1.42,1.172,2.659,2.415,3.422l37.522,23.13l-0.558,0.692
	c-0.869,1.095-0.683,2.698,0.412,3.571l6.035,4.784l-10.23,14.924l-8.839,13.694l-10.784-2.928l-7.932-2.156
	c-0.899-0.247-1.818,0.313-2,1.233c-0.218,1.016,0.164,2.087,0.989,2.721l13.541,10.744c-0.602,1.176-0.308,2.623,0.734,3.461
	l0.86,0.678l0.866,0.682c1.045,0.832,2.524,0.782,3.526-0.07l13.545,10.75c0.824,0.643,1.944,0.773,2.889,0.326
	c0.847-0.385,1.181-1.403,0.738-2.221l-2.521-4.668l-6.691-12.4l11.32-11.732L58.069,58.74l6.001,4.762
	c1.105,0.875,2.696,0.695,3.568-0.404l0.55-0.701l31.099,31.271c1.021,1.039,2.428,1.611,3.877,1.576
	c1.098-0.033,1.814-1.146,1.385-2.156L87.002,51.898z"/>
</svg>
