<?xml version="1.0" encoding="utf-8"?>
<!-- Generator: Adobe Illustrator 16.0.0, SVG Export Plug-In . SVG Version: 6.00 Build 0)  -->
<!DOCTYPE svg PUBLIC "-//W3C//DTD SVG 1.1//EN" "http://www.w3.org/Graphics/SVG/1.1/DTD/svg11.dtd">
<svg version="1.1" id="vivala-icon-quero-cuidar" xmlns="http://www.w3.org/2000/svg" xmlns:xlink="http://www.w3.org/1999/xlink"
	 x="0px" y="0px" width="13.667px" height="23.396px" viewBox="-27.857 -7.201 13.667 23.396"
	 enable-background="new -27.857 -7.201 13.667 23.396" xml:space="preserve">
<path id="icon-quero-cuidar" fill="#F2702B" d="M-27.857-0.82l0.059,10.344c0,3.74,2.885,6.671,6.567,6.671
	c2.889,0,5.28-1.731,6.239-4.518c0.005-0.012,0.008-0.023,0.01-0.034c0.268-0.771,0.474-2.107,0.648-4.186
	c0.256-3.034,0.217-4.122-0.52-4.587c-0.393-0.248-1.236-0.512-1.886-0.218l-0.039-6.56c0-0.86-0.72-1.561-1.606-1.561
	c-0.412,0-0.785,0.156-1.071,0.405l0.001-0.574c0-0.863-0.727-1.564-1.619-1.564c-0.732,0-1.348,0.477-1.545,1.125
	c-0.293-0.284-0.697-0.461-1.145-0.461c-0.891,0-1.615,0.701-1.615,1.564l0.018,2.899c-0.238-0.194-0.541-0.309-0.889-0.309
	C-27.136-2.383-27.857-1.681-27.857-0.82 M-27.308-0.821c0-0.559,0.475-1.014,1.059-1.014c0.654,0,0.888,0.546,0.888,1.015
	c0,0.02,0.007,0.035,0.01,0.052l0.029,4.533c0.002,0.15,0.124,0.272,0.274,0.272h0.002c0.151-0.002,0.271-0.125,0.271-0.276
	l-0.057-8.735c0-0.559,0.48-1.015,1.068-1.015c0.59,0,1.068,0.456,1.068,1.016l0.051,7.993c0.002,0.15,0.119,0.262,0.276,0.271
	c0.151,0,0.272-0.125,0.272-0.275l-0.053-7.99c0-0.012-0.002-0.021-0.002-0.031c0-0.004,0.002-0.008,0.002-0.014l0.005-0.617
	c0-0.562,0.479-1.018,1.069-1.018s1.07,0.456,1.07,1.016l-0.008,8.841c0,0.153,0.125,0.276,0.275,0.276
	c0.151,0,0.274-0.123,0.274-0.275l0.005-7.049c0.005-0.02,0.013-0.039,0.013-0.061c0-0.559,0.476-1.016,1.06-1.016
	s1.058,0.457,1.058,1.016l0.042,7.045c-0.123,0.205-0.213,0.48-0.227,0.855c-0.046,1.199-0.023,2.358-0.01,2.877
	c-0.132,0.004-0.305,0.016-0.503,0.04C-18.01,6.817-18,6.722-18,6.623c0-1.068-0.869-1.938-1.936-1.938
	c-0.706,0-1.326,0.378-1.664,0.943c-0.08-0.136-0.179-0.262-0.294-0.376c-0.366-0.365-0.853-0.567-1.37-0.567
	c-1.058,0-1.908,0.848-1.936,1.931c-0.023,0.853,0.691,1.848,0.722,1.89c0.718,1.16,2.627,3.529,2.708,3.63
	c0.053,0.065,0.133,0.103,0.213,0.103c0.031,0,0.062-0.006,0.092-0.016c0.109-0.039,0.182-0.143,0.182-0.258v-0.754v-0.006v-0.58
	c0.14-2.165,1.701-2.875,2.839-3.104c0.06,0.008,0.116-0.004,0.168-0.032c0.553-0.093,0.974-0.076,1.024-0.074
	c0.076,0.006,0.152-0.023,0.207-0.078c0.055-0.055,0.084-0.129,0.08-0.206c0-0.015-0.061-1.532,0-3.117
	c0.018-0.429,0.155-0.715,0.41-0.849c0.424-0.224,1.092-0.031,1.409,0.169c0.442,0.281,0.505,1.234,0.266,4.077
	c-0.175,2.088-0.388,3.44-0.648,4.134c-0.007,0.016-0.011,0.03-0.013,0.047c-0.903,2.503-3.074,4.054-5.69,4.054
	c-3.376,0-6.02-2.689-6.02-6.125L-27.308-0.821z M-18.615,7.012c-1.297,0.285-3.057,1.127-3.217,3.595v0.571
	c-0.629-0.799-1.703-2.188-2.189-2.977c-0.188-0.261-0.645-1.017-0.631-1.572c0.02-0.783,0.631-1.395,1.389-1.395
	c0.761,0,1.377,0.61,1.391,1.366v0.016c0,0.158,0.122,0.281,0.273,0.281s0.274-0.123,0.274-0.274c0-0.372,0.144-0.719,0.407-0.982
	c0.262-0.263,0.609-0.407,0.982-0.407c0.766,0,1.389,0.623,1.389,1.389C-18.547,6.76-18.573,6.884-18.615,7.012"/>
</svg>
