<?xml version="1.0" encoding="utf-8"?>
<!-- Generator: Adobe Illustrator 16.0.0, SVG Export Plug-In . SVG Version: 6.00 Build 0)  -->
<!DOCTYPE svg PUBLIC "-//W3C//DTD SVG 1.1//EN" "http://www.w3.org/Graphics/SVG/1.1/DTD/svg11.dtd">
<svg version="1.1" id="vivala-icon-predio" xmlns="http://www.w3.org/2000/svg" xmlns:xlink="http://www.w3.org/1999/xlink" x="0px"
	 y="0px" width="84.628px" height="112.839px" viewBox="0 0 84.628 112.839" enable-background="new 0 0 84.628 112.839"
	 xml:space="preserve">
<path fill="#F3712C" d="M82.278,18.806H70.524V2.35c0-1.297-1.06-2.35-2.349-2.35H16.456c-1.298,0-2.354,1.052-2.354,2.35v16.457
	H2.348C1.05,18.806,0,19.862,0,21.157v89.333c0,1.293,1.05,2.349,2.348,2.349h30.563V96.388c0-1.293,1.053-2.354,2.348-2.354h14.108
	c1.293,0,2.35,1.062,2.35,2.354v16.451h30.562c1.293,0,2.351-1.056,2.351-2.349V21.157C84.628,19.862,83.571,18.806,82.278,18.806
	 M23.507,89.333h-9.405c-1.295,0-2.349-1.059-2.349-2.352c0-1.292,1.054-2.354,2.349-2.354h9.405c1.298,0,2.349,1.062,2.349,2.354
	C25.856,88.274,24.805,89.333,23.507,89.333 M23.507,79.931h-9.405c-1.295,0-2.349-1.062-2.349-2.354c0-1.293,1.054-2.35,2.349-2.35
	h9.405c1.298,0,2.349,1.057,2.349,2.35C25.856,78.869,24.805,79.931,23.507,79.931 M23.507,70.525h-9.405
	c-1.295,0-2.349-1.056-2.349-2.349s1.054-2.354,2.349-2.354h9.405c1.298,0,2.349,1.062,2.349,2.354S24.805,70.525,23.507,70.525
	 M23.507,61.122h-9.405c-1.295,0-2.349-1.059-2.349-2.351c0-1.298,1.054-2.349,2.349-2.349h9.405c1.298,0,2.349,1.051,2.349,2.349
	C25.856,60.063,24.805,61.122,23.507,61.122 M23.507,51.72h-9.405c-1.295,0-2.349-1.054-2.349-2.352c0-1.3,1.054-2.352,2.349-2.352
	h9.405c1.298,0,2.349,1.052,2.349,2.352C25.856,50.666,24.805,51.72,23.507,51.72 M23.507,42.314h-9.405
	c-1.295,0-2.349-1.051-2.349-2.349c0-1.297,1.054-2.35,2.349-2.35h9.405c1.298,0,2.349,1.053,2.349,2.35
	C25.856,41.263,24.805,42.314,23.507,42.314 M23.507,32.914h-9.405c-1.295,0-2.349-1.057-2.349-2.354
	c0-1.297,1.054-2.349,2.349-2.349h9.405c1.298,0,2.349,1.052,2.349,2.349C25.856,31.857,24.805,32.914,23.507,32.914 M28.21,14.104
	c-1.3,0-2.354-1.051-2.354-2.348c0-1.298,1.054-2.352,2.354-2.352h9.401c1.3,0,2.353,1.054,2.353,2.352
	c0,1.297-1.053,2.348-2.353,2.348H28.21z M47.013,89.333h-9.402c-1.301,0-2.352-1.059-2.352-2.352c0-1.292,1.051-2.354,2.352-2.354
	h9.402c1.295,0,2.354,1.062,2.354,2.354C49.367,88.274,48.308,89.333,47.013,89.333 M47.013,79.931h-9.402
	c-1.301,0-2.352-1.062-2.352-2.354c0-1.293,1.051-2.35,2.352-2.35h9.402c1.295,0,2.354,1.057,2.354,2.35
	C49.367,78.869,48.308,79.931,47.013,79.931 M47.013,70.525h-9.402c-1.301,0-2.352-1.056-2.352-2.349s1.051-2.354,2.352-2.354h9.402
	c1.295,0,2.354,1.062,2.354,2.354S48.308,70.525,47.013,70.525 M47.013,61.122h-9.402c-1.301,0-2.352-1.059-2.352-2.351
	c0-1.298,1.051-2.349,2.352-2.349h9.402c1.295,0,2.354,1.051,2.354,2.349C49.367,60.063,48.308,61.122,47.013,61.122 M47.013,51.72
	h-9.402c-1.301,0-2.352-1.054-2.352-2.352c0-1.3,1.051-2.352,2.352-2.352h9.402c1.295,0,2.354,1.052,2.354,2.352
	C49.367,50.666,48.308,51.72,47.013,51.72 M47.013,42.314h-9.402c-1.301,0-2.352-1.051-2.352-2.349c0-1.297,1.051-2.35,2.352-2.35
	h9.402c1.295,0,2.354,1.053,2.354,2.35C49.367,41.263,48.308,42.314,47.013,42.314 M47.013,32.914h-9.402
	c-1.301,0-2.352-1.057-2.352-2.354c0-1.297,1.051-2.349,2.352-2.349h9.402c1.295,0,2.354,1.052,2.354,2.349
	C49.367,31.857,48.308,32.914,47.013,32.914 M56.417,14.104h-9.404c-1.29,0-2.348-1.051-2.348-2.348
	c0-1.298,1.058-2.352,2.348-2.352h9.404c1.291,0,2.354,1.054,2.354,2.352C58.772,13.052,57.708,14.104,56.417,14.104 M70.524,89.333
	h-9.405c-1.295,0-2.347-1.059-2.347-2.352c0-1.292,1.052-2.354,2.347-2.354h9.405c1.293,0,2.353,1.062,2.353,2.354
	C72.876,88.274,71.817,89.333,70.524,89.333 M70.524,79.931h-9.405c-1.295,0-2.347-1.062-2.347-2.354c0-1.293,1.052-2.35,2.347-2.35
	h9.405c1.293,0,2.353,1.057,2.353,2.35C72.876,78.869,71.817,79.931,70.524,79.931 M70.524,70.525h-9.405
	c-1.295,0-2.347-1.056-2.347-2.349s1.052-2.354,2.347-2.354h9.405c1.293,0,2.353,1.062,2.353,2.354S71.817,70.525,70.524,70.525
	 M70.524,61.122h-9.405c-1.295,0-2.347-1.059-2.347-2.351c0-1.298,1.052-2.349,2.347-2.349h9.405c1.293,0,2.353,1.051,2.353,2.349
	C72.876,60.063,71.817,61.122,70.524,61.122 M70.524,51.72h-9.405c-1.295,0-2.347-1.054-2.347-2.352c0-1.3,1.052-2.352,2.347-2.352
	h9.405c1.293,0,2.353,1.052,2.353,2.352C72.876,50.666,71.817,51.72,70.524,51.72 M70.524,42.314h-9.405
	c-1.295,0-2.347-1.051-2.347-2.349c0-1.297,1.052-2.35,2.347-2.35h9.405c1.293,0,2.353,1.053,2.353,2.35
	C72.876,41.263,71.817,42.314,70.524,42.314 M70.524,32.914h-9.405c-1.295,0-2.347-1.057-2.347-2.354
	c0-1.297,1.052-2.349,2.347-2.349h9.405c1.293,0,2.353,1.052,2.353,2.349C72.876,31.857,71.817,32.914,70.524,32.914"/>
</svg>
