<?xml version="1.0" encoding="utf-8"?>
<!-- Generator: Adobe Illustrator 16.0.0, SVG Export Plug-In . SVG Version: 6.00 Build 0)  -->
<!DOCTYPE svg PUBLIC "-//W3C//DTD SVG 1.1//EN" "http://www.w3.org/Graphics/SVG/1.1/DTD/svg11.dtd">
<svg version="1.1" id="vivala-icon-mensagem-mapa-ong"
	 xmlns="http://www.w3.org/2000/svg" xmlns:xlink="http://www.w3.org/1999/xlink" x="0px" y="0px" width="74.075px"
	 height="35.288px" viewBox="0 0 74.075 35.288" enable-background="new 0 0 74.075 35.288" xml:space="preserve">
<path fill="#8DA6AD" d="M69.089,13.341h4.986l-3.294-5.283h-4.936V5.01h-13.81V0.319h-4.572V5.01h-5.582
	C41.394,2.166,38.923,0,35.942,0c-2.986,0-5.457,2.166-5.944,5.01h-5.579V0.319h-4.574V5.01H8.232v3.049h-4.94L0,13.341h4.985
	v18.312H1.966v3.635h70.141v-3.635h-3.018V13.341z M18.704,21.993h-4.617v-4.616h4.617V21.993z M28.806,21.993h-4.614v-4.616h4.614
	V21.993z M39.781,31.825h-5.488V20.851h5.488V31.825z M49.885,21.993h-4.616v-4.616h4.616V21.993z M59.989,21.993h-4.617v-4.616
	h4.617V21.993z"/>
</svg>
