<?xml version="1.0" encoding="utf-8"?>
<!-- Generator: Adobe Illustrator 16.0.0, SVG Export Plug-In . SVG Version: 6.00 Build 0)  -->
<!DOCTYPE svg PUBLIC "-//W3C//DTD SVG 1.1//EN" "http://www.w3.org/Graphics/SVG/1.1/DTD/svg11.dtd">
<svg version="1.1" id="vivala-icon-calendario" xmlns="http://www.w3.org/2000/svg" xmlns:xlink="http://www.w3.org/1999/xlink"
	 x="0px" y="0px" width="38.187px" height="43.392px" viewBox="0 0 38.187 43.392" enable-background="new 0 0 38.187 43.392"
	 xml:space="preserve">
<path fill="#8DA6AD" d="M0.002,13.885V39.88c0,1.939,1.553,3.512,3.471,3.512h31.242c1.918,0,3.472-1.572,3.472-3.512V13.885H0.002z
	 M9.547,40.788H2.604v-6.942h6.942V40.788z M9.547,32.109H2.604v-6.942h6.942V32.109z M9.547,23.431H2.604v-6.942h6.942V23.431z
	 M18.227,40.788h-6.943v-6.942h6.943V40.788z M18.227,32.109h-6.943v-6.942h6.943V32.109z M18.227,23.431h-6.943v-6.942h6.943
	V23.431z M26.904,40.788h-6.941v-6.942h6.941V40.788z M26.904,32.109h-6.941v-6.942h6.941V32.109z M26.904,23.431h-6.941v-6.942
	h6.941V23.431z M35.584,40.788h-6.943v-6.942h6.943V40.788z M35.584,32.109h-6.943v-6.942h6.943V32.109z M35.584,23.431h-6.943
	v-6.942h6.943V23.431z"/>
<path fill="#8DA6AD" d="M34.713,5.207h-5.639V1.302C29.074,0.582,28.49,0,27.771,0c-0.718,0-1.301,0.582-1.301,1.302v3.905H11.717
	V1.302c0-0.72-0.582-1.302-1.301-1.302c-0.72,0-1.304,0.582-1.304,1.302v3.905h-5.64C1.555,5.207,0,6.779,0,8.718v2.997v0.435
	h38.187v-0.435V8.718C38.187,6.779,36.633,5.207,34.713,5.207 M10.416,11.281c-1.438,0-2.605-1.166-2.605-2.604
	c0-0.963,0.525-1.802,1.302-2.251v2.251c0,0.719,0.584,1.302,1.304,1.302c0.719,0,1.301-0.583,1.301-1.302V6.427
	c0.777,0.449,1.302,1.288,1.302,2.251C13.019,10.115,11.852,11.281,10.416,11.281 M27.771,11.281c-1.438,0-2.604-1.166-2.604-2.604
	c0-0.963,0.524-1.802,1.303-2.251v2.251c0,0.719,0.583,1.302,1.301,1.302c0.719,0,1.303-0.583,1.303-1.302V6.427
	c0.776,0.449,1.301,1.288,1.301,2.251C30.375,10.115,29.209,11.281,27.771,11.281"/>
</svg>
