<?xml version="1.0" encoding="utf-8"?>
<!-- Generator: Adobe Illustrator 16.0.0, SVG Export Plug-In . SVG Version: 6.00 Build 0)  -->
<!DOCTYPE svg PUBLIC "-//W3C//DTD SVG 1.1//EN" "http://www.w3.org/Graphics/SVG/1.1/DTD/svg11.dtd">
<svg version="1.1" id="vivala-icon-quero-viajar" xmlns="http://www.w3.org/2000/svg" xmlns:xlink="http://www.w3.org/1999/xlink"
	 x="0px" y="0px" width="26.93px" height="24.411px" viewBox="0 0 26.93 24.411" enable-background="new 0 0 26.93 24.411"
	 xml:space="preserve">
<g id="icon-quero-viajar">
	<path id="pino-dir" fill="#F3712C" d="M24.238,19.987c0.785-0.992,3.864-5.166,2.212-7.702c-0.748-1.146-1.607-1.484-2.389-1.436
		c-0.754-0.049-1.641,0.289-2.389,1.436c-1.654,2.539,1.435,6.721,2.215,7.706c0.059-0.005,0.113-0.021,0.174-0.021
		S24.178,19.982,24.238,19.987z M22.784,13.332c0-0.693,0.571-1.255,1.277-1.255c0.705,0,1.277,0.562,1.277,1.255
		c0,0.696-0.572,1.258-1.277,1.258C23.355,14.589,22.784,14.028,22.784,13.332z"/>
	<path id="pino-esq" fill="#F3712C" d="M5.258,1.441C4.51,0.293,3.651-0.044,2.868,0.004C2.115-0.044,1.229,0.293,0.481,1.441
		C-1.239,4.08,2.16,8.486,2.768,9.238c0.072-0.01,0.144-0.02,0.218-0.022C3.639,8.405,6.962,4.055,5.258,1.441z M1.591,2.488
		c0-0.695,0.572-1.257,1.277-1.257c0.707,0,1.279,0.562,1.279,1.257c0,0.695-0.572,1.257-1.279,1.257
		C2.163,3.745,1.591,3.183,1.591,2.488z"/>
	<path id="ligacao" fill="#F3712C" d="M24.238,19.987c-0.11,0.14-0.177,0.218-0.177,0.218s-0.065-0.077-0.174-0.214
		c-0.656,0.053-1.231,0.381-1.604,0.881L12.077,10.366l-6.813,1.146c0-0.028,0.009-0.055,0.009-0.082
		c0-1.226-0.997-2.221-2.222-2.221c-0.022,0-0.043,0.006-0.065,0.006C2.917,9.301,2.868,9.36,2.868,9.36s-0.042-0.051-0.1-0.122
		c-1.089,0.14-1.937,1.063-1.937,2.192c0,1.225,0.996,2.22,2.22,2.22c0.791,0,1.482-0.418,1.875-1.041l6.79-1.141l10.152,10.447
		c-0.011,0.092-0.027,0.182-0.027,0.276c0,1.224,0.996,2.22,2.221,2.22s2.221-0.996,2.221-2.22
		C26.282,21.026,25.378,20.079,24.238,19.987z M3.051,12.624c-0.658,0-1.195-0.535-1.195-1.194s0.537-1.196,1.195-1.196
		c0.66,0,1.196,0.537,1.196,1.196S3.711,12.624,3.051,12.624z M24.061,23.385c-0.658,0-1.195-0.537-1.195-1.194
		c0-0.66,0.537-1.196,1.195-1.196c0.66,0,1.195,0.536,1.195,1.196C25.256,22.848,24.721,23.385,24.061,23.385z"/>
</g>
</svg>
