<?xml version="1.0" encoding="utf-8"?>
<!-- Generator: Adobe Illustrator 16.0.0, SVG Export Plug-In . SVG Version: 6.00 Build 0)  -->
<!DOCTYPE svg PUBLIC "-//W3C//DTD SVG 1.1//EN" "http://www.w3.org/Graphics/SVG/1.1/DTD/svg11.dtd">
<svg version="1.1" id="vivala-icon-mochila" xmlns="http://www.w3.org/2000/svg" xmlns:xlink="http://www.w3.org/1999/xlink"
	 x="0px" y="0px" width="49.561px" height="54.721px" viewBox="0 0 49.561 54.721" enable-background="new 0 0 49.561 54.721"
	 xml:space="preserve">
<path fill="#010101" d="M11.76,16.683c0.188,1.301,0.77,1.93,2.139,2.318c0.794,0.227,1.786,0.354,2.936,0.504
	c1.627,0.213,3.473,0.451,5.571,1.049c0.99,0.279,2.048,0.654,3.069,1.018c0.99,0.344,2.012,0.708,2.927,0.966
	c1.535,0.438,2.554,0.521,3.029,0.247c1.665-0.957,2.543-3.865,3.393-6.68c0.969-3.209,2.101-6.963,4.789-8.411
	c-0.244-0.069-0.5-0.142-0.769-0.22C32,5.532,20.713,2.347,19.006,1.865C13.776,3.481,11.048,11.771,11.76,16.683"/>
<path fill="#010101" d="M46.496,25.036c0.95-1.453,1.737-3.31,2.268-5.174c1.238-4.359,1.264-9.424-1.6-10.238
	c-0.047-0.012-0.091-0.012-0.136-0.022l-2.387-0.655c-0.198,0.068-0.418,0.051-0.59,0.02c-0.089-0.016-0.166-0.037-0.22-0.051
	c-2.179-0.584-3.611-0.092-4.705,1.205l4.32,1.186c-1.288,1.531-2.356,3.85-3.019,6.189c-0.668,2.354-0.973,4.898-0.67,6.883
	l-5.94-1.686c-0.137,0.188-0.285,0.361-0.436,0.527c-0.142,0.154-0.292,0.297-0.448,0.434c-0.042,0.035-0.088,0.073-0.132,0.11
	c-0.181,0.146-0.367,0.28-0.569,0.396c-0.003,0.004-0.004,0.004-0.004,0.004c-0.026,0.017-0.055,0.025-0.081,0.041
	c-0.076,0.039-0.153,0.078-0.236,0.107c-0.106,0.045-0.216,0.079-0.332,0.105c-0.002,0.004-0.006,0.004-0.012,0.006
	c-0.232,0.056-0.49,0.088-0.768,0.097c-0.67,0.021-1.478-0.095-2.471-0.356c-0.454,0.645-1.105,1.84-0.76,2.672l0.958,2.328
	l-0.116,0.408c-0.386,1.35-1.773,1.996-2.046,2.111l-0.949-2.242c0.162-0.072,0.338-0.188,0.467-0.305l-0.566-1.374
	c-0.667-1.62-0.026-3.278,0.601-4.353c-0.324-0.111-0.648-0.227-0.969-0.338c-0.999-0.354-2.032-0.72-2.965-0.984
	c-1.994-0.566-3.776-0.795-5.35-1.004c-0.529-0.067-1.019-0.133-1.488-0.207c-0.459,0.637-1.197,1.939-0.839,2.83l0.949,2.352
	l-0.116,0.406c-0.389,1.361-1.775,2.021-2.05,2.141l-0.971-2.255c0.15-0.069,0.341-0.196,0.478-0.323l-0.566-1.404
	c-0.656-1.625-0.017-3.299,0.611-4.387c-0.752-0.326-1.317-0.77-1.722-1.352v0.002c-0.28-0.402-0.486-0.868-0.619-1.409
	c-0.022-0.083-0.036-0.171-0.053-0.26c-0.019-0.103-0.043-0.2-0.058-0.306c-0.046-0.307-0.075-0.625-0.096-0.953l-2.72-0.772
	c-0.424-0.276-1.027-2.806,0.128-6.873c1.112-3.915,3.585-5.806,4.206-5.719l2.526,0.694c0.7-0.807,1.485-1.5,2.352-2.043
	l-4.182-1.147C9.807-0.64,6.352,2.87,5.007,7.606c-1.215,4.277-1.223,9.252,1.632,10.063l1.137,0.322
	c-2.353,4.912-9.068,19.838-7.557,27.348c0.159,0.791,1.622,2.227,5.251,3.895c9.344,4.291,24.121,6.611,27.089,4.945
	c0.43-0.238,0.841-0.631,1.239-1.137c1.009,0.131,4.173,0.277,7.16-2.359C45.598,46.575,47.453,37.946,46.496,25.036 M12.349,45.264
	c-1.544,0.591-5.356-0.44-6.108-0.653c-1.889-0.537-4.271-1.418-4.898-2.578c-0.908-1.672,1.058-6.5,2.346-9.299
	c0.203-0.91,0.775-2.801,2.058-3.185c1.066-0.324,4.396,0.555,5.777,0.946c3.086,0.879,3.506,1.33,3.665,1.498
	c1.184,1.274,0.711,3.108,0.179,4.133C14.95,39.971,14.091,44.595,12.349,45.264 M28.946,50.2c-1.545,0.594-5.357-0.438-6.107-0.652
	h-0.002c-1.889-0.535-4.272-1.418-4.902-2.574c-0.904-1.674,1.061-6.502,2.351-9.301c0.204-0.911,0.774-2.799,2.057-3.186
	c1.065-0.322,4.396,0.557,5.777,0.948c3.087,0.875,3.506,1.326,3.664,1.497c1.186,1.273,0.712,3.109,0.18,4.133
	C31.546,44.909,30.686,49.532,28.946,50.2 M46.856,16.044c-0.131-0.713-0.334-1.235-0.584-1.49c-0.193-0.197-0.437-0.27-0.671-0.202
	c-0.994,0.294-3.202,5.438-2.76,8.581c0.07,0.501,0.289,0.674,0.477,0.729c0.057,0.017,0.112,0.02,0.157,0.02
	c0.932-0.003,1.853-2.725,2.01-3.921l-0.791-0.104c-0.148,1.131-0.718,2.451-1.086,3c-0.305-2.848,1.565-6.906,2.152-7.486
	c0.292,0.395,0.59,2.004,0.385,4.303c-1.142,3.794-2.857,5.611-3.402,5.73c-0.415-0.399-0.938-2.977,0.203-6.992
	c1.14-4.018,2.939-5.936,3.501-6.055C46.742,12.436,47.088,13.823,46.856,16.044 M38.575,47.829c-1,0.91-2.005,1.301-2.798,1.461
	c2.238-5.738,3.768-15.106,4.423-22.092l1.611,0.459c0.069,0.025,0.14,0.051,0.211,0.071c0.314,0.091,0.623,0.108,0.928,0.079
	C43.542,40.382,40.975,45.642,38.575,47.829"/>
<path fill="#010101" d="M9.259,35.995L8.58,38.387l-2.493-0.709l0.733-2.584c-0.628-0.308-1.202-0.644-1.648-0.915
	c-1.387,3.145-2.353,6.283-2.11,6.947c0.139,0.207,1.254,0.914,3.712,1.613c2.423,0.688,4.359,0.859,4.842,0.719
	c0.562-0.496,1.342-3.647,1.754-7.006C12.312,36.415,10.649,36.302,9.259,35.995"/>
<path fill="#010101" d="M26.04,39.647c1.405,0.326,3.219,0.424,4.224,0.455c0.175-0.377,0.538-1.309,0.128-1.812
	c-0.233-0.147-1.135-0.513-2.803-0.985c-2.383-0.678-4.186-0.979-4.672-0.951c-0.203,0.178-0.5,0.854-0.68,1.526
	C23.101,38.424,24.678,39.333,26.04,39.647"/>
<path fill="#010101" d="M9.444,34.71c1.406,0.324,3.219,0.424,4.223,0.455c0.174-0.377,0.539-1.309,0.128-1.813
	c-0.234-0.145-1.136-0.512-2.802-0.986c-2.385-0.677-4.189-0.977-4.671-0.951c-0.205,0.18-0.5,0.853-0.682,1.527
	C6.505,33.484,8.075,34.39,9.444,34.71"/>
<path fill="#010101" d="M26.308,41.024l-0.447,1.578l-2.495-0.711l0.471-1.66c-0.793-0.362-1.526-0.779-2.067-1.113
	c-1.388,3.143-2.354,6.281-2.114,6.947c0.142,0.207,1.256,0.916,3.713,1.613c2.423,0.688,4.36,0.857,4.844,0.719
	c0.564-0.498,1.343-3.646,1.757-7.006C29.021,41.356,27.594,41.265,26.308,41.024"/>
</svg>
