<?xml version="1.0" encoding="utf-8"?>
<!-- Generator: Adobe Illustrator 16.0.0, SVG Export Plug-In . SVG Version: 6.00 Build 0)  -->
<!DOCTYPE svg PUBLIC "-//W3C//DTD SVG 1.1//EN" "http://www.w3.org/Graphics/SVG/1.1/DTD/svg11.dtd">
<svg version="1.1" id="vivala-icon-globo" xmlns="http://www.w3.org/2000/svg" xmlns:xlink="http://www.w3.org/1999/xlink" x="0px"
	 y="0px" width="17.855px" height="17.857px" viewBox="0 0 17.855 17.857" enable-background="new 0 0 17.855 17.857"
	 xml:space="preserve">
<g id="icon-globo">
	<path fill="#F27129" d="M8.93,1.113c4.307,0,7.809,3.508,7.809,7.813c0,4.31-3.502,7.813-7.809,7.813
		c-4.312,0-7.814-3.503-7.814-7.813C1.115,4.621,4.619,1.113,8.93,1.113 M8.93,0C3.996,0,0,3.996,0,8.927
		c0,4.933,3.996,8.931,8.931,8.931c4.93,0,8.926-3.998,8.926-8.931C17.856,3.996,13.859,0,8.93,0"/>
	<path fill="#F27129" d="M8.93,6.696c-2.693,0-5.285-0.563-7.709-1.683l0.468-1.019C3.963,5.051,6.398,5.58,8.93,5.58
		c2.522,0,4.954-0.529,7.231-1.58l0.468,1.015C14.205,6.134,11.615,6.696,8.93,6.696"/>
	<path fill="#F27129" d="M16.162,13.859c-2.271-1.051-4.709-1.584-7.231-1.584c-2.531,0-4.964,0.533-7.242,1.584l-0.467-1.017
		c2.424-1.114,5.02-1.682,7.709-1.682c2.686,0,5.278,0.566,7.704,1.682L16.162,13.859z"/>
	<path fill="#F27129" d="M7.268,17.66c-1.438-2.666-2.195-5.685-2.195-8.732c0-3.028,0.754-6.034,2.178-8.692l0.985,0.527
		C6.895,3.257,6.188,6.08,6.188,8.927c0,2.863,0.715,5.697,2.063,8.203L7.268,17.66z"/>
	<path fill="#F27129" d="M10.586,17.66l-0.981-0.529c1.35-2.506,2.063-5.34,2.063-8.203c0-2.848-0.707-5.672-2.045-8.165
		l0.984-0.527c1.426,2.654,2.176,5.66,2.176,8.692C12.781,11.976,12.02,14.994,10.586,17.66z"/>
</g>
</svg>
