<?xml version="1.0" encoding="utf-8"?>
<!-- Generator: Adobe Illustrator 16.0.0, SVG Export Plug-In . SVG Version: 6.00 Build 0)  -->
<!DOCTYPE svg PUBLIC "-//W3C//DTD SVG 1.1//EN" "http://www.w3.org/Graphics/SVG/1.1/DTD/svg11.dtd">
<svg version="1.1" id="vivala-icon-bolsa" xmlns="http://www.w3.org/2000/svg" xmlns:xlink="http://www.w3.org/1999/xlink" x="0px"
	 y="0px" width="53.667px" height="46.693px" viewBox="0 0 53.667 46.693" enable-background="new 0 0 53.667 46.693"
	 xml:space="preserve">
<polygon fill="#010101" points="2.188,22.574 0,30.888 0.934,32.154 2.987,26.164 "/>
<polygon fill="#010101" points="52.726,32.166 53.667,30.889 51.479,22.574 50.681,26.164 "/>
<polygon fill="#010101" points="21.652,2.443 20.668,3.035 19.358,11.936 19.124,17.682 20.646,17.492 21.748,2.443 "/>
<polygon fill="#010101" points="34.543,17.688 34.311,11.936 32.999,3.035 32.015,2.443 31.92,2.443 33.022,17.495 "/>
<polygon fill="#010101" points="14.318,18.887 9.891,19.445 2.702,22.133 3.606,26.199 0.299,35.848 0.299,46.395 13.203,46.395 "/>
<polygon fill="#010101" points="18.772,26.375 17.96,46.396 35.707,46.396 34.895,26.375 "/>
<polygon fill="#010101" points="28.309,17.5 25.321,17.502 19.1,18.285 18.913,22.896 34.754,22.896 34.567,18.287 "/>
<polygon fill="#010101" points="50.061,26.199 50.965,22.133 43.776,19.445 39.35,18.887 40.463,46.395 53.37,46.395 53.37,35.848 
	"/>
<path fill="#010101" d="M13.787,46.693h3.565L18.2,25.778h17.269l0.847,20.915h3.563l-1.41-34.836l-2.319-8.934L31.843,0h-4.236
	H26.06h-4.236l-4.305,2.924l-2.32,8.934L13.787,46.693z M27.775,1.848h4.405l1.346,0.807l1.378,9.204l0.472,11.634H18.293
	l0.471-11.634l1.379-9.204l1.346-0.807h4.404H27.775z"/>
</svg>
