<?xml version="1.0" encoding="utf-8"?>
<!-- Generator: Adobe Illustrator 16.0.0, SVG Export Plug-In . SVG Version: 6.00 Build 0)  -->
<!DOCTYPE svg PUBLIC "-//W3C//DTD SVG 1.1//EN" "http://www.w3.org/Graphics/SVG/1.1/DTD/svg11.dtd">
<svg version="1.1" id="vivala-icon-mala" xmlns="http://www.w3.org/2000/svg" xmlns:xlink="http://www.w3.org/1999/xlink" x="0px"
	 y="0px" width="30.751px" height="67.388px" viewBox="0 0 30.751 67.388" enable-background="new 0 0 30.751 67.388"
	 xml:space="preserve">
<path fill="#010101" d="M0.361,65.624v1.764h3.116C2.154,67.388,0.997,66.682,0.361,65.624"/>
<path fill="#010101" d="M3.478,20.442h24.28c1.242,0,2.337,0.625,2.992,1.574v-2.314H0.361v2.505
	C0.997,21.149,2.154,20.442,3.478,20.442"/>
<path fill="#010101" d="M27.758,67.388h2.993v-1.571C30.095,66.765,28.999,67.388,27.758,67.388"/>
<path fill="#010101" d="M23.566,24.28c-3.174,2.724-8.326,2.127-8.326,2.127c-4.662,0-6.838-1.008-8.201-2.037
	c-1.283,0.449-1.854,1.603-1.854,2.959v33.05c0,1.339,0.58,2.228,1.842,2.688l1.116-2.396h14.7l1.057,2.398
	c1.265-0.457,2.025-1.349,2.025-2.69v-33.05C25.926,25.87,25.006,24.647,23.566,24.28"/>
<path fill="#010101" d="M30.37,24.173c0-1.936-1.567-3.502-3.501-3.502H3.502C1.566,20.671,0,22.237,0,24.173v38.182
	c0,1.934,1.566,3.5,3.502,3.5h23.367c1.934,0,3.501-1.566,3.501-3.502V24.173z M27.407,62.155c0,1.436-0.92,2.779-2.242,3.322
	l0.149,0.377h-0.539l-2.338-4.443H8.524l-2.807,4.443H5.18l0.381-0.494c-1.181-0.592-1.857-1.867-1.857-3.205V25.552
	c0-0.98,1.418-2.852,2.079-3.518c0.936,1.244,3.337,3.352,9.534,3.352c0,0,6.615,0.76,9.476-3.33
	c0.271,0.219,2.615,2.164,2.615,3.496V62.155z"/>
<rect x="9.996" y="3.767" fill="#010101" width="1.604" height="15.938"/>
<rect x="19.756" y="3.767" fill="#010101" width="1.605" height="15.938"/>
<path fill="#010101" d="M9.688,3.767h2.193V2.779l0.34-0.435c0,0,5.064,0.342,6.764,0l0.432,0.465v0.957h2.1V1.419
	c0,0,0-0.863-0.71-0.925c0,0-6.362-1.112-10.222,0c0,0-0.927,0.153-0.896,1.235V3.767z"/>
</svg>
