<?xml version="1.0" encoding="utf-8"?>
<!-- Generator: Adobe Illustrator 16.0.0, SVG Export Plug-In . SVG Version: 6.00 Build 0)  -->
<!DOCTYPE svg PUBLIC "-//W3C//DTD SVG 1.1//EN" "http://www.w3.org/Graphics/SVG/1.1/DTD/svg11.dtd">
<svg version="1.1" id="vivala-icon-mensagem-mapa-brasil"
	 xmlns="http://www.w3.org/2000/svg" xmlns:xlink="http://www.w3.org/1999/xlink" x="0px" y="0px" width="55.002px"
	 height="68.206px" viewBox="0 0 55.002 68.206" enable-background="new 0 0 55.002 68.206" xml:space="preserve">
<path fill="#F3712C" d="M28.069,14.174c3.916,0,7.086-3.176,7.086-7.088c0-3.913-3.17-7.086-7.086-7.086
	c-3.912,0-7.086,3.174-7.086,7.086C20.983,10.999,24.159,14.174,28.069,14.174"/>
<path fill="#F3712C" d="M54.015,19.29c-1.283-1.244-3.338-1.221-4.589,0.066l-4.743,4.893l-8.494-5.996
	c-0.553-0.387-1.205-0.594-1.875-0.594H21.768c-0.544,0-1.079,0.141-1.556,0.399l-9.715,5.321l-4.915-5.116
	c-1.24-1.288-3.291-1.331-4.584-0.091c-1.295,1.242-1.335,3.293-0.091,4.586l6.632,6.906c1.019,1.057,2.61,1.305,3.889,0.595
	l8.361-4.584v39.29c0,1.789,1.098,3.24,2.892,3.24c1.787,0,2.89-1.451,2.89-3.24V40.79h3.854v24.176c0,1.789,1.103,3.24,2.89,3.24
	c1.794,0,2.893-1.451,2.893-3.24V25.461l8.029,5.688c0.567,0.396,1.205,0.589,1.859,0.589c0.85,0,1.686-0.336,2.315-0.984
	l6.677-6.879C55.335,22.59,55.302,20.538,54.015,19.29"/>
</svg>
