<?xml version="1.0" encoding="utf-8"?>
<!-- Generator: Adobe Illustrator 16.0.0, SVG Export Plug-In . SVG Version: 6.00 Build 0)  -->
<!DOCTYPE svg PUBLIC "-//W3C//DTD SVG 1.1//EN" "http://www.w3.org/Graphics/SVG/1.1/DTD/svg11.dtd">
<svg version="1.1" id="vivala-icon-localizacao" xmlns="http://www.w3.org/2000/svg" xmlns:xlink="http://www.w3.org/1999/xlink"
	 x="0px" y="0px" width="22.214px" height="32.794px" viewBox="0 0 22.214 32.794" enable-background="new 0 0 22.214 32.794"
	 xml:space="preserve">
<path fill="#8DA6AD" d="M11.108,0C4.975,0,0,4.974,0,11.107c0,0.129,0,0.266,0.008,0.401c0.043,1.165,0.263,2.286,0.64,3.336
	c2.367,7.786,10.461,17.949,10.461,17.949s8.088-10.163,10.459-17.949c0.377-1.05,0.596-2.171,0.64-3.336
	c0.007-0.136,0.007-0.271,0.007-0.401C22.214,4.974,17.244,0,11.108,0 M11.108,16.546c-3.009,0-5.444-2.433-5.444-5.438
	c0-3.007,2.436-5.439,5.444-5.439c3,0,5.438,2.433,5.438,5.439C16.546,14.113,14.108,16.546,11.108,16.546"/>
</svg>
