<?xml version="1.0" encoding="utf-8"?>
<!-- Generator: Adobe Illustrator 16.0.0, SVG Export Plug-In . SVG Version: 6.00 Build 0)  -->
<!DOCTYPE svg PUBLIC "-//W3C//DTD SVG 1.1//EN" "http://www.w3.org/Graphics/SVG/1.1/DTD/svg11.dtd">
<svg version="1.1" id="vivala-icon-mensagem-mapa-brasil"
	 xmlns="http://www.w3.org/2000/svg" xmlns:xlink="http://www.w3.org/1999/xlink" x="0px" y="0px" width="81.002px"
	 height="81.071px" viewBox="0 0 81.002 81.071" enable-background="new 0 0 81.002 81.071" xml:space="preserve">
<path fill="#F3712C" d="M27.698,0l-1.206,1.803l-1.146,0.162l-0.425,0.529l-1.407,0.08l-0.301,0.742l-0.497-0.338h-1.19
	l-0.648-0.633l-1.195-0.391l-1.166-0.332l1.527,1.48l0.254,2.911l1.476-0.022l-0.086,0.974l-1.308-0.004l-0.141,0.896L17.903,8.81
	l-3.476,0.103l-0.75-1.047l-0.092-1.57l-0.988,0.826l-0.319,0.07l-0.313-0.49L11.602,6.73l-0.055,0.391L8.536,7.202L8.252,8.906
	l1.066,0.043l-0.021,0.72L7.589,9.625L7.534,10.86l0.874,1.033l0.043,2.172l0.358,2.12l-1.165,3.449L5.598,19.56l-0.908,1.114
	l-1.188-0.096l-0.563,0.885l-1.016,0.025l-0.139,1.424l-0.651,0.025l-0.126,2.579l-0.194,0.339l-0.294-0.103L0.045,25.73L0,28.229
	l0.803,0.577l0.003,0.94l1.633,1.804l1.126,0.019l0.082,0.999l1.77-0.044l0.501-0.639l1.025-0.299l0.04,3.113l5.447-0.03
	l-0.021-0.796l0.192-0.307l0.161,0.336l0.595-0.213l0.007-0.613l0.805-0.063l0.153-0.695l0.646-0.546l0.302,0.095l1.066-0.586
	l0.003,0.018l0.848,0.033l0.657,0.244l0.309,0.439l-0.301,1.09l0.063,1.28l0.858,1.253l0.87,0.814l1.885,1.025l2.628,1.037
	l3.431,1.004l0.236,0.756l0.678,0.232l0.082,1.206l-0.409,0.075l-0.476,0.396l0.627,1.025l0.258,1.522l3.309-0.011l0.1,0.943
	l0.255,0.484l0.825,0.677l0.447,1.716l0.432,0.39l-0.336,0.886l0.063,5.321l-0.321,1.386l0.318,0.63l3.277-0.007l-0.033,0.398
	l0.812,0.011l0.141,0.62l0.777,0.013l-0.088,2.507l1.719-0.539l0.04,3.754l0.073,0.406l1.137-0.047l-0.029,1.005l-0.023,0.021
	l0.023,0.788l-0.389,0.668l-1.287,0.75l0.611-0.078l-1.762,0.324l-0.021,0.845l-1.101,0.661l-1.09,1.48l-0.146,0.963l-1.951,2.161
	l1.726,0.251l1.086,0.661l0.261,0.659l1.197,0.702l1.239,0.024l0.786,0.324l0.074,0.885l0.527,0.965l0.484,0.099l0.227,1.56
	l-0.452,0.287l-0.187,0.794l1.027-0.141l0.533-0.703l0.758-0.292l0.299-1.28l0.41-0.792l2.172-1.274l0.447-0.921l0.63-1.11
	l0.706-0.548l0.841-1.966l0.044-0.093l0.625-0.224l0.361-0.826l0.882-0.826l0.103-4.491l0.588-0.979l0.113-0.125l0.384-0.232
	l0.533-0.336l0.034-0.068l1.188-1.119l0.266-0.978l1.151-0.446l1.749-0.271l0.443-0.198l0.162-0.554l0.867,0.012l0.072-0.012
	l1.041-0.066l0.188-0.527l4.251-0.029l0.301-0.244l0.257-0.704l1.568-0.383l0.367-0.491l-0.064-1.129l-0.004-0.06l0.17-0.246
	l0.367-0.144l0.559,0.047l0.221-0.527l0.082-0.755l0.4-0.519l0.73-0.883l0.27-1.324l-0.041-1.014l0.268-0.906l-0.154-0.664
	l-0.018-0.115l0.014,0.015l0.639,0.048l0.701-0.158l0.063-1.575l0.311-0.692l0.162-1.184l0.215-0.646l0.553-0.545l0.064-4.563
	L71.921,39.5l0.762-0.073l0.865-0.468l0.467-0.568l0.418-0.368l0.084-0.861l0.615-0.372l0.178-0.664l-0.021-0.007l1.014-0.878
	l1.016-1.363l0.021-0.039l0.875-0.176l0.104-0.861l0.873-0.241l0.631-1.297l0.1-0.584l-0.008-0.007l0.563-0.34l0.43-1.125
	l0.023-1.841l0.006-0.003l0.021-1.748l-0.021-0.021l0.066-1.033l-0.43-0.611l-0.262-1.642l-3.318-0.045l-1.586-1.114l0.018-0.028
	c-1.814-1.943-4.23-3.835-7.621-3.581v-0.007l-1.227-0.31l-0.045,0.063l-3.48-1.073l-0.388,0.538l-0.696-0.178l-1.1-1.411
	l-0.707-0.177l-1.166-0.745l-0.564-0.321l-0.998-0.125l-0.008,0.017l-0.809-1.127l-2.836,0.026l-0.408,1.335l-0.624,0.421
	l-0.574-0.406l0.055-1.154l0.878-1.18l-2.389-0.154l-0.268-0.422l-1.068-0.008l-0.303-1.475l0.553-0.97l0.139-0.761l-0.725-1.11
	L47.76,6.72l-1.211-4.447l-0.461-0.056L43.92,6.506l-4.238-0.465L39.675,6l-0.904,0.258l-1.622-0.084l-0.058,1.299l-3.083,0.162
	l-0.623,0.554l-1.756,0.105v0.008l-1.607-0.125l-0.188-0.716l-1.141-0.939l0.457-5.039l-0.46-0.151l0.04-0.962l-0.263-0.365
	L27.698,0z"/>
</svg>
