<svg id="vivala-icon-parceiros-chefsclub" xmlns="http://www.w3.org/2000/svg" width="231" height="154" viewBox="0 0 231.178 154.192"><style>.a{fill:#FFF;}</style><path id="ticket" d="M230.264 118.272c-0.299-3.649-0.656-7.296-0.96-10.947 -0.385-4.59-0.802-9.177-1.199-13.766 -0.396-4.589-0.799-9.177-1.206-13.766 -0.4-4.516-0.766-9.035-1.177-13.55 -0.483-5.311-0.948-10.623-1.411-15.933 -0.543-6.252-1.083-12.503-1.622-18.755 -0.557-6.468-1.128-12.935-1.702-19.402 -0.153-1.734-0.217-3.483-0.54-5.195C219.74 3.21 216.966 0.71 212.826 0c-0.072 0-0.145 0-0.218 0 -0.726 0.337-1.451 0.339-2.178 0 -0.435 0-0.871 0-1.307 0 -0.849 0.205-1.721 0.18-2.579 0.203 -4.753 0.125-9.47 0.703-14.203 1.087 -3.65 0.294-7.295 0.647-10.945 0.96 -4.623 0.396-9.246 0.813-13.87 1.208 -3.758 0.318-7.515 0.645-11.27 0.987 -3.792 0.346-7.586 0.662-11.379 0.997 -3.577 0.317-7.152 0.642-10.729 0.947 -4.625 0.396-9.25 0.793-13.873 1.206 -4.515 0.404-9.032 0.792-13.548 1.188 -4.588 0.401-9.176 0.806-13.765 1.193 -4.625 0.39-9.247 0.827-13.872 1.22 -5.312 0.452-10.623 0.926-15.933 1.392 -4.588 0.401-9.177 0.798-13.764 1.212 -5.346 0.481-10.695 0.917-16.041 1.393 -5.563 0.496-11.13 0.946-16.69 1.467 -3.105 0.292-6.224 0.448-9.314 0.878C4 18.003-0.025 21.172 0.112 25.566c-0.005 0.043-0.001 0.087-0.003 0.13 0.027-0.001 0.054-0.005 0.081-0.005C0.152 26.207 0.418 26.761 0 27.229c0 0.073 0 0.146 0 0.218 0.206 0.848 0.18 1.721 0.203 2.579 0.128 4.717 0.699 9.399 1.082 14.095 0.298 3.65 0.658 7.296 0.965 10.945 0.389 4.626 0.813 9.249 1.204 13.874 0.321 3.794 0.646 7.588 0.998 11.38 0.35 3.791 0.675 7.586 0.998 11.38 0.316 3.722 0.646 7.444 0.979 11.164 0.264 2.962 0.417 5.936 0.827 8.881 0.229 1.654 0.621 1.863 2.26 1.586 2.853-0.481 5.472 0.059 7.841 1.783 1.441 1.047 2.501 2.399 3.45 3.877 0.782 1.22 1.5 1.367 2.743 0.624 0.689-0.413 1.383-0.803 2.182-0.954 3.898-0.736 7.079 0.437 9.52 3.581 1.397 1.799 1.979 3.823 1.897 6.101 -0.056 1.577 0.439 2.001 1.999 2.042 0.762 0.02 1.525-0.025 2.286 0.025 3.971 0.262 5.919 2.349 5.937 6.31 0.004 1.061-0.196 2.092-0.324 3.136 -0.162 1.308 0.323 1.979 1.615 2.268 0.674 0.15 1.349 0.286 2.008 0.495 2.21 0.699 3.687 2.107 4.26 4.393 0.435 1.729 0.785 3.46 0.636 5.268 -0.107 1.312 0.568 1.962 1.894 1.91 0.724-0.029 1.449-0.074 2.172-0.141 4.515-0.417 9.032-0.808 13.549-1.202 4.589-0.401 9.179-0.783 13.768-1.192 5.455-0.486 10.913-0.951 16.369-1.435 5.347-0.474 10.696-0.92 16.044-1.394 4.589-0.407 9.178-0.818 13.767-1.213 5.35-0.461 10.697-0.934 16.045-1.398 6.216-0.54 12.43-1.106 18.646-1.643 5.384-0.464 10.768-0.939 16.152-1.402 5.312-0.457 10.622-0.954 15.934-1.415 7.734-0.67 15.467-1.34 23.199-2.031 4.798-0.429 8.248-4.811 8.068-8.868C230.985 126.648 230.606 122.463 230.264 118.272zM176.347 52.468c0.759-0.019 1.517-0.122 2.274-0.2 0.71-0.073 1.055 0.174 1.116 0.946 0.259 3.325 0.578 6.645 0.847 9.969 0.047 0.572 0.046 0.842 0.78 0.557 5.936-2.307 11.121 1.458 10.835 7.833 -0.18 4.027-2.678 6.94-6.577 7.597 -2.146 0.362-3.982-0.391-5.681-1.841 -0.099 0.234-0.169 0.36-0.205 0.495 -0.391 1.46-1.593 2.133-2.999 1.677 -0.422-0.137-0.495-0.458-0.529-0.845 -0.275-3.106-0.568-6.21-0.845-9.315 -0.418-4.694-0.843-9.387-1.234-14.083C173.906 52.556 173.716 52.533 176.347 52.468zM157.474 65.759c1.191-0.082 2.383-0.209 3.569-0.354 0.844-0.103 1.091 0.371 1.151 1.072 0.177 2.058 0.369 4.116 0.521 6.175 0.051 0.695 0.156 1.368 0.478 1.985 0.498 0.952 1.483 1.475 2.407 1.31 1.075-0.191 1.833-1.024 1.927-2.188 0.13-1.601-0.222-3.179-0.285-4.773 -0.04-1.011-0.175-2.021-0.297-3.027 -0.08-0.657 0.098-1.038 0.829-1.094 1.191-0.092 2.381-0.226 3.569-0.36 0.958-0.108 1.062 0.554 1.122 1.231 0.245 2.742 0.474 5.487 0.713 8.231 0.132 1.516 0.253 3.034 0.419 4.546 0.102 0.931-0.169 1.328-1.193 1.478 -1.436 0.212-2.319-0.175-2.645-1.914 -1.939 2.527-4.298 3.341-7.028 2.856 -3.006-0.534-4.556-2.687-5.202-5.472 -0.664-2.863-0.652-5.823-0.918-8.743C156.552 66.084 156.826 65.803 157.474 65.759zM148.392 54.894c1.299-0.103 2.597-0.221 3.896-0.332 0.687-0.063 0.981 0.32 1.035 0.951 0.304 3.535 0.599 7.07 0.907 10.605 0.402 4.617 0.793 9.234 1.236 13.845 0.092 0.955-0.011 1.54-1.157 1.572 -1.083 0.028-2.164 0.182-3.24 0.323 -0.816 0.107-1.214-0.18-1.284-1.025 -0.244-2.958-0.523-5.914-0.785-8.87 -0.408-4.617-0.815-9.232-1.22-13.849 -0.066-0.757-0.125-1.517-0.171-2.275C147.577 55.292 147.792 54.94 148.392 54.894zM134.958 55.763c1.006-0.178 2.012-0.239 3.46-0.259 2.424-0.075 4.955 0.838 7.283 2.454 0.808 0.561 0.983 1.051 0.281 1.823 -0.706 0.776-1.378 1.593-1.977 2.454 -0.554 0.797-1.018 0.857-1.865 0.319 -4.537-2.884-10.131-0.651-11.529 4.547 -0.902 3.352 0.48 7.042 3.316 8.85 2.878 1.835 6.677 1.525 9.352-0.84 0.708-0.627 1.208-0.585 1.844 0.031 0.78 0.757 1.591 1.486 2.434 2.173 0.736 0.6 0.728 1.125 0.086 1.795 -2.823 2.947-6.302 4.353-10.336 4.186 -6.765-0.281-11.803-4.595-13.257-11.181C122.443 64.839 127.643 57.06 134.958 55.763zM113.814 69.654c2.497-1.086 5.059-1.03 7.628-0.18 0.936 0.31 1.128 0.784 0.71 1.706 -1.095 2.413-1.063 2.435-3.638 1.965 -0.539-0.098-1.072-0.221-1.614-0.09 -0.266 0.064-0.591 0.103-0.616 0.497 -0.021 0.337 0.153 0.574 0.435 0.684 0.638 0.248 1.282 0.489 1.941 0.67 0.977 0.268 1.935 0.57 2.816 1.085 3.161 1.852 3.197 6.152 0.046 8.025 -1.538 0.913-3.25 1.161-5.632 1.171 -0.695 0.01-1.978-0.168-3.189-0.71 -0.565-0.251-0.847-0.611-0.515-1.278 0.337-0.675 0.603-1.39 0.863-2.101 0.253-0.695 0.633-0.845 1.338-0.559 0.905 0.367 1.863 0.582 2.861 0.528 0.376-0.021 0.741-0.037 0.88-0.47 0.151-0.467-0.123-0.763-0.462-0.997 -0.576-0.395-1.249-0.561-1.91-0.739 -1.091-0.296-2.125-0.699-3.002-1.436C110.083 75.181 110.621 71.045 113.814 69.654zM99.299 70.841c0.798 0.035 0.736-0.406 0.702-0.954 -0.112-1.84-0.492-3.684-0.108-5.527 0.83-3.993 3.621-6.23 7.699-6.218 1.288-0.02 2.517 0.239 3.674 0.805 0.599 0.293 0.871 0.689 0.533 1.397 -0.403 0.845-0.747 1.723-1.044 2.61 -0.275 0.824-0.744 0.962-1.491 0.638 -0.325-0.14-0.693-0.211-1.048-0.244 -1.508-0.132-2.42 0.631-2.557 2.136 -0.13 1.421 0.237 2.817 0.237 4.233 0 0.469 0.299 0.498 0.667 0.461 0.866-0.085 1.736-0.134 2.6-0.236 0.715-0.084 1.106 0.168 1.168 0.912 0.084 1.011 0.199 2.02 0.29 3.03 0.057 0.654-0.348 0.914-0.915 0.975 -0.865 0.094-1.732 0.196-2.6 0.226 -0.59 0.019-0.683 0.239-0.632 0.792 0.264 2.852 0.454 5.71 0.73 8.561 0.095 0.976-0.314 1.313-1.201 1.362 -1.195 0.065-2.389 0.154-3.581 0.265 -0.755 0.07-1.055-0.298-1.111-0.994 -0.223-2.745-0.455-5.491-0.678-8.238 -0.052-0.639 0.066-1.361-1.017-1.133 -0.345 0.071-0.675-0.245-0.711-0.675 -0.091-1.119-0.174-2.241-0.26-3.361C98.611 71.187 98.846 70.822 99.299 70.841zM89.962 71.281c4.449-0.859 8.675 2.538 8.726 6.981 0.009 0.839-0.222 1.261-1.131 1.331 -2.675 0.207-5.341 0.518-8.015 0.711 -0.97 0.068-0.755 0.465-0.438 0.993 0.766 1.278 2.307 1.699 3.928 1.077 0.168-0.065 0.324-0.169 0.497-0.214 0.653-0.173 1.145-1.209 1.76-0.803 0.945 0.624 1.719 1.544 2.457 2.429 0.331 0.397 0.004 0.875-0.36 1.238 -1.63 1.621-3.616 2.332-5.88 2.351 -4.155 0.009-7.667-3.109-8.063-7.162C83.021 75.891 85.799 72.084 89.962 71.281zM66.649 62.065c0.578-0.036 1.154-0.112 1.729-0.189 0.912-0.122 1.285 0.223 1.356 1.183 0.263 3.535 0.611 7.063 0.941 10.756 2.009-1.099 4.005-1.548 6.093-0.986 3.162 0.85 4.796 3.168 5.304 6.221 0.421 2.529 0.486 5.118 0.73 7.679 0.068 0.715-0.161 1.086-0.92 1.141 -1.156 0.08-2.308 0.216-3.461 0.334 -0.711 0.074-1.06-0.191-1.12-0.951 -0.176-2.239-0.412-4.473-0.615-6.71 -0.133-1.482-1.038-2.602-2.279-2.789 -2.049-0.309-3.325 0.978-3.134 3.194 0.17 1.985 0.368 3.968 0.569 5.951 0.188 1.847 0.158 1.881-1.678 1.991 -0.941 0.056-1.881 0.131-2.816 0.239 -0.766 0.089-1.123-0.158-1.189-0.978 -0.239-3.033-0.536-6.062-0.807-9.094 -0.412-4.618-0.769-9.243-1.244-13.854C63.802 62.234 63.727 62.246 66.649 62.065zM51.765 63.001c3.725-0.648 7.189 0.048 10.312 2.274 0.798 0.569 0.95 1.083 0.273 1.845 -0.697 0.785-1.362 1.604-1.983 2.45 -0.548 0.748-1.007 0.859-1.866 0.312 -4.561-2.899-10.105-0.682-11.511 4.537 -0.92 3.417 0.481 7.084 3.402 8.905 2.833 1.766 6.641 1.437 9.268-0.895 0.715-0.634 1.179-0.62 1.82 0.032 0.736 0.748 1.557 1.413 2.34 2.116 0.935 0.839 0.949 1.047 0.108 1.922 -2.678 2.79-5.986 4.08-9.813 4.138 -6.872 0.079-12.926-5.051-13.828-12.071C39.322 71.05 44.415 64.279 51.765 63.001zM199.083 81.267c-0.957 2.452-1.944 4.892-2.894 7.347 -0.296 0.766-0.774 1.099-1.617 1.168 -7.514 0.628-15.025 1.29-22.536 1.956 -8.703 0.771-17.402 1.57-26.105 2.332 -7.909 0.692-15.821 1.343-23.731 2.027 -8.271 0.715-16.541 1.44-24.81 2.173 -7.872 0.697-15.74 1.423-23.614 2.112 -7.909 0.691-15.821 1.349-23.731 2.03 -2.238 0.192-4.475 0.419-6.996 0.657 -0.547 0.105-1.064-0.261-1.488-0.97 -1.336-2.233-2.733-4.433-4.087-6.656 -0.608-1-0.465-1.251 0.661-1.353 7.908-0.704 15.814-1.423 23.724-2.115 6.247-0.548 12.499-1.051 18.747-1.598 7.006-0.614 14.008-1.266 21.013-1.882 5.417-0.475 10.838-0.905 16.255-1.38 6.212-0.544 12.419-1.126 18.63-1.672 5.382-0.471 10.766-0.903 16.147-1.374 5.381-0.47 10.759-0.978 16.139-1.449 5.417-0.473 10.837-0.916 16.255-1.382 4.37-0.376 8.74-0.761 13.11-1.152C199.273 79.984 199.49 80.228 199.083 81.267z" fill="#010101"/><path id="barra-inferior" d="M198.155 80.086c-4.37 0.392-8.74 0.776-13.11 1.152 -5.418 0.466-10.838 0.91-16.255 1.382 -5.38 0.471-10.757 0.979-16.139 1.449 -5.381 0.471-10.765 0.902-16.147 1.374 -6.211 0.545-12.418 1.128-18.63 1.672 -5.417 0.475-10.838 0.906-16.255 1.38 -7.005 0.616-14.007 1.268-21.013 1.882 -6.248 0.547-12.5 1.05-18.747 1.598 -7.91 0.692-15.816 1.412-23.724 2.115 -1.126 0.102-1.27 0.353-0.661 1.353 1.354 2.223 2.75 4.423 4.087 6.656 0.424 0.709 0.941 1.075 1.488 0.97 2.521-0.238 4.758-0.465 6.996-0.657 7.91-0.681 15.823-1.338 23.731-2.03 7.874-0.688 15.742-1.415 23.614-2.112 8.269-0.733 16.539-1.458 24.81-2.173 7.91-0.684 15.823-1.335 23.731-2.027 8.703-0.762 17.402-1.561 26.105-2.332 7.511-0.666 15.022-1.328 22.536-1.956 0.843-0.07 1.32-0.402 1.617-1.168 0.95-2.456 1.937-4.895 2.894-7.347C199.49 80.228 199.273 79.984 198.155 80.086z" class="a"/><g id="preenchimento"><path d="M92.078 75.591c-0.324-0.188-0.664-0.261-1.031-0.242 -0.772 0.007-1.464 0.44-1.828 1.124 -0.123 0.231-0.243 0.495-0.133 0.714 0.136 0.276 0.446 0.112 0.675 0.097 0.681-0.045 1.363-0.093 2.037-0.188 0.419-0.061 1.087 0.177 1.174-0.396C93.045 76.209 92.529 75.853 92.078 75.591z" fill="#0C0D0D"/><path d="M183.854 68.069c-1.759-0.022-3.114 1.292-3.133 3.033 -0.02 1.856 1.264 3.201 3.057 3.205 1.818 0.003 3.14-1.319 3.136-3.133C186.908 69.4 185.619 68.09 183.854 68.069z" fill="#020202"/></g><path id="letra-b" d="M175.364 69.34c0.277 3.104 0.57 6.209 0.845 9.315 0.034 0.387 0.106 0.708 0.529 0.845 1.406 0.456 2.608-0.217 2.999-1.677 0.035-0.135 0.106-0.261 0.205-0.495 1.699 1.45 3.535 2.203 5.681 1.841 3.899-0.657 6.397-3.57 6.577-7.597 0.286-6.375-4.899-10.14-10.835-7.833 -0.734 0.285-0.733 0.015-0.78-0.557 -0.269-3.324-0.588-6.644-0.847-9.969 -0.061-0.771-0.406-1.019-1.116-0.946 -0.757 0.078-1.515 0.182-2.274 0.2 -2.63 0.065-2.441 0.088-2.217 2.79C174.521 59.954 174.946 64.646 175.364 69.34zM183.854 68.069c1.765 0.021 3.055 1.331 3.06 3.105 0.004 1.814-1.318 3.137-3.136 3.133 -1.793-0.004-3.077-1.349-3.057-3.205C180.739 69.361 182.095 68.047 183.854 68.069z" class="a"/><path id="letra-u" d="M162.731 80.934c2.73 0.485 5.089-0.329 7.028-2.856 0.326 1.738 1.209 2.125 2.645 1.914 1.024-0.15 1.294-0.547 1.193-1.478 -0.166-1.513-0.288-3.03-0.419-4.546 -0.239-2.744-0.468-5.489-0.713-8.231 -0.06-0.677-0.164-1.339-1.122-1.231 -1.188 0.134-2.378 0.268-3.569 0.36 -0.73 0.056-0.909 0.437-0.829 1.094 0.122 1.007 0.257 2.017 0.297 3.027 0.063 1.594 0.415 3.172 0.285 4.773 -0.094 1.164-0.853 1.997-1.927 2.188 -0.924 0.165-1.909-0.358-2.407-1.31 -0.322-0.618-0.427-1.29-0.478-1.985 -0.152-2.06-0.343-4.118-0.521-6.175 -0.061-0.701-0.308-1.174-1.151-1.072 -1.186 0.145-2.377 0.272-3.569 0.354 -0.648 0.044-0.922 0.326-0.864 0.96 0.266 2.92 0.255 5.879 0.918 8.743C158.175 78.248 159.725 80.4 162.731 80.934z" class="a"/><path id="letra-l" d="M149 71.962c0.262 2.956 0.541 5.912 0.785 8.87 0.07 0.845 0.468 1.133 1.284 1.025 1.076-0.141 2.157-0.294 3.24-0.323 1.146-0.032 1.249-0.617 1.157-1.572 -0.442-4.611-0.834-9.228-1.236-13.845 -0.309-3.535-0.604-7.07-0.907-10.605 -0.054-0.63-0.349-1.013-1.035-0.951 -1.298 0.111-2.597 0.229-3.896 0.332 -0.6 0.046-0.814 0.399-0.782 0.945 0.046 0.758 0.105 1.518 0.171 2.275C148.185 62.73 148.592 67.346 149 71.962z" class="a"/><path id="letra-c-2_1_" d="M137.307 83.294c4.034 0.167 7.513-1.238 10.336-4.186 0.642-0.67 0.65-1.195-0.086-1.795 -0.843-0.687-1.654-1.417-2.434-2.173 -0.635-0.617-1.135-0.659-1.844-0.031 -2.675 2.366-6.474 2.675-9.352 0.84 -2.836-1.807-4.219-5.498-3.316-8.85 1.398-5.198 6.992-7.431 11.529-4.547 0.847 0.538 1.311 0.479 1.865-0.319 0.599-0.861 1.271-1.678 1.977-2.454 0.703-0.772 0.527-1.262-0.281-1.823 -2.328-1.616-4.859-2.529-7.283-2.454 -1.448 0.02-2.455 0.081-3.46 0.259 -7.315 1.297-12.514 9.077-10.908 16.351C125.503 78.7 130.542 83.014 137.307 83.294z" class="a"/><path id="letra-s" d="M112.754 77.427c0.877 0.736 1.912 1.14 3.002 1.436 0.661 0.179 1.334 0.344 1.91 0.739 0.34 0.234 0.613 0.529 0.462 0.997 -0.139 0.434-0.504 0.45-0.88 0.47 -0.998 0.053-1.957-0.161-2.861-0.528 -0.705-0.286-1.085-0.137-1.338 0.559 -0.26 0.711-0.526 1.425-0.863 2.101 -0.332 0.667-0.05 1.027 0.515 1.278 1.211 0.542 2.494 0.72 3.189 0.71 2.382-0.01 4.095-0.258 5.632-1.171 3.151-1.873 3.115-6.174-0.046-8.025 -0.881-0.516-1.839-0.817-2.816-1.085 -0.659-0.181-1.303-0.422-1.941-0.67 -0.282-0.11-0.455-0.347-0.435-0.684 0.024-0.395 0.35-0.433 0.616-0.497 0.542-0.13 1.075-0.007 1.614 0.09 2.575 0.47 2.542 0.447 3.638-1.965 0.418-0.922 0.226-1.396-0.71-1.706 -2.569-0.851-5.132-0.907-7.628 0.18C110.621 71.045 110.083 75.181 112.754 77.427z" class="a"/><path id="letra-f" d="M99.618 75.7c1.083-0.228 0.964 0.494 1.017 1.133 0.223 2.747 0.455 5.493 0.678 8.238 0.056 0.696 0.355 1.064 1.111 0.994 1.191-0.111 2.386-0.2 3.581-0.265 0.887-0.048 1.296-0.386 1.201-1.362 -0.277-2.851-0.466-5.709-0.73-8.561 -0.051-0.552 0.042-0.772 0.632-0.792 0.868-0.03 1.734-0.132 2.6-0.226 0.567-0.061 0.972-0.321 0.915-0.975 -0.09-1.011-0.206-2.02-0.29-3.03 -0.062-0.743-0.454-0.996-1.168-0.912 -0.864 0.102-1.734 0.15-2.6 0.236 -0.368 0.037-0.667 0.008-0.667-0.461 0-1.416-0.367-2.812-0.237-4.233 0.137-1.505 1.049-2.269 2.557-2.136 0.355 0.033 0.723 0.104 1.048 0.244 0.747 0.324 1.215 0.186 1.491-0.638 0.297-0.887 0.642-1.765 1.044-2.61 0.338-0.708 0.066-1.104-0.533-1.397 -1.157-0.565-2.386-0.825-3.674-0.805 -4.079-0.012-6.869 2.225-7.699 6.218 -0.384 1.843-0.004 3.687 0.108 5.527 0.034 0.547 0.096 0.988-0.702 0.954 -0.453-0.019-0.688 0.346-0.652 0.824 0.086 1.12 0.169 2.242 0.26 3.361C98.943 75.455 99.273 75.771 99.618 75.7z" class="a"/><path id="letra-e" d="M91.506 87.375c2.264-0.019 4.25-0.73 5.88-2.351 0.364-0.362 0.691-0.841 0.36-1.238 -0.738-0.885-1.512-1.806-2.457-2.429 -0.616-0.406-1.107 0.63-1.76 0.803 -0.173 0.045-0.329 0.148-0.497 0.214 -1.621 0.622-3.162 0.201-3.928-1.077 -0.317-0.528-0.532-0.924 0.438-0.993 2.674-0.193 5.34-0.505 8.015-0.711 0.909-0.07 1.14-0.492 1.131-1.331 -0.051-4.443-4.277-7.84-8.726-6.981 -4.164 0.804-6.941 4.61-6.519 8.932C83.839 84.266 87.351 87.384 91.506 87.375zM89.219 76.473c0.364-0.684 1.055-1.117 1.828-1.124 0.367-0.019 0.707 0.054 1.031 0.242 0.451 0.262 0.967 0.618 0.894 1.109 -0.087 0.573-0.754 0.335-1.174 0.396 -0.674 0.096-1.356 0.144-2.037 0.188 -0.229 0.015-0.539 0.179-0.675-0.097C88.977 76.967 89.097 76.704 89.219 76.473z" class="a"/><path id="letra-h" d="M65.352 79.057c0.271 3.032 0.567 6.061 0.807 9.094 0.066 0.82 0.423 1.066 1.189 0.978 0.935-0.108 1.875-0.184 2.816-0.239 1.835-0.109 1.865-0.144 1.678-1.991 -0.201-1.983-0.399-3.966-0.569-5.951 -0.191-2.217 1.085-3.503 3.134-3.194 1.242 0.188 2.146 1.307 2.279 2.789 0.203 2.237 0.439 4.471 0.615 6.71 0.06 0.76 0.409 1.025 1.12 0.951 1.153-0.118 2.306-0.254 3.461-0.334 0.759-0.054 0.988-0.426 0.92-1.141 -0.244-2.561-0.31-5.15-0.73-7.679 -0.508-3.053-2.142-5.372-5.304-6.221 -2.087-0.562-4.083-0.113-6.093 0.986 -0.33-3.693-0.678-7.221-0.941-10.756 -0.071-0.96-0.444-1.305-1.356-1.183 -0.575 0.077-1.151 0.154-1.729 0.189 -2.922 0.181-2.847 0.168-2.541 3.137C64.583 69.814 64.939 74.439 65.352 79.057z" class="a"/><path id="letra-c-1" d="M54.116 90.637c3.827-0.059 7.135-1.349 9.813-4.138 0.841-0.875 0.827-1.083-0.108-1.922 -0.783-0.703-1.604-1.368-2.34-2.116 -0.641-0.651-1.105-0.666-1.82-0.032 -2.627 2.331-6.435 2.66-9.268 0.895 -2.921-1.821-4.322-5.488-3.402-8.905 1.405-5.219 6.95-7.437 11.511-4.537 0.859 0.547 1.318 0.436 1.866-0.312 0.621-0.846 1.286-1.665 1.983-2.45 0.677-0.762 0.525-1.276-0.273-1.845 -3.123-2.226-6.587-2.922-10.312-2.274 -7.35 1.278-12.443 8.049-11.477 15.565C41.19 85.586 47.244 90.716 54.116 90.637z" class="a"/></svg>