<svg id="vivala-icon-parceiros-clickbus" xmlns="http://www.w3.org/2000/svg" width="542" height="162" viewBox="0 0 542.486 162.332"><style>.a{fill:#FDB52C;}</style><path id="letra-s" d="M531.866 111.687c-3.288-1.583-6.72-2.876-9.967-4.535 -3.237-1.653-5.089-4.249-4.23-8.125 0.839-3.789 3.596-5.474 7.093-6.056 3.73-0.62 7.301 0.333 10.637 1.935 1.929 0.926 2.742 0.725 3.661-1.397 1.603-3.703 1.093-5.831-3.145-6.777 -2.776-0.62-5.518-1.181-8.367-1.202 -1.66 0.089-3.335 0.068-4.978 0.285 -9.371 1.241-15.661 8.719-14.659 17.514 0.754 6.607 5.498 9.916 10.848 12.629 3.399 1.724 7.2 2.583 10.362 4.836 2.682 1.911 3.979 4.526 3.525 7.735 -0.454 3.213-2.414 5.334-5.558 6.414 -5.242 1.8-10.159 0.479-15.044-1.367 -1.646-0.622-3.515-2.809-4.344 0.908 -0.563 2.531-2.895 5.128 1.623 6.623 5.95 1.969 11.866 2.928 18.113 1.785 8.495-1.555 13.74-6.354 14.833-13.897C543.402 121.183 540.116 115.656 531.866 111.687z" class="a"/><path id="letra-u" d="M493.338 91.489c0.01-4.157-1.391-4.921-5.112-4.867 -3.559 0.052-5.347 0.461-5.196 4.789 0.349 9.978 0.235 19.98 0.041 29.967 -0.147 7.574-5.871 13.211-13.263 13.552 -7.478 0.344-11.805-3.742-12.745-12.249 -0.292-2.639-0.243-5.321-0.253-7.983 -0.03-8.326-0.117-16.653 0.029-24.977 0.072-4.083-2.797-3.024-4.823-2.898 -2.062 0.128-5.445-1.66-5.394 2.813 0.137 11.985-0.182 23.994 0.481 35.949 0.601 10.832 7.187 17.278 17.309 17.822 7.788 0.418 14.258-2.609 19.59-9.805 0.357 2.529 0.676 3.989 0.751 5.462 0.259 5.078 4.1 2.446 6.372 2.878 2.792 0.53 2.696-1.56 2.568-3.516C492.671 122.79 493.304 107.133 493.338 91.489z" class="a"/><path id="letra-b" d="M422.599 102.416c-1.146-0.582-2.655-0.631-3.415-2.146 8.237-4.298 13.29-10.677 11.471-20.414 -1.659-8.878-8.366-12.956-16.484-14.627 -8.723-1.796-17.557-0.982-26.344 0.102 -2.325 0.287-2.924 1.352-2.917 3.597 0.075 23.322 0.048 46.644 0.041 69.966 0 1.54-0.105 3.011 2.079 3.205 12.154 1.08 24.395 2.161 35.778-3.484 7.489-3.715 11.186-10.33 11.063-18.719C433.752 111.834 429.779 106.059 422.599 102.416zM398.155 72.181c4.855-0.532 9.651-0.4 14.333 1.005 4.748 1.424 7.646 4.662 8.266 9.61 0.638 5.096-1.359 9.152-5.653 11.918 -4.073 2.625-8.694 3.132-12.7 2.968 -8.378-0.129-7.263 0.952-7.348-6.605 -0.056-4.992 0.112-9.99-0.062-14.977C394.906 73.652 395.628 72.457 398.155 72.181zM414.853 132.901c-5.69 2.541-11.684 1.989-17.646 1.856 -2.196-0.049-2.166-1.562-2.162-3.112 0.009-3.984 0.003-7.968 0.001-11.952 -0.001-2.324-0.001-4.648-0.001-6.972 0-7.807 0-7.833 8.037-7.67 4.167 0.084 8.287 0.57 12.103 2.398 5.48 2.625 8.2 6.925 8.067 13.104C423.122 126.564 420.215 130.507 414.853 132.901z" class="a"/><path id="letra-k" d="M355.659 112.721c-1.904-2.448-1.965-3.943 0.292-6.206 6.117-6.129 11.962-12.529 18.319-19.248 -7.643-1.629-13.267-0.631-17.758 5.942 -4.327 6.332-9.91 11.806-15.478 18.279 0-15.671-0.207-30.473 0.122-45.264 0.103-4.631-1.242-6.334-5.697-5.498 -1.773 0.333-4.538-1.357-4.526 2.583 0.074 25.33 0.071 50.66 0.007 75.99 -0.012 4.636 3.354 2.606 5.321 2.732 1.892 0.121 4.992 1.487 4.81-2.742 -0.18-4.158 0.334-8.373-0.133-12.486 -0.571-5.023 1.768-8.124 5.583-10.864 4.603 6.468 9.68 12.533 13.524 19.299 4.04 7.11 9.616 8.011 17.033 6.371 -1.015-1.485-1.872-2.838-2.826-4.12C368.086 129.21 361.997 120.869 355.659 112.721z"/><path id="letra-c-2" d="M313.023 133.81c-12.204 4.047-22.952-1.153-26.039-12.099 -2.355-8.351-1.432-16.347 4.831-22.752 6.15-6.29 13.968-6.409 21.839-4.07 2.827 0.84 3.802 0.775 4.775-2.373 1.131-3.659 0.324-5.05-3.239-5.862 -3.276-0.746-6.547-1.068-9.332-1.158 -13.552 0.009-23.388 6.119-27.945 17.024 -4.774 11.424-2.43 25.623 5.527 33.486 7.645 7.555 22.318 9.837 33.202 5.292 1.816-0.758 2.604-1.561 2.24-3.653C318.268 134.122 317.616 132.286 313.023 133.81z"/><path id="letra-i" d="M257.826 86.73c-2.458-0.015-5.347-1.068-5.14 3.567 0.357 7.979 0.099 15.985 0.099 23.98 0 8.161 0.205 16.33-0.083 24.481 -0.151 4.282 2.548 3.463 4.866 3.341 2.296-0.12 5.465 1.422 5.409-3.347 -0.191-16.153-0.233-32.313 0.03-48.465C263.084 85.636 260.269 86.746 257.826 86.73z"/><path id="acento-i" d="M257.628 63.771c-4.054 0.077-7.3 3.413-7.206 7.407 0.092 3.922 3.629 7.364 7.463 7.263 4.008-0.106 7.196-3.456 7.142-7.502C264.973 66.917 261.646 63.694 257.628 63.771z" fill="#FDB62D"/><path id="letra-l" d="M230.843 60.686c-2.897-0.016-5.303-0.479-5.164 4.106 0.37 12.152 0.125 24.322 0.125 36.485 0 12.329 0.193 24.663-0.106 36.985 -0.103 4.233 2.08 4.038 4.899 3.898 2.679-0.132 5.48 0.927 5.433-3.913 -0.24-24.49-0.248-48.984 0.011-73.474C236.09 60.169 233.709 60.701 230.843 60.686z"/><path id="letra-c-1" d="M206.889 133.255c-20.24 5.719-36.806-3.05-40.537-21.565 -0.993-4.929-0.914-9.986-0.175-14.927 2.064-13.801 10.805-22.229 24.565-24.337 5.916-0.906 11.72-0.417 17.197 1.615 3.296 1.223 4.042 0.065 4.675-2.611 0.594-2.509 2.101-4.887-2.215-5.885 -4.736-1.096-9.436-1.915-14.287-1.839 -4.689-0.168-9.286 0.36-13.799 1.699 -19.703 5.845-30.763 25.252-26.848 46.888 2.279 12.595 8.312 22.389 20.333 27.675 11.534 5.071 23.326 4.357 35.125 0.871 1.199-0.354 2.507-0.439 2.496-2.415C213.391 133.557 211.496 131.953 206.889 133.255z"/><path id="onibus" d="M154.5 47.688c-1.54-5.489-4.248-10.438-7.045-15.368 -2.251-3.967-5.168-7.003-9.784-7.768 -5.514-0.914-8.503-3.849-9.663-9.45 -1.771-8.559-7.443-12.595-16.184-13.499 -11.295-1.168-22.573-1.701-34.866-1.382C68.576-0.369 59.263 0.35 49.951 0.873c-10.66 0.599-20.543 2.644-22.802 15.463 -0.825 4.678-3.526 6.38-7.761 7.573C10.105 26.524-0.416 41.898 0.013 51.514c0.164 3.674 4.695 8.99 8.015 9.155 4.787 0.239 5.002-3.873 5.725-6.861 1.442-5.969 2.367-12.064 3.43-18.121 0.345-1.966 1.158-2.881 3.329-2.669 2.573 0.25 1.728 1.859 1.577 3.253 -0.09 0.827-0.203 1.654-0.35 2.473 -5.497 30.606-5.587 61.256-0.882 91.966 0.45 2.938 1.156 6.127 3.708 7.288 5.67 2.578 5.393 7.144 5.175 11.974 -0.06 1.324-0.012 2.678 0.196 3.985 0.751 4.693 4.966 8.248 9.808 8.373 4.986 0.128 9.566-3.521 10.285-8.4 0.289-1.963 0.375-4.011 0.167-5.979 -0.351-3.311 0.901-4.217 4.184-4.171 13.66 0.19 27.324 0.115 40.987 0.099 8.206-0.01 8.205-0.041 8.937 8.245 0.044 0.496 0.091 0.996 0.186 1.484 1.036 5.322 5.412 8.91 10.602 8.702 5.417-0.217 9.573-4.359 9.89-9.969 0.122-2.16 0.176-4.342 0.005-6.494 -0.219-2.746 0.368-4.586 3.269-5.786 3.974-1.643 6.002-5.061 6.635-9.319 4.642-31.221 4.414-62.38-1.057-93.49 -0.247-1.402-2.34-3.688 1.084-4.173 3.176-0.45 2.729 2.104 3.08 3.966 1.048 5.554 1.905 11.155 3.253 16.636 0.671 2.729 0.839 6.41 4.664 6.935 3.679 0.505 5.568-2.438 7.583-4.867C155.539 53.283 155.287 50.492 154.5 47.688zM63.83 7.789c9.793 0.063 19.587 0.079 29.38-0.008 3.117-0.028 3.931 1.417 3.913 4.294 -0.018 2.844-1.154 3.82-3.878 3.758 -4.977-0.112-9.959-0.032-14.938-0.032 -4.814 0-9.629-0.068-14.441 0.026 -2.655 0.052-3.948-0.841-3.981-3.713C59.852 9.231 60.758 7.769 63.83 7.789zM54.518 129.466c-0.81 1.898-2.856 1.17-5.495 1.423 -5.179-0.911-11.352-2.052-17.547-3.053 -1.999-0.323-2.879-1.685-3.294-3.269 -0.54-2.061-0.904-4.226-0.936-6.353 -0.096-6.432 0.756-7.058 6.646-4.979 7.067 2.494 13.801 5.624 18.91 11.36C53.985 125.921 55.325 127.575 54.518 129.466zM128.367 118.649c-0.089 7.36-1.232 8.771-8.533 10.032 -4.587 0.792-9.194 1.509-13.818 2.019 -1.683 0.186-4.011 0.851-4.865-1.348 -0.729-1.878 0.669-3.528 1.871-4.903 3.698-4.23 8.519-6.855 13.542-9.14 1.509-0.687 3.075-1.258 4.64-1.809C127.991 111.11 128.455 111.451 128.367 118.649zM114.48 95.782c-12.162 0.087-24.325 0.02-36.488 0.02 0-0.052 0-0.104 0-0.156 -12.329 0-24.662 0.177-36.986-0.051 -11.797-0.218-16.403-4.981-15.864-16.801 0.645-14.141 2.378-28.198 5.729-41.979 2.115-8.699 4.808-11.234 13.714-11.791 21.634-1.352 43.306-1.161 64.93 0.192 9.906 0.62 13.597 4.476 15.616 14.418 2.685 13.224 4.762 26.546 4.994 40.07C130.311 90.614 125.318 95.704 114.48 95.782z"/></svg>