<svg id="vivala-icon-parceiros-decolar" xmlns="http://www.w3.org/2000/svg" width="542.378" height="153.364" viewBox="0 0 542.378 153.364"><style>.a{fill:#E32026;}.b{fill:#E32126;}.c{fill:#1E4693;}</style><path id="letra-m" d="M542.343 90.393c-0.33-6.656-3.864-10.798-9.628-10.748 -2.736 0.024-5.435 0.523-8 1.612 -5.151 2.188-8.893 5.99-12.154 10.383 -0.503 0.678-0.713 1.73-1.875 1.823 0.477-2.762 0.162-5.419-0.77-7.985 -1.485-4.081-4.785-6.098-9.114-5.788 -4.723 0.338-8.803 2.156-12.471 5.077 -3.121 2.485-5.588 5.581-8.454 8.452 0.111-0.819 0.233-1.636 0.334-2.455 0.363-2.965 0.874-5.918 0.7-8.926 -0.094-1.609-0.619-2.429-2.494-1.973 -3.384 0.819-6.817 1.437-10.228 2.146 -0.906 0.19-1.604 0.349-1.666 1.661 -0.667 13.805-3.564 27.305-5.77 40.896 -1.174 7.235-1.359 7.205 6.002 6.266 6.402-0.818 7.339-1.724 8.756-8.131 1.398-6.326 3.133-12.565 5.992-18.402 2.272-4.64 4.796-9.194 9.602-11.759 3.782-2.019 6.013-0.627 5.765 3.667 -0.19 3.307-0.617 6.619-1.2 9.882 -1.401 7.839-2.904 15.66-4.491 23.461 -0.329 1.612 0.043 1.854 1.513 1.646 2.463-0.35 4.969-0.412 7.413-0.835 5.012-0.871 5.823-1.789 6.754-6.835 1.117-6.046 2.658-11.98 5.089-17.642 2.012-4.684 4.435-9.14 8.619-12.288 1.706-1.282 3.721-2.794 5.874-1.536 2.241 1.309 1.639 3.839 1.295 5.921 -0.782 4.744-1.795 9.451-2.658 14.184 -1.043 5.716-2.065 11.433-2.005 17.286 0.018 1.681 0.512 2.415 2.298 2.23 3.3-0.341 6.612-0.538 9.867-1.262 1.437-0.319 2.16-0.811 2.264-2.546 0.406-6.798 1.65-13.498 2.666-20.226C541.03 101.921 542.635 96.29 542.343 90.393z" class="a"/><path id="letra-o-2" d="M440.266 80.329c-8.864-1.78-17.221-0.224-24.372 5.604 -8.141 6.634-10.943 15.702-11.191 25.819 0 0.748-0.021 1.496 0.003 2.243 0.292 8.85 4.445 14.983 11.788 16.761 7.947 1.924 15.671 1.145 22.839-3.062 10.14-5.95 16.083-19.196 14.325-31.774C452.437 87.164 448.2 81.922 440.266 80.329zM434.109 116.525c-1.017 1.749-2.287 3.28-4.033 4.334 -4.038 2.438-7.837 0.88-8.999-3.7 -0.896-3.536-0.52-7.092-0.029-10.643 0.524-3.803 1.464-7.48 3.262-10.899 0.775-1.477 1.701-2.844 2.932-3.998 2.014-1.889 4.366-2.893 7.048-1.988 2.591 0.874 3.435 3.224 3.776 5.699 0.214 1.555 0.207 3.144 0.256 3.972C437.997 105.823 437.071 111.432 434.109 116.525z" class="a"/><path id="letra-c-2" d="M394.817 91.258c0.485 0.157 0.939 0.286 1.444 0.103 1.59-0.579 4.006-5.066 3.928-7.459 -0.081-2.436-2.256-2.717-3.842-3.198 -5.827-1.769-11.656-1.268-17.35 0.696 -16.413 5.664-22.421 24.029-19.454 37.716 1.038 4.787 3.413 8.602 7.947 10.808 7.927 3.856 21.842 1.25 27.794-5.252 2.308-2.521 2.983-5.479 1.856-8.771 -0.538-1.568-1.247-2.125-2.757-0.788 -1.867 1.65-4.034 2.901-6.342 3.871 -9.073 3.813-13.983 0.539-13.938-9.6 -0.084-1.867 0.213-4.012 0.745-6.104C377.062 94.577 383.144 87.495 394.817 91.258z" class="a"/><path id="barra-inferior" d="M342.471 123.431c-3.248 0.75-6.401 0.188-9.679-0.818 0.333 10.661 3.092 20.517 7.937 29.83 0.295 0.568 0.621 0.925 1.306 0.922 3.264-0.015 6.528-0.006 10.162-0.006 -5.025-9.32-7.856-18.845-8.435-28.996C343.706 123.415 343.25 123.25 342.471 123.431z" class="b"/><path id="sinal-ponto" d="M338.308 114.945c5.211 0.009 8.72-3.758 8.697-9.338 -0.021-4.845-2.877-8.025-7.218-8.036 -5.392-0.012-9.052 3.926-9.006 9.689C330.82 111.974 333.721 114.937 338.308 114.945z" class="b"/><path id="barra-superior" d="M338.071 90.095c2.44-0.172 4.831 0.206 7.042 1.223 1.367 0.628 1.677-0.032 2.019-1.088 3.302-10.193 6.951-20.224 14.385-29.25 -3.66 0-6.556 0.025-9.45-0.014 -0.975-0.014-1.671 0.211-2.327 1.042 -6.28 7.943-10.317 16.944-12.82 26.698C336.619 89.883 336.945 90.175 338.071 90.095z" class="a"/><path id="aviao" d="M399.517 24.864c-0.295-1.552 0.166-2.434 1.136-3.48 3.842-4.146 7.542-8.432 10.207-13.453 1.129-2.127 2.96-4.673 0.833-6.866 -2.089-2.158-4.672-0.541-6.896 0.516 -5.303 2.517-9.796 6.219-14.195 10.018 -1.139 0.985-2.145 1.202-3.584 0.875 -9.705-2.192-19.429-4.298-29.146-6.442 -0.719-0.159-1.389-0.516-2.131 0.01 -1.846 1.31-3.725 2.574-5.906 4.073 9.681 4.545 18.948 8.896 28.427 13.346 -3.631 4.416-7.462 8.493-10.594 13.051 -3.094 4.504-6.586 6.935-12.108 5.081 -2.318-0.778-3.699 0.521-5.114 2.046 -0.826 0.891-0.71 1.237 0.313 1.747 2.67 1.332 5.263 2.819 7.953 4.107 1.274 0.611 2.121 1.416 2.701 2.713 1.217 2.721 2.549 5.394 3.911 8.046 0.217 0.424 0.327 1.752 1.201 0.942 1.416-1.311 3.67-2.216 2.926-4.936 -0.301-1.1-0.016-2.358-0.315-3.458 -0.901-3.311 0.548-5.24 3.197-7.096 5.426-3.803 10.612-7.943 16.046-12.057 4.062 8.847 8.024 17.475 12.206 26.582 1.589-3.194 4.681-4.924 3.736-9.185C402.399 42.39 401.172 33.582 399.517 24.864z" class="c"/><path id="letra-r" d="M321.24 79.539c-0.646-0.019-1.313 0.162-1.95 0.327 -5.101 1.32-8.3 4.961-11.035 9.134 -0.973 1.481-1.829 3.041-2.738 4.564 0.035-4.185 0.251-8.129-0.096-12.105 -0.144-1.649-0.746-2.216-2.352-1.853 -2.994 0.677-5.998 1.314-9.002 1.938 -1.288 0.268-1.873 0.786-1.838 2.314 0.113 5.236-0.492 10.436-1.178 15.624 -1.262 9.543-2.692 19.06-4.537 28.51 -0.198 1.011-0.301 1.832 1.185 1.69 3.47-0.334 6.937-0.634 10.321-1.565 2.27-0.624 3.404-2.053 3.853-4.345 0.716-3.659 1.495-7.319 2.505-10.906 1.645-5.845 3.622-11.584 7.72-16.268 1.886-2.155 4.076-3.557 7.221-2.71 3.996 1.076 4.14 0.974 5.869-2.835 0.716-1.576 1.237-3.253 1.715-4.922C328.307 81.225 327.043 79.709 321.24 79.539z" class="c"/><path id="letra-a" d="M279.304 81.628c-7.982-1.799-15.989-3.023-24.171-1.427 -20.948 4.088-28.72 27.851-24.297 42.321 1.61 5.268 5.079 7.811 10.027 7.64 3.179-0.109 6.215-0.858 9.13-2.189 4.473-2.042 7.966-5.265 11.435-9.571 0 3.721 0.01 6.69-0.005 9.66 -0.007 1.38 0.425 2.256 2.022 2.104 3.137-0.301 6.274-0.533 9.368-1.228 1.628-0.365 2.351-1.012 2.21-2.82 -0.3-3.819 0.162-7.624 0.653-11.413 1.355-10.45 2.7-20.903 4.675-31.26C280.532 82.5 280.405 81.876 279.304 81.628zM265.328 90.814c-1.232 7.864-3.372 15.364-8.444 21.723 -1.718 2.153-3.681 4.051-6.222 5.234 -3.434 1.599-5.611 0.419-6.154-3.371 -0.153-1.061-0.113-2.149-0.186-3.76 0.402-6.528 2.18-13.037 7.439-18.135 3.436-3.33 7.6-4.145 12.189-3.221C264.773 89.451 265.526 89.551 265.328 90.814z" class="c"/><path id="letra-l" d="M224.033 54.833c-3.055 0.319-6.094 0.8-9.153 1.058 -1.527 0.128-2.154 0.729-2.286 2.26 -0.229 2.645-0.683 5.27-0.99 7.909 -2.397 20.623-5.574 41.135-8.834 61.633 -0.283 1.776 0.132 2.293 1.605 1.983 3.279-0.158 6.302-0.659 9.302-1.37 2.692-0.637 4.026-2.293 4.41-5.014 2.251-15.948 4.59-31.885 6.841-47.833 0.822-5.837 1.507-11.694 2.209-17.548C227.483 55.026 226.973 54.527 224.033 54.833z" class="c"/><path id="letra-o-1" d="M184.592 80.313c-10.291-2.928-22.354 0.867-28.914 9.268 -6.062 7.762-7.767 16.693-6.541 26.293 0.969 7.588 5.144 12.192 12.651 13.712 6.164 1.25 12.296 0.798 17.999-1.919 11.923-5.682 16.442-15.898 16.787-28.469 0-1.244 0.086-2.496-0.014-3.732C195.945 87.853 191.53 82.286 184.592 80.313zM181.593 98.71c-0.291 5.325-1.001 10.557-3.447 15.406 -1.062 2.104-2.375 4.011-4.376 5.315 -4.057 2.647-8.051 1.035-9.085-3.684 -1.021-4.658-0.225-9.249 0.729-13.808 0.615-2.936 1.643-5.731 3.252-8.285 0.984-1.563 2.184-2.919 3.81-3.856 3.657-2.106 7.269-0.765 8.513 3.244C181.557 94.873 181.745 96.782 181.593 98.71z" class="c"/><path id="letra-c-1" d="M139.1 90.695c0.48 0.149 0.913 0.35 1.433 0.16 1.503-0.551 3.913-4.912 3.884-7.236 -0.029-2.345-2.083-2.658-3.635-3.107 -7.276-2.105-14.363-1.271-20.948 2.337 -10.433 5.716-14.811 15.16-15.842 27.409 -0.24 0.936 0.156 2.67 0.268 4.4 0.603 9.375 5.892 14.905 15.237 15.429 7.34 0.413 14.208-1.215 19.771-6.455 2.532-2.383 3.192-5.372 2.216-8.66 -0.453-1.527-1.092-2.404-2.89-0.902 -3.212 2.685-6.885 4.578-11.15 5.116 -3.865 0.489-6.603-1.188-7.808-4.941 -1.042-3.248-0.92-6.563-0.345-9.852C120.888 95.264 126.648 86.848 139.1 90.695z" class="c"/><path id="letra-e" d="M74.484 109.866c7.294-0.561 14.26-2.452 19.921-7.426 4.44-3.901 6.001-8.906 4.416-14.63 -1.483-5.354-5.681-7.601-10.77-8.18 -7.764-0.883-14.686 1.365-20.292 6.831 -8.009 7.808-11.189 17.506-9.998 28.528 1.157 10.719 7.542 15.875 19.525 15.085 5.267-0.221 11.324-1.822 16.26-6.467 2.645-2.49 3.035-5.585 2.461-8.927 -0.271-1.584-0.782-2.355-2.532-0.996 -4.279 3.325-9.048 5.538-14.645 5.325 -3.855-0.147-6.151-2.197-6.825-5.951C71.641 111.029 71.923 110.063 74.484 109.866zM72.813 100.089c1.188-4.71 3.05-8.972 7.842-11.155 0.374-0.169 0.771-0.306 1.171-0.394 0.402-0.089 0.822-0.098 1.024-0.12 3.128 0.016 4.843 2.384 4.056 5.241 -0.777 2.821-2.841 4.374-5.318 5.546 -2.353 1.114-4.842 1.68-7.428 1.891C73.367 101.163 72.502 101.321 72.813 100.089z" class="c"/><path id="letra-d" d="M52.848 54.781c-2.373 0.377-4.781 0.537-7.174 0.796 -4.435 0.48-4.423 0.482-4.795 4.835 -0.113 1.323-0.295 2.641-0.48 3.956 -0.778 5.537-1.53 11.078-2.774 16.699 -4.149-1.857-8.292-1.969-12.421-1.28C12.463 81.914 5.308 90.115 1.478 101.881c-0.496 1.526-0.312 3.275-1.478 4.582 0 3.991 0 7.983 0 11.975 0.931 0.952 0.775 2.285 1.171 3.424 2.167 6.242 6.175 8.828 12.755 8.134 6.896-0.726 12.364-4 16.672-9.344 0.523-0.65 1.047-1.299 1.891-2.344 -0.309 3.72-0.494 6.864-0.087 10.012 0.143 1.101 0.383 1.968 1.766 1.854 3.39-0.279 6.773-0.557 10.102-1.334 1.401-0.328 1.731-1.064 1.756-2.444 0.061-3.564 0.066-7.166 0.577-10.683 2.074-14.284 4.333-28.542 6.516-42.81 0.79-5.165 1.574-10.331 2.334-15.5C55.745 55.416 55.078 54.426 52.848 54.781zM35.928 93.894c-1.22 7.332-3.726 14.093-8.796 19.706 -1.571 1.741-3.344 3.243-5.484 4.228 -3.205 1.474-5.253 0.488-6.251-2.874 -0.433-1.458-0.435-2.946-0.511-4.523 0.24-5.937 1.646-11.599 5.544-16.352 3.251-3.963 7.443-5.738 12.598-4.586C36.051 90.168 36.439 90.818 35.928 93.894z" class="c"/></svg>