<?xml version="1.0" encoding="utf-8"?>
<!-- Generator: Adobe Illustrator 16.0.0, SVG Export Plug-In . SVG Version: 6.00 Build 0)  -->
<!DOCTYPE svg PUBLIC "-//W3C//DTD SVG 1.1//EN" "http://www.w3.org/Graphics/SVG/1.1/DTD/svg11.dtd">
<svg version="1.1" id="Layer_1" xmlns="http://www.w3.org/2000/svg" xmlns:xlink="http://www.w3.org/1999/xlink" x="0px" y="0px"
	 width="169.25px" height="110.208px" viewBox="0 0 169.25 110.208" enable-background="new 0 0 169.25 110.208"
	 xml:space="preserve">
<g>
	<path fill-rule="evenodd" clip-rule="evenodd" fill="#FE8000" d="M84.656,110.032c-24.995,0-49.991,0.006-74.986-0.004
		c-6.856-0.003-9.517-2.674-9.519-9.562c-0.01-29.161,0.214-58.325-0.147-87.482C-0.095,4.986,1.596,0.144,13.013,0.087
		C44.84-0.07,76.668,0.033,108.496,0.033c15.997,0,31.994,0.047,47.992-0.02c8.512-0.035,12.848,3.894,12.762,12.81
		c-0.279,28.825-0.173,57.656-0.057,86.483c0.027,6.56-3.228,11.034-10.553,10.898C133.986,109.75,109.318,110.032,84.656,110.032z"
		/>
	<path fill-rule="evenodd" clip-rule="evenodd" fill="#FEFEFE" d="M116.031,86.032c-8.166,0-16.334-0.075-24.498,0.045
		c-2.463,0.036-3.364-0.529-3.49-3.259c-0.604-13.057,6.832-21.539,19.975-20.866c6.65,0.34,13.364-0.367,19.989,0.156
		c12.849,1.016,17.295,11.789,16.093,22.432c-0.27,2.379-2.299,1.436-3.57,1.448C132.364,86.074,124.197,86.032,116.031,86.032z"/>
	<path fill-rule="evenodd" clip-rule="evenodd" fill="#FEFEFE" d="M132.157,39.412c0,9.159-7.234,16.816-15.698,16.616
		c-9.615-0.227-15.786-7.276-16.496-17.018c-0.605-8.31,9.402-16.48,16.398-16.093C125.373,23.417,132.158,30.106,132.157,39.412z"
		/>
	<path fill-rule="evenodd" clip-rule="evenodd" fill="#FEFEFE" d="M49.594,28.032c9.802,0,19.605,0.111,29.404-0.065
		c3.097-0.056,4.33,0.58,4.242,4.021c-0.184,7.039,0.035,7.045-7.126,7.045c-18.607,0-37.218-0.214-55.818,0.139
		c-5.116,0.098-4.149-2.749-4.138-5.587c0.011-2.786-1.094-5.884,4.036-5.67C29.978,28.321,39.792,28.032,49.594,28.032z"/>
	<path fill-rule="evenodd" clip-rule="evenodd" fill="#FEFEFE" d="M39.396,61.032c-6.472,0-12.949-0.156-19.414,0.068
		c-3.018,0.105-4.324-0.68-3.872-3.833c0.21-1.464,0.153-2.993,0.011-4.473c-0.214-2.232,0.757-2.81,2.867-2.798
		c13.773,0.072,27.547,0.072,41.32-0.001c2.118-0.011,3.063,0.579,2.864,2.804c-0.147,1.646-0.183,3.334,0.007,4.972
		c0.312,2.693-0.814,3.373-3.375,3.313C53.005,60.926,46.199,61.031,39.396,61.032z"/>
	<path fill-rule="evenodd" clip-rule="evenodd" fill="#FEFEFE" d="M27.523,80.032c-1.82,0-3.689-0.271-5.45,0.051
		c-5.25,0.962-6.3-1.395-6.077-6.178c0.17-3.645,0.702-5.317,4.833-4.967c4.763,0.403,9.602,0.326,14.379,0.016
		c3.44-0.223,4.376,1.132,3.958,4.215c-0.132,0.975-0.131,1.998,0,2.973c0.39,2.891-0.455,4.306-3.71,3.948
		C32.841,79.802,30.169,80.032,27.523,80.032z"/>
</g>
</svg>
