<?xml version="1.0" encoding="utf-8"?>
<!-- Generator: Adobe Illustrator 16.0.0, SVG Export Plug-In . SVG Version: 6.00 Build 0)  -->
<!DOCTYPE svg PUBLIC "-//W3C//DTD SVG 1.1//EN" "http://www.w3.org/Graphics/SVG/1.1/DTD/svg11.dtd">
<svg version="1.1" id="Layer_1" xmlns="http://www.w3.org/2000/svg" xmlns:xlink="http://www.w3.org/1999/xlink" x="0px" y="0px"
	 width="332.521px" height="279.308px" viewBox="0 0 332.521 279.308" enable-background="new 0 0 332.521 279.308"
	 xml:space="preserve">
<g>
	<path fill-rule="evenodd" clip-rule="evenodd" fill="#FE7F00" d="M164.257,51.35c6.031-4.221,10.142-10.491,15.952-14.946
		c0.408-0.325,0.811-0.318,1.21,0.017c1.597,2.215,2.699,4.925,6.05,5.996c-0.375-2.433-2.194-3.493-3.266-5.007
		c-0.602-1.055-2.556-1.165-2.105-2.965c11.021-11.061,22.104-22.063,33.01-33.238c1.926-1.973,2.642-1.277,4.138,0.313
		c7.179,7.63,14.378,15.251,21.835,22.606c2.387,2.353,2.487,3.854,0.447,6.414c-6.235,7.823-3.082,16.198,0.615,23.331
		c3.556,6.86,11.074,10.071,18.816,10.19c4.091,0.063,8.551-1.265,12.239-3.561c2.177-1.355,3.431-1.054,5.087,0.676
		c2.75,2.873,5.744,5.514,8.635,8.252c0.609,2.497-1.401,3.548-2.811,4.791c-22.063,19.468-42.062,40.905-60.875,63.491
		c-9.035,10.848-17.755,21.937-26.213,33.237c-1.221,1.631-2.199,3.886-4.952,3.454c-0.682-0.552-1.022-1.292-1.237-2.118
		c-0.763-17.656-0.256-35.317-0.313-52.974c-0.056-16.847,0.32-14.167-14.236-14.479c-14.489-0.311-28.992-0.227-43.487,0.078
		c-5.393,0.114-6.152,0.772-6.184,6.073c-0.112,18.828-0.019,37.657-0.059,56.486c-0.006,2.793,0.507,5.27,3.081,6.938
		c1.605,1.04,2.427,2.721,3.01,4.486c0.612,1.853,1.897,2.597,3.783,2.595c1.831-0.002,2.727-1.051,3.11-2.658
		c0.964-4.042,3.896-5.008,7.558-5.01c7.499-0.006,14.997-0.004,22.496,0c3.487,0.002,6.179,0.95,7.228,4.721
		c0.999,3.591,4.457,2.887,6.996,3.741c0.521,0.176,0.992,0.46,1.4,0.827c1.365,2.323,0.037,4.178-1.217,5.915
		c-7.107,9.839-13.501,20.16-20.404,30.136c-2.824,4.082-4.16,4.385-8.196,1.85c-18.851-11.846-38.221-22.844-56.886-34.914
		c-0.278-0.092-0.513-0.292-0.675-0.575c-0.11,0.34,0.039,0.55,0.477,0.642c5.528,4.465,9.048,10.604,13.431,15.99
		c10.177,12.505,20.199,25.14,30.12,37.851c1.109,1.422,2.569,2.71,1.914,4.833c-7.577,7.224-15.362,14.24-22.042,22.348
		c-1.219,3.459-3.416,3.413-5.677,1.257c-7.824-7.464-15.464-15.117-22.943-22.927c-2.765-2.887-0.803-5.67,0.614-8.21
		c4.019-7.206,3.863-14.193-0.251-21.322c-2.704-4.686-7.112-6.81-11.762-8.727c-4.089-1.864-8.2-1.753-12.327-0.135
		c-3.012,0.729-5.359,2.915-8.296,3.811c-2.517,0.434-3.925-1.34-5.442-2.808c-3.433-3.318-6.723-6.782-10.194-10.062
		c-4.252-3.212-7.903-7.07-11.688-10.793c-2.371-2.332-2.503-4.387-0.076-6.762c3.558-3.479,7.049-7.029,10.551-10.565
		c1.833-1.718,3.602-3.503,5.337-5.322c6.576-6.494,13.053-13.086,19.615-19.592c0.813-0.793,1.629-1.583,2.419-2.4
		c2.253-2.214,4.469-4.465,6.699-6.703c0.811-0.802,1.619-1.606,2.407-2.433c22.895-22.889,45.772-45.794,68.674-68.675
		c1.643-1.642,3.208-3.367,5.037-4.812c1.876-1.152,3.603-2.47,4.745-4.419C160.608,53.857,161.71,51.733,164.257,51.35z"/>
	<path fill-rule="evenodd" clip-rule="evenodd" fill="#7F7F7F" d="M81.714,206.203c15.734,3.762,19.734,21.285,13.327,30.971
		c-3.079,4.653-1.858,7.229,1.784,10.579c6.712,6.175,13.117,12.707,19.346,19.374c2.24,2.397,3.69,1.988,5.565,0.057
		c0.059,0.492,0.308,1.06,0.148,1.467c-1.325,3.362-0.095,8.272-2.979,10.083c-2.577,1.618-6.626-0.633-10.02-1.231
		c-7.813-1.376-15.604-2.917-23.461-3.97c-2.939-0.395-3.782-1.617-3.437-4.162c2.002-14.754-11.324-21.222-21.382-23.669
		c-6.639-1.615-19.685,6.763-22.298,14.125c-1.23,3.465-2.55,3.621-5.755,2.864c-9.816-2.318-19.715-4.321-29.645-6.096
		c-2.748-0.49-3.224-1.414-2.742-3.859c7.2-36.491,14.393-72.984,21.507-109.493C30.088,100.059,38.432,56.86,46.79,13.665
		c0.843-4.357,1.575-8.736,2.367-13.154c11.574,2.33,22.743,4.623,33.935,6.8c2.858,0.556,3.951,1.749,4.067,4.918
		c0.423,11.569,11.033,22.299,22.402,21.767c9.43-0.44,17.075-5.146,21.166-14.146c0.881-1.938,1.447-2.383,3.553-1.993
		c10.572,1.956,21.186,3.69,31.79,5.477c2.51,0.423,2.902,1.419,2.424,4.101c-1.422,7.968-3.71,15.792-4.236,23.916
		c-1.49,1.679-2.98,3.357-4.471,5.035c-1.665,1.273-4.712,1.021-4.641,4.209c-24.662,24.649-49.324,49.299-73.986,73.948
		c-3.469,1.589-7.165,1.217-10.805,1.196c-5.984-0.035-11.966,0.064-17.946,0.217c-5.051,0.128-5.675,0.742-5.768,5.881
		c-0.125,6.979-0.062,13.961-0.022,20.941c0.015,2.698-0.259,5.304-1.424,7.767c-3.453,3.563-6.724,7.33-10.422,10.617
		c-2.593,2.305-2.154,3.654,0.181,5.688c3.736,3.256,7.213,6.81,10.8,10.237c0.615,3.673,0.596,7.65,4.965,9.391
		c0.723,0.288,0.935,1.302,1.262,2.064c2.406,5.612,4.662,5.998,9.206,1.594c2.56-1.455,4.703-3.745,7.89-3.945
		C73.289,205.348,77.502,205.121,81.714,206.203z"/>
	<path fill-rule="evenodd" clip-rule="evenodd" fill="#139D1C" d="M143.779,244.835c-9.746-12.442-19.415-24.944-29.266-37.303
		c-5.7-7.15-10.934-14.687-17.325-21.275c-0.465-1.051,0.101-1.214,0.965-1.122c11.314,5.577,21.539,12.989,32.425,19.293
		c8.776,5.081,17.325,10.556,25.939,15.912c1.955,1.216,3.481,2.351,5.3-0.439c7.712-11.83,15.598-23.546,23.42-35.303
		c1.487-4.186,4.085-7.56,7.536-10.31c9.279-11.752,18.406-23.628,27.867-35.23c19.367-23.752,40.292-46.041,63.251-66.383
		c1.103-0.977,2.023-2.16,3.028-3.247c12.133-9.673,23.918-19.804,37.072-28.132c0.66,0.115,1.066,0.503,1.23,1.15
		c-9.656,11.951-20.855,22.562-30.215,34.771c-3.521,6.821-9.208,11.989-13.773,18.015c-4.682,6.177-9.527,12.228-14.061,18.518
		c-0.762,1.156-1.67,2.201-2.5,3.307c-5.318,6.579-9.601,13.908-14.854,20.534c-1.16,1.338-2.326,2.673-3.616,3.893
		c-24.743,36.701-45.597,75.558-64.054,115.737c-2.912,6.341-5.781,12.702-8.549,19.106c-1.271,2.939-2.302,3.068-4.33,0.482
		C160.862,266.083,152.291,255.482,143.779,244.835z"/>
	<path fill-rule="evenodd" clip-rule="evenodd" fill="#FD8000" d="M266.381,113.028c8.894-12.455,18.193-24.586,28.627-35.811
		c2.619,3.067,7.975,5.352,7.693,8.822c-0.244,3.036-4.863,5.853-7.781,8.514c-8.534,7.787-15.953,16.726-24.915,24.065
		C267.038,117.896,267.362,115.04,266.381,113.028z"/>
	<path fill-rule="evenodd" clip-rule="evenodd" fill="#F98002" d="M249.03,137.331c4.661-7.073,9.168-14.258,14.767-20.66
		c2.146,0.076,3.682,1.299,5.114,2.718c-2.078,4.934-7.002,7.214-10.325,11.004c-2.913,3.323-6.335,6.199-9.532,9.272
		C248.425,138.894,248.412,138.115,249.03,137.331z"/>
	<path fill-rule="evenodd" clip-rule="evenodd" fill="#F9F5EE" d="M268.911,119.389c-2.366,0.336-3.816-1.05-5.113-2.72
		c0.859-1.212,1.72-2.425,2.582-3.64c2.633,0.939,2.29,3.81,3.626,5.59C269.641,118.875,269.276,119.132,268.911,119.389z"/>
	<path fill-rule="evenodd" clip-rule="evenodd" fill="#92BB8A" d="M327.053,39.779c0.035-0.161,0.029-0.35,0.113-0.48
		c1.146-1.781,2.209-3.703,4.706-3.717c0.224-0.001,0.737,0.954,0.636,1.08c-1.389,1.728-2.471,3.951-5.252,3.715
		c-0.322-0.039-0.459-0.14-0.412-0.305C326.899,39.878,326.967,39.779,327.053,39.779z"/>
	<path fill-rule="evenodd" clip-rule="evenodd" fill="#C47B05" d="M249.03,137.331c0.009,0.777,0.017,1.555,0.024,2.333
		c-0.597,1.161-1.421,1.965-2.851,1.819C246.713,139.805,247.609,138.389,249.03,137.331z"/>
	<path fill-rule="evenodd" clip-rule="evenodd" fill="#268C16" d="M325.223,42.446c-0.41-0.384-0.82-0.768-1.23-1.15
		c0.736-1.077,1.893-1.308,3.061-1.516c0-0.001-0.166,0.389-0.166,0.389l0.369,0.208C327.088,41.567,326.615,42.457,325.223,42.446z
		"/>
	<path fill-rule="evenodd" clip-rule="evenodd" fill="#FE9934" d="M180.991,36.337l-0.385,0.094l-0.396-0.027
		c0.63-0.653,1.259-1.306,1.889-1.959c0.967,0.651,1.935,1.303,2.902,1.955C183.645,37.614,182.313,37.311,180.991,36.337z"/>
	<path fill-rule="evenodd" clip-rule="evenodd" fill="#FEFDFD" d="M184.991,183.255c-1.666,0.01-3.334-0.038-4.995,0.042
		c-3.01,0.145-4.964-0.879-4.586-4.246c0.403-3.59-1.534-4.037-4.495-3.987c-8.325,0.139-16.655,0.14-24.979,0.001
		c-3.038-0.051-4.93,0.66-4.534,4.102c0.392,3.406-1.279,4.405-4.411,4.151c-2.867-0.232-6.459,0.862-5.927-4.171
		c0.167-1.574-0.448-3.711-1.753-3.759c-5.511-0.201-4.194-4.084-4.201-7.172c-0.046-19.817,0.085-39.637-0.11-59.453
		c-0.042-4.24,1.405-5.394,5.464-5.357c18.484,0.169,36.972,0.219,55.455-0.024c4.821-0.063,5.86,1.785,5.833,6.173
		c-0.129,21.146,0.016,42.295,0.063,63.442C189.428,176.342,187.339,179.885,184.991,183.255z"/>
	<path fill-rule="evenodd" clip-rule="evenodd" fill="#FBFBFB" d="M45.194,170.544c-0.041-10.495,0.019-20.992-0.179-31.484
		c-0.065-3.495,1.209-4.711,4.656-4.656c10.493,0.166,20.99,0.107,31.487,0.138c-0.693,0.748-1.388,1.495-2.082,2.243
		c-3.346,1.214-6.83,0.979-10.292,0.981c-1.487,0.002-2.981-0.082-4.46,0.057c-1.422,0.134-3.517-0.103-3.572,1.783
		c-0.065,2.204,2.173,2.004,3.737,2.243c2.708,0.413,5.674-0.635,8.087,1.439c-0.808,0.761-1.617,1.521-2.425,2.283
		c-3.61,1.728-7.478,1.122-11.263,1.229c-6.631,0.189-7.412,1.009-7.439,7.53c-0.016,3.784,0.571,7.656-1.302,11.232
		C48.723,167.448,47.188,169.225,45.194,170.544z"/>
	<path fill-rule="evenodd" clip-rule="evenodd" fill="#80807F" d="M50.147,165.563c-0.169-5.297-0.489-10.595-0.454-15.891
		c0.023-3.448,2.853-4.297,5.548-4.364c4.964-0.124,9.938,0.152,14.909,0.262C63.758,152.511,57.111,159.195,50.147,165.563z"/>
	<path fill-rule="evenodd" clip-rule="evenodd" fill="#898887" d="M72.576,143.288c-3.621-0.075-7.244-0.108-10.863-0.241
		c-2.239-0.082-3.965-1.127-3.766-3.555c0.169-2.064,1.708-2.951,3.845-2.908c5.761,0.118,11.523,0.139,17.285,0.199
		C76.909,138.952,74.743,141.12,72.576,143.288z"/>
	<path fill-rule="evenodd" clip-rule="evenodd" fill="#FAF9F8" d="M61.185,210.136c0.708,3.438-0.999,4.524-4.108,4.163
		c-2.498-0.291-6.111,1.282-6.013-3.502c0.052-2.528-0.723-3.938-3.546-4.947c-4.602-1.647-2.188-5.596-1.763-8.761
		c3.914,3.743,7.833,7.486,11.745,11.237C58.54,209.324,59.354,210.757,61.185,210.136z"/>
	<path fill-rule="evenodd" clip-rule="evenodd" fill="#FEF7F0" d="M212.347,63.365c3.015,1.265,5.267,3.341,6.176,6.525
		c0.272,0.954,0.11,2.66-1.66,2.128c-3.36-1.011-5.554-3.457-6.63-6.711C209.763,63.888,211.016,63.383,212.347,63.365z"/>
	<path fill-rule="evenodd" clip-rule="evenodd" fill="#FEF9F4" d="M199.088,51.048c0.117,1.48-0.13,2.318-1.443,2.487
		c-2.035,0.263-6.638-4.305-6.692-6.607c-0.03-1.269,0.51-1.941,1.737-1.716C196.178,45.851,197.869,48.423,199.088,51.048z"/>
	<path fill-rule="evenodd" clip-rule="evenodd" fill="#FEFAF6" d="M242.956,92.935c3.009,0.98,5.101,3.217,5.961,6.392
		c0.364,1.344-0.93,2.298-2.172,1.787c-2.981-1.226-5.375-3.22-5.873-6.66C240.708,93.316,241.444,92.622,242.956,92.935z"/>
	<path fill-rule="evenodd" clip-rule="evenodd" fill="#FEF9F4" d="M238.121,89.077c0.063,1.457-0.085,2.316-1.468,2.409
		c-2.024,0.135-6.65-4.501-6.598-6.631c0.031-1.278,0.762-1.897,1.859-1.667C235.32,83.902,237.042,86.397,238.121,89.077z"/>
	<path fill-rule="evenodd" clip-rule="evenodd" fill="#FEFAF6" d="M180.991,36.337c1.337,0.021,2.674,0.041,4.01,0.063
		c0.453,0.479,0.93,0.94,1.357,1.441c1.529,1.796,4.816,3.856,2.351,6.021c-2.276,2-4.163-1.471-5.896-3.048
		C181.545,39.66,180.989,38.078,180.991,36.337z"/>
	<path fill-rule="evenodd" clip-rule="evenodd" fill="#FEFAF6" d="M226.555,81.047c-3.244-1.131-5.42-3.209-6.513-6.314
		c-0.161-0.456,0.211-1.499,0.61-1.688c2.271-1.07,3.697,0.57,4.918,2.011c1.281,1.51,3.532,2.821,2.144,5.407
		C227.542,80.785,226.925,80.871,226.555,81.047z"/>
	<path fill-rule="evenodd" clip-rule="evenodd" fill="#FEFCF9" d="M208.892,60.479c0.114,1.527-0.653,2.244-1.729,2.047
		c-3.383-0.62-5.319-2.979-6.354-6.063c-0.423-1.262,0.169-2.493,1.745-2.048C205.78,55.325,207.616,57.8,208.892,60.479z"/>
	<path fill-rule="evenodd" clip-rule="evenodd" fill="#E88A1A" d="M184.991,183.255c0.309-0.382,0.914-0.792,0.881-1.142
		c-0.444-4.647,2.142-7.268,5.942-9.117c0.32,0.43,0.641,0.86,0.96,1.291c-2.086,3.749-4.53,7.236-7.537,10.311
		C185.155,184.149,185.073,183.702,184.991,183.255z"/>
	<path fill-rule="evenodd" clip-rule="evenodd" fill="#F3ECE4" d="M155.145,60.594c-0.402-1.083-2.352-1.781-1.199-3.201
		c1.55-1.91,3.848-0.874,5.84-1.007C159.061,58.694,156.98,59.509,155.145,60.594z"/>
	<path fill-rule="evenodd" clip-rule="evenodd" fill="#D7C9BB" d="M81.714,206.203c-4.213-0.004-8.427-0.008-12.64-0.012
		C73.291,203.948,77.504,203.688,81.714,206.203z"/>
	<path fill-rule="evenodd" clip-rule="evenodd" fill="#9D7708" d="M98.153,185.135c-0.322,0.374-0.644,0.748-0.965,1.122
		c-1.039-0.599-2.293-1.615-1.23-2.585C97.167,182.569,97.938,183.815,98.153,185.135z"/>
	<path fill-rule="evenodd" clip-rule="evenodd" fill="#F7F7F7" d="M145.342,59.446c-2.107-0.7-5.368-0.443-5.694-3.415
		c-0.204-1.855,2.378-1.91,3.956-1.642c2.195,0.374,5.145,0.468,5.563,3.108C149.522,59.749,147.031,59.262,145.342,59.446z"/>
	<path fill-rule="evenodd" clip-rule="evenodd" fill="#F8F8F8" d="M131.49,57.505c-2.19-0.898-5.488-0.339-6.041-3.393
		c-0.325-1.797,1.977-1.916,3.422-1.747c2.399,0.279,5.456,0.184,6.021,3.186C135.285,57.636,132.884,57.104,131.49,57.505z"/>
	<path fill-rule="evenodd" clip-rule="evenodd" fill="#FAFAFA" d="M100.719,47.271c2.135,0.544,5.281,0.337,5.936,3.042
		c0.504,2.086-2.166,2.251-3.595,1.933c-2.212-0.493-5.448-0.08-5.891-3.197C96.898,47.143,99.091,47.365,100.719,47.271z"/>
	<path fill-rule="evenodd" clip-rule="evenodd" fill="#F4F4F4" d="M76.598,48.17c-2.045-1.203-5.957-0.214-5.846-3.45
		c0.087-2.53,3.216-1.429,5.008-1.364c1.95,0.07,4.446,0.57,4.582,2.829C80.465,48.219,78.199,48.141,76.598,48.17z"/>
	<path fill-rule="evenodd" clip-rule="evenodd" fill="#F9F9F9" d="M47.674,38.962c2.763,0.399,5.648,0.103,6.21,2.974
		c0.411,2.102-1.991,2.114-3.246,1.887c-2.34-0.424-5.715-0.153-6.252-3.057C43.966,38.495,46.671,39.22,47.674,38.962z"/>
	<path fill-rule="evenodd" clip-rule="evenodd" fill="#FAFAFA" d="M117.065,55.402c-1.85-1.015-5.283-0.175-5.723-3.36
		c-0.256-1.85,2.041-1.903,3.458-1.658c2.319,0.4,5.464,0.146,5.971,3.174C121.082,55.41,118.769,55.216,117.065,55.402z"/>
	<path fill-rule="evenodd" clip-rule="evenodd" fill="#F8F8F8" d="M87.349,45.264c2.381,0.214,5.328,0.219,6.184,2.929
		c0.521,1.652-1.914,2.332-3.202,1.981c-2.233-0.606-5.532,0.065-6.247-2.979C83.582,45.052,85.806,45.354,87.349,45.264z"/>
	<path fill-rule="evenodd" clip-rule="evenodd" fill="#F6F6F6" d="M61.506,41.113c2.416,0.39,5.239,0.102,5.461,3.232
		c0.11,1.544-1.932,1.939-3.079,1.604c-2.361-0.691-6.073-0.002-6.354-3.419C57.376,40.6,60.157,41.384,61.506,41.113z"/>
	<path fill-rule="evenodd" clip-rule="evenodd" fill="#FE8000" d="M158.161,114.208c7.166,0,14.331-0.048,21.496,0.015
		c5.973,0.052,7.701,1.794,7.721,7.645c0.027,7.998,0.029,15.997-0.001,23.995c-0.021,5.381-1.982,7.547-7.37,7.583
		c-14.663,0.098-29.327,0.071-43.99,0.008c-4.335-0.019-6.624-1.838-6.438-6.747c0.328-8.652,0.325-17.335,0.002-25.987
		c-0.188-5.027,2.301-6.488,6.585-6.503C143.498,114.19,150.83,114.209,158.161,114.208z"/>
	<path fill-rule="evenodd" clip-rule="evenodd" fill="#FE8000" d="M188.059,166.343c-0.535,2.443-1.771,4.235-3.962,5.346
		c-2.144,1.085-4.036,0.805-5.568-1.041c-1.837-2.212-3.706-1.682-6.453-1.565c-9.852,0.416-19.863,1.717-29.621-0.7
		c-2.055-0.509-2.18,0.631-3.011,1.423c-3.297,3.145-6.646,3.443-9.091,0.654c-2.441-2.785-2.634-5.869,0.319-8.231
		c2.975-2.38,6.224-2.438,8.866,0.893c0.67,0.844,0.856,1.812,2.597,1.462c10.897-2.188,21.848-2.467,32.735,0.123
		c2.233,0.531,2.233-1.549,3.183-2.389c2.254-1.995,4.717-1.486,6.972-0.738C187.035,162.244,187.561,164.467,188.059,166.343z"/>
	<path fill-rule="evenodd" clip-rule="evenodd" fill="#FE860C" d="M158.125,105.666c5.472,0,10.944,0.058,16.415-0.025
		c2.451-0.037,4.796,0.777,4.802,3.188c0.008,2.426-2.373,3.219-4.795,3.209c-10.777-0.04-21.555-0.025-32.333-0.014
		c-2.416,0.003-4.488-0.735-4.342-3.476c0.129-2.432,2.107-2.945,4.336-2.91C147.513,105.723,152.82,105.666,158.125,105.666z"/>
</g>
</svg>
