<?xml version="1.0" encoding="utf-8"?>
<!-- Generator: Adobe Illustrator 16.0.0, SVG Export Plug-In . SVG Version: 6.00 Build 0)  -->
<!DOCTYPE svg PUBLIC "-//W3C//DTD SVG 1.1//EN" "http://www.w3.org/Graphics/SVG/1.1/DTD/svg11.dtd">
<svg version="1.1" id="Layer_1" xmlns="http://www.w3.org/2000/svg" xmlns:xlink="http://www.w3.org/1999/xlink" x="0px" y="0px"
	 width="183.842px" height="174.232px" viewBox="0 0 183.842 174.232" enable-background="new 0 0 183.842 174.232"
	 xml:space="preserve">
<g>
	<path fill-rule="evenodd" clip-rule="evenodd" fill="#FE7F00" d="M92.557,174.229c-27.489,0-54.978,0.011-82.467-0.007
		c-8.391-0.005-9.511-1.108-9.521-9.482c-0.026-22.317-0.046-44.636,0.016-66.952c0.017-5.969-1.163-11.894-0.218-17.909
		c1.014-6.458,4.304-11.382,9.216-15.435c23.749-19.597,47.484-39.21,71.24-58.797c9.067-7.478,13.961-7.6,22.767,0.06
		c19.846,17.262,40.316,33.766,60.626,50.465c4.755,3.911,9.488,7.853,14.355,11.621c3.575,2.768,5.27,6.286,5.269,10.746
		c-0.009,29.487,0.021,58.976-0.024,88.464c-0.009,5.438-1.982,7.209-7.792,7.215C148.201,174.243,120.379,174.229,92.557,174.229z"
		/>
	<path fill-rule="evenodd" clip-rule="evenodd" fill="#FEFEFE" d="M46.156,95.442c0-4.191-0.001-7.646,0-11.101
		c0.001-5.332-0.184-10.672,0.048-15.995c0.394-9.057,2.517-11.019,11.556-11.031c23.163-0.03,46.326-0.037,69.489,0.004
		c8.576,0.016,10.577,2.087,10.591,10.634c0.016,8.958,0.004,17.915,0.004,27.574c9.479-4.484,18.428-8.719,27.379-12.949
		c1.048-0.495,2.094-0.999,3.166-1.435c1.136-0.461,2.362-1.814,3.483-0.168c1.345,1.972-0.688,2.679-1.717,3.44
		c-5.637,4.169-12.189,6.698-18.386,9.835c-16.278,8.241-32.748,16.103-49.071,24.255c-7.073,3.532-13.739,3.439-20.945-0.038
		C60.229,108.076,38.783,97.529,17.55,86.558c-2.224-1.149-6.692-1.997-5.04-5.3c1.646-3.291,4.589,0.318,6.633,1.242
		C28.026,86.513,36.743,90.89,46.156,95.442z"/>
	<path fill-rule="evenodd" clip-rule="evenodd" fill="#FDFDFC" d="M13.812,166.023c-1.234,0.021-1.448-1.117-1.818-1.95
		c-0.784-1.766,0.64-2.303,1.81-2.921c4.843-2.555,9.643-5.2,14.547-7.633C42.61,146.448,56.9,139.44,71.219,132.49
		c1.181-0.573,2.569-2.491,4.003,0.231c1.438,2.731-0.485,3.133-2.075,3.923c-19.143,9.509-38.291,19.007-57.438,28.505
		C15.116,165.443,14.506,165.704,13.812,166.023z"/>
	<path fill-rule="evenodd" clip-rule="evenodd" fill="#FEFDFD" d="M111.599,131.84c0.694,0.333,1.443,0.683,2.186,1.049
		c18.687,9.201,37.383,18.383,56.037,27.651c1.34,0.666,3.899,0.807,2.35,3.751c-1.42,2.697-2.89,1.225-4.405,0.471
		c-18.526-9.2-37.053-18.399-55.538-27.682c-1.117-0.561-3.262-0.59-2.75-2.752C109.725,133.283,110.048,131.997,111.599,131.84z"/>
	<path fill-rule="evenodd" clip-rule="evenodd" fill="#FE8000" d="M123.749,71.918c-22.122,0-44.245,0-66.368,0
		c-0.004-0.586-0.009-1.174-0.013-1.762c22.123-0.147,44.247-0.037,66.37-0.072C123.742,70.695,123.745,71.308,123.749,71.918z"/>
	<path fill-rule="evenodd" clip-rule="evenodd" fill="#FE8000" d="M124.184,85.07c-21.864,0-43.727,0-65.59,0
		c-0.001-0.176-0.002-0.351-0.003-0.525c21.857,0,43.714,0,65.572,0C124.169,84.72,124.177,84.895,124.184,85.07z"/>
	<path fill-rule="evenodd" clip-rule="evenodd" fill="#FE8001" d="M121.903,96.038c-20.853,0-41.705,0-62.557,0
		c0-0.178,0-0.355,0-0.533c20.923,0,41.847,0,62.771,0C122.046,95.683,121.975,95.86,121.903,96.038z"/>
</g>
</svg>
