<?xml version="1.0" encoding="utf-8"?>
<!-- Generator: Adobe Illustrator 16.0.0, SVG Export Plug-In . SVG Version: 6.00 Build 0)  -->
<!DOCTYPE svg PUBLIC "-//W3C//DTD SVG 1.1//EN" "http://www.w3.org/Graphics/SVG/1.1/DTD/svg11.dtd">
<svg version="1.1" id="Layer_1" xmlns="http://www.w3.org/2000/svg" xmlns:xlink="http://www.w3.org/1999/xlink" x="0px" y="0px"
	 width="110.421px" height="110.705px" viewBox="0 0 110.421 110.705" enable-background="new 0 0 110.421 110.705"
	 xml:space="preserve">
<g>
	<path fill-rule="evenodd" clip-rule="evenodd" fill="#FE8000" d="M55.126,0.379c18.512-2.19,31.623,6.857,43.059,19.638
		c8.404,9.392,11.926,20.268,12.211,32.895c0.268,11.876-1.502,22.969-8.381,32.613c-8.852,12.41-20.651,21.98-35.783,24.265
		c-18.193,2.747-35.545-0.31-49.566-14.41C9.191,87.861,3.311,79.797,0.845,69.407c-1.364-5.746-0.153-11.564-0.67-17.318
		C-1.5,33.435,9.052,21.136,22.059,10.272C31.654,2.257,42.829-1.217,55.126,0.379z"/>
	<path fill-rule="evenodd" clip-rule="evenodd" fill="#FEFEFE" d="M53.839,103.198c-24.504-0.962-46.996-21.634-46.64-48.819
		c0.338-25.845,22.013-47.433,48.4-47.101c26.266,0.331,47.563,21.507,47.412,47.946C102.862,81.213,81.849,103.127,53.839,103.198z
		"/>
	<path fill-rule="evenodd" clip-rule="evenodd" fill="#FE7F00" d="M12.196,54.977c0.357-24.166,19.872-43.124,43.338-42.558
		c25.272,0.61,42.65,18.829,42.229,42.898c-0.443,25.37-17.181,41.953-42.535,42.455C32.234,98.228,13.366,81.596,12.196,54.977z"/>
	<path fill-rule="evenodd" clip-rule="evenodd" fill="#FEFEFE" d="M57.191,36.55c0.005,3.499,0.217,7.015-0.052,10.492
		c-0.297,3.848,0.898,5.493,5.015,5.23c4.978-0.317,9.993,0.005,14.989-0.108c2.449-0.056,4.811,0.788,4.744,3.111
		c-0.066,2.293-2.467,3.035-4.913,2.965c-4.994-0.144-9.995-0.08-14.993-0.02c-1.43,0.018-2.908-0.389-4.219,0.885
		c-2.188,2.123-4.055,1.083-5.983-0.741c-2.134-2.02-2.315-4.445-0.444-6.074c2.152-1.873,1.838-3.929,1.848-6.11
		c0.033-7.331,0.028-14.662,0-21.992c-0.006-1.539-0.058-3.566,1.604-3.706c1.968-0.165,2.301,2.024,2.352,3.575
		C57.276,28.217,57.187,32.385,57.191,36.55z"/>
</g>
</svg>
