<?xml version="1.0" standalone="no"?>
<!DOCTYPE svg PUBLIC "-//W3C//DTD SVG 20010904//EN"
 "http://www.w3.org/TR/2001/REC-SVG-20010904/DTD/svg10.dtd">
<svg version="1.0" xmlns="http://www.w3.org/2000/svg"
 width="260.000000pt" height="260.000000pt" viewBox="0 0 260.000000 260.000000"
 preserveAspectRatio="xMidYMid meet">
<metadata>
Created by potrace 1.11, written by Peter Selinger 2001-2013
</metadata>
<g transform="translate(0.000000,260.000000) scale(0.100000,-0.100000)"
fill="#000000" stroke="none">
<path d="M2260 1992 c-52 -14 -96 -30 -98 -34 -2 -4 -10 -8 -17 -8 -23 0 -25
-16 -9 -64 l16 -46 110 0 c134 0 144 6 134 83 -10 76 -17 97 -30 96 -6 0 -54
-13 -106 -27z"/>
<path d="M0 1918 c0 -42 63 -473 70 -478 4 -3 22 -113 40 -245 18 -132 36
-242 40 -245 4 -3 12 -40 19 -84 6 -43 13 -81 16 -85 2 -4 61 -18 130 -32 69
-13 125 -27 125 -31 0 -5 8 -8 19 -8 27 0 31 25 31 223 0 111 4 177 10 177 6
0 10 71 10 193 0 105 3 229 7 275 6 78 7 82 29 82 22 0 24 4 24 51 l0 52 -97
-7 c-54 -4 -102 -11 -107 -16 -5 -5 -10 -172 -13 -372 -4 -392 -7 -428 -28
-428 -18 0 -21 11 -41 175 -10 77 -20 142 -24 145 -3 3 -12 48 -18 100 -34
268 -56 416 -62 420 -4 3 -11 39 -16 80 l-9 75 -77 3 c-75 3 -78 2 -78 -20z"/>
<path d="M1890 1897 c-25 -6 -47 -14 -50 -18 -3 -3 -14 -8 -25 -11 -16 -3 -20
-11 -19 -38 3 -126 49 -826 54 -830 4 -3 10 -61 14 -130 4 -69 9 -126 10 -128
2 -1 94 1 205 4 l203 7 -7 71 c-4 39 -9 73 -11 75 -2 2 -62 -1 -134 -5 -73 -5
-133 -7 -136 -5 -2 2 -4 91 -4 196 0 105 -3 334 -7 508 -7 359 3 327 -93 304z"/>
<path d="M830 1801 c0 -5 -38 -12 -85 -16 l-85 -7 0 -59 0 -59 135 0 135 0 0
75 0 75 -50 0 c-27 0 -50 -4 -50 -9z"/>
<path d="M1220 1775 c-118 -22 -105 11 -118 -288 -7 -144 -12 -290 -12 -325 0
-47 -4 -64 -15 -69 -9 -3 -19 -2 -22 1 -6 6 -51 421 -53 479 0 15 -10 17 -74
17 -41 0 -77 -3 -79 -7 -6 -13 26 -388 34 -393 4 -3 10 -60 14 -128 4 -67 12
-125 18 -129 13 -8 279 -7 304 1 18 6 20 27 31 264 7 141 16 305 19 365 l6
107 38 0 c45 0 48 4 56 70 l6 50 -44 -1 c-24 -1 -73 -7 -109 -14z"/>
<path d="M2080 1384 l0 -387 68 6 c37 4 77 7 90 7 21 0 22 2 17 73 -3 39 -8
91 -10 115 l-5 42 60 0 c47 0 60 -3 64 -17 2 -10 15 -94 27 -188 12 -93 25
-172 29 -175 3 -3 12 -50 19 -105 22 -175 22 -175 43 -175 11 0 42 10 69 21
49 21 49 22 49 68 0 25 -12 118 -25 206 -14 88 -28 180 -32 205 -3 25 -9 47
-13 50 -4 3 -15 57 -24 120 -10 63 -25 162 -33 220 -9 58 -19 107 -22 110 -4
3 -12 39 -19 79 -7 41 -14 76 -15 78 -3 2 -308 33 -329 33 -5 0 -8 -174 -8
-386z m238 134 c19 -132 20 -128 -38 -128 l-50 0 0 105 0 105 38 0 39 0 11
-82z"/>
<path d="M1618 1642 c-1 -4 -59 -15 -128 -25 -68 -10 -125 -19 -126 -20 -1 -1
-10 -171 -20 -377 l-19 -375 -42 -3 -43 -3 0 -55 c0 -63 -14 -59 147 -43 l113
12 0 168 0 169 39 0 c38 0 38 -1 44 -43 3 -24 9 -92 13 -150 4 -59 11 -107 15
-107 5 0 9 -23 9 -51 l0 -52 73 8 c39 3 73 8 74 9 6 6 -41 621 -48 626 -3 3
-9 59 -13 125 -4 66 -9 137 -12 158 -5 34 -8 37 -39 37 -18 0 -35 -3 -37 -8z
m-48 -262 c15 -122 12 -132 -37 -128 l-38 3 -3 113 -3 112 35 0 34 0 12 -100z"/>
<path d="M610 1181 l0 -398 92 -6 c51 -3 94 -5 96 -3 1 2 -6 167 -18 366 -11
200 -20 380 -20 401 l0 39 -75 0 -75 0 0 -399z"/>
</g>
</svg>
